<?xml version="1.0" standalone="no"?>
<!DOCTYPE svg PUBLIC "-//W3C//DTD SVG 20010904//EN"
 "http://www.w3.org/TR/2001/REC-SVG-20010904/DTD/svg10.dtd">
<svg version="1.0" xmlns="http://www.w3.org/2000/svg"
 width="3600.000000pt" height="1200.000000pt" viewBox="0 0 3600.000000 1200.000000"
 preserveAspectRatio="xMidYMid meet">
<metadata>
Created by potrace 1.16, written by Peter Selinger 2001-2019
</metadata>
<g transform="translate(0.000000,1200.000000) scale(0.100000,-0.100000)"
fill="#000000" stroke="none">
<path d="M5397 11821 c-4 -101 -7 -974 -7 -1940 0 -1607 -12 -3350 -26 -3728
-4 -84 -10 -153 -15 -153 -5 0 -9 60 -10 133 -2 242 -13 275 -22 62 -4 -104
-10 -191 -12 -194 -3 -2 -8 -1 -12 3 -4 4 -12 604 -16 1334 -9 1392 -15 1767
-27 1717 -5 -19 -9 14 -11 95 -2 69 -6 -161 -10 -510 -8 -822 -19 -1356 -29
-1400 -6 -26 -9 -8 -11 70 l-2 105 -8 -105 c-4 -58 -10 -376 -15 -707 -7 -560
-8 -603 -24 -603 -19 0 -21 80 -38 1635 l-7 590 -9 -325 c-5 -179 -11 -597
-15 -930 l-6 -605 -8 325 c-4 179 -12 462 -17 630 -5 168 -13 850 -17 1515 -4
677 -11 1151 -14 1075 -4 -74 -11 -984 -14 -2022 -4 -1070 -11 -1888 -16
-1888 -5 0 -10 169 -10 378 -1 207 -4 440 -8 517 -5 124 -7 101 -13 -200 -5
-187 -8 -420 -8 -517 0 -171 -1 -178 -20 -178 -20 0 -20 7 -20 328 0 393 -19
2461 -28 3112 -8 508 -9 426 -28 -2487 -4 -524 -11 -953 -15 -953 -5 0 -9 339
-9 753 0 413 -3 838 -8 942 l-7 190 -7 -170 c-21 -523 -29 -747 -37 -1090 -5
-209 -10 -435 -10 -502 -1 -101 -4 -123 -16 -123 -18 0 -22 189 -30 1195 -3
374 -9 683 -14 688 -12 12 -21 -444 -23 -1203 -2 -636 -2 -658 -8 -315 -4 204
-12 534 -18 735 -7 201 -14 575 -18 833 -4 258 -10 467 -15 467 -5 0 -10 -208
-10 -472 -1 -260 -5 -770 -8 -1133 -7 -610 -7 -630 -10 -265 -3 469 -17 621
-21 240 -2 -151 -6 -232 -10 -200 -5 42 -7 24 -9 -80 -2 -74 -8 -216 -15 -315
-10 -163 -12 -92 -19 775 -4 525 -7 1151 -7 1391 0 240 -3 546 -7 680 -7 227
-8 236 -14 129 -4 -63 -7 -583 -8 -1155 -1 -1040 -9 -1652 -21 -1605 -8 31
-20 -99 -20 -215 0 -94 -9 -175 -20 -175 -4 0 -10 548 -14 1218 -8 1315 -16
1627 -28 1153 -5 -151 -9 -479 -10 -730 -1 -251 -4 -422 -8 -381 -7 86 -9 43
-19 -615 l-6 -390 -8 570 c-5 314 -12 649 -16 745 -8 171 -8 167 -11 -160 -3
-304 -4 -320 -10 -170 -4 91 -9 197 -11 235 -4 74 -15 -406 -24 -1072 -5 -323
-9 -403 -19 -403 -11 0 -15 117 -21 608 -4 334 -10 738 -13 897 l-7 290 -7
-365 c-5 -201 -11 -572 -14 -825 -4 -253 -10 -451 -15 -440 -4 11 -8 223 -8
470 -1 248 -5 444 -10 437 -11 -19 -21 494 -22 1247 -1 361 -4 690 -8 731 -8
95 -21 -1353 -21 -2317 l0 -733 -34 0 -33 0 -7 61 c-3 34 -7 251 -8 483 -1
232 -4 396 -8 366 -6 -52 -7 -51 -9 30 -1 52 -5 80 -10 71 -5 -8 -11 154 -15
385 -4 220 -11 505 -17 634 -5 129 -9 350 -10 490 0 140 -4 264 -9 275 -5 12
-9 -151 -11 -390 -1 -225 -5 -534 -8 -685 l-7 -275 -3 440 c-2 242 -6 503 -10
580 l-6 140 -7 -195 c-4 -107 -10 -619 -13 -1137 -3 -519 -8 -1017 -12 -1108
-5 -146 -8 -165 -23 -165 -16 0 -18 50 -25 708 -4 389 -11 824 -14 967 l-6
260 -8 -175 c-4 -96 -11 -413 -17 -705 -13 -735 -26 -805 -28 -150 -1 286 -5
734 -10 995 -6 417 -8 452 -13 285 -4 -104 -7 -386 -8 -625 0 -239 -4 -688 -8
-997 l-6 -563 -43 0 -42 0 -6 63 c-13 134 -26 438 -26 591 0 206 -17 517 -34
626 l-14 85 -3 -225 c-2 -165 -4 -200 -8 -131 -5 76 -8 91 -18 80 -9 -11 -14
-127 -19 -415 -4 -219 -11 -388 -15 -374 -4 14 -7 -48 -8 -137 -1 -90 -5 -163
-10 -163 -9 0 -17 246 -28 905 l-8 430 -7 -315 c-18 -758 -22 -746 -36 115 -7
446 -13 889 -13 985 -1 96 -5 189 -9 205 -4 17 -9 -152 -10 -375 -3 -414 -13
-833 -20 -770 -9 86 -17 -236 -19 -687 l-1 -493 -59 0 -59 0 -6 153 c-3 83 -9
361 -12 617 -4 256 -10 537 -14 625 l-7 160 -1 -148 c-1 -81 -6 -223 -12 -315
-5 -92 -12 -333 -17 -537 -7 -361 -19 -428 -23 -130 -1 77 -5 169 -9 205 -6
59 -7 52 -14 -74 -4 -77 -8 -205 -9 -285 -1 -101 -3 -130 -8 -96 -5 39 -7 25
-8 -62 -2 -87 -5 -113 -15 -113 -15 0 -15 -2 -37 1145 -5 275 -13 565 -17 645
l-7 145 -8 -95 c-4 -52 -13 -138 -18 -190 -6 -52 -11 -203 -12 -335 l-1 -240
-9 295 c-12 451 -23 465 -32 45 -4 -198 -11 -488 -16 -645 -5 -157 -10 -394
-10 -527 l0 -243 -35 0 -35 0 -1 138 c-2 221 -15 605 -17 508 -1 -49 -5 -87
-8 -83 -3 3 -9 39 -14 79 -7 72 -7 71 -9 -43 0 -64 -4 -224 -8 -357 -6 -242
-6 -242 -29 -242 -21 0 -22 4 -28 138 -4 75 -10 196 -15 267 l-8 130 -2 -120
c-1 -66 -6 -127 -11 -135 -8 -12 -10 -11 -10 8 0 12 -4 22 -10 22 -6 0 -11
-37 -11 -87 l-2 -88 -8 115 c-15 238 -29 706 -29 1014 0 176 -2 317 -5 314 -3
-3 -10 -124 -15 -269 -11 -293 -38 -780 -43 -786 -9 -8 -17 242 -18 532 -2
340 -10 302 -25 -110 -4 -126 -11 -219 -14 -205 l-7 25 -6 -25 c-8 -33 -27
-395 -28 -535 -1 -60 -3 -101 -5 -90 -17 123 -28 327 -38 725 -9 348 -14 451
-19 385 -4 -49 -12 -103 -17 -120 -5 -16 -12 -271 -16 -566 l-7 -535 -43 -3
c-36 -2 -44 1 -44 16 -1 17 -1 17 -14 1 -18 -25 -42 -22 -50 5 -3 12 -6 126
-7 252 -1 127 -4 302 -8 390 l-6 160 -12 -175 c-7 -96 -16 -263 -20 -370 -3
-111 -9 -184 -14 -170 -5 17 -7 4 -8 -42 -1 -38 -5 -68 -11 -68 -6 0 -10 32
-10 77 0 42 -4 115 -10 162 -5 47 -13 167 -17 266 l-7 180 -7 -100 c-4 -55
-10 -176 -13 -270 -9 -224 -16 -315 -26 -315 -19 0 -50 670 -59 1285 -2 89 -5
114 -12 96 -5 -13 -12 -212 -16 -442 -3 -230 -10 -416 -15 -413 -4 3 -9 17
-10 32 -1 15 -5 -25 -9 -88 -4 -63 -11 -146 -16 -185 l-8 -70 -6 115 -5 115
-2 -139 c-2 -133 -3 -138 -22 -133 -18 5 -20 0 -21 -51 l-2 -57 -12 60 -13 60
-2 -65 c-1 -36 -6 -78 -10 -95 -7 -27 -8 -25 -10 20 -1 28 -6 95 -10 150 -6
95 -7 97 -10 35 -3 -59 -4 -56 -10 40 -4 58 -11 146 -16 195 l-9 90 -7 -90
c-4 -49 -10 -129 -14 -177 -3 -49 -10 -88 -15 -88 -5 0 -9 -29 -9 -65 0 -37
-4 -65 -10 -65 -5 0 -10 -15 -10 -33 0 -31 -3 -34 -29 -35 -20 0 -31 5 -34 16
-4 15 -5 15 -6 0 0 -10 -5 -18 -10 -18 -5 0 -11 30 -14 68 -8 91 -24 192 -31
199 -3 4 -6 -19 -6 -50 0 -32 -4 -57 -9 -57 -6 0 -12 -21 -14 -47 -2 -27 -4
27 -5 119 -2 149 -10 203 -25 166 -3 -7 -6 18 -6 56 -1 38 -3 67 -6 64 -6 -6
-25 -202 -35 -348 l-6 -105 -2 88 c-1 50 -6 87 -12 87 -6 0 -10 31 -11 73 -1
87 -17 65 -19 -28 -1 -33 -4 -52 -7 -42 -2 9 -9 15 -14 12 -5 -4 -9 29 -9 79
0 47 -4 88 -10 91 -6 4 -11 -46 -13 -132 l-3 -138 -2 169 c-1 93 -5 166 -9
162 -5 -4 -11 -53 -14 -109 l-6 -102 -2 115 c-1 63 -6 133 -10 155 -7 33 -9
22 -11 -60 -2 -99 -17 -189 -19 -120 -1 23 -3 27 -11 15 -7 -10 -10 7 -10 58
0 39 -4 72 -9 72 -11 0 -20 -102 -28 -325 -7 -200 -21 -226 -22 -40 -1 67 -5
105 -10 96 -6 -9 -12 26 -17 95 -7 100 -9 105 -15 59 -4 -27 -8 -128 -8 -222
-1 -108 -5 -173 -11 -173 -6 0 -11 33 -11 78 l-1 77 -12 -70 -12 -70 -9 125
c-7 103 -10 118 -16 85 -4 -22 -8 -82 -8 -132 -1 -111 -21 -129 -22 -20 -1 39
-5 83 -9 97 -7 23 -8 22 -10 -10 l-2 -35 -13 40 c-13 39 -13 39 -14 -50 -1
-80 -11 -128 -25 -115 -7 8 -26 192 -26 257 0 88 -19 45 -21 -47 -2 -120 -13
-203 -26 -208 -10 -3 -13 18 -14 80 0 46 -4 106 -8 133 l-7 50 -7 -80 c-4 -44
-11 -102 -14 -130 -6 -46 -8 -48 -14 -20 -4 17 -8 53 -9 80 l-3 50 -7 -50 c-5
-36 -8 -11 -9 90 -1 77 -6 160 -10 185 -6 39 -8 29 -16 -70 -5 -78 -10 -107
-16 -90 -4 17 -7 -1 -8 -52 -1 -42 -5 -80 -11 -83 -6 -4 -10 18 -10 59 0 37
-4 66 -10 66 -5 0 -10 19 -10 43 l-1 42 -14 -34 c-8 -18 -16 -54 -16 -80 -1
-38 -3 -32 -10 29 -12 104 -17 108 -19 15 -2 -74 -3 -77 -11 -35 -4 25 -8 64
-8 88 -1 23 -5 42 -11 42 -5 0 -10 -7 -10 -15 0 -8 -4 -15 -9 -15 -5 0 -14
-20 -20 -45 -11 -45 -11 -45 -31 -25 -14 14 -20 34 -20 67 0 35 -3 44 -10 33
-5 -8 -10 -43 -10 -76 0 -34 -3 -76 -7 -95 -5 -28 -7 -30 -14 -14 -4 11 -8 43
-9 70 -1 28 -4 42 -7 32 -2 -9 -8 -15 -12 -12 -5 2 -11 -18 -15 -45 -15 -110
-36 -109 -37 3 0 45 -4 105 -9 132 l-7 50 -2 -40 c-2 -32 -4 -36 -11 -20 -6
13 -9 -12 -11 -75 -2 -121 -15 -265 -17 -200 -1 25 -5 76 -9 114 -5 61 -8 67
-20 51 -7 -11 -13 -27 -13 -38 0 -10 -4 -16 -9 -12 -5 3 -12 -7 -14 -22 -4
-25 -4 -24 -6 7 -2 29 -4 32 -11 15 -6 -14 -9 5 -10 60 -2 65 -4 73 -10 45 -9
-41 -30 -193 -31 -236 -1 -25 -2 -24 -10 11 -4 22 -8 63 -8 92 -1 68 -14 74
-34 15 l-16 -47 0 42 c-1 23 -6 45 -11 48 -6 4 -10 -20 -10 -64 0 -41 -4 -71
-10 -71 -6 0 -11 35 -11 83 -1 45 -5 96 -9 112 -4 17 -8 -107 -9 -275 -1 -289
0 -306 18 -322 18 -15 20 -15 25 5 3 12 6 72 7 132 l2 110 8 -89 c5 -49 11
-91 14 -94 3 -3 6 26 7 64 1 40 3 52 5 29 2 -22 6 -56 9 -75 5 -30 8 -32 14
-15 5 11 10 54 11 95 l2 75 9 -55 c4 -30 13 -74 18 -98 6 -23 10 -93 10 -155
0 -76 3 -107 10 -97 5 8 10 67 11 130 1 117 13 251 19 215 2 -11 7 23 10 75
l6 95 2 -92 c1 -50 6 -94 11 -98 5 -3 13 -46 17 -95 3 -49 10 -87 14 -85 4 3
11 51 15 107 7 95 9 101 20 73 11 -25 13 -27 18 -10 4 18 5 17 6 -2 1 -32 19
-29 24 5 3 19 5 13 6 -18 2 -35 4 -41 11 -25 6 14 9 16 10 5 1 -8 8 -2 15 15
13 29 13 28 20 -40 3 -39 10 -88 14 -110 l8 -40 8 45 9 45 7 -35 c5 -30 7 -26
8 25 1 33 6 78 10 100 l7 40 12 -66 c7 -36 13 -86 13 -110 1 -24 4 -35 6 -24
3 11 9 22 13 25 4 3 12 84 17 180 l10 175 2 -130 c1 -71 6 -139 11 -150 6 -14
9 -16 10 -5 3 22 19 -58 21 -105 1 -39 2 -39 9 -10 4 17 8 94 9 173 1 93 5
141 11 137 6 -4 11 6 11 22 2 38 17 -46 20 -112 2 -45 3 -46 6 -12 5 46 22 49
24 5 2 -31 2 -31 6 -5 4 26 23 39 23 15 0 -26 12 3 20 49 l8 48 1 -57 c1 -82
21 -73 22 10 1 92 17 52 19 -48 2 -96 14 -133 24 -73 13 71 26 59 27 -24 1
-61 3 -70 9 -43 4 19 9 28 10 20 2 -8 6 17 10 55 5 56 7 38 9 -90 5 -269 18
-326 38 -170 7 58 7 57 13 -52 3 -62 8 -115 12 -118 3 -3 10 85 15 197 9 186
10 193 12 83 2 -136 20 -198 22 -75 0 41 4 98 8 125 5 38 9 9 14 -120 4 -93
11 -206 15 -250 l7 -80 6 60 c4 33 8 134 9 225 1 102 5 157 10 145 7 -15 9 -9
9 26 1 25 4 67 7 93 14 97 24 17 24 -189 0 -139 4 -205 10 -195 5 8 10 109 11
225 2 240 11 319 22 185 4 -47 7 -114 8 -150 2 -121 18 1 19 145 0 72 3 154 6
183 6 45 10 52 29 52 21 0 22 -4 28 -167 4 -91 7 -223 7 -292 0 -69 5 -133 10
-141 7 -10 10 29 10 120 0 74 3 214 7 310 7 176 12 187 31 60 4 -25 11 -43 17
-40 11 5 22 -59 26 -150 l2 -55 6 45 c5 38 7 29 13 -55 7 -105 28 -235 39
-235 3 0 9 84 12 186 6 173 9 205 22 193 7 -8 25 -340 25 -479 0 -134 7 -181
21 -158 6 9 9 6 10 -12 4 -55 17 114 19 250 2 88 5 129 9 105 5 -27 10 15 16
130 6 115 11 154 15 120 6 -63 19 -38 22 43 l1 57 7 -60 7 -60 3 80 3 80 7
-60 c4 -33 11 -103 16 -155 l7 -95 9 54 c11 73 18 76 19 10 0 -30 4 -76 9
-104 5 -33 8 32 10 195 l3 245 8 -170 c4 -93 12 -190 18 -215 6 -25 11 -64 11
-87 0 -34 3 -41 15 -37 13 5 15 35 15 183 0 98 3 181 8 185 4 4 12 44 18 89
l11 82 2 -61 c1 -45 5 -63 16 -68 11 -4 15 -24 16 -78 1 -59 3 -66 9 -38 6 31
8 28 9 -25 1 -33 8 -85 16 -115 l13 -55 2 40 c1 22 6 54 10 70 l8 30 1 -28 c0
-16 5 -26 11 -22 6 4 10 66 10 152 0 296 15 128 38 -429 4 -97 10 -180 13
-183 10 -9 38 484 39 678 0 122 8 163 23 125 4 -10 6 -10 6 0 1 6 6 12 11 12
6 0 10 -26 10 -57 1 -63 22 -158 33 -147 4 4 7 26 8 48 0 23 3 59 8 81 8 46
20 -135 22 -335 1 -63 4 -140 9 -170 l7 -55 2 58 c2 85 21 70 21 -17 0 -41 5
-78 10 -81 6 -3 10 -49 10 -103 0 -63 3 -93 10 -86 15 15 30 183 31 374 1 96
4 164 7 150 4 -23 5 -24 13 -5 5 14 8 7 8 -28 1 -29 5 -46 11 -42 6 4 10 -39
11 -122 2 -201 15 -433 19 -348 3 64 4 60 10 -45 4 -63 8 -196 9 -295 4 -306
18 -237 25 120 5 305 33 762 44 750 3 -2 8 -30 12 -62 l7 -58 4 80 c3 86 14
-256 20 -600 2 -168 4 -126 9 210 4 231 11 502 15 603 l8 182 24 0 c23 0 23
-1 24 -127 2 -186 14 -215 20 -48 3 78 10 149 17 160 10 17 12 11 13 -40 0
-33 6 -103 13 -155 11 -79 14 -87 16 -50 5 66 17 -158 20 -355 1 -93 7 -235
14 -315 l13 -145 3 120 c4 249 20 592 28 645 8 50 9 43 12 -70 1 -69 6 -159
10 -200 l7 -75 3 65 c2 37 7 -12 11 -115 4 -99 12 -200 17 -225 l9 -45 3 40
c4 91 18 -17 25 -211 6 -140 11 -187 16 -159 4 22 9 76 9 120 1 44 5 105 9
135 6 49 7 41 14 -69 4 -68 8 -181 8 -250 2 -120 2 -123 10 -56 23 190 26 185
29 -45 6 -447 18 -109 26 683 l7 787 22 0 c21 0 23 -6 29 -87 3 -49 9 -284 13
-523 9 -517 20 -483 23 70 2 217 6 429 9 470 6 67 7 57 14 -95 4 -93 12 -237
19 -320 6 -82 14 -226 17 -320 l6 -170 7 165 c4 91 13 311 20 489 6 178 15
315 19 305 7 -17 8 -17 8 -1 1 10 9 17 19 17 18 0 19 -16 27 -232 11 -327 21
-500 24 -418 5 121 20 32 20 -120 1 -174 11 -287 22 -268 5 7 9 45 10 83 2 95
27 -409 30 -615 l2 -165 7 105 c4 58 11 241 15 407 4 166 11 300 15 298 16
-10 20 34 21 248 0 122 6 326 13 452 l12 230 7 -265 c4 -146 7 -413 7 -595 0
-217 4 -325 10 -315 7 11 10 5 11 -25 1 -36 2 -35 9 15 4 30 10 278 14 550 7
529 12 630 31 630 17 0 25 -128 27 -424 1 -223 2 -231 9 -111 4 72 12 216 18
320 6 105 10 196 11 203 0 6 10 12 23 12 l24 0 12 -517 c12 -492 20 -635 22
-437 2 105 16 183 18 97 0 -29 6 -53 11 -53 6 0 10 -15 11 -32 1 -31 1 -31 8
-8 4 14 11 -79 16 -209 4 -138 11 -228 16 -220 5 8 9 57 10 109 l2 95 6 -82
c4 -45 9 -85 12 -88 8 -7 17 202 29 615 18 611 23 730 31 730 5 0 9 -62 9
-137 0 -242 21 -1343 28 -1493 7 -143 7 -141 15 145 4 160 10 550 13 868 4
317 9 576 11 573 2 -2 8 -331 13 -732 15 -1087 31 -1013 47 211 8 595 18 599
23 10 2 -165 6 -334 10 -375 4 -41 7 151 8 428 2 481 3 502 20 502 18 0 19
-17 26 -297 14 -672 20 -857 26 -828 8 38 17 -100 26 -379 4 -116 10 -221 15
-235 4 -15 8 118 10 294 2 309 3 314 10 140 3 -99 8 -274 9 -390 4 -292 18
-136 19 220 1 143 5 301 11 350 5 50 14 245 19 435 19 610 23 690 32 690 5 0
9 -159 9 -367 0 -338 9 -1003 28 -2028 l7 -400 6 460 c3 253 7 773 9 1155 2
382 6 805 9 940 5 219 7 183 14 -344 4 -324 7 -725 7 -890 0 -166 3 -353 7
-416 8 -113 8 -114 14 -50 4 36 8 189 10 340 1 164 5 245 9 200 l6 -75 6 120
c4 66 11 396 16 732 5 337 12 616 15 620 4 3 7 -143 7 -325 0 -210 4 -333 10
-337 6 -3 11 -45 11 -93 1 -65 4 -78 9 -52 5 25 8 6 10 -70 l4 -105 6 155 c4
85 9 308 10 495 l3 340 8 -339 c8 -343 17 -448 21 -230 2 106 3 98 9 -71 13
-355 22 -500 30 -515 7 -13 9 -13 10 0 1 8 5 -3 9 -25 8 -45 7 -57 19 350 l7
230 3 -215 c2 -118 7 -260 11 -315 l7 -100 3 115 c8 332 15 338 23 20 18 -777
21 -865 28 -735 4 66 8 460 10 875 3 688 4 709 6 240 3 -492 11 -650 23 -455
4 50 7 -225 8 -611 2 -729 11 -1108 23 -964 4 41 8 359 9 705 2 347 6 916 9
1265 l6 635 8 -330 c4 -181 12 -396 17 -478 6 -81 10 -214 11 -295 1 -81 4
-172 9 -202 4 -34 8 77 10 285 1 187 6 423 9 525 6 135 8 21 11 -425 4 -761
15 -1555 19 -1375 2 74 7 250 11 390 l6 255 3 -290 c1 -181 6 -282 11 -268 9
22 30 1443 30 2031 0 201 4 312 10 312 6 0 10 -118 10 -332 0 -526 13 -1228
22 -1183 4 22 11 372 14 778 7 690 8 737 24 737 16 0 18 -23 24 -272 4 -150
11 -824 16 -1497 5 -673 11 -1226 14 -1229 4 -3 7 240 7 539 1 299 5 821 8
1159 l6 615 9 -575 c4 -316 11 -622 15 -680 6 -96 7 -86 14 130 4 129 9 501
12 825 3 325 8 679 11 788 6 176 8 197 23 197 16 0 18 -46 30 -562 7 -310 15
-565 17 -567 2 -2 4 13 4 34 0 21 3 36 6 33 8 -9 23 -541 35 -1253 5 -357 13
-717 17 -800 7 -142 7 -132 15 195 4 190 12 763 16 1273 5 511 11 930 13 933
8 7 18 -378 20 -746 1 -190 3 -320 5 -290 2 30 7 429 12 885 4 457 12 838 16
848 4 9 11 17 15 17 4 0 10 -316 14 -702 3 -387 9 -849 13 -1028 l8 -325 6
195 c4 107 12 498 17 869 6 370 14 676 17 679 3 3 6 -156 6 -354 1 -197 5
-534 8 -749 l7 -390 4 280 4 280 5 -237 c4 -130 9 -239 12 -242 9 -9 19 658
19 1227 l0 497 25 0 25 0 0 -532 c0 -1024 15 -3071 21 -2893 4 99 8 743 10
1430 1 700 6 1160 9 1045 4 -113 9 -342 10 -510 2 -168 6 -278 9 -245 6 56 7
51 13 -55 5 -63 8 -180 9 -260 0 -80 4 -167 9 -195 5 -34 8 10 9 143 1 120 5
192 11 192 6 0 10 -133 11 -377 1 -208 4 -468 8 -578 l6 -200 7 305 c4 168 11
851 14 1518 4 666 11 1212 16 1212 4 0 8 -146 8 -323 0 -606 13 -1587 21
-1587 5 0 10 102 12 227 2 210 3 201 7 -112 2 -211 6 -308 10 -255 4 53 8 -39
10 -245 2 -181 6 -296 9 -255 4 65 6 51 16 -105 l12 -180 3 335 c1 184 6 430
10 545 l6 210 4 -195 c1 -107 6 -359 9 -560 l7 -365 2 411 c8 1793 16 2454 28
2454 26 0 44 -834 46 -2195 1 -638 5 -1092 8 -1010 4 83 11 591 16 1130 5 539
11 917 14 840 4 -84 7 -118 10 -85 7 101 17 -587 20 -1350 1 -427 6 -740 10
-720 5 19 12 604 17 1300 4 696 9 1253 11 1237 2 -15 8 -25 13 -22 5 4 9 183
9 441 0 356 2 434 13 434 22 0 26 -215 38 -2009 6 -916 14 -1701 18 -1745 6
-58 9 22 12 274 2 228 5 312 9 235 5 -129 5 -146 29 688 5 153 11 280 15 284
3 3 7 -108 8 -248 2 -253 2 -253 8 -94 4 88 9 423 11 745 3 455 5 530 9 335 3
-137 7 152 8 643 l2 892 23 0 24 0 6 -302 c4 -166 7 -781 7 -1368 0 -587 3
-1366 8 -1731 l7 -664 7 585 c12 1059 33 2208 41 2216 4 4 8 -303 8 -682 2
-801 14 -1888 18 -1639 2 94 7 744 13 1445 18 2297 15 2140 38 2140 20 0 20
-9 21 -592 0 -340 4 -584 9 -573 5 12 9 -205 9 -511 1 -292 4 -614 9 -715 5
-144 9 -3 17 651 l10 835 9 -929 c4 -510 12 -942 17 -960 5 -17 9 -125 10
-241 1 -115 4 -221 8 -235 8 -28 20 842 30 2130 6 671 8 770 11 480 l5 -365 5
445 5 445 4 -495 c4 -458 5 -480 13 -295 5 110 12 364 16 565 l7 365 8 -709
c4 -390 8 -1353 8 -2140 1 -787 5 -1586 8 -1776 5 -315 7 -276 14 454 4 440 7
1079 7 1420 0 744 11 1513 20 1494 10 -18 29 -833 37 -1538 3 -322 9 -612 13
-645 4 -33 8 662 9 1545 1 1642 5 1890 26 1890 19 0 25 -170 25 -754 0 -535
14 -1563 29 -2096 l8 -275 1 436 c1 240 5 944 10 1565 l7 1129 6 -605 c3 -333
7 -1138 9 -1790 1 -652 6 -1277 9 -1390 4 -138 9 84 14 680 4 487 12 980 17
1095 5 116 10 482 11 815 2 333 6 549 9 480 5 -100 7 -65 10 175 5 354 4 423
21 -1330 11 -1218 23 -1683 29 -1155 1 135 6 353 9 485 6 178 8 46 10 -505 2
-410 7 -731 11 -715 4 17 8 264 9 551 2 1106 15 2774 20 2768 10 -10 20 -800
27 -2109 3 -687 9 -1268 13 -1290 4 -22 12 820 19 1870 7 1051 15 1922 19
1938 3 15 12 27 19 27 12 0 14 -225 14 -1472 0 -1777 11 -4190 19 -4182 7 7
16 1342 26 3827 5 1005 11 1827 15 1827 4 0 10 -575 14 -1277 4 -781 11 -1332
18 -1418 6 -77 13 -333 17 -570 l6 -430 7 230 c5 127 11 958 14 1848 4 889 10
1617 14 1617 4 0 10 -280 14 -622 6 -638 15 -883 27 -818 3 19 8 -167 9 -415
5 -804 16 -1536 20 -1310 l3 210 8 -160 c4 -88 12 -308 18 -489 6 -181 13
-331 15 -333 2 -2 6 261 10 584 3 323 10 757 16 963 6 206 10 785 10 1285 0
938 4 1105 25 1105 18 0 24 -563 31 -2790 3 -1059 10 -1941 14 -1960 4 -19 9
390 10 910 2 520 6 929 9 910 13 -70 21 162 22 655 1 270 5 551 8 625 5 83 9
-152 11 -605 1 -407 6 -1032 9 -1390 5 -425 8 -560 10 -390 2 143 7 454 10
690 l7 430 3 -280 c2 -154 6 -363 10 -465 8 -231 20 1222 23 2644 l2 1021 8
-755 c7 -688 22 -1320 26 -1160 1 36 7 72 12 80 6 10 10 -241 11 -720 1 -404
5 -789 9 -855 3 -66 7 339 8 899 1 561 4 1017 7 1014 20 -20 42 -1781 44
-3500 0 -549 5 -998 9 -998 5 0 12 982 15 2183 8 2602 17 3807 29 3807 4 0 9
-260 9 -577 1 -318 5 -672 9 -788 4 -136 7 68 8 578 1 517 5 787 12 787 7 0
10 -205 11 -592 1 -326 5 -638 9 -693 l7 -100 3 80 c9 195 18 -495 26 -1925 4
-850 11 -1522 15 -1495 4 28 8 199 10 380 2 277 4 307 10 190 3 -77 8 -381 10
-675 2 -424 5 -500 11 -365 4 94 11 1298 15 2677 5 1379 11 2509 14 2512 9 10
19 -532 19 -1069 0 -276 3 -571 8 -656 6 -132 8 -94 12 271 3 234 7 -466 9
-1555 2 -1089 7 -2189 10 -2445 5 -352 8 -133 10 900 2 751 7 1410 11 1465 3
55 7 -249 8 -676 1 -427 5 -805 10 -840 4 -37 9 166 12 491 4 443 6 329 8
-560 2 -1087 7 -1362 23 -1275 5 22 8 1026 8 2231 1 1205 4 2536 8 2957 6 707
8 767 23 767 15 0 17 -66 24 -867 16 -1982 25 -3537 26 -4305 0 -450 4 -818 8
-818 10 0 21 2101 24 4424 1 1168 4 1426 9 1006 3 -311 7 -1003 8 -1538 1
-646 4 -971 11 -967 6 3 11 43 12 88 1 70 2 75 8 37 13 -90 20 367 25 1648 5
1056 8 1292 19 1292 16 0 26 -1055 26 -2874 0 -811 4 -1246 10 -1236 6 10 10
-315 10 -927 0 -521 4 -944 9 -947 5 -3 11 883 15 2027 8 2591 17 3957 26
3957 6 0 20 -3421 20 -5142 0 -711 2 -848 14 -848 11 0 14 441 20 2807 6 2679
10 3183 25 3183 13 0 32 -1346 37 -2625 2 -698 8 -1335 12 -1415 7 -137 7
-128 13 170 4 173 7 848 9 1500 1 680 6 1168 11 1145 5 -22 13 -866 19 -1875
10 -1753 18 -2321 31 -2334 6 -7 16 1365 26 3802 5 1351 9 1632 20 1632 11 0
13 -103 13 -583 0 -321 3 -1132 8 -1803 6 -977 8 -1142 13 -829 4 237 11 406
18 430 7 25 12 173 13 405 1 258 4 154 9 -355 3 -396 7 -1148 8 -1671 1 -958
11 -1645 22 -1524 l6 65 1 -62 c2 -60 13 -81 26 -47 3 9 6 489 6 1067 0 579 3
1919 7 2980 l6 1927 22 0 c22 0 22 -1 28 -302 4 -166 7 -693 7 -1172 0 -479 4
-1015 10 -1191 5 -176 13 -750 17 -1275 7 -780 9 -889 13 -595 3 198 7 335 10
305 3 -51 4 -49 9 30 7 94 21 -913 21 -1447 0 -189 4 -343 8 -343 19 0 22 367
22 2491 0 1213 3 2497 7 2852 6 619 7 647 25 647 10 0 19 -1 20 -2 1 -2 5
-484 9 -1073 4 -588 12 -1140 17 -1225 6 -89 11 -802 13 -1675 1 -836 5 -1574
9 -1640 3 -66 8 319 10 855 1 536 6 1432 9 1990 7 970 7 986 9 370 2 -355 7
-838 12 -1075 5 -236 12 -899 16 -1472 4 -574 10 -1043 14 -1043 9 0 17 1290
26 3870 4 1015 10 1908 13 1985 7 147 7 160 36 -1535 l12 -705 4 875 c3 821 4
848 10 445 4 -236 12 -698 17 -1025 5 -327 10 -923 11 -1325 1 -785 9 -1141
23 -1127 5 5 13 301 18 673 5 365 12 732 15 814 4 83 10 643 15 1245 5 628 12
1105 17 1119 11 28 22 -1059 25 -2473 l2 -931 7 675 c3 371 7 1290 8 2043 1
1261 8 1610 24 1210 4 -87 9 -1357 12 -2823 3 -1466 9 -2744 12 -2840 14 -354
21 -73 22 811 2 1442 15 2988 23 2649 7 -311 24 -1288 29 -1655 2 -126 6 92
10 485 3 393 7 1348 8 2123 1 1364 2 1407 20 1407 17 0 18 -17 25 -302 3 -167
9 -1131 13 -2143 5 -1012 10 -1694 13 -1515 4 287 6 310 12 195 5 -71 8 -587
8 -1146 0 -559 3 -1031 6 -1048 4 -17 10 -31 15 -31 5 0 9 482 9 1108 0 1400
13 3625 20 3427 3 -82 7 194 8 615 2 421 6 783 11 805 14 78 21 -484 23 -1859
0 -760 4 -1349 8 -1311 4 39 9 432 10 875 l3 805 8 -1119 c5 -616 10 -1142 12
-1170 2 -28 5 527 7 1234 l4 1285 7 -925 c3 -509 7 -1555 9 -2325 1 -770 5
-1411 9 -1425 8 -27 20 2043 23 3899 l2 1156 8 -1420 c4 -781 12 -1469 16
-1530 6 -71 10 291 13 1010 2 616 6 1048 9 960 12 -365 20 -35 22 910 1 553 5
924 8 840 4 -82 12 -494 16 -915 5 -421 11 -704 14 -630 3 74 7 -137 9 -470 2
-333 7 -668 10 -745 5 -90 9 89 10 500 2 352 7 701 10 775 5 80 9 -192 11
-670 1 -443 6 -875 10 -960 3 -87 8 297 10 880 l4 1035 7 -900 c3 -495 8
-1044 9 -1220 3 -309 4 -314 11 -145 3 96 8 585 9 1085 1 501 6 993 9 1095 4
102 9 -733 11 -1855 1 -1122 6 -2170 9 -2330 9 -449 20 835 26 3190 6 2009 10
2429 26 2419 5 -3 10 -489 10 -1137 1 -623 5 -1447 8 -1832 l6 -700 7 1225 c5
674 8 1457 8 1740 0 554 6 710 25 710 21 0 25 -435 32 -3267 3 -1498 9 -2723
13 -2723 9 0 19 2155 22 4319 1 922 5 1548 9 1391 3 -157 8 -751 9 -1320 2
-569 6 -1406 9 -1860 4 -454 8 -763 9 -687 1 83 6 137 12 137 6 0 11 107 11
298 1 183 5 276 9 242 5 -30 9 -307 11 -615 2 -435 4 -306 10 580 3 627 8
1673 9 2325 2 652 7 1133 10 1070 4 -63 8 -1026 10 -2140 1 -1114 5 -2070 9
-2125 8 -125 20 1420 23 2760 l1 1010 8 -760 c9 -908 21 -1489 29 -1420 3 28
9 -222 13 -555 4 -333 10 -767 14 -965 10 -509 20 -320 23 450 2 341 6 832 9
1090 7 429 7 389 10 -470 2 -517 6 -965 11 -995 4 -30 8 557 9 1306 0 748 4
1712 8 2142 l6 782 24 0 23 0 0 -692 c0 -714 14 -1891 27 -2288 l8 -225 6 420
c3 231 8 782 10 1225 l3 805 7 -1165 c3 -641 7 -1819 8 -2617 1 -1204 3 -1453
14 -1453 11 0 15 328 20 1913 4 1051 7 2399 7 2995 0 714 3 1082 10 1082 6 0
11 -56 12 -142 l2 -143 6 145 c3 80 7 -336 9 -925 2 -588 7 -1164 10 -1280 4
-129 9 201 14 860 9 1258 14 1485 33 1485 12 0 14 -106 14 -637 0 -1264 15
-4016 22 -3918 3 55 10 624 14 1265 5 706 11 1106 16 1015 8 -177 27 -2254 29
-3095 0 -322 4 -594 8 -605 5 -11 11 837 15 1885 4 1048 12 2207 19 2575 l12
670 8 -589 c4 -324 7 -947 7 -1385 0 -438 4 -802 9 -810 15 -24 20 368 26
2019 3 882 8 1606 10 1609 3 2 7 2 9 0 3 -3 8 -898 11 -1989 7 -2563 16 -3981
26 -3950 4 14 7 572 8 1241 2 1965 15 4719 22 4524 4 -99 10 -859 14 -1690 4
-830 10 -1548 14 -1595 6 -83 6 -81 13 75 5 88 9 390 10 670 1 308 4 470 8
410 4 -55 9 -343 10 -640 1 -297 6 -551 10 -565 4 -14 9 432 11 990 1 558 5
975 10 925 4 -49 8 -495 10 -990 1 -516 6 -836 9 -750 4 83 9 616 10 1185 2
569 6 1222 9 1450 l6 415 8 -545 c15 -1045 27 -2684 27 -3905 0 -776 4 -1236
10 -1245 6 -10 10 172 11 525 1 297 5 1091 8 1765 6 1046 7 1121 9 515 1 -438
6 -716 12 -725 6 -10 10 91 11 295 1 171 5 438 8 595 7 259 8 232 10 -300 2
-322 7 -695 11 -830 6 -237 6 -231 8 171 1 229 5 627 10 885 l7 469 6 -285 c3
-157 8 -577 9 -935 3 -534 4 -610 11 -425 11 341 29 2372 29 3360 0 548 4 881
10 890 6 10 10 -195 10 -589 0 -332 2 -602 5 -599 3 3 10 50 14 104 6 67 9
-65 10 -412 3 -1094 16 -2613 22 -2504 4 63 12 851 19 1750 6 899 15 1639 19
1643 5 4 11 -716 16 -1600 4 -884 11 -1633 15 -1663 4 -30 9 154 10 410 3 344
5 427 10 320 4 -80 8 -257 9 -394 0 -137 4 -246 9 -242 4 4 9 222 12 484 l6
477 3 -655 c2 -360 7 -749 10 -865 6 -203 20 1540 22 2839 1 347 5 581 9 541
5 -38 11 -929 14 -1980 4 -1050 11 -1937 15 -1970 5 -34 9 377 11 940 3 1052
14 2077 20 1865 2 -93 5 -114 10 -80 4 25 8 -126 10 -335 1 -209 6 -438 9
-510 6 -107 8 -77 9 174 1 167 4 302 7 299 3 -3 9 -711 14 -1574 5 -1022 11
-1578 18 -1594 7 -17 12 385 17 1295 3 726 10 1547 16 1825 5 278 12 979 16
1557 l7 1053 32 0 32 0 6 -1267 c4 -698 8 -1513 8 -1813 1 -300 5 -576 9 -615
5 -51 8 -6 10 165 l4 235 7 -240 c3 -132 8 -467 9 -745 2 -278 6 -485 10 -460
4 25 8 -90 10 -255 2 -165 6 -455 9 -645 l6 -345 7 460 c5 253 8 1003 8 1667
0 741 4 1209 9 1213 6 3 12 -12 14 -32 2 -21 4 573 5 1320 2 1199 4 1357 17
1357 13 0 15 -108 16 -907 1 -500 5 -1027 8 -1173 6 -222 8 -156 11 400 2 393
6 618 10 550 4 -63 9 -344 11 -625 3 -497 4 -502 9 -195 3 173 9 -661 13
-1855 5 -1276 13 -2174 18 -2180 5 -5 9 14 10 50 1 44 3 53 9 35 l7 -25 6 25
c3 14 9 1031 12 2260 4 1257 10 2255 15 2280 5 25 13 341 16 703 7 605 9 657
24 657 15 0 17 -51 23 -647 4 -355 7 -960 7 -1343 0 -383 3 -1225 8 -1871 6
-1048 8 -1123 13 -694 3 264 8 836 10 1270 3 581 5 708 9 480 l5 -310 3 354
c1 195 4 352 7 349 3 -3 10 -711 15 -1574 5 -863 13 -1666 17 -1784 l8 -215 6
175 c4 96 7 1278 8 2625 1 2590 6 3185 26 3185 13 0 24 -1431 26 -3555 1 -693
5 -1334 8 -1425 10 -261 21 1342 22 3154 1 897 4 1676 8 1731 3 55 9 -647 14
-1560 16 -3616 20 -4335 27 -4335 4 0 11 633 15 1408 4 774 11 1515 16 1647
17 414 27 1082 30 1865 1 502 5 718 10 645 14 -181 16 -163 18 138 1 232 4
287 14 287 17 0 27 -801 27 -2229 0 -1188 17 -3359 27 -3591 8 -156 8 -144 14
215 3 209 7 560 9 780 1 220 6 414 10 430 4 17 8 -157 9 -385 2 -599 14 -1236
22 -1125 4 50 7 891 8 1871 1 979 4 2288 8 2907 6 1084 7 1127 25 1127 17 0
18 -23 19 -517 1 -285 6 -925 13 -1423 l11 -905 8 640 c4 352 8 993 9 1425 1
649 3 725 8 440 4 -190 11 -1539 15 -2998 5 -1459 12 -2648 15 -2641 6 8 9 7
12 -2 3 -8 8 668 11 1501 22 4908 18 4480 39 4480 17 0 18 -15 19 -257 1 -142
5 -427 8 -633 7 -366 7 -359 9 258 1 347 6 632 10 632 11 0 21 -836 24 -1865
1 -440 4 -771 7 -735 l6 65 8 -95 c7 -96 24 -1316 36 -2627 3 -397 9 -725 14
-729 4 -4 8 177 9 402 l3 409 2 -392 c2 -251 7 -393 13 -393 7 0 10 982 10
2858 0 1573 3 2914 7 2980 4 92 9 122 20 122 10 0 13 -25 13 -112 0 -486 23
-3261 29 -3483 6 -219 9 -75 11 670 l4 950 7 -1100 c3 -605 7 -1508 8 -2007 1
-798 3 -908 16 -908 13 0 15 134 19 1108 3 609 9 1697 14 2417 5 721 10 1570
11 1888 l1 577 25 0 25 0 2 -702 c1 -388 5 -651 8 -588 4 63 8 379 9 703 0
323 5 587 9 587 13 0 22 -517 22 -1290 -1 -1303 21 -3921 32 -3995 6 -38 14
-209 17 -380 4 -182 9 -298 14 -280 4 17 10 444 14 950 3 506 9 925 14 930 4
6 11 923 15 2038 6 1684 9 2027 21 2027 9 0 13 -18 15 -62 l1 -63 6 65 c8 86
21 -993 23 -1925 1 -407 3 -717 5 -690 2 28 7 273 12 545 6 375 8 68 9 -1270
2 -1534 4 -1773 17 -1823 12 -46 15 -130 15 -412 0 -323 6 -410 24 -324 3 17
6 705 7 1528 0 1411 13 3117 28 3661 l6 245 8 -259 c4 -143 8 -370 9 -505 l2
-246 7 240 c3 132 8 479 10 770 l3 530 7 -560 c3 -308 8 -738 9 -955 l4 -395
6 442 c3 243 9 445 13 449 4 4 8 -269 8 -607 1 -338 5 -666 9 -729 5 -93 7
-59 10 180 l3 295 8 -212 c4 -116 11 -218 16 -225 4 -7 10 -835 13 -1840 3
-1004 8 -1830 13 -1834 4 -4 9 -5 12 -2 3 3 9 1069 13 2369 4 1300 10 2324 13
2274 3 -49 6 176 7 500 1 325 5 649 10 720 8 142 5 225 30 -1065 6 -289 11
-964 11 -1500 1 -1131 13 -2316 22 -2215 4 39 8 736 10 1550 l3 1480 6 -957
c3 -527 9 -960 12 -963 14 -14 18 239 23 1700 4 847 10 1563 14 1590 l7 50 7
-55 c3 -30 9 -516 12 -1080 6 -1121 16 -1509 25 -965 l5 310 4 -435 c2 -239 7
-514 10 -610 l7 -175 4 160 c1 88 6 286 9 440 l7 280 4 -280 3 -280 8 280 c4
154 13 663 19 1131 19 1506 36 1096 46 -1136 4 -762 10 -1448 14 -1525 4 -90
8 80 9 476 0 339 4 1359 8 2267 6 1589 7 1652 25 1652 17 0 18 -33 22 -742 7
-1143 21 -2307 28 -2314 15 -14 18 68 26 696 l9 655 3 -1110 c1 -610 6 -1204
9 -1320 l6 -210 7 225 c4 124 12 990 18 1925 5 935 13 1813 18 1950 l7 250 5
-290 c3 -195 8 -274 13 -240 4 28 11 66 15 85 4 19 9 -113 12 -295 4 -238 7
-308 13 -251 4 43 7 147 7 231 0 270 13 755 20 755 4 0 10 -251 14 -557 7
-624 15 -868 27 -838 4 11 8 18 9 15 3 -8 18 -2051 25 -3290 4 -646 9 -1181
11 -1189 2 -8 7 -11 10 -9 3 3 9 1283 15 2844 6 1862 13 2840 19 2842 6 2 10
43 10 93 0 53 4 89 10 89 7 0 10 -165 10 -474 0 -306 4 -477 10 -481 7 -4 10
133 11 402 1 224 4 442 8 483 7 89 21 -1408 21 -2303 0 -347 3 -627 7 -623 4
4 11 399 15 879 7 869 20 1412 32 1424 3 3 6 -155 6 -353 0 -205 5 -376 10
-399 7 -24 14 -439 20 -1040 5 -550 10 -1063 11 -1140 5 -269 16 416 18 1075
2 586 6 886 27 2148 4 221 11 402 16 402 4 0 9 -28 10 -62 l1 -63 7 65 c4 36
7 -185 8 -490 2 -338 6 -561 12 -570 6 -10 10 101 11 325 1 187 5 394 9 460 4
71 7 -114 8 -450 2 -935 26 -2983 33 -2940 4 22 11 869 15 1883 4 1013 11
1842 16 1842 4 0 9 -593 10 -1317 1 -725 5 -1275 8 -1223 4 52 8 559 9 1125 1
836 4 1056 16 1170 8 77 15 164 15 193 0 47 2 52 22 52 l21 0 -6 992 c-4 545
-8 1253 -8 1572 -1 326 -5 561 -10 536 -4 -25 -8 -324 -10 -665 -1 -341 -5
-780 -8 -975 l-7 -355 -4 330 c-4 327 -4 329 -12 160 -4 -93 -12 -312 -16
-485 l-8 -315 -3 255 c-2 140 -7 284 -11 320 -4 36 -8 -227 -9 -585 -1 -679
-5 -785 -27 -785 -10 0 -13 96 -17 473 -4 545 -25 1447 -35 1557 -4 43 -9
-139 -12 -430 l-5 -505 -4 665 c-2 366 -7 751 -10 855 -6 161 -8 127 -9 -225
-1 -228 -7 -500 -13 -605 -6 -104 -14 -451 -18 -770 -7 -550 -8 -562 -11 -245
-2 246 -5 309 -10 235 -4 -55 -8 -304 -9 -552 -1 -295 -4 -453 -11 -453 -6 0
-11 52 -12 133 l-2 132 -6 -135 c-4 -99 -6 -47 -8 191 -1 179 -5 429 -9 555
-8 220 -8 224 -14 114 -4 -63 -8 -313 -10 -555 -3 -435 -3 -437 -9 -185 -4
140 -8 730 -9 1310 -2 1563 -15 3585 -22 3425 -4 -77 -8 -682 -10 -1345 -1
-663 -6 -1160 -9 -1105 -3 55 -8 -118 -9 -385 -2 -267 -7 -462 -10 -433 -14
115 -21 53 -22 -198 -1 -145 -5 -457 -8 -694 -6 -385 -7 -338 -10 460 -2 490
-6 928 -10 975 -12 165 -21 -359 -21 -1322 l0 -938 -34 0 -34 0 -6 173 c-4 94
-11 818 -16 1607 -6 789 -11 1530 -12 1645 -1 151 -3 190 -8 140 -4 -38 -9
-293 -10 -565 -2 -272 -6 -711 -9 -975 l-7 -480 -2 446 c-1 245 -5 839 -9
1320 -6 686 -9 815 -14 599 -4 -151 -7 -610 -7 -1020 -1 -410 -6 -1015 -12
-1345 -6 -330 -15 -814 -19 -1075 l-8 -475 -3 400 c-1 220 -6 663 -9 985 l-6
585 -10 -675 c-9 -636 -10 -657 -15 -365 l-5 310 -8 -275 c-4 -151 -10 -429
-14 -617 -3 -189 -9 -343 -13 -343 -4 0 -10 530 -14 1178 -4 647 -11 1584 -16
2082 -5 498 -11 1065 -12 1260 -2 195 -5 -34 -8 -510 l-5 -865 -3 905 c-1 498
-5 1051 -10 1230 l-7 325 -6 -230 c-4 -126 -7 -1306 -8 -2621 0 -1315 -4
-2473 -8 -2572 -6 -181 -6 -182 -29 -182 -21 0 -23 5 -27 58 l-3 57 -2 -57
c-1 -32 -6 -58 -12 -58 -7 0 -10 463 -11 1368 -1 752 -5 1450 -8 1552 -5 129
-8 -14 -10 -475 -2 -363 -7 -649 -11 -635 -4 14 -9 603 -10 1310 -2 707 -5
1371 -9 1475 -9 271 -20 -819 -23 -2125 -1 -683 -4 -938 -9 -750 -10 429 -13
432 -19 15 -5 -334 -6 -298 -8 301 -4 1302 -15 2904 -20 2899 -3 -2 -8 -555
-12 -1227 l-7 -1223 -3 1410 c-2 776 -7 1349 -11 1275 -3 -74 -8 -700 -9
-1390 -2 -690 -6 -1824 -9 -2520 -4 -696 -9 -1116 -11 -935 -3 217 -6 292 -9
220 -8 -140 -21 1392 -22 2574 -1 498 -5 1095 -8 1326 l-7 420 -3 -275 c-2
-151 -7 -466 -10 -700 l-7 -425 -4 340 c-3 306 -4 324 -10 180 -4 -88 -8 -777
-9 -1531 0 -754 -4 -1614 -8 -1912 -6 -517 -7 -542 -25 -542 -10 0 -19 1 -20
3 -4 5 -17 1600 -27 3392 -6 1012 -14 1932 -18 2045 -7 195 -8 200 -14 105 -4
-55 -8 -689 -10 -1410 -1 -720 -5 -1267 -8 -1215 l-6 95 -7 -154 c-5 -85 -9
-499 -10 -920 -1 -421 -5 -669 -8 -551 -8 350 -20 132 -22 -424 -1 -382 -3
-441 -8 -286 -4 107 -9 292 -11 410 -3 210 -3 208 -10 -125 -3 -187 -7 -481
-8 -652 0 -201 -5 -313 -11 -313 -7 0 -11 282 -12 823 -1 452 -5 728 -8 612
l-5 -210 -7 280 c-5 154 -8 926 -9 1715 -1 789 -5 1478 -9 1530 -4 54 -8 -220
-10 -635 -2 -467 -6 -671 -10 -565 -4 91 -8 593 -9 1115 -1 891 -9 1185 -21
865 l-6 -135 -2 195 c-1 107 -6 201 -10 208 -10 15 -22 -2330 -22 -4340 l0
-1458 -40 0 -40 0 -1 758 c-1 416 -5 1122 -8 1567 -5 523 -8 706 -11 515 l-4
-295 -7 370 c-3 204 -7 981 -8 1728 -1 897 -4 1357 -11 1357 -6 0 -11 -152
-11 -432 -1 -238 -5 -750 -8 -1138 l-7 -705 -4 490 c-2 270 -5 452 -7 405 -1
-47 -8 -888 -14 -1870 -14 -2248 -19 -2750 -28 -2750 -12 0 -21 618 -21 1358
0 366 -3 662 -7 658 -4 -4 -10 -253 -13 -554 -5 -462 -7 -363 -10 643 -1 655
-6 1314 -9 1465 -5 193 -8 -20 -11 -710 -1 -542 -6 -1210 -9 -1485 -6 -481 -6
-459 -13 554 -5 580 -9 1628 -9 2330 -1 702 -5 1263 -9 1246 -4 -17 -9 66 -11
195 -2 208 -3 218 -12 130 -5 -53 -11 -1358 -13 -2962 l-4 -2868 -40 0 -40 0
0 1293 c0 1700 -13 4216 -21 4102 -4 -49 -8 -718 -9 -1485 -1 -767 -6 -1456
-9 -1530 -5 -93 -9 42 -11 430 -3 421 -6 509 -10 345 l-6 -220 -3 220 c-2 121
-6 272 -10 335 -7 141 -21 -1034 -21 -1831 0 -317 -3 -819 -7 -1117 -6 -497
-8 -542 -23 -542 -15 0 -17 66 -23 872 -4 479 -8 1137 -9 1462 -2 371 -4 517
-8 391 -5 -174 -6 -148 -10 205 l-4 405 -7 -320 c-3 -176 -8 -918 -9 -1650
l-4 -1330 -6 1530 c-11 2441 -24 3958 -33 3880 -16 -136 -24 -813 -26 -2056 0
-691 -4 -1736 -8 -2322 -6 -988 -8 -1067 -23 -1067 -17 0 -22 234 -32 1544 -2
218 -3 196 -9 -164 -3 -228 -7 -632 -8 -897 0 -266 -5 -483 -10 -483 -4 0 -11
719 -15 1598 -8 2171 -20 3555 -27 3392 -4 -74 -8 -657 -9 -1295 -2 -638 -6
-1347 -9 -1575 -5 -276 -8 136 -10 1230 -4 1810 -11 2507 -23 2280 -8 -146
-29 -3765 -28 -4922 0 -680 -1 -708 -18 -708 -18 0 -19 45 -25 1202 -4 661 -8
1467 -8 1792 -1 325 -5 656 -9 736 -4 84 -8 -235 -10 -760 l-3 -905 -8 1378
c-4 759 -10 1381 -13 1385 -3 3 -7 -114 -7 -259 -1 -145 -5 -408 -8 -584 -5
-229 -8 -20 -10 730 -2 762 -6 1042 -13 1020 -13 -34 -25 -2056 -27 -4337 l-1
-1398 -40 0 -40 0 0 1023 c0 1141 -27 4967 -35 4975 -3 3 -8 2 -12 -2 -7 -7
-17 -1492 -24 -3716 l-3 -925 -6 1188 c-4 653 -9 1189 -12 1192 -7 7 -18
-1339 -18 -2165 0 -377 -3 -884 -7 -1127 l-6 -443 -24 0 c-22 0 -23 3 -24 83
-16 1020 -22 1613 -29 2857 -16 2604 -21 3060 -31 3060 -12 0 -10 16 -18 -155
-4 -82 -12 -159 -18 -170 -8 -14 -13 -863 -19 -2848 l-7 -2827 -32 0 -32 0 -6
733 c-3 402 -10 1011 -17 1352 -6 341 -16 1088 -21 1660 -21 2096 -24 2265
-32 2160 -5 -55 -12 -633 -17 -1285 -5 -652 -13 -1617 -18 -2145 -5 -528 -10
-1301 -11 -1717 l-1 -758 -28 0 -29 0 -6 263 c-4 144 -7 771 -7 1392 0 622 -4
1124 -9 1117 -12 -20 -21 761 -23 2052 -1 1077 -2 1115 -8 524 -4 -351 -10
-641 -13 -645 -4 -3 -7 284 -7 640 0 420 -4 648 -10 652 -6 4 -10 -28 -10 -89
0 -59 -4 -96 -11 -98 -8 -3 -13 -796 -18 -2776 -5 -1525 -11 -2775 -15 -2779
-3 -3 -7 205 -8 463 -1 258 -4 438 -8 399 -4 -47 -7 0 -8 140 -5 512 -17 1127
-22 1095 -7 -42 -19 583 -22 1094 -1 321 -2 347 -9 196 -3 -96 -8 -566 -9
-1045 -2 -478 -6 -1140 -9 -1470 l-7 -600 -2 655 c-5 1749 -18 3473 -23 3245
-3 -137 -7 -457 -9 -710 -1 -253 -5 -498 -9 -545 -6 -61 -9 4 -11 235 l-4 320
-7 -310 c-3 -170 -8 -870 -10 -1555 -1 -740 -5 -1152 -10 -1015 -3 127 -8 543
-10 925 -2 382 -6 639 -9 570 -3 -69 -8 444 -10 1140 -2 696 -5 1243 -7 1215
-2 -27 -7 -363 -12 -745 l-8 -695 -3 1235 c-1 679 -5 1287 -9 1350 -10 183
-21 -1684 -23 -3850 -1 -1097 -5 -1896 -9 -1775 -3 121 -7 855 -8 1631 0 776
-4 1851 -8 2390 -8 927 -8 955 -14 529 -3 -247 -8 -945 -10 -1550 -3 -848 -5
-990 -9 -620 l-5 480 -7 -634 c-5 -349 -8 -1041 -8 -1538 0 -503 -4 -903 -9
-903 -13 0 -22 622 -32 2410 -16 2651 -24 3528 -30 3534 -3 4 -10 -539 -14
-1206 -4 -667 -10 -1546 -14 -1953 l-6 -740 -7 445 c-5 245 -8 648 -8 896 0
503 -9 846 -22 838 -4 -3 -8 -330 -8 -727 0 -1348 -13 -3498 -22 -3485 -6 10
-8 10 -8 1 0 -7 -4 -13 -10 -13 -7 0 -10 209 -10 608 0 334 -3 801 -8 1037 -6
378 -8 407 -12 240 -3 -104 -7 350 -9 1010 -2 660 -7 1614 -10 2120 l-6 920
-7 -515 c-5 -283 -11 -1192 -15 -2020 l-8 -1505 -7 1190 c-6 1168 -15 1524
-29 1190 -4 -82 -10 -1079 -15 -2215 -6 -1431 -11 -1919 -15 -1590 -3 261 -8
1008 -9 1660 -2 652 -7 1118 -10 1035 -4 -82 -8 -828 -9 -1657 0 -888 -5
-1508 -10 -1508 -15 0 -20 196 -27 1095 -3 479 -9 904 -14 945 -4 46 -8 -120
-11 -425 -2 -330 -5 -446 -9 -340 -3 88 -7 -163 -8 -557 -1 -417 -6 -718 -11
-718 -17 0 -20 261 -26 2175 -5 2054 -16 3234 -26 3050 -4 -60 -10 -1230 -15
-2600 -7 -2007 -10 -2340 -15 -1715 -3 426 -7 1112 -8 1524 -1 744 -11 966
-21 483 -3 -139 -8 281 -10 933 -2 682 -7 1111 -11 1010 -3 -96 -7 -884 -8
-1751 -1 -1744 -11 -3109 -21 -3109 -4 0 -10 26 -14 58 -4 31 -11 983 -14
2114 -4 1131 -11 2060 -15 2064 -4 4 -7 -157 -7 -358 0 -712 -15 -1890 -20
-1633 l-6 240 -3 -345 c-3 -223 -7 -319 -11 -270 -4 41 -9 521 -10 1065 -5
1749 -14 2851 -22 2625 -8 -217 -29 -3898 -28 -4942 l0 -618 -25 0 c-24 0 -25
3 -27 68 l-2 67 -5 -70 c-10 -118 -21 763 -21 1656 0 466 -3 856 -7 866 -5 10
-10 -281 -13 -647 -5 -610 -5 -574 -8 445 -1 611 -5 1540 -10 2065 l-7 955
-11 -780 -10 -780 -4 1045 c-1 581 -6 1014 -11 975 -4 -38 -12 -999 -18 -2135
-15 -3066 -22 -3730 -36 -3730 -14 0 -25 929 -25 2171 0 966 -11 2251 -19
2243 -3 -3 -9 -843 -12 -1867 -4 -1024 -11 -2017 -15 -2207 l-9 -345 -6 230
c-4 127 -7 804 -8 1505 -1 1207 -9 1648 -32 1635 -3 -3 -9 -546 -13 -1207 -8
-1503 -16 -2158 -27 -2158 -5 0 -10 668 -10 1538 -1 845 -5 1566 -9 1602 -4
36 -8 -226 -8 -582 -1 -400 -6 -648 -12 -650 -5 -2 -13 -368 -20 -952 -6 -523
-12 -952 -14 -953 -2 -2 -6 184 -10 414 -19 1296 -25 2118 -27 3733 -1 987 -5
1809 -9 1825 -4 17 -9 -780 -10 -1770 -2 -990 -6 -2137 -9 -2550 l-7 -750 -3
695 c-2 382 -6 785 -10 895 -3 116 -10 -326 -14 -1045 -5 -685 -12 -1292 -16
-1350 -4 -58 -8 280 -9 750 -1 470 -5 961 -10 1090 l-7 235 -5 -245 c-3 -135
-7 468 -9 1340 -2 872 -7 1709 -10 1860 -6 220 -8 139 -9 -401 -1 -372 -5
-1501 -9 -2510 -7 -1704 -8 -1777 -14 -1029 -3 443 -7 1070 -8 1394 0 324 -3
587 -6 585 -2 -3 -9 -462 -14 -1020 -6 -558 -14 -1270 -18 -1584 l-8 -570 -6
535 c-3 294 -8 1023 -9 1620 -2 770 -5 1020 -11 860 -4 -124 -10 -256 -12
-295 -1 -38 -5 556 -6 1320 -2 765 -7 1518 -10 1675 -8 386 -21 -1515 -22
-3459 -1 -817 -5 -1659 -8 -1871 l-6 -385 -8 725 c-11 1057 -26 3200 -28 4220
-2 504 -6 818 -9 730 -4 -85 -9 -994 -11 -2020 -2 -1026 -6 -1696 -9 -1490 -4
289 -7 131 -13 -695 -8 -1238 -14 -1465 -34 -1465 -11 0 -13 96 -14 553 -2
704 -14 1848 -18 1737 -4 -82 -4 -83 -11 -35 -5 28 -9 399 -11 825 -2 596 -4
711 -10 500 -3 -151 -8 -561 -10 -910 l-3 -635 -7 515 c-3 283 -7 799 -8 1145
-2 347 -6 653 -10 680 -7 47 -12 -582 -27 -3282 -5 -902 -9 -1093 -20 -1093
-11 0 -14 131 -17 738 -2 405 -9 1106 -15 1557 -6 451 -14 1302 -19 1890 l-8
1070 -6 -615 c-3 -338 -7 -1276 -9 -2085 -2 -808 -6 -1643 -9 -1855 -6 -359
-7 -327 -14 475 -4 473 -9 1681 -12 2685 -3 1004 -9 1863 -12 1910 l-7 85 -7
-85 c-4 -46 -10 -1364 -14 -2927 -6 -2400 -10 -2843 -21 -2843 -12 0 -14 64
-15 373 -1 204 -5 419 -9 477 -6 91 -7 73 -10 -130 -10 -759 -15 -654 -23 410
-4 624 -12 1365 -17 1645 -5 281 -10 1079 -10 1775 0 1184 -8 1539 -23 1109
-4 -100 -8 -630 -9 -1178 -1 -548 -4 -958 -7 -911 -6 88 -16 -861 -28 -2577
-6 -921 -7 -993 -23 -993 -15 0 -17 31 -23 348 -4 191 -10 1117 -15 2057 -4
1034 -9 1586 -13 1395 -4 -173 -8 -1042 -9 -1930 -3 -1316 -5 -1499 -10 -990
-4 344 -10 1590 -14 2770 -3 1180 -10 2192 -13 2250 l-7 105 -7 -90 c-4 -49
-12 -139 -18 -200 -7 -71 -13 -1095 -17 -2912 l-7 -2803 -22 0 c-22 0 -22 3
-28 227 -4 124 -8 965 -8 1867 -1 903 -5 1769 -8 1926 -8 395 -20 -906 -23
-2585 -2 -895 -4 -1106 -8 -730 -3 350 -7 462 -10 330 -5 -242 -17 1441 -19
2731 0 512 -4 1128 -8 1370 l-8 439 -5 -700 -5 -700 -4 810 c-2 466 -7 780
-12 740 -6 -58 -26 -3793 -28 -5307 -1 -411 -1 -418 -21 -418 -19 0 -20 7 -21
238 0 141 -4 229 -9 217 -5 -11 -9 -118 -9 -237 -1 -120 -5 -218 -10 -218 -5
0 -11 589 -14 1338 -9 2080 -26 4585 -32 4590 -3 3 -5 -31 -5 -76 0 -44 -4
-84 -10 -87 -6 -4 -11 -240 -12 -668 -2 -420 -4 -578 -8 -432 -4 147 -6 -6 -8
-425 -10 -3126 -16 -4240 -23 -4240 -15 0 -18 104 -29 950 -6 481 -12 907 -13
945 -2 39 -4 -372 -5 -912 -2 -824 -4 -983 -16 -983 -18 0 -24 695 -32 3698
-4 1266 -10 2302 -14 2302 -4 0 -11 -8 -15 -17 -5 -14 -21 -3734 -25 -5730 0
-207 -2 -253 -14 -253 -11 0 -14 134 -20 808 -8 1045 -19 1315 -26 662 l-5
-465 -4 625 c-2 344 -7 690 -11 770 -4 98 -8 -46 -10 -440 -1 -322 -6 -821 -9
-1110 l-6 -525 -7 940 c-5 517 -11 1795 -15 2840 -4 1159 -10 1886 -15 1865
-6 -20 -13 -1228 -18 -2805 -5 -1523 -9 -2859 -9 -2967 -1 -191 -2 -198 -21
-198 -20 0 -20 7 -21 1828 -1 1005 -5 2210 -8 2677 l-6 850 -8 -1355 c-4 -745
-10 -1950 -14 -2677 -5 -1008 -9 -1323 -18 -1323 -21 0 -25 339 -31 3010 -4
1438 -9 2701 -13 2805 -5 147 -8 42 -14 -465 -10 -796 -26 -3703 -27 -4657 0
-609 -2 -693 -15 -693 -13 0 -15 33 -16 238 -4 1607 -22 4726 -28 4892 -4 118
-8 -658 -9 -1724 -1 -1067 -5 -1936 -9 -1932 -5 4 -11 197 -14 429 l-5 422 -4
-615 -3 -615 -7 385 c-4 212 -11 1294 -16 2405 -4 1111 -11 2007 -15 1990 -4
-16 -8 -356 -9 -755 -2 -407 -6 -683 -10 -630 -4 52 -9 376 -11 720 -1 365 -5
583 -9 525 -4 -55 -8 -719 -9 -1476 -2 -2624 -13 -4259 -28 -4259 -7 0 -14 1
-14 3 -1 1 -5 119 -9 262 l-6 260 -2 -262 c-3 -366 -20 -346 -26 30 -10 580
-23 2720 -26 4042 -2 743 -6 1422 -9 1510 -3 90 -9 -286 -14 -860 -4 -561 -12
-1432 -17 -1935 -6 -503 -10 -1395 -10 -1982 0 -904 -2 -1068 -14 -1068 -17 0
-23 219 -32 1265 -4 407 -10 889 -13 1070 l-7 330 -2 -470 c-5 -1106 -16
-2195 -22 -2184 -6 8 -9 7 -12 -2 -12 -34 -18 910 -23 3266 -3 1397 -8 2573
-11 2613 -3 41 -9 71 -12 67 -4 -4 -10 -307 -13 -673 -6 -696 -38 -4891 -39
-5139 0 -114 -3 -143 -14 -143 -15 0 -21 535 -32 2917 -4 760 -10 1419 -14
1465 -4 46 -8 -415 -9 -1023 -2 -1602 -14 -3370 -22 -3324 -5 22 -8 486 -8
1031 -1 1202 -13 2726 -22 2664 -3 -25 -7 425 -9 1000 -2 575 -6 991 -10 925
-4 -66 -10 -1139 -14 -2385 -6 -2390 -14 -3270 -28 -3270 -4 0 -8 289 -8 643
0 588 -5 713 -24 645 -3 -12 -9 -308 -13 -655 l-6 -633 -22 0 -22 0 -6 2102
c-4 1156 -7 2506 -7 3000 0 582 -3 898 -10 898 -6 0 -11 -196 -13 -542 -8
-1179 -27 -3335 -37 -4103 -5 -445 -10 -933 -10 -1084 0 -151 -3 -271 -7 -267
-5 4 -12 458 -16 1009 -4 551 -11 1079 -16 1172 -6 149 -7 124 -9 -211 -7
-1395 -16 -1974 -29 -1974 -10 0 -13 39 -13 193 -1 656 -23 4703 -28 5137 -6
460 -9 517 -20 459 -9 -51 -12 -492 -12 -1975 0 -2061 -9 -3814 -20 -3814 -4
0 -10 143 -15 318 -4 174 -10 385 -14 467 l-6 150 -7 -145 c-5 -80 -8 -290 -8
-467 0 -263 -2 -323 -13 -323 -13 0 -19 410 -29 2104 -2 296 -3 328 -8 181 -3
-99 -7 297 -8 881 -3 1448 -14 2834 -22 2834 -4 0 -12 -1000 -18 -2222 -9
-1962 -32 -3761 -48 -3777 -2 -2 -6 -2 -8 0 -2 2 -7 665 -11 1472 -4 807 -10
1466 -12 1463 -2 -2 -8 -627 -13 -1388 -5 -760 -12 -1420 -16 -1465 -4 -55
-10 -83 -19 -83 -11 0 -23 2289 -26 5080 0 598 -4 914 -10 895 -6 -18 -13
-767 -19 -1870 -18 -3631 -22 -4105 -36 -4105 -15 0 -16 38 -32 885 -12 595
-9 544 -22 525 -6 -9 -10 -279 -10 -712 0 -384 -4 -698 -8 -698 -18 0 -40
2034 -43 4000 -1 613 -4 1187 -8 1275 -6 153 -20 -2107 -22 -3629 -1 -397 -5
-800 -8 -896 -6 -151 -8 -121 -10 220 -2 217 -7 384 -11 370 -4 -14 -8 -321
-9 -682 l-1 -658 -25 0 -25 0 -1 118 c0 64 -4 140 -9 167 -5 36 -8 3 -9 -117
0 -93 -5 -168 -9 -168 -11 0 -22 882 -22 1634 1 759 -20 3376 -29 3676 -7 242
-7 239 -14 -270 -13 -883 -27 -2858 -27 -3972 0 -943 -2 -1068 -15 -1068 -13
0 -15 103 -16 863 -1 474 -4 941 -8 1037 -6 166 -6 157 -13 -195 -5 -203 -8
-545 -8 -760 0 -458 -10 -945 -20 -945 -4 0 -10 228 -14 508 -4 279 -11 795
-16 1147 -5 352 -12 1471 -16 2488 -4 1016 -10 1845 -12 1842 -3 -3 -9 -794
-14 -1758 -10 -2027 -25 -3559 -37 -3802 -5 -93 -10 -227 -10 -297 l-1 -128
-40 0 -40 0 -1 68 c0 37 -5 339 -9 672 -5 333 -13 1172 -19 1865 -10 1396 -22
2407 -27 2402 -2 -2 -8 -763 -13 -1693 -6 -929 -14 -2051 -18 -2494 -7 -766
-8 -794 -19 -585 l-11 220 -4 -225 c-3 -171 -5 -109 -9 255 -2 264 -6 442 -10
395 -4 -68 -7 -77 -11 -45 -3 22 -6 -157 -7 -397 -2 -358 -4 -438 -15 -438
-21 0 -26 477 -32 2920 -6 2483 -12 3098 -29 3060 -8 -18 -12 -639 -16 -2195
-3 -1193 -7 -2111 -10 -2040 l-4 130 -7 -180 c-3 -99 -8 -385 -10 -635 l-3
-455 -7 375 c-3 206 -7 607 -9 890 -1 305 -6 495 -10 465 -7 -41 -31 -1837
-30 -2227 0 -89 -3 -108 -15 -108 -11 0 -15 13 -17 48 l-1 47 -6 -50 c-7 -58
-21 984 -21 1544 0 410 -16 1535 -28 1911 -6 189 -8 111 -15 -485 -4 -390 -12
-888 -17 -1105 -5 -217 -13 -736 -16 -1152 -5 -586 -9 -758 -19 -758 -9 0 -13
58 -18 223 -4 122 -10 287 -14 367 l-8 145 -5 -170 c-5 -132 -6 -87 -8 195 -4
414 -18 569 -23 240 -4 -326 -15 1060 -24 3035 -8 1817 -13 2157 -28 1786z"/>
<path d="M17366 11478 c-3 -139 -8 -1407 -11 -2818 -3 -1411 -8 -2586 -11
-2612 -6 -42 -10 -48 -30 -48 -23 0 -24 4 -25 63 l-2 62 -10 -62 c-5 -35 -13
-63 -17 -63 -4 0 -10 161 -13 358 -3 196 -10 553 -16 792 -6 239 -15 932 -21
1540 -6 608 -14 1152 -18 1210 -6 97 -7 88 -13 -130 -4 -129 -7 -486 -8 -792
0 -306 -4 -564 -8 -574 -6 -16 -7 -16 -13 1 -8 24 -20 -809 -20 -1426 0 -256
-3 -581 -7 -722 l-6 -257 -42 0 c-36 0 -44 4 -49 23 -3 12 -6 254 -6 538 0
638 -13 1462 -21 1324 -3 -55 -7 161 -8 480 -2 319 -7 942 -10 1385 l-6 805
-8 -860 c-10 -1153 -18 -1639 -28 -1623 -5 7 -9 -115 -9 -272 0 -353 -19
-1605 -26 -1717 -5 -73 -8 -83 -25 -83 -18 0 -19 10 -20 183 -1 180 -16 219
-18 47 -1 -47 -5 -91 -10 -99 -5 -7 -12 580 -16 1350 -4 750 -11 1659 -15
2019 l-7 655 -2 -715 c-2 -644 -17 -1329 -40 -1855 -5 -104 -10 -343 -12 -530
l-3 -340 -6 332 c-3 183 -9 335 -11 338 -10 9 -19 -294 -26 -847 l-6 -538 -34
0 -33 0 -1 463 c-1 254 -5 505 -9 557 -4 58 -8 -124 -10 -465 -2 -308 -7 301
-12 1354 -4 1053 -12 1935 -16 1960 -5 25 -12 -564 -16 -1309 -5 -745 -11
-1443 -15 -1550 l-6 -195 -7 124 c-5 68 -8 251 -8 405 0 309 -22 1548 -27
1542 -2 -2 -8 -588 -13 -1302 -5 -715 -12 -1363 -16 -1441 -6 -140 -6 -143
-29 -143 l-23 0 -7 243 c-5 133 -10 237 -12 231 -2 -6 -7 -117 -12 -245 l-8
-234 -1 204 c-2 217 -14 260 -22 83 -4 -82 -7 -41 -13 178 -13 517 -27 1824
-27 2450 0 787 -11 1660 -21 1635 -4 -11 -9 -243 -10 -515 -1 -272 -5 -621 -8
-775 l-7 -280 -4 485 c-3 410 -5 454 -10 285 -4 -110 -9 -774 -10 -1475 -2
-701 -6 -1243 -10 -1205 -5 51 -7 23 -8 -106 -5 -515 -16 -959 -24 -959 -4 0
-8 134 -8 298 0 165 -3 368 -7 453 -7 129 -9 81 -13 -296 l-5 -450 -22 -3 -23
-3 0 528 c-1 786 -20 2937 -28 3098 l-8 140 -6 -185 c-4 -102 -10 -646 -13
-1210 -5 -1103 -14 -1618 -26 -1599 -5 8 -9 4 -12 -12 -2 -13 -6 84 -7 216 -2
174 -5 219 -10 165 -4 -41 -8 -315 -9 -607 -1 -438 -3 -533 -14 -533 -15 0
-26 454 -29 1255 -1 244 -4 398 -8 355 -4 -41 -9 -295 -11 -565 -3 -358 -5
-435 -9 -285 -5 202 -5 200 -10 -135 -3 -187 -9 513 -14 1555 -5 1042 -11
2005 -15 2140 -5 195 -8 91 -14 -515 -4 -418 -12 -825 -17 -905 -5 -80 -10
-620 -11 -1200 -1 -580 -5 -1165 -9 -1300 -4 -160 -7 112 -10 780 -1 564 -6
1120 -10 1235 l-6 210 -3 -210 c-2 -115 -7 -309 -10 -430 l-7 -220 -4 285 -4
285 -7 -455 c-3 -250 -8 -777 -10 -1170 -2 -421 -6 -635 -9 -520 -3 107 -7
166 -10 130 -9 -148 -17 412 -19 1259 0 497 -4 901 -8 897 -5 -4 -10 -323 -13
-709 -4 -588 -7 -706 -19 -727 -12 -21 -16 -115 -20 -535 -6 -479 -6 -495 -12
-255 -3 140 -7 512 -9 825 -2 398 -5 535 -11 455 -7 -102 -39 -1307 -39 -1467
0 -49 -3 -63 -15 -63 -13 0 -15 54 -15 428 0 535 -12 1163 -21 1067 -4 -38 -8
-198 -9 -355 l-3 -285 -8 175 c-8 195 -29 1985 -29 2515 0 251 -3 336 -11 328
-8 -8 -13 -207 -18 -685 -3 -370 -8 -639 -11 -598 -10 153 -20 -205 -22 -810
l-2 -595 -7 400 c-3 220 -8 558 -10 750 l-3 350 -7 -335 c-3 -184 -7 -788 -8
-1342 -1 -889 -3 -1008 -16 -1008 -13 0 -15 49 -16 373 -1 204 -5 521 -8 702
-7 298 -7 263 -10 -355 -2 -390 -7 -655 -11 -615 -4 39 -11 486 -15 995 -7
834 -18 1398 -23 1160 -1 -48 -7 -91 -13 -97 -7 -7 -14 -139 -20 -384 -6 -206
-13 -432 -18 -504 l-8 -130 -3 180 c-5 343 -18 123 -19 -331 0 -248 -4 -573
-8 -722 -6 -245 -8 -272 -23 -272 -15 0 -17 38 -23 452 -4 248 -8 562 -9 697
-1 225 -2 235 -9 116 -3 -71 -7 -385 -8 -697 -1 -371 -4 -568 -11 -568 -7 0
-9 -228 -8 -667 1 -373 4 -626 8 -573 4 52 9 205 10 340 3 235 4 240 11 115 7
-119 26 -1718 30 -2495 1 -197 5 -305 9 -275 5 28 9 194 9 370 1 176 5 664 11
1085 5 421 12 1065 16 1433 4 372 10 667 15 667 5 0 9 -104 9 -231 0 -131 4
-228 9 -225 5 3 12 107 16 231 4 124 11 225 15 225 14 0 20 -286 26 -1418 4
-629 11 -1139 15 -1135 5 5 10 101 11 213 2 113 7 -184 12 -660 5 -476 12
-1022 15 -1215 l6 -350 8 575 c4 316 12 1140 16 1830 l8 1255 3 -870 c1 -478
6 -1086 9 -1350 l6 -480 7 715 c5 393 9 1147 10 1675 1 667 3 859 8 628 3
-183 9 -336 13 -339 4 -4 7 203 7 459 0 389 2 467 14 467 16 0 21 -323 33
-1970 7 -951 8 -999 14 -590 4 245 8 843 9 1330 l3 885 9 -1055 c4 -580 12
-1140 16 -1245 l9 -190 3 310 4 310 6 -345 c4 -190 9 -460 10 -600 l4 -255 6
205 c4 113 8 630 10 1150 2 520 6 1094 9 1275 l7 330 3 -280 c1 -154 6 -289
10 -300 5 -11 11 165 15 390 14 862 34 812 43 -108 3 -356 9 -645 12 -641 3 3
9 155 12 337 3 183 6 -233 8 -923 1 -711 6 -1246 11 -1235 7 16 9 12 11 -20 2
-22 6 23 9 100 3 77 8 -177 10 -565 4 -670 4 -687 11 -345 3 198 8 513 10 700
1 187 5 300 8 250 6 -91 19 978 23 1879 2 472 3 479 8 176 5 -294 6 -270 14
363 4 372 12 677 16 677 5 0 10 -136 12 -302 2 -237 6 -308 17 -328 12 -20 15
-149 21 -720 4 -382 8 -641 9 -575 1 66 6 138 10 160 5 24 10 -124 12 -380 l4
-420 5 275 c5 249 6 230 8 -200 3 -662 15 -1283 23 -1235 4 22 10 832 13 1800
4 968 9 1797 12 1843 4 60 9 82 20 82 10 0 14 -22 17 -92 l3 -93 2 93 c2 90 3
92 26 92 l24 0 6 -807 c16 -2135 19 -2364 27 -2352 5 8 9 113 10 234 1 121 4
326 8 455 6 233 6 232 14 -220 4 -250 10 -725 15 -1055 l7 -600 8 790 c4 435
12 977 18 1205 6 228 13 692 17 1030 6 496 8 569 12 375 l6 -240 4 370 c3 286
5 335 10 215 9 -260 20 -118 20 256 0 337 0 344 20 344 19 0 20 -7 20 -222 0
-123 3 -383 7 -578 8 -361 18 -389 24 -65 2 145 4 124 10 -140 3 -170 7 -512
9 -760 1 -247 6 -479 10 -515 4 -42 8 33 9 210 1 307 11 544 21 516 3 -10 12
127 20 305 20 463 26 570 30 519 7 -87 26 224 41 650 l2 85 7 -105 c4 -58 9
-186 10 -285 1 -99 5 -218 9 -265 7 -78 8 -70 11 85 6 352 15 571 22 525 12
-73 28 -822 28 -1250 0 -257 4 -409 11 -435 7 -23 14 -203 18 -440 l8 -400 3
300 c3 270 5 286 11 165 8 -142 26 -852 30 -1200 5 -373 16 399 25 1775 6 812
11 1190 15 1035 3 -135 8 -429 10 -655 l3 -410 7 250 c4 138 10 487 14 778 l8
527 22 0 c13 0 26 -7 29 -16 3 -9 7 -149 8 -312 1 -165 4 -257 7 -207 8 123
19 -262 31 -1059 5 -340 11 -620 13 -622 4 -5 16 247 19 390 l1 91 8 -85 c4
-47 7 -139 8 -204 1 -66 4 -117 7 -114 3 4 10 302 15 665 5 362 14 676 19 698
5 22 10 205 10 408 l0 367 30 0 30 0 0 -599 c0 -409 3 -609 11 -628 7 -19 15
-353 22 -1010 7 -540 15 -985 20 -989 4 -4 8 247 9 557 1 334 4 517 8 449 4
-63 9 -259 10 -435 2 -186 10 253 21 1045 9 751 18 1420 18 1488 l1 122 40 0
c22 0 41 -1 42 -2 1 -2 5 -525 9 -1163 4 -638 12 -1295 18 -1460 26 -748 30
-985 37 -1995 3 -591 10 -1093 14 -1115 3 -22 10 381 13 895 9 1157 28 3604
34 4313 l5 527 47 0 48 0 6 -947 c4 -520 8 -1448 8 -2062 2 -1303 15 -2652 27
-2766 7 -66 9 -33 12 180 9 799 16 1180 19 1015 1 -102 6 -207 10 -235 4 -27
10 524 15 1225 4 701 11 1675 16 2165 6 490 10 1010 10 1158 l0 267 45 0 45 0
0 -622 c1 -603 4 -843 35 -2868 15 -902 31 -1652 38 -1695 7 -50 18 807 27
2270 6 875 13 1888 16 2253 l6 662 43 0 42 0 6 -357 c4 -197 12 -1035 18
-1863 6 -916 14 -1509 20 -1514 5 -6 9 23 9 80 0 49 7 136 15 194 11 81 15
241 15 690 1 322 5 812 10 1090 5 278 13 727 16 998 4 271 10 490 13 486 3 -3
11 -94 17 -202 l11 -197 1 266 c2 282 6 329 28 329 11 0 14 -32 15 -162 1 -90
4 -149 6 -133 1 17 6 54 9 83 3 30 8 52 10 49 3 -3 9 -569 14 -1258 16 -2299
27 -2682 49 -1819 l8 325 2 -255 c1 -140 6 -264 11 -275 5 -12 9 95 11 265 1
157 5 492 8 745 7 419 7 437 11 200 3 -251 3 -255 10 -120 4 77 11 439 14 805
5 396 11 666 17 668 5 2 9 31 9 63 0 33 4 58 8 55 11 -7 22 265 22 546 0 139
4 218 10 218 6 0 10 -40 11 -97 3 -321 19 -1030 27 -1213 6 -118 14 -856 18
-1640 8 -1467 17 -1664 33 -720 5 357 9 447 11 305 l4 -200 7 220 c3 121 7
348 9 505 1 157 6 341 11 410 7 104 20 556 30 1025 1 66 4 88 8 65 7 -34 14
240 27 973 l7 367 22 0 23 0 6 -557 c3 -307 11 -794 16 -1083 6 -289 13 -831
16 -1205 3 -374 8 -700 12 -725 12 -80 19 232 22 955 2 380 6 805 10 945 l6
255 2 -387 c1 -214 6 -388 10 -388 5 0 12 197 16 437 4 241 12 517 18 613 5
96 12 229 16 295 l5 120 12 -75 12 -75 3 155 c8 461 17 704 25 680 9 -24 10
-24 16 10 3 19 7 -168 8 -416 1 -530 12 -1087 20 -1078 3 3 9 208 12 456 5
310 10 453 18 461 7 7 11 90 11 263 0 250 6 344 21 344 13 0 18 -113 29 -730
6 -333 15 -627 19 -655 8 -50 8 -49 10 24 0 41 4 71 8 68 3 -4 10 -170 15
-370 13 -616 28 -1080 35 -1117 6 -33 7 -34 14 -10 4 14 8 -153 10 -370 1
-248 5 -362 9 -305 4 50 12 785 19 1635 6 850 14 1609 17 1688 l6 142 38 0 38
0 6 -237 c3 -131 8 -384 11 -563 6 -365 14 -528 25 -511 8 15 17 -387 30
-1373 6 -407 12 -741 14 -743 8 -9 15 147 21 457 4 173 11 405 16 515 8 165
27 1697 29 2293 l0 162 40 0 40 0 1 -177 c1 -220 15 -329 20 -153 2 111 3 108
10 -65 3 -99 7 -369 9 -600 2 -403 9 -803 29 -1615 5 -206 10 -440 11 -520 1
-113 4 -138 12 -115 6 19 13 473 19 1249 4 670 11 1221 14 1224 3 3 6 -143 6
-324 1 -181 5 -374 9 -429 5 -75 7 -28 8 186 1 157 5 523 9 812 l6 527 28 0
c21 0 30 -7 37 -27 l10 -28 3 30 c1 17 6 3 11 -35 4 -36 12 -668 18 -1405 5
-737 11 -1356 12 -1375 2 -19 7 253 11 605 9 825 20 1298 28 1215 3 -36 7 66
8 225 2 160 7 304 11 320 5 20 8 -6 9 -76 1 -109 8 -169 20 -169 7 0 25 124
41 275 5 44 12 162 16 263 4 100 10 182 14 182 13 0 37 -1214 50 -2480 5 -465
9 -846 9 -848 1 -2 6 0 11 3 6 4 11 93 12 228 1 162 3 195 7 122 6 -101 19
1313 23 2395 l2 585 7 -500 c3 -275 8 -660 10 -855 2 -272 4 -319 9 -200 3 85
8 142 11 125 3 -16 7 51 9 150 2 99 4 167 6 150 2 -16 9 -82 15 -145 9 -82 14
-108 20 -90 9 31 29 727 29 1017 0 131 4 214 10 218 6 3 11 25 12 48 3 70 15
-567 17 -875 0 -179 5 -289 11 -293 7 -4 11 63 12 192 2 181 10 -510 18 -1472
3 -324 5 -363 10 -230 4 88 8 331 10 540 2 363 11 661 28 920 l8 120 3 -110
c2 -60 7 -164 11 -230 6 -119 7 -118 8 70 2 202 9 276 23 253 5 -7 9 29 10 87
1 60 4 90 8 75 5 -16 11 22 16 105 6 88 11 120 16 100 3 -16 7 -22 8 -12 0 10
6 15 11 12 7 -4 11 78 12 237 l1 243 9 -175 c4 -96 13 -185 18 -198 6 -13 10
-37 10 -55 0 -18 5 -39 10 -47 6 -10 10 129 12 405 l2 420 7 -265 c3 -146 8
-591 9 -990 1 -417 6 -706 11 -680 4 25 12 470 16 990 4 520 11 905 14 855 4
-49 7 -136 8 -192 1 -61 5 -103 11 -103 6 0 10 32 10 77 0 42 3 74 6 70 3 -3
10 -313 15 -689 5 -376 12 -694 16 -708 13 -46 21 93 23 425 2 287 4 314 15
260 l13 -60 1 122 c1 69 5 124 11 128 7 4 10 -76 11 -232 1 -131 4 -303 8
-383 6 -134 7 -121 13 175 4 176 12 442 18 590 6 149 10 345 10 438 l0 167 50
0 50 0 0 -62 c1 -35 5 -108 10 -163 6 -55 14 -415 20 -800 12 -910 27 -1789
37 -2240 7 -304 9 -337 13 -215 5 124 6 131 8 51 1 -52 5 -92 8 -88 4 3 10
469 14 1035 6 769 11 1035 20 1052 9 16 14 195 21 649 4 344 11 661 15 704 l7
77 48 0 49 0 -1 358 c0 196 -5 440 -10 542 -5 102 -13 433 -18 735 -13 725
-12 711 -26 520 l-12 -160 -3 155 -3 155 -8 -195 c-4 -107 -13 -321 -19 -475
-7 -154 -16 -584 -20 -955 -4 -371 -9 -676 -9 -677 -1 -2 -25 -3 -54 -3 l-53
0 -12 115 c-10 100 -24 614 -35 1342 -2 149 -7 217 -15 225 -8 8 -13 53 -14
128 l-1 115 -8 -90 c-4 -49 -7 -160 -8 -245 -2 -254 -15 -567 -22 -535 -5 21
-7 24 -9 10 l-1 -20 -9 20 c-6 13 -9 -15 -10 -80 0 -55 -7 -194 -15 -310 -8
-115 -15 -316 -16 -445 -1 -129 -5 -217 -9 -195 l-6 40 -8 -37 c-6 -28 -13
-38 -27 -38 -18 0 -19 12 -19 268 0 465 -14 1239 -21 1192 -4 -25 -8 -225 -8
-446 -1 -459 -11 -776 -22 -679 -7 59 -22 598 -36 1260 -6 262 -9 310 -15 235
-11 -152 -28 -573 -29 -725 0 -77 -4 -160 -8 -185 l-8 -45 -3 65 c-3 63 -3 62
-12 -35 -5 -55 -14 -206 -22 -335 l-13 -235 -3 400 c-1 220 -5 459 -9 530 l-6
130 -7 -229 c-5 -126 -9 -394 -10 -595 -2 -339 -2 -351 -8 -166 -4 110 -9 295
-10 410 -4 310 -19 183 -29 -250 -5 -192 -10 -399 -12 -460 l-3 -110 -6 160
c-4 88 -8 246 -9 352 0 116 -5 194 -11 198 -6 4 -10 -14 -11 -47 0 -29 -4 -62
-8 -73 -5 -11 -11 102 -14 255 -7 345 -23 760 -30 766 -2 3 -8 -107 -13 -243
-5 -164 -10 -234 -15 -208 -4 22 -8 73 -8 113 -1 41 -5 72 -11 72 -6 0 -11
-59 -12 -152 l-2 -153 -6 155 c-4 85 -8 311 -9 502 0 208 -5 349 -11 353 -5 3
-11 -23 -13 -62 -2 -42 -4 -15 -7 72 l-3 140 -7 -115 c-4 -63 -9 -207 -10
-320 l-3 -205 -7 228 c-4 125 -10 230 -14 234 -3 3 -6 -320 -6 -719 0 -398 -3
-855 -7 -1014 l-8 -289 -6 260 c-23 913 -29 1104 -39 1134 -5 19 -13 96 -17
170 -12 245 -23 94 -36 -499 -10 -466 -14 -541 -20 -426 -4 77 -7 187 -7 245
0 58 -3 144 -8 191 l-7 85 -6 -85 c-3 -47 -6 74 -7 268 -1 232 -5 351 -12 347
-6 -4 -11 -128 -12 -333 l-3 -327 -5 300 c-3 171 -8 289 -13 275 -4 -14 -11
-379 -14 -812 l-6 -788 -24 0 c-22 0 -23 3 -24 78 -1 95 -13 183 -22 162 -4
-8 -8 -67 -10 -130 -2 -75 -4 -40 -6 100 -2 118 -7 265 -11 325 l-7 110 -3
-150 c-3 -148 -3 -147 -11 93 -5 133 -13 251 -19 261 -6 12 -10 120 -10 281 0
153 -4 269 -10 280 -5 10 -13 130 -17 266 -3 136 -9 239 -13 228 -4 -10 -10
-392 -14 -849 -3 -456 -9 -881 -13 -942 l-6 -113 -48 0 -47 0 -6 93 c-18 308
-26 606 -27 927 0 599 -23 1355 -40 1366 -5 3 -9 -79 -9 -183 -1 -103 -5 -260
-10 -348 -6 -88 -13 -225 -16 -305 -4 -91 -11 -153 -19 -166 -10 -16 -15 -174
-20 -702 l-8 -682 -42 0 -42 0 -7 813 c-8 1011 -19 1736 -26 1637 -3 -41 -9
188 -13 510 -13 836 -22 1001 -26 450 -2 -239 -7 -739 -10 -1110 l-6 -675 -9
440 c-5 268 -12 428 -17 410 -5 -16 -13 -516 -19 -1109 -5 -593 -12 -1081 -15
-1084 -3 -3 -5 30 -6 74 0 43 -4 99 -8 124 -6 28 -9 -51 -10 -217 l-1 -263
-33 0 -34 0 -6 538 c-10 810 -19 1172 -29 1166 -4 -3 -9 -287 -10 -632 -2
-672 -3 -672 -18 13 -7 291 -15 485 -25 550 -8 55 -15 127 -16 160 -4 124 -17
-138 -19 -405 -1 -146 -5 -364 -9 -485 l-6 -220 -8 250 c-13 380 -24 398 -27
45 -2 -199 -6 -281 -10 -235 -4 39 -8 237 -9 440 0 204 -4 510 -9 680 l-7 310
-6 -195 c-4 -107 -8 -294 -10 -415 -2 -154 -4 -194 -8 -135 -9 129 -21 -444
-21 -977 0 -432 -1 -453 -18 -453 -17 0 -19 22 -30 343 -7 188 -14 499 -17
691 -3 220 -8 353 -15 360 -6 6 -11 80 -11 186 -1 96 -5 209 -8 250 -6 72 -7
74 -17 40 -8 -27 -12 53 -17 335 -4 204 -10 438 -14 520 -7 136 -8 144 -14 80
-4 -38 -8 -164 -9 -280 -1 -115 -6 -271 -9 -345 -6 -107 -8 -65 -9 206 -1 187
-5 410 -9 495 l-8 154 -6 -90 c-4 -49 -7 -475 -8 -946 -1 -471 -4 -1113 -8
-1427 -6 -546 -7 -572 -25 -572 -17 0 -18 14 -18 248 -1 499 -20 1572 -30
1737 -6 94 -15 226 -18 295 l-8 125 -6 -75 c-4 -41 -11 -309 -15 -595 -7 -445
-9 -492 -14 -325 -4 107 -7 438 -9 735 -1 297 -6 599 -9 670 l-8 130 -3 -160
c-4 -154 -8 8 -21 745 -4 259 -15 -854 -20 -1955 -3 -936 -3 -942 -20 240 -3
262 -14 -409 -19 -1265 -4 -477 -4 -485 -9 -203 -4 160 -10 295 -14 299 -4 4
-7 -19 -7 -51 0 -32 -2 -56 -6 -53 -5 5 -15 383 -32 1190 -4 191 -11 350 -15
354 -4 4 -8 -177 -8 -402 -1 -225 -5 -555 -8 -734 l-7 -325 -3 225 c-2 124 -7
295 -11 380 -6 137 -7 144 -8 56 -1 -55 -4 -97 -7 -94 -4 3 -10 484 -15 1069
-5 588 -13 1077 -18 1094 -12 40 -21 -436 -32 -1805 -6 -602 -13 -1197 -16
-1322 -7 -212 -8 -228 -26 -228 -15 0 -18 8 -19 48 -1 26 -5 94 -9 152 l-7
105 -3 -155 c-2 -85 -5 -135 -8 -110 -3 35 -6 41 -12 25 -5 -11 -9 146 -9 350
-1 469 -14 1131 -21 1045 -3 -36 -9 417 -14 1005 -4 589 -12 1108 -16 1155 -8
95 -8 72 -19 -1090 l-7 -695 -4 735 c-3 583 -6 684 -11 490 -4 -135 -10 -878
-14 -1652 l-8 -1408 -37 0 -38 0 -5 113 c-3 61 -10 600 -16 1197 -6 597 -15
1200 -20 1340 -6 140 -13 845 -17 1565 -3 721 -10 1346 -14 1390 l-7 80 -3
-110 c-23 -956 -38 -2288 -46 -4037 l-6 -1538 -43 0 -43 0 -6 123 c-3 67 -8
388 -11 712 -3 325 -10 948 -15 1385 -5 437 -10 1126 -11 1530 -1 404 -5 814
-8 910 l-7 175 -4 -290 c-1 -159 -6 -402 -10 -540 -4 -158 -7 112 -8 738 -1
566 -6 987 -11 987 -5 0 -11 -114 -15 -252z"/>
<path d="M21867 8105 c-13 -353 -37 -1023 -43 -1227 -3 -115 -10 -208 -15
-208 -5 0 -9 42 -9 93 0 52 -3 162 -7 245 -5 126 -8 148 -19 137 -23 -23 -32
-133 -51 -650 -10 -291 -20 -473 -24 -435 l-6 65 -2 -55 c-1 -36 -5 -50 -10
-40 -5 8 -11 114 -15 235 -13 471 -19 594 -27 589 -5 -3 -9 -62 -9 -132 0 -70
-3 -179 -8 -242 l-7 -115 -6 75 -5 75 -4 -80 -3 -80 -7 55 c-5 30 -9 93 -10
140 l-3 85 -7 -60 c-4 -33 -8 -104 -9 -157 -1 -54 -5 -98 -9 -98 -16 0 -40
216 -65 575 -11 159 -13 172 -18 110 l-5 -70 -2 91 c-1 50 -5 167 -9 260 l-8
169 -7 -145 c-4 -80 -14 -397 -21 -705 -8 -308 -15 -551 -17 -540 -1 11 -6 2
-12 -22 -9 -42 -10 -43 -52 -43 l-43 0 -7 313 c-14 548 -20 680 -34 685 -8 2
-12 31 -13 90 -1 48 -4 112 -9 142 -7 51 -7 52 -9 15 -1 -30 -4 -36 -11 -25
-7 10 -10 -18 -11 -90 0 -58 -5 -130 -10 -160 -15 -93 -27 -255 -36 -485 -6
-175 -9 -204 -14 -140 l-5 80 -3 -75 c-14 -342 -14 -345 -38 -348 -22 -3 -23
-1 -24 85 -1 74 -3 82 -10 48 -4 -22 -8 -61 -8 -87 -1 -46 -2 -48 -31 -48
l-29 0 -4 98 -3 97 -2 -97 c-1 -57 -6 -98 -12 -98 -7 0 -10 -142 -10 -406 0
-267 3 -403 10 -399 6 4 11 95 12 233 2 200 3 182 9 -143 3 -203 7 -602 9
-885 1 -283 6 -546 10 -585 4 -45 7 28 9 210 2 322 18 774 28 813 5 19 11 -14
19 -103 l11 -130 2 155 c0 85 8 209 16 275 9 71 18 264 23 475 4 195 8 335 10
310 2 -25 7 -49 13 -54 5 -6 9 36 9 112 l0 122 39 0 39 0 7 -257 c4 -142 11
-341 15 -443 l7 -185 3 220 c9 674 15 669 22 -15 5 -377 8 -856 9 -1065 0
-209 4 -402 9 -430 4 -30 8 92 9 301 2 633 21 984 32 594 l3 -105 6 95 c6 92
6 93 8 25 1 -46 5 -66 12 -59 11 11 14 88 32 832 6 270 15 492 19 492 4 0 10
-39 14 -87 9 -122 13 -125 14 -10 1 57 5 97 11 97 6 0 10 -74 10 -202 0 -248
13 -345 20 -158 5 116 6 106 15 -140 5 -146 11 -245 13 -220 6 87 22 67 24
-31 l1 -94 7 75 c4 41 9 228 11 415 2 245 5 305 9 215 l6 -125 3 90 c3 69 5
82 11 55 4 -19 8 -28 10 -20 1 8 6 2 10 -15 5 -21 8 -1 9 64 0 52 3 92 5 90 3
-2 9 -119 15 -259 11 -266 27 -384 32 -240 1 41 6 -58 9 -220 4 -162 13 -396
19 -520 12 -246 30 -945 33 -1300 l1 -225 7 210 c4 116 11 487 16 825 l9 615
10 -275 10 -275 8 645 c4 355 10 729 13 833 7 186 7 187 29 187 22 0 23 -3 30
-145 4 -80 11 -145 15 -145 8 0 18 51 22 105 1 17 5 -64 10 -180 4 -115 12
-264 18 -330 5 -66 14 -376 20 -690 11 -594 17 -735 30 -700 4 11 10 126 14
255 7 261 22 489 36 565 5 28 11 304 15 615 3 311 8 584 12 608 5 42 5 42 48
42 40 0 43 -2 49 -31 3 -17 6 -61 6 -98 0 -36 7 -86 16 -110 12 -34 17 -124
24 -390 5 -190 10 -357 10 -371 1 -25 1 -25 17 5 14 26 17 92 22 505 7 545 17
482 21 -125 1 -214 5 -453 9 -530 5 -116 7 -72 14 254 4 217 7 506 7 643 0
159 4 248 10 248 6 0 11 -19 11 -42 2 -35 3 -37 6 -13 5 35 20 55 39 55 11 0
14 -33 16 -167 1 -150 2 -159 9 -83 4 47 8 123 9 170 3 133 18 38 21 -135 l3
-140 5 127 c10 214 21 155 22 -118 1 -233 13 -535 17 -441 2 47 22 49 22 1 0
-62 20 -26 21 39 1 34 3 54 6 45 2 -10 8 -18 12 -18 13 0 21 64 22 175 1 55 4
85 6 67 2 -18 9 -30 14 -27 5 4 9 94 9 209 0 112 3 224 6 250 6 40 10 46 30
46 26 0 22 50 43 -555 6 -187 15 -405 21 -485 5 -80 12 -314 15 -520 3 -206 8
-431 12 -500 l7 -125 13 125 c28 268 32 360 34 805 1 253 5 609 8 790 l7 330
3 -370 c2 -203 6 -395 11 -425 4 -35 8 39 9 205 0 143 4 365 8 493 l6 232 32
0 c32 0 32 0 39 -61 3 -34 6 -96 6 -138 0 -45 4 -71 9 -63 9 15 15 -12 35
-163 l12 -90 7 154 c4 85 7 191 7 235 0 91 7 126 24 126 12 0 22 -172 46 -785
5 -121 14 -236 19 -255 6 -19 11 -71 12 -115 1 -65 2 -74 10 -50 5 17 13 154
18 305 5 151 14 289 20 305 5 17 12 143 15 280 3 138 9 264 14 280 l9 30 6
-40 c3 -22 9 -103 13 -180 l8 -140 13 180 c8 104 18 181 24 184 13 4 1 912
-13 996 -6 33 -14 110 -17 172 -3 61 -9 115 -13 119 -5 4 -8 -4 -9 -17 0 -13
-5 -109 -10 -214 -8 -172 -26 -801 -28 -982 -1 -66 -3 -73 -21 -73 -19 0 -20
7 -20 118 0 66 -3 173 -6 239 -6 101 -9 120 -23 119 -12 -1 -18 16 -26 69 -8
55 -12 65 -18 45 -4 -14 -7 -47 -7 -75 0 -36 -3 -46 -10 -35 -7 11 -10 5 -11
-25 -1 -39 -2 -39 -9 -10 -4 17 -9 55 -11 85 -3 71 -16 -166 -19 -375 l-3
-160 -12 175 -12 175 -3 -115 c-2 -101 -4 -108 -10 -60 -5 30 -9 96 -11 145
-2 86 -3 87 -8 30 -5 -54 -7 -47 -13 64 -5 68 -8 188 -9 265 -1 78 -4 130 -8
116 -5 -17 -10 8 -14 73 -4 54 -11 106 -16 115 -7 12 -11 -81 -11 -288 -1
-168 -5 -296 -9 -285 -13 32 -19 -24 -27 -224 -6 -167 -8 -181 -26 -181 -13 0
-18 7 -18 29 0 16 -3 36 -6 45 -12 31 -24 16 -24 -30 0 -27 -4 -43 -10 -39 -6
4 -10 57 -10 128 0 300 -23 1027 -35 1097 -13 74 -13 73 -15 -135 -2 -117 -6
-190 -10 -165 -5 38 -7 41 -13 20 -3 -14 -9 -52 -11 -85 -3 -33 -9 -96 -15
-140 -5 -44 -10 -172 -12 -285 -1 -113 -5 -189 -8 -170 l-7 35 -7 -49 c-4 -27
-7 -95 -7 -152 0 -57 -4 -104 -9 -104 -5 0 -12 60 -16 133 -7 117 -9 129 -20
103 -12 -28 -12 -28 -19 30 -3 32 -9 96 -12 142 -4 45 -10 85 -15 88 -5 3 -9
-39 -9 -93 0 -54 -5 -105 -10 -113 -7 -10 -10 21 -10 96 0 216 -15 222 -20 9
l-6 -200 -2 230 c-3 286 -12 449 -23 390 -5 -22 -9 -123 -10 -225 -2 -134 -4
-166 -9 -115 -5 51 -7 59 -9 30 -2 -32 -4 -36 -11 -20 -5 11 -9 97 -10 190 -1
94 -4 188 -9 210 l-7 40 -7 -55 c-3 -30 -10 -219 -14 -420 -7 -310 -9 -345
-14 -230 -10 205 -13 203 -19 -15 -5 -198 -5 -200 -27 -203 -21 -3 -23 1 -25
55 l-1 58 -7 -60 c-4 -33 -7 -47 -8 -32 -1 16 -6 26 -11 23 -8 -6 -15 106 -31
539 -8 212 -25 422 -35 433 -3 3 -15 -255 -25 -528 l-7 -205 -1 161 c-1 89 -5
190 -9 225 -7 64 -7 64 -14 24 -5 -22 -9 -168 -9 -325 -2 -314 -15 -334 -29
-45 l-8 160 -2 -145 c-2 -90 -6 -136 -11 -120 -7 22 -8 21 -11 -15 -2 -38 -3
-37 -9 15 -6 52 -7 51 -8 -30 -3 -125 -12 -190 -28 -190 -11 0 -14 57 -17 288
-7 513 -28 1572 -35 1787 l-7 210 -8 -180z"/>
<path d="M23956 7338 c-3 -13 -6 -79 -7 -148 -1 -133 -14 -277 -19 -225 -5 48
-18 -224 -19 -417 -1 -111 -5 -178 -11 -178 -5 0 -10 6 -10 13 0 8 -7 14 -15
14 -13 0 -15 -27 -17 -171 -1 -167 -1 -168 -8 -66 -4 58 -11 211 -16 340 l-9
235 -6 -150 c-4 -82 -7 -241 -8 -352 0 -111 -4 -208 -7 -217 -15 -39 -24 4
-24 112 0 64 -7 227 -15 362 -23 363 -27 412 -31 408 -2 -3 -9 -74 -15 -159
-14 -210 -26 -322 -27 -277 -1 20 -6 39 -10 42 -10 6 -22 -171 -22 -330 0
-129 -7 -174 -26 -174 -11 0 -14 33 -14 173 -1 94 -5 192 -11 217 -5 25 -14
92 -20 150 -5 58 -13 112 -16 120 -9 21 -21 -78 -22 -185 -1 -50 -5 -95 -11
-101 -5 -5 -14 -40 -19 -78 -10 -71 -20 -96 -22 -55 -3 62 -17 -43 -18 -138
-2 -170 -18 -116 -23 75 -3 97 -9 188 -15 202 -6 15 -14 209 -19 490 -4 263
-11 448 -15 425 -4 -22 -13 -132 -20 -245 -15 -270 -25 -394 -27 -348 -1 20
-6 40 -12 43 -6 4 -10 -31 -10 -97 0 -57 -5 -110 -10 -118 -7 -11 -10 -4 -10
28 0 23 -4 42 -10 42 -6 0 -10 -36 -10 -87 0 -49 -3 -173 -7 -278 -8 -209 -15
-198 -29 45 l-8 145 -7 -90 c-4 -49 -7 -132 -8 -183 -1 -51 -6 -113 -12 -138
-9 -34 -9 -224 0 -752 19 -1179 22 -1281 38 -1275 10 4 13 -21 14 -128 3 -213
16 -59 19 211 2 224 14 353 21 225 4 -87 16 613 18 1065 0 212 4 442 8 513 l6
127 32 0 32 0 6 -67 c4 -38 7 -117 8 -178 0 -60 4 -130 8 -155 8 -44 9 -44 11
25 l3 70 12 -95 12 -95 4 75 c4 64 5 57 7 -45 1 -66 5 -178 9 -250 8 -158 21
-120 24 75 2 99 3 112 8 63 3 -34 12 -68 19 -75 9 -10 12 15 12 125 0 75 4
137 9 137 15 0 20 -40 27 -245 7 -205 22 -308 23 -160 1 112 12 215 22 209 5
-3 9 -4 9 -2 1 2 5 75 10 163 20 361 23 405 29 399 3 -3 8 -40 11 -82 7 -90
16 -79 25 31 5 57 10 77 21 77 11 0 14 -25 14 -131 0 -80 4 -139 12 -152 7
-14 14 -119 19 -292 4 -148 12 -416 18 -595 6 -179 14 -426 18 -550 4 -140 9
-212 14 -190 4 19 12 231 19 470 6 239 16 437 21 440 9 6 29 557 29 833 l0
167 35 0 35 0 1 -102 c1 -85 3 -95 10 -58 4 25 8 71 8 103 1 87 21 69 22 -20
3 -312 27 -747 46 -833 5 -19 8 -12 17 33 13 68 26 65 26 -5 0 -27 4 -47 9
-44 5 3 12 114 16 246 6 184 11 242 21 251 10 8 14 38 14 103 0 50 5 98 10
106 7 11 10 -2 10 -42 0 -32 5 -58 10 -58 6 0 10 26 11 58 1 31 4 82 9 112 6
45 8 49 9 20 4 -58 19 -5 20 68 1 59 2 62 26 62 l25 0 2 -117 c1 -103 2 -110
8 -53 l7 65 1 -75 c8 -284 23 -580 31 -601 8 -19 10 -7 11 56 3 166 17 177 19
15 3 -222 19 -606 28 -670 l8 -55 7 85 c6 69 19 566 28 1030 1 57 4 79 10 65
6 -15 9 -8 9 28 1 48 16 64 24 25 2 -13 5 28 6 90 l1 112 49 0 49 0 6 -97 c3
-54 11 -224 16 -378 15 -400 27 -586 39 -598 8 -8 11 -6 11 7 0 53 24 263 31
272 13 16 28 235 35 527 l7 267 44 0 43 0 0 -76 c0 -41 4 -73 8 -70 5 3 12
-50 15 -118 4 -67 10 -131 14 -142 6 -17 8 -17 14 6 4 14 8 50 9 80 1 46 3 51
11 31 5 -13 15 -126 21 -252 6 -126 13 -227 15 -225 2 2 10 84 18 182 8 99 15
186 16 194 3 35 18 -71 19 -140 2 -97 15 -189 23 -170 3 8 10 31 16 50 5 19
10 27 10 18 2 -38 21 -16 21 25 0 28 3 37 9 28 6 -9 11 31 15 105 9 149 13
171 15 72 2 -127 21 -93 22 40 1 64 5 149 9 187 l7 70 3 -75 3 -75 7 55 c5 30
9 89 10 130 2 53 4 65 9 42 8 -43 25 -46 29 -4 6 61 22 32 22 -42 0 -106 11
-205 21 -181 5 13 8 -3 9 -45 0 -36 7 -94 14 -130 l14 -65 2 60 c2 63 4 64 15
3 9 -56 23 -46 31 22 6 57 17 76 27 48 4 -14 12 75 23 255 l7 107 27 0 c25 0
28 -4 34 -46 3 -26 6 -65 6 -87 0 -49 17 -39 22 13 5 51 15 -51 27 -300 6
-113 16 -275 21 -360 6 -85 13 -192 16 -238 3 -46 8 -81 10 -79 3 3 9 117 15
253 5 137 13 258 18 269 5 11 12 63 15 116 8 136 24 171 26 54 1 -49 5 -99 9
-110 8 -21 16 75 27 353 7 171 24 223 24 75 0 -49 5 -95 10 -103 8 -13 10 -12
10 4 0 11 3 16 7 12 4 -3 13 -172 20 -374 7 -202 16 -383 21 -402 l9 -35 6 45
c12 80 26 260 38 480 6 118 13 217 15 219 2 2 4 -45 5 -105 1 -115 14 -244 19
-189 2 17 6 143 9 280 l6 250 24 3 c13 2 27 -2 31 -8 4 -7 11 -73 15 -146 5
-97 11 -134 20 -134 13 0 24 -105 26 -240 0 -86 13 -163 22 -140 10 25 27 168
28 238 0 47 3 61 9 47 8 -19 9 -19 9 3 1 13 5 21 10 17 5 -3 13 24 16 60 4 35
14 70 21 76 9 7 15 34 15 68 1 31 4 43 6 26 1 -16 6 -55 9 -85 9 -79 22 -38
24 75 1 57 5 81 9 65 7 -21 9 -17 15 28 9 60 26 70 26 15 0 -21 5 -45 10 -53
7 -11 10 0 10 38 0 52 13 69 25 33 11 -36 25 -187 25 -281 0 -52 3 -125 7
-163 5 -55 8 -65 19 -56 11 9 14 5 15 -22 1 -53 17 -5 19 56 1 50 18 111 19
72 1 -10 7 -17 14 -15 14 5 24 96 26 239 2 137 10 189 30 189 14 0 19 -22 29
-152 7 -84 16 -166 21 -183 l8 -30 8 30 c12 53 13 51 15 -30 2 -78 15 -195 19
-165 1 8 6 80 11 160 5 88 14 162 24 189 9 24 16 74 16 112 0 69 0 69 -28 69
-26 0 -28 4 -40 65 -6 35 -12 85 -12 111 0 39 -2 44 -14 35 -12 -10 -15 17
-21 172 -4 102 -11 190 -15 197 -4 7 -11 -37 -15 -96 -4 -60 -11 -113 -15
-119 -4 -5 -13 -77 -19 -160 -16 -209 -15 -205 -57 -205 -26 0 -34 4 -34 18
-1 15 -2 14 -12 -3 -10 -17 -13 -11 -24 50 -7 39 -16 120 -20 180 -8 132 -18
160 -30 85 -17 -101 -29 -53 -41 157 -6 115 -12 217 -12 228 -1 17 -3 18 -11
4 -5 -8 -13 -110 -19 -225 -10 -206 -15 -244 -32 -244 -5 0 -9 -11 -9 -25 0
-13 -5 -69 -11 -125 -11 -95 -13 -100 -35 -100 -18 0 -24 7 -28 33 -15 105
-27 256 -42 522 -9 176 -21 319 -29 345 l-14 45 -1 -35 c-1 -19 -8 -120 -15
-225 -9 -148 -13 -172 -15 -110 -1 44 -5 94 -9 110 -14 65 -30 -83 -41 -374
-6 -161 -13 -297 -16 -302 -15 -24 -24 -2 -25 59 -1 43 -3 58 -8 42 -12 -44
-18 -8 -25 145 -11 262 -18 347 -28 337 -5 -5 -13 -63 -18 -128 -12 -164 -32
-297 -42 -281 -4 6 -8 32 -9 57 -1 25 -5 59 -9 75 l-7 30 -11 -28 c-7 -16 -12
-66 -12 -111 0 -116 -12 -219 -21 -186 -4 14 -8 50 -9 80 -2 88 -16 105 -23
31 -4 -35 -8 -80 -9 -100 -3 -77 -16 136 -22 364 -12 423 -28 456 -42 85 -8
-200 -9 -215 -15 -135 -4 50 -8 149 -9 220 0 72 -5 148 -9 170 l-7 40 -7 -40
c-3 -22 -10 -119 -14 -215 -7 -156 -9 -166 -14 -95 -3 44 -7 78 -8 75 -3 -6
-17 -128 -30 -270 -5 -52 -13 -125 -16 -162 l-7 -68 -39 0 -39 0 -1 53 c-2
192 -37 823 -48 882 -7 35 -9 28 -16 -58 -4 -53 -11 -100 -16 -103 -5 -3 -9
-15 -9 -27 0 -16 -3 -18 -9 -9 -5 8 -11 -49 -16 -140 -4 -84 -10 -171 -15
-193 -7 -36 -8 -32 -10 35 -2 56 -5 35 -11 -80 -5 -85 -11 -201 -15 -257 l-6
-103 -29 0 c-17 0 -29 5 -29 13 0 59 -23 342 -30 364 -8 26 -8 24 -11 -17 l-2
-45 -7 55 c-5 30 -8 88 -9 128 -2 136 -18 64 -25 -110 -3 -95 -9 -220 -13
-278 l-7 -105 -12 85 c-8 59 -12 72 -13 44 -5 -153 -35 -184 -46 -46 -4 48
-10 107 -15 132 -7 42 -8 39 -10 -35 -2 -60 -4 -72 -10 -50 -4 17 -8 51 -9 77
0 25 -6 48 -13 50 -7 3 -14 49 -20 128 -8 124 -18 172 -18 89 0 -32 -3 -40
-10 -29 -5 8 -10 28 -10 45 0 47 -18 16 -23 -40 -2 -27 -4 4 -5 70 -4 199 -19
112 -28 -154 -8 -242 -8 -244 -19 -156 l-10 90 -13 -50 c-7 -27 -17 -64 -22
-81 -6 -17 -10 -63 -10 -103 0 -46 -4 -70 -10 -66 -6 3 -10 48 -10 100 0 51
-4 95 -10 97 -15 5 -30 135 -40 348 -27 566 -34 662 -42 639 -5 -13 -14 -217
-19 -454 -6 -236 -14 -477 -18 -535 -7 -95 -8 -82 -11 125 -2 241 -10 322 -23
231 -4 -27 -7 -133 -7 -235 0 -209 -9 -336 -21 -306 -4 11 -8 54 -8 95 -2 125
-14 270 -23 270 -4 0 -8 -53 -8 -117 0 -65 -5 -125 -10 -133 -7 -10 -10 12
-10 73 0 51 -4 87 -10 87 -5 0 -11 28 -11 63 -2 73 -5 61 -14 -47 -5 -52 -10
-74 -16 -65 -5 8 -9 28 -9 44 0 42 -20 71 -20 30 0 -20 -3 -26 -9 -17 -6 10
-10 6 -16 -15 -8 -28 -8 -28 -16 12 -4 22 -9 69 -10 105 -1 36 -4 55 -6 43 -7
-36 -21 -27 -26 15 -2 20 -5 -1 -7 -48 -2 -78 -3 -81 -11 -40 -4 25 -8 65 -10
90 -1 25 -4 35 -6 23 -2 -13 -8 -23 -13 -23 -10 0 -30 -111 -31 -181 l-1 -54
-11 45 -11 45 -6 -55 c-5 -52 -5 -53 -12 -21 -5 18 -8 51 -8 72 0 22 -4 39
-10 39 -6 0 -10 -37 -11 -87 -1 -49 -4 -128 -8 -178 l-7 -90 -7 55 c-3 30 -11
170 -17 310 -6 140 -15 334 -21 430 -5 96 -14 262 -19 369 -5 107 -11 196 -13
198 -3 2 -7 -7 -11 -19z"/>
<path d="M26625 6669 c-3 -19 -9 -79 -14 -134 l-8 -100 -8 54 c-14 95 -23 30
-30 -231 -6 -173 -4 -251 3 -264 6 -10 12 -13 12 -6 0 14 36 16 45 3 3 -6 9
-104 14 -218 4 -123 12 -217 19 -228 9 -17 11 -10 12 40 0 68 19 59 20 -10 1
-84 21 -4 35 138 19 193 36 287 52 287 17 0 21 -23 28 -185 4 -78 11 -143 17
-146 6 -4 19 -77 29 -163 23 -198 34 -221 43 -90 12 184 18 240 26 220 6 -18
7 -18 14 5 3 13 11 94 17 179 5 85 11 162 12 170 2 8 8 -55 14 -140 10 -136
28 -269 32 -232 0 7 5 11 10 7 5 -3 12 5 14 17 2 13 5 -13 7 -57 1 -44 5 -91
10 -105 l7 -25 7 25 c3 14 10 84 16 155 5 72 14 183 21 248 l13 117 28 0 c25
0 28 -3 28 -34 0 -19 9 -101 20 -182 11 -82 25 -218 31 -302 5 -85 14 -163 18
-175 10 -26 27 124 41 348 14 224 20 286 30 280 4 -3 11 11 14 30 5 25 12 35
25 35 17 0 20 -13 26 -155 4 -85 11 -155 16 -155 4 0 9 10 11 23 2 12 7 -48
11 -133 12 -251 19 -327 28 -304 9 25 26 256 34 469 3 83 8 174 11 203 5 51 6
52 38 52 l33 0 7 -102 c32 -521 35 -548 51 -548 7 0 16 -10 19 -22 16 -57 28
30 46 339 11 181 20 329 20 331 0 1 17 2 39 2 38 0 38 0 44 -47 4 -27 9 -97
12 -158 4 -60 13 -130 20 -155 8 -25 17 -58 20 -73 7 -37 22 -26 30 23 8 45
25 44 25 -1 0 -43 16 -27 23 22 3 23 10 45 16 48 5 4 13 27 17 51 l7 45 12
-35 c6 -18 14 -30 17 -24 3 5 9 59 12 119 4 61 9 127 12 148 6 36 7 37 50 37
28 0 44 -4 44 -12 0 -7 7 -83 14 -168 8 -85 18 -204 22 -265 6 -112 22 -161
35 -114 7 23 7 23 8 2 1 -12 5 -24 10 -28 12 -7 17 33 36 300 18 251 26 285
66 285 26 0 28 -3 34 -57 3 -32 12 -96 20 -143 8 -47 18 -111 21 -143 3 -36
11 -60 20 -64 7 -3 16 -21 20 -41 15 -94 24 -74 44 96 7 62 17 115 21 118 5 3
9 -3 9 -13 0 -15 2 -16 10 -3 5 8 10 28 10 43 0 16 4 26 9 22 6 -3 13 11 16
32 4 21 10 47 15 58 7 17 9 16 9 -10 2 -50 16 -59 31 -20 8 19 17 35 21 35 4
0 11 -19 15 -42 4 -24 9 -35 12 -25 6 29 22 8 22 -29 0 -42 23 -120 56 -188
20 -43 24 -46 24 -23 0 16 8 32 20 39 15 10 20 24 21 63 0 55 17 112 18 65 2
-41 21 -2 21 43 0 56 24 47 39 -15 6 -29 15 -88 18 -131 6 -75 23 -119 23 -59
0 16 3 50 6 76 6 37 9 44 20 35 8 -6 14 -27 14 -45 0 -19 5 -34 10 -34 6 0 10
25 10 56 0 75 21 247 31 259 5 5 9 18 9 30 0 16 2 17 10 5 5 -8 10 -42 10 -74
0 -115 30 -238 51 -205 4 7 10 -22 14 -65 8 -79 17 -95 31 -48 l8 27 6 -35 c7
-38 7 -36 30 199 5 52 14 99 20 105 5 5 10 32 10 58 0 44 2 48 24 48 21 0 25
-6 28 -32 2 -19 8 -32 15 -31 14 3 16 -14 44 -299 12 -126 25 -228 29 -228 4
0 12 44 19 98 7 53 15 108 19 122 l6 25 6 -25 7 -25 12 28 c6 16 11 41 11 56
0 15 7 50 15 77 8 27 15 72 15 101 0 28 5 55 10 58 6 4 10 -8 10 -29 0 -75 28
-36 31 43 0 25 1 25 12 -6 7 -17 15 -35 20 -39 4 -4 7 -22 7 -40 0 -18 5 -36
10 -39 6 -4 10 6 10 22 l1 28 14 -30 c16 -34 37 -68 46 -75 3 -3 9 -12 12 -20
3 -8 6 2 6 22 1 48 21 61 21 14 0 -19 5 -38 10 -41 6 -3 10 -21 10 -38 0 -18
4 -38 9 -45 8 -14 14 15 27 153 10 97 44 129 44 41 0 -23 3 -51 6 -63 11 -39
24 -14 25 45 l0 57 15 -37 c9 -21 24 -40 34 -43 12 -4 20 -21 25 -53 l8 -47
12 50 13 50 2 -50 c1 -27 5 -59 9 -70 9 -22 14 6 26 137 4 37 10 70 15 73 4 3
11 -27 15 -66 9 -84 25 -75 25 14 0 36 4 56 10 52 6 -3 10 -20 10 -38 0 -33
14 -28 23 8 3 11 5 -12 6 -52 1 -75 14 -103 26 -56 4 19 9 23 15 14 5 -9 11
10 16 50 l8 64 7 -98 c7 -105 28 -157 30 -76 1 40 2 41 9 14 7 -32 16 -22 23
25 2 20 5 16 14 -20 6 -25 11 -37 12 -27 1 24 21 11 21 -14 0 -10 5 -19 10
-19 6 0 10 28 10 63 0 68 19 119 21 57 0 -19 4 -46 9 -60 6 -23 8 -22 15 15 4
22 14 52 21 67 8 15 14 42 14 60 l1 33 15 -35 c8 -19 17 -55 20 -80 9 -73 16
-79 29 -25 l12 50 7 -45 c10 -63 16 -80 27 -80 5 0 9 7 9 15 0 23 31 95 41 95
5 0 9 -11 9 -25 0 -51 19 -23 30 45 6 38 15 72 20 75 4 3 11 -20 15 -50 6 -54
25 -87 25 -44 0 37 14 11 20 -39 6 -44 7 -46 18 -22 l11 25 0 -26 c1 -43 13
-89 22 -89 5 0 9 7 9 16 0 14 3 14 15 4 12 -10 15 -10 15 1 0 8 4 20 9 28 8
12 12 12 25 2 14 -11 16 -11 16 5 1 11 7 33 14 49 l14 30 10 -25 c8 -21 11
-22 17 -8 4 9 13 14 21 11 11 -4 14 5 14 42 0 41 2 47 19 42 15 -4 20 4 30 49
7 30 16 54 20 54 9 0 39 -105 48 -167 4 -31 12 -47 23 -50 14 -4 19 -21 24
-86 8 -99 20 -155 28 -142 3 6 11 55 17 110 14 120 29 193 46 220 6 11 18 43
25 72 8 29 17 50 22 47 4 -3 8 0 8 7 0 7 3 9 8 5 4 -4 12 -44 18 -89 20 -143
37 -217 50 -217 7 0 16 -10 19 -21 10 -30 25 -5 25 40 0 25 4 32 15 27 10 -3
15 1 15 11 0 14 2 14 14 -2 15 -21 13 -29 32 90 3 20 9 33 14 30 9 -6 13 -24
26 -120 8 -65 19 -39 28 71 8 86 27 156 45 162 6 2 11 10 11 18 0 8 6 11 15 8
9 -4 15 -19 15 -35 0 -16 4 -37 9 -47 18 -33 49 -177 56 -260 6 -68 10 -80 21
-71 8 6 14 8 14 3 1 -23 30 33 30 58 0 15 4 47 10 70 5 24 15 103 21 176 l11
132 33 0 33 0 11 -82 c6 -46 18 -134 26 -196 8 -62 21 -123 30 -135 13 -19 15
-19 15 -3 0 12 5 16 15 13 16 -7 20 11 30 128 9 104 16 135 30 135 8 0 16 20
21 53 7 47 8 49 14 22 4 -16 16 -46 28 -65 11 -19 25 -68 30 -107 11 -74 29
-107 55 -97 8 3 18 15 22 27 5 17 8 18 12 7 17 -43 41 -24 42 34 1 24 3 27 16
16 18 -15 45 -6 45 15 0 9 5 13 10 10 6 -4 10 5 10 21 0 40 10 23 19 -33 6
-37 10 -43 15 -28 5 11 14 36 21 55 14 38 15 37 38 -45 l14 -50 19 64 c17 57
21 63 34 49 8 -8 21 -13 30 -11 8 2 20 0 27 -5 13 -8 43 -135 43 -183 0 -19 5
-29 15 -29 8 0 15 9 15 21 0 11 5 17 10 14 6 -3 10 1 10 9 0 9 4 16 10 16 14
0 28 62 38 173 5 54 12 100 14 103 22 22 62 -73 90 -214 5 -29 13 -51 16 -48
3 3 12 1 19 -6 20 -16 28 -1 49 87 37 159 64 209 64 123 0 -24 8 -74 16 -113
9 -38 19 -85 21 -102 6 -41 16 -41 47 0 18 23 28 55 36 107 15 106 19 122 30
115 6 -3 10 4 11 17 1 37 36 -77 53 -177 27 -149 25 -143 46 -138 20 5 21 6
54 223 23 146 40 210 56 210 4 0 11 -26 15 -57 4 -32 14 -71 22 -86 10 -21 43
-167 43 -194 0 -2 4 -3 8 -3 15 0 31 46 38 112 4 35 8 66 10 69 2 3 19 1 38
-5 33 -10 35 -15 57 -93 12 -45 25 -80 29 -78 4 3 11 31 15 62 9 83 15 103 30
103 7 0 20 30 31 70 10 38 19 68 22 66 2 -2 14 -51 28 -107 13 -57 30 -117 36
-133 l11 -28 18 33 c16 29 18 31 19 12 0 -14 6 -23 15 -23 9 0 15 9 15 23 0
35 23 105 28 84 2 -9 8 -15 13 -12 5 4 9 1 9 -6 0 -7 6 -5 14 6 12 17 15 14
30 -33 10 -29 21 -54 26 -57 9 -5 27 42 32 84 5 40 25 36 33 -6 3 -21 13 -49
20 -63 l14 -25 1 28 c0 55 17 25 31 -59 8 -47 18 -85 23 -85 13 0 44 83 61
161 8 36 23 89 33 119 22 59 21 60 37 -46 4 -24 11 -45 16 -49 5 -3 9 -13 9
-24 0 -10 6 -20 14 -23 7 -3 16 -23 20 -44 14 -85 38 -82 55 9 16 82 43 178
50 178 27 -1 52 -71 66 -186 6 -51 37 -100 55 -89 9 5 32 99 54 220 12 64 14
68 24 45 6 -14 11 -19 11 -12 1 6 5 12 10 12 9 0 31 -65 57 -172 16 -64 33
-82 35 -35 l0 22 11 -22 11 -22 17 22 c10 12 23 58 30 102 20 129 27 130 45 8
6 -38 25 -71 25 -43 0 21 22 -3 40 -44 15 -35 19 -38 25 -21 3 11 11 28 16 37
5 10 9 25 9 34 0 14 4 13 20 -5 l19 -23 6 28 c16 69 16 70 31 50 8 -12 19 -16
33 -11 17 5 21 0 27 -30 8 -44 21 -54 30 -20 7 28 24 24 24 -6 0 -36 23 -14
37 35 12 40 16 46 28 36 12 -10 18 -5 34 31 l20 43 6 -29 c13 -56 16 -65 27
-65 6 0 17 8 24 18 13 16 13 16 14 -1 0 -20 22 -47 38 -47 9 0 42 68 51 109 3
13 11 26 18 28 12 4 17 -9 28 -72 6 -36 8 -38 20 -21 13 16 15 14 26 -25 8
-27 14 -37 16 -26 3 9 9 17 14 17 5 0 9 9 9 19 0 28 17 35 23 10 3 -12 9 -19
14 -16 12 8 40 68 48 101 7 35 18 25 34 -32 8 -29 17 -42 26 -38 9 3 18 -15
30 -62 9 -37 20 -74 25 -82 10 -17 12 -14 30 58 10 38 19 47 42 43 4 0 15 13
23 29 16 31 45 41 45 16 0 -8 5 -27 11 -43 l11 -28 12 27 12 28 13 -35 c7 -19
16 -35 20 -35 11 0 31 46 31 70 0 42 29 11 45 -48 5 -17 11 -21 30 -16 16 4
26 0 33 -12 9 -15 13 -9 26 36 8 30 18 69 22 85 l7 30 13 -30 c11 -26 13 -12
12 110 -1 77 -3 128 -5 113 -4 -26 -23 -41 -23 -18 0 18 -20 11 -21 -7 -1 -29
-15 14 -24 72 -8 58 -21 86 -37 82 -6 -1 -17 8 -23 20 -16 31 -35 11 -35 -37
0 -48 -12 -66 -30 -45 -9 11 -15 13 -20 4 -5 -7 -16 5 -31 30 -14 25 -28 40
-36 37 -7 -3 -13 2 -13 10 0 9 -6 14 -12 12 -19 -7 -38 -49 -38 -85 0 -17 -4
-35 -10 -38 -5 -3 -10 1 -10 9 0 10 -6 13 -15 10 -25 -10 -41 12 -60 81 -20
68 -29 77 -51 48 -8 -11 -13 -13 -14 -5 0 6 -5 12 -11 12 -14 0 -36 -55 -44
-114 -8 -53 -20 -47 -30 16 -5 27 -12 38 -24 38 -12 0 -22 13 -30 39 -13 44
-35 58 -53 35 -7 -8 -21 -23 -30 -32 -10 -9 -18 -21 -18 -27 0 -7 -11 -22 -24
-34 -22 -20 -25 -21 -40 -6 -9 9 -16 27 -16 41 0 29 -20 32 -27 4 -4 -16 -8
-18 -19 -9 -20 16 -42 -5 -50 -48 -4 -22 -9 -30 -14 -23 -6 9 -10 9 -16 -2 -5
-8 -16 -17 -25 -21 -14 -5 -19 6 -27 65 -6 38 -14 73 -17 76 -4 4 -16 -5 -27
-21 -22 -30 -38 -35 -38 -12 0 8 -4 15 -9 15 -9 0 -31 -83 -31 -115 0 -18 -20
-20 -20 -2 0 6 -9 30 -19 52 -19 40 -19 40 -28 15 -10 -25 -10 -25 -17 10 -8
41 -26 80 -37 80 -4 0 -10 -19 -14 -42 -6 -35 -10 -40 -18 -26 -10 14 -13 14
-30 -8 -23 -30 -33 -25 -41 24 -5 33 -10 39 -28 38 -17 -1 -24 -9 -28 -31 -5
-26 -7 -28 -16 -12 -9 16 -11 16 -21 -5 -6 -13 -17 -44 -23 -70 -7 -27 -15
-48 -17 -48 -13 0 -32 32 -38 63 -4 20 -12 35 -18 34 -6 -1 -13 9 -15 23 -2
14 -10 32 -17 40 -7 8 -15 25 -17 38 -5 37 -22 26 -30 -20 -15 -96 -30 -146
-43 -142 -8 3 -15 -8 -20 -33 -5 -23 -10 -31 -12 -20 -3 9 -9 17 -14 17 -5 0
-9 6 -9 14 0 20 -26 40 -35 26 -5 -8 -11 -6 -19 6 -11 15 -15 12 -29 -25 -10
-23 -17 -49 -17 -58 0 -27 -15 -3 -29 46 -12 43 -25 45 -33 6 -2 -11 -11 16
-19 59 -8 44 -18 81 -24 83 -23 7 -37 -18 -47 -85 -11 -69 -11 -70 -29 -49
l-18 22 -1 -25 c0 -14 -5 -43 -11 -65 l-11 -40 -13 35 c-7 19 -21 73 -31 120
-22 109 -29 124 -43 89 -5 -15 -14 -28 -20 -30 -6 -2 -16 -39 -23 -81 -6 -43
-14 -78 -17 -79 -50 -7 -49 -8 -56 53 -4 32 -11 60 -15 63 -5 3 -11 24 -15 48
-13 87 -17 101 -25 86 -5 -8 -13 -43 -19 -79 -13 -73 -29 -110 -46 -110 -7 0
-18 -18 -25 -40 -7 -22 -16 -40 -20 -40 -4 0 -11 26 -14 58 -10 86 -37 235
-46 251 -5 10 -10 5 -15 -17 -3 -18 -11 -30 -16 -26 -5 3 -9 -2 -9 -10 0 -8
-6 -13 -13 -10 -14 5 -37 -84 -37 -142 0 -16 -5 -36 -10 -44 -9 -13 -11 -13
-20 0 -5 8 -10 23 -10 33 0 9 -4 17 -10 17 -5 0 -10 -5 -10 -12 0 -27 -12 4
-18 48 -8 54 -28 69 -38 28 l-7 -28 -14 39 c-22 63 -31 62 -38 -1 -10 -85 -31
-171 -38 -154 -3 8 -11 48 -19 89 -13 74 -34 103 -45 62 -4 -17 -8 -19 -19
-10 -11 9 -15 5 -20 -20 -4 -17 -10 -31 -14 -31 -5 0 -11 -14 -15 -31 -6 -28
-8 -29 -21 -12 -13 17 -14 17 -21 -7 -6 -24 -7 -23 -19 10 -7 19 -13 45 -13
57 -1 12 -6 34 -11 49 -9 24 -12 25 -23 11 -10 -15 -14 -12 -31 24 -23 47 -29
40 -41 -48 -5 -37 -10 -50 -20 -47 -8 4 -16 -6 -20 -25 -4 -17 -10 -29 -15
-26 -5 3 -11 -1 -13 -7 -4 -8 -6 -7 -6 4 -1 9 -7 23 -14 30 -16 16 -37 86 -37
122 0 14 -4 26 -10 26 -13 0 -80 -101 -80 -122 0 -11 -5 -15 -15 -12 -8 4 -15
16 -15 28 0 43 -15 37 -25 -11 l-11 -48 -22 44 c-12 25 -22 51 -22 58 0 8 -5
11 -10 8 -13 -8 -40 -72 -40 -96 0 -22 -4 -23 -30 -9 -13 7 -21 7 -25 -1 -12
-18 -43 20 -50 62 -6 34 -9 37 -25 29 -10 -5 -22 -27 -28 -47 l-10 -38 -7 33
c-10 44 -22 40 -30 -10 -12 -80 -28 -148 -35 -148 -4 0 -10 23 -13 52 -6 46
-18 67 -39 68 -3 0 -10 -19 -14 -42 l-8 -43 -8 65 c-11 82 -24 96 -33 36 -10
-62 -20 -65 -36 -12 -18 62 -41 55 -54 -15 l-10 -54 -3 45 c-5 66 -19 70 -27
8 -4 -29 -13 -64 -20 -78 -13 -25 -13 -25 -20 15 -11 66 -14 71 -29 49 -13
-16 -15 -13 -31 44 -17 60 -27 73 -40 51 -9 -14 -34 20 -35 46 -1 34 -19 -4
-26 -55 -9 -66 -14 -80 -30 -80 -8 0 -14 -11 -15 -27 0 -27 -1 -27 -9 -5 -5
12 -14 22 -20 22 -5 0 -10 13 -10 29 0 50 -12 121 -21 121 -5 0 -10 -10 -10
-22 -1 -13 -5 0 -10 27 -15 82 -19 84 -41 27 -18 -48 -21 -51 -33 -36 -11 16
-13 15 -19 -13 -5 -22 -12 -30 -22 -26 -9 3 -14 -2 -15 -13 -2 -30 -18 57 -18
99 -1 49 -18 45 -39 -8 -9 -22 -18 -42 -21 -45 -4 -3 -11 -18 -17 -35 -6 -16
-16 -29 -22 -28 -7 2 -12 -9 -12 -25 0 -15 -5 -45 -11 -67 -10 -34 -13 -37
-20 -20 -4 11 -8 35 -8 53 -1 37 -13 42 -29 10 -7 -15 -11 -17 -11 -8 -3 49
-21 182 -27 191 -9 16 -24 -10 -24 -43 0 -16 -4 -28 -10 -28 -5 0 -10 -8 -10
-17 -1 -17 -1 -17 -14 0 -13 16 -14 16 -20 1 -4 -9 -11 -60 -16 -112 -6 -53
-12 -98 -15 -100 -10 -10 -17 8 -22 52 -3 25 -9 44 -13 41 -4 -3 -11 14 -14
37 -5 32 -9 39 -16 28 -8 -12 -10 -11 -10 5 -1 60 -22 209 -31 227 -10 19 -12
19 -20 5 -7 -12 -26 -228 -29 -319 0 -5 -4 -8 -10 -8 -5 0 -12 16 -16 36 -9
47 -24 25 -24 -36 0 -55 -14 -83 -23 -48 -4 12 -7 40 -7 60 0 21 -6 52 -14 70
-20 46 -34 104 -41 166 -6 53 -23 102 -35 102 -4 0 -13 -26 -20 -57 -7 -32
-19 -72 -26 -90 -8 -17 -14 -44 -14 -60 0 -15 -5 -35 -10 -43 -7 -11 -10 -6
-10 22 0 20 -4 39 -9 42 -10 7 -21 -27 -21 -69 0 -16 -3 -41 -7 -54 -6 -22 -6
-22 -20 10 -11 25 -17 30 -22 19 -19 -46 -60 16 -62 94 -1 22 -4 52 -9 66 -9
29 -14 19 -28 -50 -8 -43 -9 -41 -16 51 -5 53 -12 103 -17 110 -5 8 -9 10 -9
6 0 -29 -23 -154 -30 -162 -4 -5 -10 -30 -14 -55 -4 -25 -11 -58 -16 -75 -5
-16 -12 -42 -15 -57 -3 -16 -11 -27 -17 -25 -7 1 -14 -8 -16 -20 -5 -36 -29
-27 -37 15 -6 31 -9 34 -15 17 -6 -15 -9 -9 -15 28 -4 28 -17 60 -31 75 l-23
27 -1 -25 c0 -29 -16 -57 -26 -47 -4 4 -13 2 -21 -4 -10 -9 -13 -7 -14 7 0 14
-4 12 -13 -8 l-12 -28 -13 37 c-15 40 -37 68 -44 56 -2 -5 -7 -25 -11 -46 -8
-45 -21 -40 -37 13 -13 42 -29 45 -29 5 0 -13 -4 -27 -10 -30 -5 -3 -10 1 -10
11 0 14 -2 14 -16 3 -13 -10 -17 -10 -25 2 -6 10 -9 11 -9 1 0 -7 -4 -10 -10
-7 -5 3 -10 22 -10 41 0 38 -22 44 -28 8 -6 -35 -24 -74 -33 -68 -5 3 -9 20
-9 37 0 40 -14 66 -23 44 -3 -9 -9 -43 -13 -76 -3 -34 -10 -61 -14 -61 -4 0
-13 44 -19 98 -14 112 -19 134 -31 127 -9 -5 -30 71 -30 109 0 14 -4 27 -9 30
-10 6 -21 -26 -21 -62 0 -12 -7 -25 -15 -28 -8 -4 -15 -12 -15 -20 0 -8 -9
-14 -20 -14 -14 0 -20 -7 -20 -22 0 -12 -5 -51 -11 -87 -14 -76 -23 -65 -35
45 -8 77 -8 77 -24 -25 -8 -47 -15 -69 -21 -60 -6 11 -9 11 -13 -1 -2 -8 -7
-22 -9 -30 -3 -9 -6 -4 -6 10 -3 71 -30 90 -32 22 0 -29 -6 -16 -23 53 l-23
90 -13 -33 c-10 -26 -15 -30 -26 -21 -8 7 -16 10 -19 8 -2 -3 -10 -41 -18 -84
-8 -44 -15 -72 -16 -62 -2 29 -19 19 -26 -15 -17 -88 -26 -89 -44 -7 -10 41
-18 59 -27 55 -9 -3 -14 16 -19 72 -8 105 -9 107 -20 107 -10 0 -10 0 -20 -88
-6 -57 -7 -58 -26 -41 -18 17 -19 16 -20 -22 -1 -48 -13 -92 -21 -79 -3 6 -8
22 -12 37 -3 16 -12 27 -18 25 -7 -1 -16 27 -24 72 -15 83 -20 93 -38 68 -18
-23 -26 -22 -26 6 0 12 -4 28 -9 36 -19 29 -41 -15 -50 -96 -6 -52 -9 -65 -10
-38 -1 22 -6 58 -10 80 l-8 40 -6 -55 c-4 -30 -10 -86 -14 -125 l-7 -70 -8
100 c-4 55 -10 106 -13 113 -10 27 -23 9 -30 -40 l-8 -53 -15 68 c-9 37 -19
67 -23 67 -4 0 -10 -35 -13 -77 -4 -43 -9 -91 -13 -107 -8 -43 -23 -12 -23 51
0 28 -3 59 -7 68 -5 14 -8 12 -18 -11 l-12 -29 -11 35 c-9 31 -10 32 -12 10
l-2 -25 -8 25 c-4 14 -8 44 -9 68 -1 23 -5 42 -10 42 -11 0 -21 -51 -21 -113
0 -60 -21 -167 -32 -167 -4 0 -8 5 -8 11 0 5 -4 7 -10 4 -5 -3 -10 -19 -10
-35 0 -38 -9 -60 -25 -60 -17 0 -25 23 -26 73 0 49 -16 134 -18 99 -2 -51 -19
-8 -25 65 -12 149 -19 193 -26 188 -4 -3 -11 -40 -14 -82 -4 -43 -12 -105 -18
-138 -5 -33 -15 -91 -22 -129 -11 -68 -30 -95 -39 -59 -4 17 -5 17 -6 1 -1
-11 -9 -18 -20 -18 -17 0 -20 10 -25 98 -13 201 -21 277 -31 275 -5 -1 -13
-33 -18 -69 -4 -37 -11 -81 -16 -98 l-9 -31 -1 36 c-1 20 -7 42 -15 48 -11 9
-14 -2 -20 -61 -4 -40 -10 -100 -14 -133 l-8 -60 -7 46 c-4 25 -17 62 -27 82
-11 20 -20 46 -20 56 0 11 -4 22 -9 25 -11 7 -21 -28 -21 -76 0 -33 -3 -37
-27 -40 -23 -2 -29 -9 -34 -38 -4 -28 -7 -19 -13 45 -5 44 -14 94 -22 110 -19
43 -33 130 -40 253 -3 59 -8 114 -11 122 -10 28 -22 -22 -22 -96 -1 -38 -6
-75 -11 -80 -6 -6 -13 -42 -17 -80 -7 -82 -22 -119 -23 -59 -2 71 -17 8 -25
-104 -4 -57 -14 -115 -21 -130 l-14 -26 0 27 c0 38 -11 63 -20 47 -5 -7 -11
13 -14 47 -13 121 -17 144 -27 144 -5 0 -9 -5 -9 -11 0 -5 -4 -8 -9 -4 -6 3
-12 -16 -16 -42 -3 -27 -9 -64 -12 -83 l-7 -35 -5 33 c-3 18 -10 33 -15 33
-16 1 -26 -27 -33 -102 -9 -96 -18 -64 -27 97 -7 120 -27 217 -40 196 -4 -6
-13 -9 -21 -6 -22 9 -35 -56 -42 -213 l-6 -143 -33 0 c-41 0 -41 -1 -49 175
-7 143 -23 233 -36 199 -4 -10 -8 -35 -9 -54 -1 -19 -4 -27 -7 -17 -2 9 -8 17
-12 17 -13 0 -41 -159 -41 -230 0 -82 -15 -109 -24 -44 -3 26 -6 60 -6 77 0
47 -10 26 -18 -39 -6 -49 -10 -20 -21 174 -14 229 -23 269 -41 175 -7 -33 -8
-29 -9 28 -1 49 -5 68 -16 73 -11 4 -15 -2 -15 -27 0 -18 -3 -43 -7 -56 -6
-23 -7 -23 -13 -5 -4 10 -10 -37 -14 -106 -3 -69 -9 -174 -13 -235 l-7 -110
-17 95 c-9 52 -17 82 -18 66 -1 -19 -5 -26 -10 -20 -6 5 -13 55 -17 111 -4 58
-11 101 -17 100 -5 -1 -15 16 -21 38 -8 26 -14 35 -18 25 -4 -10 -7 -7 -8 10
l-2 25 -7 -25 c-5 -14 -11 -88 -15 -165 -7 -149 -23 -255 -37 -255 -5 0 -9 11
-9 24 0 38 -17 40 -25 3 -6 -24 -12 4 -25 123 -10 85 -21 166 -26 180 l-8 25
-7 -30 c-4 -16 -7 -49 -8 -72 -1 -31 -5 -41 -15 -37 -10 4 -18 -21 -32 -105
-15 -93 -21 -111 -36 -111 -10 0 -18 7 -18 16 0 8 -4 12 -10 9 -6 -4 -10 11
-10 37 -1 24 -7 79 -15 123 -8 44 -15 100 -15 125 0 50 -9 90 -19 90 -7 0 -28
-75 -41 -150 -5 -25 -9 -84 -9 -132 -1 -102 -6 -118 -36 -118 -24 0 -21 -12
-55 240 -5 36 -14 153 -20 260 -6 107 -13 196 -15 198 -2 2 -6 -11 -10 -29z"/>
</g>
</svg>
