<?xml version="1.0" standalone="no"?>
<!DOCTYPE svg PUBLIC "-//W3C//DTD SVG 20010904//EN"
 "http://www.w3.org/TR/2001/REC-SVG-20010904/DTD/svg10.dtd">
<svg version="1.0" xmlns="http://www.w3.org/2000/svg"
 width="3600.000000pt" height="1200.000000pt" viewBox="0 0 3600.000000 1200.000000"
 preserveAspectRatio="xMidYMid meet">
<metadata>
Created by potrace 1.16, written by Peter Selinger 2001-2019
</metadata>
<g transform="translate(0.000000,1200.000000) scale(0.100000,-0.100000)"
fill="#000000" stroke="none">
<path d="M3762 9915 c-13 -60 -23 -568 -31 -1605 -15 -1726 -22 -2310 -31
-2310 -4 0 -10 327 -14 727 -4 399 -11 733 -15 741 -5 8 -11 -241 -15 -554 -7
-636 -17 -952 -27 -864 l-6 55 -1 -52 c-2 -52 -3 -53 -32 -53 -17 0 -31 6 -31
13 -5 44 -21 984 -27 1512 -6 539 -9 622 -20 575 -9 -41 -13 -261 -16 -855 -4
-648 -7 -815 -19 -880 -15 -79 -15 -77 -16 204 -1 157 -6 321 -11 365 -6 45
-13 158 -17 251 l-7 170 -9 -193 c-5 -106 -11 -191 -13 -189 -2 2 -8 176 -14
388 -6 211 -13 422 -17 469 l-7 85 -7 -80 c-4 -44 -10 -420 -13 -835 -4 -415
-9 -810 -12 -877 -5 -108 -8 -123 -24 -123 -16 0 -18 33 -24 503 -9 721 -27
1942 -29 2077 -2 63 -5 -60 -7 -275 -4 -338 -5 -364 -10 -195 l-5 195 -7 -169
c-5 -93 -8 -314 -8 -491 0 -177 -3 -619 -7 -983 -5 -542 -9 -662 -20 -662 -10
0 -13 40 -13 203 0 111 -7 339 -15 507 -10 204 -18 701 -24 1505 -5 660 -14
1214 -19 1230 -5 19 -12 -328 -17 -925 -10 -1310 -24 -2350 -31 -2442 -5 -77
-6 -78 -33 -78 l-27 0 -13 513 c-7 281 -16 775 -21 1097 -5 369 -12 600 -19
625 -6 22 -12 123 -13 225 -2 159 -3 140 -9 -130 -4 -173 -12 -637 -17 -1030
-14 -926 -24 -1314 -33 -1270 -6 27 -24 1349 -30 2260 -1 101 -4 124 -10 90
-4 -25 -9 -67 -10 -95 -5 -117 -17 144 -19 420 -1 160 -5 310 -9 335 -5 26 -9
-148 -10 -410 -1 -746 -22 -2301 -30 -2360 -8 -49 -9 -41 -11 65 -3 111 -4
115 -10 55 -4 -36 -8 -138 -9 -227 -1 -101 -5 -163 -11 -163 -6 0 -11 35 -12
83 l-2 82 -6 -85 c-4 -57 -8 13 -10 210 l-5 295 -5 -295 -5 -295 -3 240 c-3
351 -14 652 -23 630 -4 -11 -9 66 -10 170 -2 174 -3 182 -9 90 -4 -55 -9 -147
-10 -205 -1 -69 -5 -97 -10 -80 -4 14 -8 -125 -9 -307 -1 -215 -5 -333 -11
-333 -6 0 -10 -40 -10 -100 0 -82 -3 -100 -15 -100 -10 0 -15 10 -15 33 -5
357 -23 1190 -31 1402 -6 154 -14 408 -18 565 -9 416 -19 257 -27 -420 -4
-311 -10 -655 -14 -765 l-7 -200 -3 150 c-1 83 -6 274 -9 425 -7 271 -7 269
-9 -178 -1 -299 -5 -451 -12 -447 -7 4 -10 -92 -10 -279 0 -248 -2 -286 -15
-286 -8 0 -16 1 -16 3 -4 7 -32 971 -37 1292 -4 210 -10 365 -15 346 -4 -18
-8 -54 -8 -80 l-1 -46 -17 70 -18 70 -6 -105 c-4 -58 -9 -382 -12 -720 -3
-338 -8 -663 -11 -722 -13 -218 -24 -98 -27 285 l-2 392 -3 -392 c-1 -216 -6
-393 -10 -393 -16 0 -22 359 -29 1643 -3 697 -10 1267 -15 1267 -4 0 -9 -118
-9 -262 -3 -439 -15 -926 -19 -763 -5 163 -16 -515 -20 -1215 -2 -267 -6 -460
-10 -430 -5 39 -7 13 -8 -92 -2 -137 -3 -148 -21 -148 -24 0 -30 75 -33 419
-2 226 -3 245 -8 126 -3 -77 -7 -113 -9 -80 -2 44 -5 55 -11 40 -5 -12 -9 49
-11 160 -2 231 -16 152 -20 -120 -3 -167 -4 -178 -9 -90 -5 88 -6 77 -9 -90
-2 -104 -6 -179 -10 -165 -6 21 -8 18 -14 -24 -4 -27 -7 -77 -7 -112 0 -50 -3
-64 -15 -64 -13 0 -15 23 -15 143 0 234 -14 581 -21 512 -3 -33 -6 64 -7 215
-2 273 -6 325 -23 314 -5 -3 -10 39 -11 93 -1 54 -5 -113 -8 -372 -7 -497 -16
-698 -31 -689 -5 3 -10 -45 -10 -108 l-2 -113 -11 130 -12 130 -7 -85 c-4 -47
-9 -105 -10 -130 -2 -25 -5 18 -7 95 -2 114 -4 130 -10 85 -5 -30 -8 -92 -9
-137 -1 -76 -3 -83 -21 -83 -19 0 -20 7 -20 249 0 256 -6 353 -21 329 -5 -7
-10 100 -11 242 -1 215 -3 239 -10 155 -7 -94 -24 -492 -28 -690 -1 -62 -5
-82 -10 -65 -5 16 -8 -21 -9 -97 -1 -75 -5 -123 -11 -123 -5 0 -11 19 -12 43
l-1 42 -6 -45 c-6 -42 -7 -40 -13 35 -4 44 -11 204 -14 355 -6 243 -9 270 -20
237 -8 -23 -16 -124 -21 -260 -6 -174 -9 -205 -14 -142 -5 74 -6 70 -8 -50 -1
-83 -5 -123 -11 -110 -6 14 -9 2 -9 -42 -1 -35 -5 -63 -9 -63 -8 0 -19 227
-24 470 -1 52 -3 77 -5 55 -3 -22 -9 -44 -14 -50 -5 -5 -9 -46 -9 -90 0 -45
-3 -151 -7 -236 -6 -133 -9 -147 -16 -104 -5 28 -11 114 -14 193 -2 78 -8 142
-13 142 -5 0 -11 28 -13 63 -3 59 -3 59 -5 -18 -2 -79 -16 -270 -28 -372 -5
-49 -23 -75 -25 -35 0 16 -1 15 -8 -1 -9 -23 -27 88 -37 223 -6 84 -9 92 -19
67 -6 -15 -14 -24 -18 -21 -4 4 -7 -20 -7 -53 0 -83 -11 -158 -21 -142 -5 8
-10 -7 -15 -38 -5 -42 -10 -51 -25 -50 -17 1 -19 10 -20 77 -1 53 -3 68 -9 50
-7 -21 -8 -18 -10 20 -1 25 -4 37 -7 27 -2 -9 -9 -15 -14 -12 -5 4 -9 -10 -9
-29 0 -19 -4 -38 -10 -41 -5 -3 -11 -18 -12 -33 0 -17 -4 -11 -8 18 l-7 45 -1
-60 -2 -60 -152 0 -153 1 148 -3 147 -4 0 -74 c0 -40 4 -76 9 -79 9 -6 21 40
21 80 0 32 21 74 37 74 9 0 13 -14 13 -44 0 -26 6 -51 15 -60 8 -8 15 -26 15
-40 0 -14 3 -25 8 -25 20 3 31 -3 35 -18 3 -10 5 0 6 23 0 23 4 69 7 103 7 58
8 61 34 61 35 0 40 -16 40 -140 0 -97 14 -319 27 -445 7 -71 13 -3 39 478 5
78 10 107 19 107 16 0 22 -45 35 -254 5 -88 12 -161 14 -163 2 -2 7 60 10 139
9 200 17 278 27 278 5 0 9 -121 9 -281 0 -184 3 -278 10 -274 6 3 10 32 11 63
1 31 5 68 9 82 7 23 8 22 10 -10 1 -19 5 -44 9 -55 12 -31 21 86 22 294 0 113
4 178 9 166 7 -17 9 -17 9 -2 1 9 5 17 10 17 15 0 20 -61 31 -339 5 -140 12
-256 15 -259 3 -3 6 39 7 94 l2 99 6 -100 c5 -88 6 -78 9 90 2 105 6 181 9
170 4 -11 11 41 18 115 l11 135 3 -230 c3 -229 3 -229 11 -95 3 74 7 148 8
165 1 18 5 25 10 20 5 -6 13 -152 17 -325 3 -173 9 -319 13 -325 12 -20 22
135 29 440 6 272 8 296 15 200 11 -157 28 -270 38 -253 5 7 10 -51 11 -142 l2
-155 7 130 c4 72 12 227 17 345 6 118 11 216 11 218 1 1 14 2 30 2 l28 0 8
-207 c4 -115 10 -356 14 -538 4 -181 8 -283 11 -225 3 94 4 99 10 50 4 -34 8
31 10 170 3 272 15 532 20 445 l3 -60 7 60 c5 45 7 22 8 -87 1 -91 6 -148 12
-148 6 0 10 95 10 264 0 146 4 267 8 270 5 3 12 -108 16 -247 3 -139 11 -358
16 -487 5 -129 10 -395 11 -590 2 -376 5 -390 18 -110 l8 175 3 -285 c1 -157
5 -298 9 -315 11 -49 21 259 21 665 0 371 13 914 26 1103 6 82 9 97 24 97 16
0 17 -30 24 -372 3 -205 10 -438 16 -518 5 -80 10 -404 11 -720 1 -316 5 -629
9 -695 4 -79 7 46 9 360 2 309 7 518 16 585 l12 105 4 -95 c2 -52 6 101 10
340 4 239 12 532 17 650 6 118 11 248 11 288 1 41 5 72 11 72 6 0 10 -116 10
-327 0 -314 9 -407 21 -225 4 67 6 40 9 -118 l4 -205 6 140 c4 122 6 100 13
-179 4 -176 7 -425 7 -555 0 -130 3 -274 8 -321 7 -85 7 -84 13 70 3 85 11
459 17 830 15 835 17 881 21 455 2 -187 6 -389 10 -450 6 -103 6 -96 14 119 4
126 7 350 7 498 l0 268 24 0 23 0 7 -512 c4 -282 12 -657 18 -833 5 -176 12
-457 15 -625 3 -168 9 -312 14 -320 5 -9 9 142 11 360 1 206 4 337 7 290 3
-47 10 250 14 660 5 457 12 746 17 748 6 2 10 54 10 118 0 63 4 114 9 114 14
0 21 -143 23 -514 1 -324 2 -342 9 -176 3 102 8 210 10 240 3 62 16 -266 27
-725 9 -385 21 -301 24 175 l3 315 5 -295 5 -295 5 385 c4 339 5 362 10 195 4
-146 6 -94 8 230 1 231 5 430 8 443 4 14 14 22 29 22 l22 0 6 -512 c4 -281 7
-752 8 -1047 1 -295 7 -716 13 -936 12 -371 13 -386 16 -200 4 341 15 346 23
10 4 -170 7 -398 7 -505 0 -107 4 -201 9 -208 4 -7 11 495 14 1115 9 1537 19
2283 29 2283 4 0 8 -96 8 -214 0 -133 4 -217 10 -221 6 -4 11 -95 12 -233 1
-146 4 -202 8 -157 4 42 7 -44 9 -210 2 -278 17 -823 29 -1090 l7 -140 8 229
c4 126 7 405 7 621 0 220 4 395 9 400 5 6 12 236 16 513 l8 502 28 0 29 0 0
-892 c1 -824 12 -1923 28 -2703 6 -291 8 -247 15 475 9 985 21 1810 25 1750 2
-25 7 -49 11 -53 4 -4 11 313 15 705 4 392 9 715 12 717 2 2 7 1 12 -3 4 -4
10 -443 13 -974 9 -1252 15 -1438 45 -1391 11 17 21 775 23 1692 l1 677 50 0
50 0 0 -171 c0 -93 4 -168 8 -165 5 3 12 -394 16 -881 4 -487 10 -893 15 -901
4 -8 11 208 15 479 10 769 27 1633 32 1638 2 2 5 -182 5 -410 1 -409 12 -755
19 -604 5 121 28 -663 30 -1050 1 -203 5 -383 9 -400 8 -36 21 261 22 539 1
111 4 188 8 171 7 -30 16 372 28 1263 3 270 9 492 13 492 3 0 12 -291 19 -647
7 -357 16 -666 21 -688 4 -22 8 268 9 648 l1 687 24 0 25 0 5 -137 c2 -76 9
-912 15 -1858 10 -1569 14 -1855 27 -1842 2 2 11 820 19 1818 9 998 17 1819
19 1824 3 6 5 -206 7 -470 1 -298 5 -446 10 -390 4 50 7 308 8 574 1 266 4
481 9 477 4 -4 11 -350 15 -769 10 -908 21 -1521 26 -1452 l4 50 7 -65 c4 -36
8 -211 9 -389 0 -178 3 -322 6 -320 2 3 10 423 16 935 6 511 15 1150 18 1419
l7 490 3 -370 c2 -203 6 -381 10 -395 4 -14 10 164 14 395 7 404 11 475 27
475 16 0 20 -156 20 -860 0 -873 10 -1682 21 -1655 4 11 8 -110 9 -270 1 -159
5 -333 9 -385 10 -152 20 558 26 1825 3 627 8 1186 11 1243 6 98 7 102 29 102
l23 0 6 -622 c3 -343 11 -1233 17 -1978 16 -1882 22 -2061 32 -1005 5 468 12
1122 17 1455 5 333 10 954 11 1380 0 442 4 766 9 755 5 -11 9 -208 9 -437 1
-266 5 -419 11 -423 6 -4 11 -120 12 -308 1 -166 3 -273 5 -237 8 166 25 807
29 1098 3 199 8 322 14 322 6 0 11 -84 11 -217 1 -120 5 -202 8 -183 l7 35 7
-34 c4 -18 7 -180 8 -360 1 -330 8 -425 23 -326 4 28 12 210 18 405 21 769 16
680 42 680 18 0 25 -7 30 -31 3 -17 6 -210 6 -428 0 -666 21 -2601 29 -2691
l8 -85 2 133 c0 73 6 208 11 300 6 92 14 373 20 626 9 447 18 585 22 355 5
-226 18 447 23 1129 l6 692 28 0 29 0 6 -437 c11 -788 28 -1668 32 -1672 2 -2
5 67 6 155 1 97 4 138 7 104 14 -131 21 199 21 1007 l0 843 24 0 24 0 6 -272
c4 -150 11 -903 17 -1673 8 -1210 14 -1714 29 -2630 l3 -180 8 140 c9 166 25
1693 36 3400 4 671 11 1155 14 1075 4 -80 8 -253 9 -385 1 -132 5 -229 10
-215 8 27 15 17 23 -30 2 -14 5 20 6 75 1 55 6 136 11 180 5 44 14 178 21 298
l13 217 53 0 c44 0 53 -3 53 -17 0 -10 5 -92 10 -183 6 -91 15 -525 21 -965
12 -950 18 -1185 30 -1185 5 0 9 92 9 208 0 114 4 362 10 552 6 190 14 545 18
790 l7 445 8 -620 c4 -341 12 -629 17 -640 5 -12 9 60 9 190 1 348 14 915 20
909 3 -3 9 -87 12 -187 4 -141 6 -89 8 233 2 228 6 429 10 445 7 29 10 -96 32
-1440 18 -1120 25 -948 59 1433 0 29 3 32 30 32 l30 0 0 -407 c1 -719 19
-2118 28 -2143 5 -14 11 160 15 456 10 743 27 1626 36 1874 l8 225 3 -245 c3
-286 17 -247 19 53 l1 187 24 0 24 0 6 -232 c5 -218 26 -1439 27 -1628 1 -152
17 -55 20 115 2 192 14 406 19 350 4 -41 12 250 25 978 7 385 9 417 25 417 20
0 24 -136 41 -1714 5 -500 11 -912 14 -914 3 -3 5 38 5 92 0 53 4 95 8 92 5
-3 12 252 16 567 4 315 11 691 16 837 5 146 10 416 11 600 1 204 5 310 9 270
4 -36 8 -119 9 -185 1 -82 4 -115 11 -105 5 8 10 106 10 223 0 167 3 211 14
223 8 8 19 14 24 14 12 0 32 -271 33 -455 0 -82 6 -265 13 -405 11 -206 14
-234 16 -145 6 278 19 608 31 798 11 182 15 207 29 207 16 0 18 -28 24 -292 3
-161 9 -707 12 -1213 4 -506 10 -949 14 -985 l7 -65 3 60 3 60 6 -60 c3 -33
10 122 14 345 5 223 12 603 17 845 5 242 10 586 10 765 0 214 4 320 10 310 5
-8 10 -46 11 -85 l2 -70 7 75 c4 41 8 128 9 193 0 70 5 117 11 117 6 0 10 -53
10 -138 0 -232 13 -562 22 -562 4 0 8 80 8 178 0 288 11 522 25 522 17 0 25
-112 26 -339 0 -179 7 -277 26 -351 l9 -35 7 55 c4 30 7 193 7 363 0 294 1
307 19 307 21 0 22 -50 37 -1242 4 -274 10 -496 14 -493 9 5 18 -180 27 -538
3 -147 10 -264 14 -260 5 5 13 429 18 943 16 1506 19 1590 51 1590 16 0 18
-29 24 -362 12 -724 21 -1012 27 -968 6 44 6 44 9 10 6 -64 18 162 19 365 1
110 6 218 10 240 5 22 15 192 22 378 13 337 13 337 35 337 12 0 25 -7 28 -16
3 -9 6 -210 7 -447 2 -976 36 -2318 59 -2332 4 -3 10 431 14 963 3 532 9 1162
12 1400 l6 432 23 0 23 0 6 -417 c4 -230 11 -501 16 -603 6 -102 10 -227 10
-277 0 -51 4 -93 9 -93 5 0 12 93 16 208 3 114 10 220 16 236 5 16 9 79 9 140
1 143 27 708 36 764 5 35 10 42 29 42 22 0 22 -1 28 -242 4 -133 7 -311 7
-397 0 -285 12 -501 27 -501 10 0 13 -54 14 -287 1 -159 4 -369 8 -468 10
-272 19 -143 26 345 4 359 23 1502 24 1538 1 7 14 12 31 12 l30 0 1 -342 c1
-189 5 -395 9 -458 l7 -115 3 100 3 100 7 -140 c4 -77 10 -250 14 -385 4 -135
10 -279 13 -320 l7 -75 7 55 c13 93 28 693 29 1125 0 226 3 420 6 433 4 12 14
22 24 22 15 0 18 -15 23 -107 4 -58 7 -215 7 -347 0 -133 5 -342 10 -466 5
-124 11 -418 15 -655 3 -236 9 -509 12 -605 7 -153 8 -166 14 -100 7 88 29
1360 32 1900 l2 375 26 3 c26 3 26 2 32 -74 4 -42 7 -210 7 -373 0 -361 11
-762 20 -756 4 2 10 -42 13 -98 8 -142 25 -183 26 -62 1 50 5 221 11 380 5
160 12 446 16 638 l6 347 28 0 27 0 8 -232 c4 -128 11 -323 15 -433 5 -110 14
-499 20 -865 7 -366 14 -667 16 -669 2 -2 6 -2 8 0 7 6 25 757 37 1499 5 355
12 657 16 673 4 20 11 27 28 27 21 0 22 -5 29 -102 3 -57 11 -269 16 -473 12
-491 21 -705 30 -710 11 -7 19 159 30 650 6 248 13 492 16 543 6 89 7 92 30
92 13 0 25 -1 25 -2 7 -15 19 -665 28 -1463 6 -539 13 -1004 17 -1034 14 -128
22 1 28 483 20 1497 27 1973 32 1993 5 17 13 23 34 23 28 0 28 0 34 -82 3 -46
8 -200 11 -343 9 -421 16 -565 30 -565 14 0 21 161 30 640 7 344 8 350 40 350
19 0 25 -5 26 -22 0 -13 5 -88 10 -168 10 -151 12 -229 29 -1127 16 -865 29
-765 50 396 6 294 10 621 10 728 l0 193 40 0 40 0 0 -152 c0 -218 18 -1074 26
-1255 3 -84 10 -153 15 -153 10 0 13 89 28 730 6 289 14 594 17 678 l6 152 24
0 c23 0 24 -3 24 -67 1 -38 5 -113 10 -168 5 -55 14 -352 19 -660 12 -671 21
-917 31 -890 9 23 26 666 36 1348 l7 437 34 0 33 0 0 -132 c1 -198 18 -917 26
-1040 4 -60 10 -108 14 -108 4 0 10 66 13 148 5 143 36 1080 37 1115 0 12 8
17 30 17 29 0 30 -2 30 -45 0 -53 27 -904 35 -1093 6 -168 20 -202 29 -71 8
123 26 843 26 1049 l0 160 40 0 40 0 0 -57 c0 -113 21 -619 29 -668 6 -45 8
-36 19 85 28 316 32 380 32 470 0 137 7 170 35 170 22 0 23 -5 29 -92 7 -96
18 -355 37 -843 6 -154 13 -282 16 -285 18 -19 23 70 49 998 l7 222 32 0 33 0
6 -167 c15 -382 28 -642 35 -698 l7 -60 7 70 c7 60 26 649 27 803 0 51 1 52
30 52 23 0 31 -5 34 -22 3 -13 7 -160 10 -328 8 -414 26 -915 35 -970 7 -43 8
-41 14 40 4 47 11 303 17 570 6 267 13 536 16 598 6 108 7 112 29 112 20 0 23
-6 28 -67 4 -38 9 -131 12 -208 12 -325 29 -585 36 -578 12 12 29 255 34 503
3 124 8 253 11 288 5 61 6 62 35 62 28 0 29 -2 29 -47 0 -27 9 -237 20 -468
11 -231 20 -461 20 -512 0 -50 4 -94 9 -97 14 -9 20 107 31 559 6 231 13 453
16 493 5 68 7 72 30 72 27 0 30 -8 39 -125 12 -153 19 -190 35 -190 8 0 16 9
17 20 1 11 5 61 9 110 4 50 10 80 12 67 7 -45 22 -9 22 54 0 60 1 64 23 64 21
0 24 -7 36 -82 7 -46 16 -200 21 -343 9 -263 21 -425 28 -392 2 9 7 17 12 17
11 0 19 82 30 335 21 472 20 465 45 465 21 0 22 -2 34 -302 7 -167 17 -314 21
-328 8 -22 9 -21 9 13 1 50 18 166 36 242 7 33 17 131 20 218 6 141 9 157 25
157 21 0 26 -50 36 -340 6 -184 16 -260 34 -260 6 0 10 -26 10 -58 0 -110 13
-243 22 -234 5 5 14 153 19 328 16 536 18 564 39 564 20 0 32 -65 50 -262 12
-141 22 -172 32 -108 3 25 7 77 7 116 1 39 4 112 7 162 l7 92 33 0 32 0 7
-107 c10 -178 24 -209 45 -105 7 31 13 61 14 66 1 5 8 -74 14 -175 12 -178 16
-199 28 -186 7 7 21 183 30 371 4 94 9 134 16 125 7 -11 11 -11 15 -1 2 6 13
12 22 12 16 0 19 -13 25 -92 8 -103 14 -138 26 -138 4 0 11 28 14 63 19 180
15 167 47 167 23 0 29 -4 29 -22 0 -104 36 -374 52 -393 4 -5 8 -37 8 -71 0
-76 10 -154 20 -154 13 0 18 56 31 353 11 260 14 287 30 287 13 0 19 -13 24
-60 7 -63 24 -92 26 -43 1 28 1 27 14 -7 14 -39 16 -36 36 53 10 48 16 57 34
57 21 0 22 -5 29 -147 7 -142 16 -185 35 -154 5 7 12 35 15 62 6 47 26 69 26
29 0 -34 21 -120 30 -120 8 0 13 28 26 159 l6 65 14 -40 c8 -21 14 -40 14 -41
0 -2 3 -3 8 -3 7 0 42 140 42 171 0 12 15 16 75 17 56 2 75 0 75 -10 0 -40 20
-361 26 -405 3 -29 9 -53 13 -53 4 0 12 39 19 88 6 48 17 126 23 175 11 76 14
87 30 82 14 -5 19 3 26 47 l9 53 8 -101 c12 -156 33 -167 42 -22 9 141 11 148
43 148 27 0 28 -2 34 -68 12 -128 28 -166 44 -104 l6 27 7 -26 c4 -14 11 -60
15 -102 3 -42 10 -77 15 -77 11 0 17 36 31 183 8 82 16 126 23 124 6 -2 12
-19 14 -38 2 -19 8 -38 13 -44 12 -12 40 28 57 82 11 38 16 43 41 43 28 0 29
-1 35 -70 10 -99 28 -94 42 12 l8 53 22 -70 c12 -38 26 -71 31 -72 5 -2 15 14
23 34 l14 38 9 -38 c7 -31 12 -36 23 -26 11 9 14 9 14 -1 0 -27 28 12 34 48
17 99 14 93 59 90 33 -2 43 -7 45 -23 15 -89 35 -114 44 -55 2 14 7 -10 12
-52 4 -43 12 -78 17 -78 5 0 9 7 9 16 0 22 57 77 63 61 4 -9 8 -8 16 3 9 13
11 11 11 -6 0 -12 6 -27 14 -33 17 -15 24 3 41 99 10 63 11 65 40 65 l30 0 13
-159 c6 -88 14 -162 17 -164 12 -12 17 14 27 125 10 120 21 153 39 121 14 -25
26 -22 37 10 8 25 10 23 21 -33 21 -102 22 -105 41 -105 22 0 25 8 41 123 11
81 14 87 36 87 12 0 23 -3 23 -7 1 -44 23 -190 32 -206 l11 -21 8 21 c4 11 11
57 14 102 4 44 14 89 21 98 15 20 20 17 69 -53 11 -15 28 -35 38 -43 9 -9 17
-25 17 -38 0 -62 42 -14 55 62 12 78 15 85 34 85 14 0 20 -14 31 -72 19 -112
36 -124 49 -39 5 26 14 38 38 50 17 9 34 25 38 36 4 15 14 0 43 -63 20 -45 41
-81 47 -79 10 4 28 63 40 130 4 28 11 37 25 37 22 0 26 -13 34 -110 7 -79 24
-142 36 -135 4 3 12 40 15 83 4 42 14 86 21 97 8 11 14 27 14 37 0 20 18 34
30 22 5 -5 15 -45 22 -88 14 -83 27 -102 46 -64 l11 23 0 -23 c2 -65 49 23 50
95 1 45 10 63 32 63 20 0 25 -13 33 -99 3 -29 8 -56 11 -59 8 -8 34 30 35 49
0 9 6 19 14 22 8 3 17 24 21 46 11 66 30 50 51 -44 10 -47 23 -85 29 -85 6 0
16 14 22 30 7 19 16 28 25 25 16 -7 33 25 43 79 6 29 12 36 31 36 20 0 24 -6
29 -47 14 -103 38 -133 49 -61 4 29 17 55 38 77 36 39 42 34 53 -49 4 -30 12
-66 16 -79 9 -23 10 -23 30 -5 12 10 28 19 37 19 18 0 40 63 41 118 1 22 6 27
25 27 21 0 24 -6 30 -52 8 -54 22 -82 37 -72 5 3 9 14 9 25 0 12 7 19 19 19
13 0 24 13 35 40 9 22 20 40 24 40 5 0 15 -21 23 -47 13 -43 17 -48 42 -46 15
1 27 -2 27 -8 0 -5 4 -9 10 -9 5 0 17 25 26 56 13 47 19 55 37 52 15 -2 23
-11 25 -28 7 -57 23 -100 37 -100 8 0 15 7 15 15 0 8 9 19 20 25 10 6 25 28
31 50 15 48 42 54 58 13 5 -16 22 -41 37 -57 24 -28 27 -29 39 -13 7 10 15 36
19 58 6 37 9 40 34 37 22 -2 28 -9 33 -40 7 -43 26 -71 43 -61 6 4 18 8 26 8
8 0 20 19 28 48 17 61 42 64 65 6 20 -51 44 -49 72 4 16 29 26 37 47 37 22 0
29 -6 33 -27 21 -103 35 -121 59 -77 6 10 14 21 17 24 3 3 12 22 18 43 17 50
43 49 64 -3 9 -23 22 -40 31 -40 9 0 28 18 42 40 21 31 33 40 55 40 24 0 29
-5 35 -35 7 -42 17 -49 50 -41 16 4 30 19 40 41 17 41 36 45 52 10 15 -33 57
-43 82 -20 11 10 20 24 20 32 0 8 12 13 34 13 27 0 36 -5 42 -22 3 -13 13 -31
22 -41 15 -16 16 -16 35 0 11 10 23 28 28 41 12 31 34 28 49 -8 16 -39 41 -61
48 -41 4 13 20 29 56 59 8 6 28 12 44 12 23 0 31 -7 46 -40 10 -22 22 -40 27
-40 5 0 21 18 35 40 30 45 43 49 62 20 13 -21 52 -28 52 -10 0 7 6 7 20 0 15
-8 21 -6 30 10 14 26 65 27 79 3 24 -42 27 -44 53 -34 15 5 29 19 33 30 9 28
19 26 33 -4 14 -30 27 -32 49 -5 12 13 20 16 29 9 8 -7 17 -5 27 6 24 23 94
20 107 -5 14 -26 38 -25 68 2 l24 23 18 -22 c21 -26 38 -29 46 -8 4 10 15 12
34 9 15 -4 31 -1 34 5 4 6 23 11 41 11 26 0 39 -6 51 -25 21 -32 38 -32 62 2
l20 28 26 -24 c24 -23 27 -23 44 -8 14 13 21 14 30 5 9 -9 16 -8 30 5 28 25
60 21 99 -13 18 -16 38 -30 43 -30 5 0 17 14 25 30 13 26 19 29 36 20 11 -6
27 -10 37 -9 9 1 25 -1 35 -6 11 -5 24 -2 36 9 10 9 34 16 55 16 29 0 39 -5
48 -25 15 -33 55 -34 63 -2 6 21 11 22 126 24 97 2 121 -1 126 -13 7 -18 33
-18 59 1 17 11 27 12 51 3 17 -6 38 -8 49 -3 41 18 128 17 161 0 20 -11 39
-15 50 -10 10 4 34 9 53 11 19 2 67 6 105 9 54 5 77 3 100 -9 24 -13 33 -13
50 -3 14 10 63 13 167 13 94 -1 139 2 125 8 -33 13 -169 17 -183 5 -10 -8 -19
-6 -35 4 -19 14 -25 14 -56 -1 -29 -14 -38 -14 -66 -3 -37 16 -125 15 -145 -1
-9 -8 -20 -7 -38 3 -20 10 -29 11 -44 1 -29 -18 -74 -14 -103 8 -14 11 -34 20
-45 20 -28 0 -75 -19 -84 -33 -6 -9 -15 -8 -36 4 -25 14 -33 15 -62 3 -48 -20
-65 -17 -93 16 -14 17 -34 30 -44 30 -11 0 -32 -13 -48 -30 -35 -37 -50 -38
-71 -5 -9 14 -23 25 -30 25 -8 0 -20 -11 -26 -25 -9 -19 -19 -25 -45 -25 -18
0 -33 5 -33 10 0 6 -9 19 -20 30 -15 15 -25 18 -38 11 -9 -5 -35 -18 -57 -29
l-40 -19 -18 23 c-18 24 -47 33 -47 15 0 -18 -32 -41 -56 -41 -19 0 -28 8 -36
30 -10 30 -11 30 -62 24 -35 -4 -56 -13 -68 -28 l-17 -21 -25 24 -26 25 -28
-27 c-37 -35 -73 -35 -100 1 -29 37 -59 38 -95 2 -29 -28 -31 -28 -59 -14 -27
14 -32 14 -53 0 -37 -24 -84 -20 -106 8 -11 14 -27 24 -37 24 -9 0 -29 2 -44
6 -22 7 -29 3 -44 -21 -10 -15 -19 -30 -21 -32 -2 -2 -11 3 -20 12 -19 16 -73
13 -73 -4 0 -5 -14 -9 -31 -9 -24 0 -32 5 -41 30 -11 34 -34 50 -71 50 -29 0
-43 -14 -52 -53 -4 -15 -12 -27 -17 -27 -15 0 -68 33 -68 42 0 20 -28 5 -34
-17 -10 -41 -50 -33 -81 15 -14 23 -32 43 -40 46 -16 7 -75 -50 -75 -71 0 -20
-40 -19 -55 2 -17 23 -41 24 -61 2 -30 -33 -59 -24 -74 22 -8 22 -23 47 -34
55 -19 13 -23 12 -48 -18 -16 -18 -31 -43 -34 -55 -8 -30 -50 -32 -59 -3 -8
26 -39 26 -66 -1 -34 -34 -59 -21 -84 46 -12 33 -27 60 -33 59 -7 -1 -19 -2
-27 -2 -16 -2 -40 -47 -50 -94 -8 -41 -44 -37 -74 7 -30 44 -46 44 -61 0 -18
-56 -46 -47 -65 20 -9 30 -21 57 -26 60 -5 4 -9 17 -9 30 0 31 -20 43 -36 20
-7 -9 -21 -50 -30 -91 -17 -69 -19 -74 -44 -74 -23 0 -30 7 -44 44 -20 53 -37
52 -60 -5 -25 -61 -50 -53 -65 19 -7 31 -18 71 -25 87 l-13 30 -13 -25 c-7
-14 -20 -30 -28 -36 -8 -6 -20 -33 -27 -60 -9 -38 -17 -50 -34 -52 -16 -3 -24
3 -28 17 -3 12 -9 21 -14 21 -4 0 -14 12 -21 28 -20 41 -41 34 -57 -20 -8 -27
-20 -48 -27 -48 -7 0 -17 24 -24 58 -19 98 -41 136 -56 98 -3 -8 -12 -12 -19
-10 -14 6 -29 -33 -40 -103 -5 -34 -11 -43 -26 -43 -11 0 -22 7 -25 15 -4 10
-13 13 -25 10 -13 -5 -19 -1 -19 10 0 9 -7 30 -16 46 -19 39 -37 27 -53 -36
-6 -25 -15 -45 -20 -45 -5 0 -14 36 -21 81 -18 125 -46 165 -61 89 -4 -18 -14
-37 -22 -42 -9 -4 -18 -22 -21 -38 -19 -97 -14 -90 -56 -90 -43 0 -50 7 -65
65 -16 58 -38 52 -49 -12 -5 -29 -12 -53 -16 -53 -5 0 -15 41 -25 91 -27 148
-47 176 -60 84 -6 -34 -12 -45 -28 -47 -21 -3 -22 -6 -43 -105 -4 -19 -11 -23
-43 -23 -35 0 -40 3 -50 31 -6 18 -11 40 -11 50 0 23 -20 35 -30 19 -5 -7 -11
-33 -15 -57 -3 -23 -10 -43 -16 -43 -11 0 -7 -20 -32 155 -21 144 -38 186 -45
111 -2 -24 -7 -33 -16 -30 -24 9 -35 -21 -48 -127 l-13 -104 -31 -3 c-33 -3
-43 11 -58 81 -13 58 -46 16 -46 -59 0 -14 -6 -24 -14 -24 -13 0 -28 65 -53
238 -9 57 -26 74 -31 30 -2 -16 -9 -28 -18 -28 -8 0 -14 -3 -14 -7 0 -3 -6
-40 -14 -82 -8 -42 -18 -93 -21 -113 -5 -34 -9 -38 -35 -38 -19 0 -33 7 -40
20 -11 21 -40 28 -40 10 0 -5 -7 -10 -15 -10 -8 0 -15 -4 -15 -10 0 -5 -6 -10
-13 -10 -15 0 -29 63 -52 234 -22 161 -31 160 -46 -5 -6 -70 -15 -118 -23
-124 -20 -16 -36 -51 -36 -79 0 -24 -3 -26 -45 -26 -43 0 -44 1 -51 38 -6 32
-27 61 -45 62 -3 0 -11 -24 -16 -52 l-10 -53 -16 37 c-9 20 -22 94 -29 164 -9
83 -17 129 -25 132 -7 2 -13 -4 -13 -15 0 -10 -13 -72 -30 -138 -16 -66 -30
-132 -30 -147 0 -24 -4 -28 -29 -28 -27 0 -29 2 -35 60 -5 44 -12 63 -26 70
-26 14 -27 13 -34 -17 -15 -66 -31 -113 -38 -113 -4 0 -10 17 -13 38 -3 20
-12 66 -20 102 -8 36 -17 95 -21 132 -6 61 -25 111 -37 98 -3 -3 -10 -68 -16
-145 -18 -224 -18 -225 -46 -225 -19 0 -25 6 -29 33 -30 189 -34 205 -47 171
-4 -10 -8 -40 -8 -65 -2 -85 -13 -139 -29 -139 -17 0 -52 37 -52 56 0 7 -7 20
-16 29 -11 11 -21 51 -30 118 -7 56 -13 103 -13 105 -3 8 -31 0 -31 -9 0 -7
-7 -71 -16 -143 -17 -138 -25 -156 -71 -156 -14 0 -23 6 -23 15 0 20 -17 19
-29 -2 -8 -14 -14 -16 -28 -7 -10 6 -19 20 -21 30 -9 60 -13 69 -25 54 -19
-23 -36 -22 -41 3 -3 12 -8 56 -11 97 -8 109 -16 160 -25 160 -10 0 -26 -88
-40 -215 -15 -132 -16 -135 -50 -135 -32 0 -33 4 -46 148 -3 39 -10 72 -14 72
-5 0 -11 -24 -15 -52 -16 -128 -27 -168 -46 -168 -15 0 -19 7 -19 34 0 38 -17
137 -26 145 -3 3 -9 0 -13 -8 -10 -16 -21 43 -21 115 0 61 -9 114 -20 114 -4
0 -13 -39 -19 -87 -6 -49 -15 -120 -20 -160 -5 -45 -16 -81 -28 -96 l-19 -25
-12 27 c-6 14 -16 57 -22 95 -6 38 -14 74 -18 80 -10 17 -20 -32 -21 -105 -2
-102 -9 -129 -37 -129 -26 0 -29 10 -39 142 -7 86 -21 109 -30 51 -4 -21 -7
-45 -9 -53 -1 -8 -6 19 -10 60 -10 106 -16 130 -31 130 -12 0 -27 -62 -40
-175 -7 -55 -25 -97 -25 -59 0 11 -6 29 -14 39 -12 17 -15 11 -21 -58 -8 -85
-21 -92 -31 -17 -4 28 -10 50 -14 50 -4 0 -11 -24 -16 -52 -8 -47 -12 -53 -35
-56 -25 -3 -27 0 -33 45 -16 115 -18 124 -31 119 -9 -3 -15 20 -22 85 -6 49
-13 92 -15 95 -3 2 -12 2 -21 -1 -18 -8 -24 -39 -32 -165 -10 -160 -14 -180
-36 -180 -13 0 -19 7 -19 23 0 13 -5 28 -11 34 -6 6 -17 97 -24 208 -12 183
-17 216 -30 204 -6 -7 -25 -303 -25 -396 l0 -73 -30 0 c-30 0 -30 0 -30 58 -1
144 -34 337 -52 306 -3 -5 -11 -43 -17 -84 -7 -41 -17 -92 -22 -112 -5 -21
-12 -67 -16 -103 -8 -84 -43 -90 -43 -7 0 39 -20 103 -29 97 -10 -6 -20 28
-21 70 -1 17 -7 44 -14 60 l-13 30 -7 -45 c-4 -25 -11 -94 -14 -155 -7 -108
-7 -110 -32 -113 -22 -3 -27 3 -37 40 -7 24 -17 86 -22 138 -27 247 -34 300
-41 300 -4 0 -11 -33 -15 -72 -6 -62 -9 -69 -17 -48 -15 41 -25 7 -32 -115
-14 -233 -16 -245 -42 -245 -19 0 -24 5 -24 28 0 15 -5 122 -11 237 -11 200
-27 303 -44 275 -4 -6 -12 -131 -18 -276 l-11 -264 -23 0 c-22 0 -23 2 -23 98
-1 146 -38 853 -46 861 -10 11 -13 -14 -19 -169 -4 -91 -11 -176 -16 -190 -8
-23 -21 -189 -36 -477 -5 -111 -8 -123 -25 -123 -10 0 -18 7 -18 18 0 83 -32
477 -39 482 -5 3 -11 21 -13 40 -3 34 -3 35 -16 12 -14 -24 -31 -280 -32 -459
0 -91 -1 -93 -24 -93 l-23 0 -7 263 c-6 195 -11 269 -22 291 -8 16 -14 42 -14
57 0 53 -19 39 -25 -18 -4 -32 -11 -69 -16 -83 -8 -23 -20 -154 -36 -412 -6
-95 -7 -98 -29 -98 -13 0 -24 1 -24 3 -16 181 -33 366 -38 412 -6 51 -9 56
-16 35 -5 -14 -12 -27 -17 -30 -4 -3 -11 -84 -14 -180 -8 -229 -10 -240 -39
-240 l-24 0 -6 178 c-26 774 -37 956 -56 921 -4 -8 -13 -147 -19 -309 -6 -162
-16 -383 -21 -490 -5 -107 -9 -219 -10 -247 l0 -53 -33 0 -33 0 -13 333 c-7
182 -16 350 -20 372 -7 39 -7 38 -18 -35 -7 -41 -15 -201 -18 -355 -4 -154 -9
-288 -11 -297 -3 -11 -15 -18 -28 -18 -21 0 -24 6 -29 68 -4 37 -7 173 -7 302
0 308 -18 1047 -27 1130 l-7 65 -7 -50 c-7 -46 -12 -176 -39 -940 -21 -588
-20 -575 -45 -575 -21 0 -22 6 -29 92 -3 50 -6 113 -6 140 0 27 -4 47 -8 44
-5 -3 -12 46 -15 108 -4 63 -11 124 -15 136 -7 19 -10 13 -21 -34 -11 -48 -30
-327 -31 -448 0 -35 -2 -38 -30 -38 -30 0 -30 0 -30 58 -2 367 -29 1161 -38
1117 -2 -11 -8 -25 -12 -30 -5 -6 -14 -168 -20 -360 -6 -193 -16 -363 -22
-380 -6 -16 -13 -114 -15 -217 -5 -169 -7 -188 -23 -188 -15 0 -18 15 -23 113
-4 61 -7 142 -7 179 0 37 -4 70 -10 73 -5 3 -11 -2 -12 -12 -2 -25 -14 101
-22 227 -18 282 -32 217 -47 -212 l-13 -368 -26 0 -27 0 -7 333 c-16 777 -35
1302 -47 1290 -5 -5 -16 -297 -24 -649 -17 -748 -30 -974 -56 -974 -23 0 -26
32 -39 420 -14 450 -26 650 -38 662 -7 7 -12 -20 -16 -84 -8 -133 -26 -725
-26 -839 0 -131 -6 -159 -36 -159 -23 0 -24 3 -24 78 0 42 -5 367 -10 722 -12
752 -25 1169 -38 1182 -13 13 -21 -273 -32 -1117 -5 -390 -13 -745 -16 -787
-7 -76 -8 -78 -34 -78 l-26 0 -12 178 c-6 97 -14 272 -17 387 -5 212 -20 440
-34 505 -11 49 -19 -133 -26 -555 -3 -187 -8 -379 -12 -427 l-6 -88 -28 0 -29
0 0 143 c-1 369 -36 1545 -49 1632 -6 43 -8 33 -14 -75 -7 -116 -27 -1334 -27
-1587 l0 -113 -28 0 -29 0 -6 173 c-4 94 -11 217 -17 272 -11 111 -30 570 -31
740 0 61 -4 130 -8 155 l-7 45 -7 -65 c-6 -57 -27 -1009 -27 -1237 l0 -83 -29
0 -29 0 -6 153 c-3 83 -8 404 -11 712 -3 308 -10 664 -15 790 -20 498 -23 550
-31 523 -4 -15 -12 -492 -18 -1060 -6 -568 -14 -1052 -17 -1075 -5 -39 -8 -43
-33 -43 -28 0 -28 0 -34 83 -4 45 -13 296 -21 557 -21 674 -28 811 -37 735 -6
-51 -30 -1101 -29 -1307 l0 -68 -34 0 -33 0 -8 458 c-4 251 -11 599 -17 772
-5 173 -13 455 -16 627 -4 171 -10 314 -13 318 -12 11 -19 -253 -25 -930 -6
-623 -19 -1176 -23 -1000 -1 56 -4 75 -11 65 -5 -8 -10 -81 -10 -162 l0 -148
-24 0 -24 0 -6 173 c-3 94 -10 514 -16 932 -11 798 -16 969 -31 959 -5 -3 -9
-89 -9 -192 0 -304 -20 -1700 -26 -1789 -6 -82 -6 -83 -33 -83 l-28 0 -7 743
c-7 763 -20 1429 -33 1667 l-8 135 -6 -130 c-4 -71 -7 -332 -8 -580 -1 -537
-19 -1732 -27 -1792 -5 -39 -8 -43 -34 -43 -28 0 -29 2 -34 63 -9 96 -26 686
-27 927 -1 118 -4 276 -8 350 -6 130 -6 122 -18 -190 -7 -179 -15 -455 -18
-615 -3 -159 -8 -345 -12 -412 l-6 -123 -33 0 -34 0 0 283 c0 500 -31 1673
-48 1787 -8 59 -13 -81 -32 -1005 -6 -275 -15 -530 -20 -567 -6 -37 -10 -164
-10 -282 l0 -216 -29 0 -28 0 -7 188 c-3 103 -9 347 -13 542 -3 195 -9 344
-13 330 l-6 -25 -7 25 c-4 14 -7 66 -8 115 0 50 -4 115 -8 145 -8 68 -31 -742
-31 -1077 l0 -243 -28 0 -29 0 -7 933 c-8 1113 -25 2333 -35 2472 -6 90 -8 75
-14 -145 -4 -135 -9 -542 -12 -905 -6 -684 -22 -1720 -33 -2120 l-7 -230 -27
-3 -28 -3 0 82 c0 241 -21 1286 -27 1359 l-8 85 -6 -95 c-3 -52 -11 -329 -17
-615 -7 -286 -17 -586 -24 -667 l-12 -148 -28 0 -28 0 -1 183 c-1 588 -18
1570 -26 1578 -7 7 -12 -16 -17 -63 -3 -39 -10 -75 -15 -78 -5 -3 -12 -295
-16 -650 -11 -922 -19 -1034 -28 -385 -4 292 -11 564 -15 605 l-7 75 -8 -110
c-4 -60 -11 -211 -15 -335 -5 -124 -9 -195 -10 -157 -1 38 -6 67 -12 67 -17 0
-21 -21 -29 -137 -7 -104 -7 -98 -16 137 -5 135 -12 225 -15 200 l-5 -45 -8
34 c-4 18 -8 151 -8 295 -1 160 -5 244 -9 216 -5 -25 -11 -342 -15 -705 -3
-363 -8 -675 -11 -692 -3 -24 -10 -33 -23 -33 -18 0 -19 21 -25 398 -13 756
-34 1613 -40 1619 -3 4 -6 -45 -6 -108 0 -63 -4 -359 -10 -659 -5 -300 -13
-704 -16 -897 l-6 -353 -23 0 c-15 0 -25 8 -29 23 -3 12 -6 177 -7 367 -2 309
-12 714 -17 650 -1 -14 -6 -31 -11 -38 -5 -8 -11 91 -14 235 -10 397 -22 380
-33 -47 l-11 -375 -2 395 c-2 217 -6 409 -10 425 -12 52 -21 -287 -21 -775 0
-579 -8 -860 -25 -860 -7 0 -15 10 -19 23 -3 12 -6 234 -6 492 0 659 -18 2022
-27 2070 -14 71 -20 -112 -32 -900 -6 -412 -15 -814 -21 -891 -5 -78 -10 -238
-10 -355 0 -118 -3 -265 -7 -326 -6 -110 -7 -113 -30 -113 l-23 0 0 188 c0
103 -3 273 -8 377 l-7 190 -6 -115 c-4 -93 -6 -69 -8 120 -6 487 -20 371 -40
-320 l-7 -245 -2 235 c-1 129 -5 348 -9 485 -11 372 -21 190 -22 -417 -1 -480
-2 -498 -20 -498 -18 0 -19 18 -25 448 -3 246 -11 1021 -17 1722 -6 701 -14
1325 -19 1385 l-7 110 -2 -120 c0 -66 -5 -178 -11 -250 -5 -71 -14 -827 -20
-1680 -6 -852 -13 -1565 -16 -1582 -4 -26 -10 -33 -28 -33 l-23 0 -8 628 c-4
345 -11 760 -14 922 l-6 295 -8 -230 c-12 -346 -27 -1109 -27 -1377 0 -131 -4
-238 -9 -238 -12 0 -21 155 -22 394 -1 116 -5 222 -9 236 -5 15 -8 -40 -9
-136 -1 -88 -4 -236 -8 -327 l-6 -167 -32 0 -32 0 -7 743 c-8 874 -20 1379
-34 1402 -15 29 -23 -134 -32 -747 -5 -315 -9 -575 -10 -578 -2 -15 -20 30
-22 55 -1 17 -5 -26 -8 -95 l-6 -125 -3 115 c-3 98 -5 109 -13 75 -5 -22 -12
-221 -15 -442 -3 -222 -8 -403 -12 -403 -9 0 -21 597 -21 1019 0 312 -21 724
-36 708 -8 -8 -36 -1058 -43 -1629 -1 -98 -1 -98 -26 -98 l-25 0 0 618 c0 879
-33 2790 -48 2818 -14 24 -20 -319 -27 -1341 -10 -1637 -17 -2095 -32 -2095
-11 0 -13 107 -14 603 -2 669 -14 1652 -28 2172 -5 187 -10 417 -11 510 -1
117 -5 157 -10 130 -4 -22 -13 -589 -20 -1260 -6 -671 -15 -1317 -20 -1435 -5
-118 -9 -329 -10 -467 l0 -253 -43 0 -44 0 -7 598 c-12 1015 -30 1810 -38
1697 -5 -55 -9 -197 -9 -315 -1 -118 -5 -199 -8 -180 -4 19 -10 -212 -14 -515
-12 -937 -20 -1285 -29 -1285 -4 0 -9 73 -9 163 -2 176 -15 151 -20 -38 -4
-164 -16 278 -17 665 -1 190 -7 743 -14 1230 -15 1012 -24 976 -28 -110 -4
-767 -13 -797 -25 -77 -5 252 -11 460 -15 462 -7 4 -19 -645 -21 -1100 -1
-126 -4 -209 -9 -195 -4 14 -8 -148 -9 -360 -1 -212 -4 -442 -8 -512 -6 -124
-7 -128 -28 -128 l-22 0 -7 1203 c-4 661 -11 1380 -16 1597 -6 217 -10 528
-10 690 0 194 -4 290 -10 280 -6 -9 -11 -151 -12 -340 -1 -179 -4 -291 -7
-250 -9 114 -20 -722 -28 -2017 -5 -890 -9 -1163 -18 -1163 -15 0 -24 435 -36
1775 -10 1162 -22 1409 -31 655 -4 -278 -11 -660 -17 -850 -16 -515 -29 -894
-32 -900 -2 -3 -6 31 -9 75 -3 44 -7 -108 -8 -337 l-2 -418 -28 0 -29 0 -6
677 c-4 372 -8 805 -9 962 -1 157 -4 266 -7 241 -5 -42 -6 -39 -11 30 -4 41
-7 -141 -9 -405 -1 -264 -5 -498 -10 -520 -4 -22 -11 273 -15 655 -14 1234
-19 1109 -45 -1120 -5 -473 -7 -393 -15 815 -9 1387 -21 2597 -24 2580z"/>
</g>
</svg>
