<?xml version="1.0" standalone="no"?>
<!DOCTYPE svg PUBLIC "-//W3C//DTD SVG 20010904//EN"
 "http://www.w3.org/TR/2001/REC-SVG-20010904/DTD/svg10.dtd">
<svg version="1.0" xmlns="http://www.w3.org/2000/svg"
 width="3600.000000pt" height="1200.000000pt" viewBox="0 0 3600.000000 1200.000000"
 preserveAspectRatio="xMidYMid meet">
<metadata>
Created by potrace 1.16, written by Peter Selinger 2001-2019
</metadata>
<g transform="translate(0.000000,1200.000000) scale(0.100000,-0.100000)"
fill="#000000" stroke="none">
<path d="M892 9325 c-2 -2631 -7 -3325 -24 -3325 -4 0 -9 402 -9 893 -1 490
-5 1106 -8 1367 -6 368 -8 199 -9 -750 -2 -1303 -6 -1510 -29 -1510 -11 0 -13
171 -14 1008 -1 554 -5 1223 -8 1487 -5 338 -8 39 -9 -1007 -1 -978 -5 -1488
-12 -1488 -6 0 -11 251 -13 718 l-2 717 -3 -717 c-1 -471 -5 -718 -12 -718 -7
0 -10 522 -11 1543 -1 848 -5 1916 -8 2372 -5 609 -8 197 -9 -1542 -2 -2102
-4 -2373 -17 -2373 -13 0 -15 194 -16 1683 -1 925 -5 1903 -8 2172 -4 296 -8
-369 -9 -1682 -1 -1441 -5 -2173 -12 -2173 -5 0 -11 28 -12 63 l-1 62 -7 -65
c-4 -36 -8 230 -10 590 -1 360 -6 750 -10 865 -4 138 -7 -86 -10 -655 -3 -823
-4 -845 -11 -447 -4 230 -10 421 -13 425 -3 3 -6 -184 -6 -416 0 -275 -3 -422
-10 -422 -7 0 -11 680 -12 2018 -2 1681 -3 1868 -9 1122 -3 -492 -7 -1400 -8
-2017 -1 -991 -3 -1123 -16 -1123 -13 0 -15 117 -16 988 -1 543 -5 1498 -8
2122 -7 1048 -7 971 -9 -987 -2 -2053 -3 -2123 -20 -2123 -18 0 -19 19 -25
332 -4 182 -8 557 -9 832 l-2 501 -7 -450 c-3 -247 -7 -622 -8 -832 -1 -376
-1 -383 -21 -383 -20 0 -20 7 -21 703 -1 386 -5 691 -9 677 -4 -14 -8 -330 -9
-702 -1 -445 -4 -678 -11 -678 -6 0 -11 150 -12 428 -1 352 -3 395 -9 242 -3
-102 -7 -294 -8 -427 0 -134 -5 -243 -9 -243 -14 0 -22 301 -23 909 -1 317 -5
646 -9 731 -3 86 -7 -242 -8 -742 -1 -587 -5 -898 -12 -898 -6 0 -11 257 -13
738 l-2 737 -3 -737 c-1 -484 -5 -738 -12 -738 -7 0 -10 308 -11 903 -1 496
-5 1237 -8 1647 -6 625 -7 480 -9 -902 -1 -1091 -5 -1648 -12 -1648 -5 0 -10
8 -11 18 0 15 -1 14 -8 -3 -8 -19 -19 471 -23 970 -2 226 -2 211 -9 -150 -3
-220 -7 -498 -8 -617 -1 -211 -2 -218 -21 -218 -17 0 -20 7 -20 53 0 37 -3 48
-10 37 -5 -8 -10 -30 -10 -49 0 -25 -4 -32 -15 -28 -8 4 -17 2 -20 -3 -3 -5 9
-10 27 -12 32 -3 33 -5 40 -58 3 -30 7 -158 8 -285 1 -126 5 -252 10 -280 4
-30 8 85 9 288 1 292 3 337 16 337 12 0 15 -16 17 -72 l2 -73 6 75 c4 41 8
-451 10 -1095 2 -765 6 -1078 11 -905 3 146 7 671 8 1168 1 594 4 902 11 902
7 0 11 -207 12 -597 l2 -598 5 592 c3 325 9 595 13 599 5 4 9 -359 9 -807 1
-448 5 -1066 8 -1374 6 -445 7 -279 9 813 2 1212 4 1372 17 1372 13 0 15 -57
16 -452 1 -249 5 -511 8 -583 5 -82 8 84 9 453 1 380 5 582 12 582 6 0 10
-126 11 -357 1 -197 5 -347 9 -333 4 14 8 175 9 358 1 214 5 332 11 332 6 0
11 -105 12 -292 1 -161 4 -259 7 -218 5 60 8 31 17 -150 l11 -225 1 443 c2
385 4 442 17 442 13 0 15 -53 17 -412 1 -271 4 -363 8 -268 3 80 8 -285 10
-810 l3 -955 8 1218 c4 670 10 1221 13 1224 3 4 8 4 11 2 2 -3 8 -698 12
-1544 4 -847 11 -1497 14 -1445 4 52 7 746 8 1543 1 957 4 1447 11 1447 13 0
12 57 19 -890 l7 -835 2 863 c1 563 5 862 12 862 6 0 11 -299 13 -862 l2 -863
3 863 c1 566 5 862 12 862 7 0 11 -231 12 -667 l3 -668 5 670 c4 547 6 396 10
-820 4 -1428 4 -1458 11 -730 3 418 7 1087 8 1488 0 400 5 727 9 727 10 0 21
-1882 24 -3924 l2 -1311 7 1775 c3 976 7 2154 8 2618 0 554 4 842 11 842 7 0
11 -352 12 -1032 l2 -1033 6 1027 c3 564 8 1030 13 1034 4 4 8 -359 8 -807 1
-448 5 -1005 8 -1239 5 -309 8 -89 9 813 1 817 5 1237 12 1237 7 0 11 -332 12
-972 l3 -973 5 845 c4 717 6 785 10 450 l5 -395 3 523 c2 456 4 522 17 522 13
0 15 -170 16 -1467 1 -808 5 -1974 8 -2593 6 -925 7 -665 9 1468 2 2294 4
2592 17 2592 13 0 15 -227 18 -1957 l2 -1958 3 1958 c1 1253 5 1957 12 1957 5
0 11 -51 13 -117 l3 -118 2 118 c1 70 6 117 12 117 6 0 10 -88 11 -242 1 -134
4 -331 8 -438 l6 -195 8 289 c4 159 7 356 7 438 0 125 2 148 15 148 13 0 15
-43 15 -325 0 -210 4 -325 10 -325 6 0 11 17 12 38 1 20 5 -3 8 -53 3 -50 7
80 8 288 2 328 4 377 17 377 8 0 16 -1 17 -2 1 -2 5 -435 8 -963 l5 -960 3
963 c1 529 6 962 11 962 4 0 11 -34 15 -77 3 -42 7 -1091 8 -2332 l2 -2256 7
1595 c3 877 7 1927 8 2333 0 478 4 737 11 737 6 0 11 -151 13 -417 l2 -418 3
418 c1 270 6 417 12 417 7 0 11 -782 12 -2322 l2 -2323 7 1545 c3 850 7 1895
8 2323 0 510 4 777 11 777 7 0 11 -327 12 -957 2 -792 3 -885 9 -538 3 231 8
663 10 960 2 339 5 481 9 380 l6 -160 2 158 c1 96 6 157 12 157 7 0 11 -750
12 -2227 1 -1334 5 -2031 9 -1738 3 270 7 1272 8 2228 1 1142 4 1737 11 1737
6 0 11 -249 12 -712 l3 -713 9 715 c5 393 11 710 13 703 2 -6 8 -1012 12
-2235 l8 -2223 1 2233 c2 1973 4 2232 17 2232 13 0 15 -97 18 -792 l2 -793 3
793 c1 518 5 792 12 792 7 0 11 -494 13 -1447 l2 -1448 3 1448 c1 956 5 1447
12 1447 7 0 11 -217 12 -627 l1 -628 9 624 c4 344 10 627 13 629 3 3 8 2 13
-2 4 -4 9 -704 12 -1556 3 -852 8 -1552 13 -1556 4 -4 7 695 7 1554 0 1382 2
1562 15 1562 13 0 15 -211 17 -1827 l2 -1828 7 1560 c9 2309 7 2095 24 2095
13 0 15 -63 18 -487 l2 -488 3 488 c1 316 6 487 12 487 7 0 10 -200 11 -577 1
-318 4 -618 8 -668 5 -50 9 204 9 578 2 585 4 667 17 667 13 0 15 -181 17
-1562 1 -1209 3 -1426 9 -958 3 333 7 1036 8 1563 l1 957 24 0 c13 0 27 -7 30
-16 3 -9 7 -808 8 -1777 2 -1384 3 -1611 9 -1057 3 388 7 1188 8 1778 1 707 4
1072 11 1072 7 0 10 -217 10 -632 0 -347 3 -628 7 -625 3 4 9 289 13 634 l6
628 4 -655 c1 -360 6 -905 9 -1210 6 -471 7 -371 9 653 2 1200 2 1207 22 1207
20 0 20 -7 22 -577 2 -560 2 -567 9 -238 3 187 8 448 10 580 3 228 3 233 9
100 l6 -140 2 139 c1 77 5 136 8 133 4 -4 10 -118 14 -254 l7 -248 3 255 c3
189 5 230 10 160 l6 -95 2 93 c2 74 5 92 17 92 13 0 15 -50 16 -387 1 -214 5
-892 8 -1508 l7 -1120 2 831 c3 1169 14 2184 24 2184 4 0 9 -156 10 -347 l3
-348 5 350 c4 269 6 159 9 -480 2 -456 7 -1161 10 -1565 6 -631 7 -514 9 828
1 860 6 1562 11 1562 4 0 11 -28 15 -61 3 -34 7 -832 8 -1773 l2 -1711 7 1560
c9 2170 6 1985 24 1985 13 0 15 -94 17 -777 2 -428 5 -686 8 -573 3 144 6 32
10 -375 l5 -580 3 755 c2 877 13 1579 23 1500 4 -30 9 -516 10 -1080 l4 -1025
5 1080 c5 1036 5 1053 9 415 2 -366 7 -854 10 -1085 6 -326 8 -177 9 663 1
713 5 1082 12 1082 6 0 10 -90 11 -247 1 -137 5 -261 9 -278 4 -16 8 95 9 248
1 177 5 277 11 277 7 0 10 -223 11 -647 1 -357 5 -1132 8 -1723 l7 -1075 2
1130 c2 1356 12 2315 24 2315 4 0 9 -483 10 -1072 l3 -1073 5 1075 c3 591 7
978 9 860 2 -118 7 -651 10 -1185 l7 -970 2 1183 c2 1043 4 1182 17 1182 13 0
15 -27 17 -177 l2 -178 6 180 c3 99 8 -614 10 -1585 l4 -1765 7 1095 c3 602 7
1395 8 1763 0 434 4 667 11 667 6 0 11 -297 13 -857 l2 -858 3 858 c1 563 5
857 12 857 7 0 11 -839 12 -2492 l2 -2493 6 2490 c4 1370 7 2491 8 2493 19 25
22 -123 25 -1345 l2 -1348 3 1348 c1 887 5 1347 12 1347 7 0 11 -512 13 -1502
l2 -1503 3 1503 c1 993 5 1502 12 1502 7 0 11 -174 12 -497 l3 -498 5 440 c4
365 6 418 13 310 5 -71 10 -134 12 -140 2 -5 4 79 4 188 1 157 4 197 14 197
13 0 21 -403 29 -1625 1 -159 4 138 8 662 3 523 8 955 13 959 4 4 9 5 12 2 3
-3 8 -484 11 -1069 4 -585 10 -1113 14 -1174 4 -62 8 273 9 760 1 948 9 1485
23 1485 4 0 9 -703 10 -1562 l3 -1563 5 1565 c3 861 7 1446 10 1300 l4 -265 6
257 c3 141 8 259 11 262 15 16 19 -301 21 -1794 2 -1348 3 -1490 9 -885 3 396
7 1162 8 1703 1 647 4 982 11 982 7 0 11 -213 11 -617 1 -340 5 -1268 8 -2063
l7 -1445 2 2063 c1 1366 5 2062 12 2062 7 0 11 -180 12 -517 1 -351 4 -471 8
-373 4 80 8 255 9 390 2 341 10 500 28 500 10 0 13 -22 14 -92 1 -51 5 -208 9
-348 l6 -255 4 195 4 195 6 -200 c5 -178 6 -162 8 153 1 226 6 352 12 352 6 0
10 -82 11 -222 1 -123 4 -288 8 -368 l6 -145 8 244 c4 134 7 300 7 368 0 67 4
123 9 123 5 0 13 -100 18 -222 l10 -223 4 225 3 225 6 -210 6 -210 2 208 c1
130 6 207 12 207 7 0 10 -230 11 -667 1 -368 5 -855 8 -1083 6 -320 8 -168 9
668 1 713 5 1082 12 1082 6 0 10 -138 11 -392 0 -216 4 -415 9 -443 4 -29 8
140 9 393 1 287 5 442 11 442 6 0 11 -119 12 -332 l3 -333 2 320 c2 176 6 327
11 335 4 8 9 -129 12 -305 l5 -320 3 318 c1 203 6 317 12 317 6 0 11 -57 12
-147 l2 -148 6 150 6 150 3 -175 c4 -247 19 -261 21 -20 2 133 5 182 11 155 4
-22 9 -299 10 -615 l3 -575 7 520 c3 286 7 562 8 613 2 145 21 113 23 -40 l2
-133 6 135 6 135 3 -205 c4 -176 5 -193 12 -120 4 47 7 138 8 203 1 64 5 117
9 117 12 0 22 -1038 24 -2464 l2 -1171 7 1470 c3 809 7 1626 8 1818 0 222 5
347 11 347 6 0 11 -324 13 -937 l2 -938 3 938 c1 616 5 937 12 937 7 0 11
-540 12 -1597 1 -879 5 -1499 9 -1378 3 121 7 840 8 1598 1 910 4 1377 11
1377 6 0 10 -130 11 -367 1 -203 5 -548 8 -768 l7 -400 4 330 5 330 5 -330 c4
-241 6 -122 8 438 1 501 5 767 12 767 6 0 11 -367 13 -1067 l2 -1068 3 1068
c1 701 5 1067 12 1067 7 0 11 -719 13 -2123 l2 -2122 3 2123 c2 1876 4 2122
17 2122 13 0 15 -141 18 -1187 l2 -1188 3 1188 c1 783 5 1187 12 1187 7 0 11
-307 12 -897 l2 -898 7 850 c8 1050 4 945 29 945 20 0 20 -7 21 -697 1 -384 5
-1121 8 -1638 7 -904 7 -877 9 698 2 1448 4 1637 17 1637 13 0 15 -134 17
-1137 l3 -1138 5 1140 c3 627 8 1111 13 1076 4 -35 8 -951 9 -2035 l3 -1971 5
2030 c3 1117 6 2031 8 2033 19 21 22 -94 25 -1055 l2 -1058 3 1058 c1 696 5
1057 12 1057 7 0 11 -336 12 -982 l2 -983 6 980 c3 539 7 981 8 983 18 23 22
-39 24 -370 l3 -373 5 375 c4 276 6 129 9 -560 2 -514 7 -1034 10 -1155 4
-128 8 260 9 933 1 760 5 1152 12 1152 7 0 11 -182 11 -522 1 -288 5 -1018 8
-1623 l7 -1100 2 1623 c2 1427 4 1622 17 1622 13 0 15 -42 18 -287 2 -159 2
-103 -1 122 -3 226 -8 734 -11 1130 -4 396 -8 581 -9 410 -5 -732 -16 -1375
-24 -1375 -4 0 -9 719 -10 1598 -2 1322 -3 1476 -9 892 -3 -388 -7 -1107 -8
-1597 -1 -588 -4 -893 -11 -893 -6 0 -11 161 -12 458 l-3 457 -5 -460 c-7
-570 -11 -396 -19 765 l-7 905 -2 -1062 c-1 -585 -6 -1063 -10 -1063 -15 0
-22 176 -24 600 l-3 405 -5 -505 c-5 -505 -5 -505 -9 -175 -2 182 -7 947 -10
1700 l-7 1370 -2 -1697 c-2 -1502 -4 -1698 -17 -1698 -13 0 -15 115 -17 963
l-3 962 -5 -965 c-3 -531 -7 -882 -9 -780 -2 102 -7 939 -10 1860 l-7 1675 -2
-1640 c-2 -1620 -7 -2075 -24 -2075 -4 0 -8 281 -8 624 0 406 -4 627 -10 631
-7 4 -10 -204 -11 -617 -1 -343 -5 -612 -9 -598 -8 24 -8 23 -9 -7 -1 -18 -5
-33 -11 -33 -7 0 -11 279 -12 813 -2 738 -2 773 -9 387 -3 -234 -8 -600 -9
-815 -3 -312 -5 -361 -10 -245 -4 80 -9 957 -11 1950 l-3 1805 -6 -1942 c-3
-1068 -8 -1945 -12 -1949 -5 -4 -9 168 -10 382 l-1 389 -8 -350 c-5 -192 -10
-368 -12 -390 -2 -22 -5 757 -7 1730 l-4 1770 -7 -1040 c-3 -572 -7 -1367 -8
-1767 -1 -721 -1 -728 -21 -728 -20 0 -20 7 -21 1258 -1 691 -5 1534 -8 1872
-5 436 -8 71 -9 -1257 -1 -1241 -5 -1873 -12 -1873 -7 0 -11 217 -12 628 -1
450 -4 568 -8 417 -4 -115 -8 -399 -9 -629 0 -231 -4 -417 -7 -414 -3 4 -9
948 -13 2100 l-8 2093 -1 -2097 c-2 -1858 -4 -2098 -17 -2098 -13 0 -15 73
-17 588 -1 371 -4 539 -9 457 -3 -71 -7 -336 -8 -587 -1 -298 -4 -458 -11
-458 -6 0 -11 136 -12 383 l-3 382 -5 -385 c-3 -212 -7 -383 -10 -380 -2 3 -7
365 -10 805 l-5 800 -3 -802 c-2 -702 -4 -803 -17 -803 -12 0 -15 35 -18 233
l-2 232 -3 -232 c-1 -147 -6 -233 -12 -233 -5 0 -11 24 -12 53 l-1 52 -7 -55
c-4 -30 -8 121 -9 335 -2 215 -6 415 -11 445 -4 32 -9 -129 -11 -390 -2 -309
-5 -398 -9 -290 l-6 155 -2 -152 c-1 -94 -6 -153 -12 -153 -6 0 -11 32 -11 73
-1 39 -5 176 -8 302 l-7 230 -2 -302 c-1 -194 -6 -303 -12 -303 -7 0 -11 370
-12 1088 l-2 1087 -7 -785 c-3 -432 -7 -921 -8 -1087 0 -195 -5 -303 -11 -303
-7 0 -11 235 -12 683 -1 451 -4 621 -9 502 -3 -99 -8 -407 -9 -685 -1 -278 -6
-489 -10 -470 l-7 35 -2 -32 c0 -18 -5 -33 -11 -33 -7 0 -11 165 -12 473 l-2
472 -9 -472 c-8 -390 -12 -473 -23 -473 -12 0 -14 93 -16 568 -2 516 -2 540
-8 267 -4 -165 -8 -420 -9 -567 -1 -261 -2 -268 -21 -268 -20 0 -20 7 -22 628
l-2 627 -6 -475 c-9 -594 -17 -780 -36 -780 -12 0 -14 171 -16 1073 -1 603 -5
993 -9 892 -3 -99 -7 -582 -8 -1072 -1 -588 -4 -893 -11 -893 -7 0 -11 630
-12 1868 -2 1495 -3 1713 -9 1097 -3 -423 -7 -1264 -8 -1867 -1 -968 -3 -1098
-16 -1098 -13 0 -15 189 -18 1618 l-2 1617 -3 -1617 c-1 -1071 -5 -1618 -12
-1618 -6 0 -11 86 -12 233 l-2 232 -6 -235 c-7 -305 -11 119 -19 2435 l-7
1710 -2 -2187 c-2 -2181 -2 -2188 -22 -2188 -20 0 -20 7 -21 1058 -1 581 -5
1104 -9 1162 -3 58 -7 -418 -8 -1057 -2 -964 -4 -1163 -15 -1163 -13 0 -22
203 -29 699 -1 114 -2 108 -8 -69 -4 -107 -8 -293 -9 -412 -1 -211 -2 -218
-21 -218 -20 0 -20 7 -22 1063 l-2 1062 -6 -1057 c-3 -581 -9 -1060 -13 -1064
-4 -4 -8 418 -9 937 l-2 944 -7 -705 c-3 -388 -7 -813 -8 -944 0 -132 -4 -236
-8 -232 -5 4 -10 1203 -13 2664 l-5 2657 -3 -2662 c-1 -1767 -5 -2663 -12
-2663 -7 0 -11 174 -12 498 l-2 497 -6 -492 c-3 -270 -8 -495 -13 -499 -4 -4
-8 431 -8 967 -1 536 -5 1348 -8 1804 -6 704 -7 557 -9 -972 -1 -1194 -5
-1803 -12 -1803 -6 0 -11 131 -12 368 l-3 367 -5 -370 c-8 -533 -12 -297 -19
1060 l-7 1200 -2 -1161 c-2 -1147 -7 -1464 -24 -1464 -4 0 -9 219 -10 488 l-3
487 -5 -490 -5 -490 -4 625 c-2 344 -7 1365 -10 2270 l-7 1645 -2 -2267 c-2
-2008 -4 -2268 -17 -2268 -13 0 -15 39 -16 283 -1 155 -5 588 -8 962 l-7 680
-2 -962 c-1 -634 -5 -963 -12 -963 -7 0 -11 349 -12 1023 -2 954 -2 985 -9
462 -3 -308 -7 -768 -8 -1022 0 -300 -5 -463 -11 -463 -6 0 -11 352 -13 1023
l-2 1022 -3 -1022 c-1 -673 -5 -1023 -12 -1023 -7 0 -11 839 -13 2483 l-2
2482 -3 -2482 c-2 -2476 -2 -2483 -22 -2483 -20 0 -20 7 -21 683 -1 375 -5
966 -8 1312 l-7 630 -2 -876 c-3 -1221 -11 -1749 -29 -1749 -11 0 -13 387 -15
2293 l-2 2292 -7 -2075 c-8 -2620 -7 -2510 -19 -2510 -6 0 -11 122 -12 343
l-3 342 -5 -345 c-5 -314 -6 -288 -9 290 -2 349 -7 1087 -10 1640 -7 1003 -7
1002 -9 -632 -2 -1449 -4 -1638 -17 -1638 -13 0 -15 61 -16 483 -1 265 -5 574
-9 687 -5 167 -7 117 -8 -271 -2 -521 -13 -931 -23 -859 l-6 45 -1 -42 c-1
-24 -6 -43 -12 -43 -6 0 -11 112 -12 313 l-3 312 -5 -315 c-3 -173 -8 -301
-11 -285 l-6 30 -2 -27 c0 -16 -5 -28 -11 -28 -7 0 -11 194 -12 558 -1 369 -4
506 -8 407 -4 -82 -9 -287 -11 -455 -3 -202 -6 -60 -9 420 l-5 725 -3 -827
c-1 -541 -5 -828 -12 -828 -6 0 -11 272 -13 783 l-2 782 -3 -782 c-1 -514 -5
-783 -12 -783 -7 0 -10 488 -11 1443 -1 793 -5 1548 -8 1677 -4 129 -8 -520
-9 -1442 -2 -1484 -4 -1678 -17 -1678 -13 0 -15 68 -17 543 l-1 542 -8 -493
c-4 -272 -10 -496 -13 -500 -3 -3 -7 260 -7 584 -1 324 -5 751 -8 949 -6 271
-8 116 -9 -632 -1 -654 -5 -993 -12 -993 -7 0 -10 170 -11 488 -1 268 -5 728
-8 1022 l-7 535 -2 -826 c-2 -855 -9 -1219 -24 -1219 -4 0 -9 226 -10 503 -1
354 -4 455 -8 342 -4 -88 -9 -315 -11 -505 -4 -393 -7 -298 -17 610 l-7 645
-9 -797 c-5 -439 -12 -798 -16 -798 -15 0 -20 523 -22 2520 l-2 2085 -7 -1875
c-3 -1031 -7 -2067 -8 -2302 -1 -373 -3 -428 -16 -428 -13 0 -15 93 -17 768
-1 485 -4 701 -9 587 -3 -99 -7 -444 -8 -767 -1 -385 -4 -588 -11 -588 -7 0
-11 485 -12 1433 l-1 1432 -8 -1428 c-3 -785 -9 -1431 -13 -1434 -3 -4 -6 28
-6 70 0 42 -4 79 -10 82 -6 4 -10 -24 -10 -76 0 -45 -3 -79 -7 -75 -5 4 -10
1095 -14 2424 l-5 2417 -2 -2361 c-1 -1299 -5 -2389 -8 -2423 -4 -33 -11 -61
-15 -61 -5 0 -10 492 -12 1093 l-2 1092 -3 -1092 c-1 -721 -5 -1093 -12 -1093
-7 0 -11 739 -12 2193 -2 1678 -4 1996 -9 1357 -3 -459 -7 -1446 -8 -2192 -1
-898 -4 -1358 -11 -1358 -7 0 -10 293 -11 858 -1 471 -5 931 -9 1022 -3 95 -8
-272 -10 -860 -3 -708 -6 -914 -10 -665 l-5 360 -3 -357 c-1 -231 -6 -358 -12
-358 -7 0 -11 202 -11 583 -1 320 -5 1475 -8 2567 l-7 1985 -2 -2567 c-1
-1704 -5 -2568 -12 -2568 -6 0 -10 79 -10 218 0 120 -3 322 -7 448 -8 227 -8
225 -13 -221 -5 -450 -5 -450 -9 260 -2 391 -7 1311 -10 2045 l-7 1335 -2
-2042 c-2 -1808 -4 -2043 -17 -2043 -13 0 -15 198 -17 1718 l-2 1717 -6 -1715
c-4 -943 -8 -1716 -8 -1717 -1 -2 -6 -3 -12 -3 -6 0 -10 124 -10 353 0 195 -3
416 -7 493 l-8 139 -6 -100 c-4 -55 -7 -277 -8 -492 -1 -377 -2 -393 -20 -393
-18 0 -19 22 -27 563 l-9 562 -6 -560 c-3 -308 -6 -561 -7 -562 -1 -2 -9 -3
-17 -3 -8 0 -16 1 -17 3 0 1 -4 360 -8 797 l-6 795 -4 -800 c-2 -440 -6 -766
-7 -725 -2 41 -8 199 -12 350 l-8 275 -1 -349 c-1 -192 -5 -346 -9 -342 -4 4
-10 1356 -13 3004 l-6 2997 -2 -2680z"/>
<path d="M4352 8528 c-2 -2240 -4 -2528 -17 -2528 -13 0 -15 56 -15 440 0 287
-3 440 -10 440 -6 0 -10 -91 -10 -252 0 -387 -10 -628 -27 -628 -10 0 -13 57
-14 308 -1 169 -5 318 -9 332 -4 14 -8 -125 -9 -307 -1 -211 -5 -333 -11 -333
-6 0 -11 91 -13 238 -2 130 -2 26 1 -233 2 -258 8 -537 12 -620 5 -120 7 -74
8 233 1 247 6 382 12 382 6 0 11 -60 12 -157 2 -155 2 -156 8 -53 l6 105 5
-100 c4 -93 5 -89 7 53 2 119 5 152 15 152 19 0 26 -612 29 -2270 l2 -1295 7
965 c3 531 7 1333 8 1783 1 537 4 817 11 817 7 0 11 -484 12 -1427 l2 -1428 6
995 c9 1355 19 1860 37 1860 10 0 13 -54 13 -286 0 -187 3 -283 10 -279 6 3
11 50 12 103 2 53 5 -117 8 -378 l5 -475 3 658 c1 430 5 657 12 657 7 0 11
-262 12 -762 2 -639 3 -707 8 -418 4 190 8 533 9 763 1 341 3 417 14 417 21 0
27 -232 29 -1090 2 -628 3 -692 9 -405 3 187 7 600 8 918 1 506 3 577 16 577
13 0 15 -35 17 -242 l2 -243 6 245 6 245 3 -350 c2 -192 7 -888 10 -1545 l7
-1195 2 1543 c2 1230 5 1543 15 1540 9 -4 13 -156 17 -699 l5 -694 3 682 c1
375 5 688 8 697 3 9 15 16 25 16 18 0 19 -15 20 -437 1 -241 5 -710 8 -1043
l7 -605 2 606 c3 808 13 1479 24 1479 4 0 9 -305 11 -677 l2 -678 3 678 c1
372 6 677 10 677 14 0 22 -327 23 -885 1 -280 5 -521 9 -535 4 -14 8 300 9
698 1 397 5 722 9 722 14 0 22 -278 24 -820 l1 -505 8 659 c5 362 11 661 14
664 3 3 7 3 10 0 3 -3 9 -478 14 -1054 l8 -1049 1 931 c2 919 7 1174 24 1174
4 0 9 -280 9 -622 1 -343 5 -731 8 -863 l7 -240 2 375 c4 684 15 1350 24 1350
4 0 9 -296 10 -657 l2 -658 7 540 c3 297 8 594 10 660 2 66 6 -575 9 -1425 l5
-1545 3 1543 c2 1471 11 1909 26 1230 3 -172 10 -385 14 -473 l7 -160 6 120
c4 66 7 279 8 473 1 306 3 352 16 352 13 0 15 -57 17 -442 l3 -443 5 445 5
445 4 -430 4 -430 12 430 c8 306 13 388 15 285 l4 -145 5 137 c3 75 9 140 14
144 4 4 8 -85 9 -197 l3 -204 2 178 c2 103 7 177 13 177 6 0 11 -74 13 -177
l2 -178 3 203 c1 126 6 202 12 202 6 0 11 -35 11 -82 1 -46 5 -263 8 -483 l7
-400 2 477 c1 305 6 479 12 483 6 4 11 -39 12 -122 1 -131 3 -126 14 35 3 50
10 92 15 92 5 0 10 -147 10 -347 1 -192 5 -449 8 -573 6 -177 8 -103 9 348 2
501 4 572 17 572 13 0 15 -70 17 -562 l2 -563 7 355 c3 195 7 448 8 563 1 130
5 207 11 207 7 0 10 -220 11 -637 1 -351 5 -764 8 -918 5 -194 8 1 9 638 1
603 5 917 12 917 6 0 11 -15 11 -32 1 -18 5 -125 9 -238 l6 -205 4 240 c2 132
5 226 7 210 2 -17 7 -309 12 -650 l8 -620 1 648 c1 421 -1 647 -8 647 -6 0
-11 176 -13 493 l-2 492 -3 -492 c-1 -321 -6 -493 -12 -493 -7 0 -11 280 -12
818 l-2 817 -7 -525 c-3 -289 -7 -657 -8 -817 0 -188 -5 -293 -11 -293 -7 0
-10 195 -11 563 -1 309 -4 587 -9 617 -4 30 -8 -223 -9 -562 0 -350 -5 -618
-10 -618 -5 0 -11 10 -15 23 -3 12 -7 299 -8 637 l-2 615 -7 -550 c-3 -302 -7
-589 -8 -637 0 -51 -5 -88 -11 -88 -6 0 -10 118 -11 333 -1 182 -4 357 -9 387
-4 32 -8 -108 -9 -332 0 -245 -5 -388 -11 -388 -6 0 -11 72 -13 183 l-2 182
-3 -182 c-2 -155 -4 -183 -17 -183 -13 0 -15 48 -17 368 -1 297 -3 337 -8 212
-4 -85 -8 -251 -9 -367 -1 -205 -2 -213 -21 -213 -19 0 -20 8 -23 363 l-2 362
-3 -362 c-1 -232 -6 -363 -12 -363 -6 0 -11 231 -13 658 l-2 657 -3 -657 c-1
-431 -5 -658 -12 -658 -5 0 -11 19 -12 43 l-1 42 -6 -45 c-11 -80 -21 299 -23
879 l-2 556 -7 -650 c-9 -920 -5 -825 -29 -825 -20 0 -20 7 -22 1588 l-2 1587
-7 -1415 c-3 -778 -8 -1494 -10 -1590 -3 -171 -4 -170 -9 95 l-5 270 -3 -267
c-1 -171 -6 -268 -12 -268 -7 0 -11 360 -12 1058 -1 727 -4 959 -9 742 -3
-173 -7 -649 -8 -1057 -1 -653 -3 -743 -16 -743 -13 0 -15 71 -16 578 -1 317
-5 800 -8 1072 -6 422 -7 336 -9 -577 -2 -946 -4 -1073 -17 -1073 -13 0 -15
81 -17 663 -2 620 -2 639 -9 297 -3 -201 -7 -499 -8 -662 -1 -258 -3 -298 -16
-298 -13 0 -15 122 -17 1033 l-2 1032 -7 -685 c-3 -377 -7 -841 -8 -1032 -1
-302 -3 -348 -16 -348 -13 0 -15 77 -17 623 l-1 622 -8 -618 c-4 -341 -10
-621 -13 -625 -3 -3 -7 287 -7 644 -1 357 -5 825 -8 1039 -6 296 -8 141 -9
-647 -2 -915 -4 -1038 -17 -1038 -12 0 -15 21 -16 128 -1 70 -5 246 -8 392
l-7 265 -4 -340 -5 -340 -5 280 -5 280 -3 -332 c-2 -288 -4 -333 -17 -333 -13
0 -15 147 -17 1253 l-2 1252 -7 -805 c-3 -443 -7 -1006 -8 -1252 -1 -291 -5
-448 -11 -448 -7 0 -11 206 -12 593 l-3 592 -5 -595 c-3 -399 -7 -559 -12
-486 -5 60 -9 413 -10 785 -2 644 -2 657 -9 291 -3 -212 -7 -564 -8 -782 -1
-347 -3 -398 -16 -398 -13 0 -15 82 -17 673 -1 369 -3 605 -5 522 -6 -477 -27
-1195 -35 -1195 -4 0 -9 415 -10 923 -1 691 -4 838 -9 587 -3 -184 -7 -599 -8
-922 -1 -581 -1 -588 -21 -588 -20 0 -20 7 -21 338 -1 185 -5 560 -8 832 l-7
495 -2 -405 c-4 -817 -14 -1260 -29 -1260 -11 0 -13 169 -14 978 -1 537 -5
1675 -8 2527 -7 1547 -7 1545 -9 -977z"/>
<path d="M6282 7683 c-2 -1488 -4 -1683 -17 -1683 -13 0 -15 30 -17 198 l-2
197 -6 -200 c-3 -120 -7 84 -9 510 -2 391 -7 1072 -10 1515 -7 742 -7 686 -9
-707 -2 -1337 -4 -1513 -17 -1513 -13 0 -15 46 -17 348 l-3 347 -5 -310 c-5
-336 -18 -342 -22 -10 l-2 190 -7 -235 c-3 -129 -7 -256 -8 -282 -1 -40 -4
-47 -21 -45 -19 1 -20 9 -22 172 -1 158 -2 163 -8 75 -4 -52 -9 -120 -11 -150
-2 -30 -6 80 -9 245 l-5 300 -3 -322 c-1 -199 -6 -323 -12 -323 -5 0 -11 42
-13 93 l-3 92 -2 -92 c-1 -54 -6 -93 -12 -93 -6 0 -11 134 -12 378 l-2 377 -5
-372 c-4 -204 -10 -375 -14 -379 -4 -4 -8 116 -9 267 l-1 274 -12 -275 -12
-275 -3 470 c-1 259 -6 828 -9 1265 l-7 795 -2 -1262 c-2 -1256 -2 -1263 -22
-1263 -20 0 -20 7 -22 1218 -1 796 -4 1103 -9 887 -3 -181 -7 -729 -8 -1217
-1 -801 -4 -912 -23 -885 -1 1 -4 128 -8 282 l-6 280 -4 -260 -4 -260 -7 180
c-3 99 -8 268 -10 375 l-3 195 -6 -245 c-4 -135 -8 -314 -9 -397 -1 -129 -3
-153 -16 -153 -13 0 -15 72 -17 578 -1 337 -4 531 -8 467 -4 -60 -8 -320 -9
-577 -1 -454 -11 -595 -24 -346 -4 66 -8 243 -9 392 l-2 271 -6 -295 c-4 -162
-8 -339 -9 -392 -1 -80 -4 -98 -16 -98 -13 0 -15 37 -16 268 0 147 -4 290 -9
317 -4 30 -8 -75 -9 -267 -1 -205 -5 -318 -11 -318 -6 0 -10 46 -11 118 0 74
-4 110 -9 97 -5 -11 -9 -64 -9 -117 -1 -58 -5 -98 -11 -98 -6 0 -10 97 -11
268 -1 147 -5 296 -9 332 -4 39 -8 -66 -8 -267 -1 -217 2 -333 8 -333 6 0 10
-70 11 -187 1 -104 5 -201 9 -218 4 -17 8 65 9 188 1 137 5 217 11 217 6 0 11
-87 12 -237 l2 -238 7 180 c3 99 7 206 8 238 0 31 6 57 11 57 6 0 11 -58 11
-152 1 -84 4 -142 6 -128 3 14 9 29 14 35 5 5 9 62 9 127 0 98 3 118 15 118
13 0 15 -76 17 -617 1 -393 4 -563 8 -468 4 83 8 360 9 618 1 453 11 594 24
345 4 -66 8 -311 9 -542 1 -366 3 -394 8 -216 4 113 8 357 9 543 l1 337 30 0
30 0 2 -872 c1 -575 4 -793 9 -638 3 129 7 522 8 873 1 417 4 637 11 637 7 0
10 -187 11 -537 1 -555 13 -830 20 -473 l3 185 6 -235 c4 -154 6 -11 8 413 1
421 5 647 12 647 6 0 11 -331 13 -957 l2 -958 3 958 c1 615 5 957 12 957 6 0
11 -74 13 -187 l2 -188 3 188 c1 116 6 187 12 187 6 0 11 -50 11 -127 1 -71 5
-279 8 -463 l7 -335 4 465 c4 437 5 450 10 205 l6 -260 2 190 c1 105 5 220 9
258 6 66 6 67 34 65 l29 -2 1 -161 c0 -88 4 -182 9 -210 5 -33 8 20 9 163 l1
212 23 0 c24 0 24 0 30 -167 4 -91 8 -659 9 -1262 2 -1006 2 -1049 9 -516 3
319 7 887 8 1263 1 447 4 682 11 682 7 0 11 -254 12 -737 l3 -738 5 740 c3
407 7 713 9 680 2 -33 7 -496 10 -1030 l7 -970 3 985 c1 542 6 1005 10 1030 6
29 9 -56 11 -235 2 -154 6 -575 9 -935 l7 -655 4 935 4 935 6 -652 c3 -359 9
-655 13 -659 4 -4 7 288 7 649 0 431 3 657 10 657 6 0 11 -70 12 -187 1 -171
2 -179 8 -88 4 55 8 139 9 188 1 50 5 87 11 87 7 0 11 -180 12 -517 2 -467 2
-492 9 -253 3 146 7 379 8 518 1 217 3 252 16 252 13 0 15 -35 16 -252 1 -139
5 -507 8 -818 l7 -565 2 818 c2 713 4 817 17 817 12 0 15 -31 18 -192 l2 -193
3 193 c1 105 6 192 10 192 13 0 22 -364 24 -935 l1 -500 9 715 c5 393 11 717
14 719 2 2 7 1 10 -2 4 -4 9 -381 13 -839 5 -647 7 -771 12 -558 4 151 7 528
8 838 1 493 -1 562 -14 562 -13 0 -15 100 -17 833 -1 457 -5 780 -8 717 -4
-63 -8 -438 -9 -832 -1 -631 -3 -718 -16 -718 -13 0 -15 51 -17 388 l-2 387
-6 -295 c-4 -162 -8 -337 -9 -389 0 -52 -4 -91 -8 -88 -3 4 -9 305 -13 670
l-6 662 -2 -555 c-2 -554 -9 -780 -22 -780 -4 0 -11 125 -14 278 -15 595 -23
652 -25 170 -1 -400 -5 -470 -23 -445 -1 1 -4 173 -8 382 l-6 380 -2 -382 c-1
-247 -6 -383 -12 -383 -6 0 -10 108 -11 303 -1 166 -5 448 -8 627 -7 294 -7
265 -9 -302 -1 -409 -5 -628 -12 -628 -6 0 -11 379 -13 1103 l-2 1102 -3
-1102 c-1 -725 -5 -1103 -12 -1103 -7 0 -11 572 -13 1683 l-2 1682 -3 -1682z"/>
<path d="M8970 7283 c-3 -699 -8 -1275 -12 -1279 -5 -4 -11 -4 -15 0 -5 4 -11
129 -14 277 -3 148 -9 272 -13 276 -3 3 -6 -97 -7 -223 -1 -126 -4 -254 -9
-284 l-7 -55 -3 75 c-1 41 -6 154 -9 250 l-7 175 -2 -247 c-1 -158 -6 -248
-12 -248 -7 0 -11 209 -12 603 l-2 602 -7 -375 c-3 -206 -7 -477 -8 -602 0
-145 -5 -228 -11 -228 -6 0 -11 79 -12 213 l-2 212 -6 -215 c-3 -132 -7 79
-10 545 -3 694 -4 729 -11 405 -3 -195 -7 -536 -8 -757 -1 -396 -1 -403 -21
-403 -25 0 -21 -110 -29 985 l-7 900 -2 -800 c-2 -806 -8 -1085 -23 -1085 -5
0 -10 276 -12 613 l-2 612 -3 -612 c-1 -401 -5 -613 -12 -613 -7 0 -10 218
-11 633 -1 347 -5 664 -9 702 -4 39 -8 -246 -8 -632 -1 -461 -5 -703 -12 -703
-6 0 -11 55 -11 143 -1 78 -5 214 -9 302 -6 152 -7 145 -10 -145 l-4 -305 -6
195 -6 195 -2 -192 c-1 -121 -6 -193 -12 -193 -6 0 -11 30 -12 68 l-2 67 -6
-70 -6 -70 -3 95 c-2 52 -7 122 -11 155 -6 49 -8 31 -11 -95 l-3 -155 -6 120
-6 120 -2 -117 c-1 -71 -6 -118 -12 -118 -6 0 -11 87 -12 238 l-1 237 -7 -232
c-3 -128 -8 -235 -11 -238 -12 -12 -19 212 -21 700 l-2 510 -7 -545 c-8 -696
-7 -670 -19 -670 -6 0 -10 140 -11 398 -1 218 -5 440 -9 492 -4 58 -7 -98 -8
-397 -2 -407 -4 -493 -16 -493 -21 0 -26 117 -28 710 l-2 545 -7 -560 c-8
-721 -7 -695 -19 -695 -6 0 -11 62 -12 163 l-2 162 -6 -165 c-10 -306 -20 -91
-22 464 -2 472 -2 502 -9 266 -3 -146 -7 -406 -8 -577 -1 -201 -5 -313 -11
-313 -6 0 -11 77 -11 208 -1 114 -5 470 -8 792 l-7 585 -2 -740 c-1 -407 -5
-764 -8 -792 -12 -100 -24 -53 -27 110 l-3 162 -2 -162 c-1 -101 -6 -163 -12
-163 -6 0 -11 164 -12 468 l-2 467 -7 -330 c-3 -181 -7 -392 -8 -467 -1 -180
-19 -183 -24 -5 l-3 132 -2 -132 c-1 -81 -6 -133 -12 -133 -7 0 -11 220 -12
638 l-2 637 -7 -580 c-8 -755 -6 -695 -24 -695 -13 0 -15 107 -17 898 0 493
-4 868 -8 832 -4 -36 -8 -440 -9 -897 -1 -733 -3 -833 -16 -833 -8 0 -16 1
-17 3 0 1 -4 436 -8 967 l-6 965 -2 -967 c-1 -630 -5 -968 -12 -968 -6 0 -11
141 -13 388 l-2 387 -3 -387 c-1 -251 -6 -388 -12 -388 -7 0 -11 225 -12 653
-2 590 -2 620 -9 312 -3 -187 -7 -481 -8 -652 -1 -306 -1 -313 -21 -313 -20 0
-20 7 -22 733 -2 671 -2 699 -9 342 -3 -214 -7 -544 -8 -732 -1 -314 -8 -404
-25 -305 -3 20 -6 134 -7 252 -1 118 -5 269 -9 335 -4 85 -7 11 -8 -252 -1
-235 -6 -373 -12 -373 -6 0 -11 74 -13 188 l-2 187 -3 -187 c-2 -159 -4 -188
-17 -188 -12 0 -15 22 -17 133 l-2 132 -6 -135 -6 -135 -3 150 c-2 83 -7 290
-10 460 l-7 310 -3 -430 c-2 -236 -7 -443 -11 -460 -11 -42 -12 41 -19 1260
l-7 1060 -2 -1172 c-2 -1035 -4 -1173 -17 -1173 -13 0 -15 40 -17 298 l-1 297
-8 -200 c-4 -110 -12 -213 -18 -228 -6 -16 -11 -60 -11 -98 0 -39 -4 -69 -10
-69 -5 0 -10 26 -11 58 0 39 -3 51 -9 37 -7 -18 -8 -16 -12 10 -3 17 -6 0 -7
-37 0 -38 -5 -68 -11 -68 -6 0 -11 94 -12 258 -1 141 -3 201 -5 132 -2 -148
-23 -390 -33 -390 -7 0 -19 347 -22 679 -1 108 -5 2 -8 -236 -3 -237 -8 -435
-12 -439 -5 -4 -11 -4 -15 0 -4 4 -10 148 -13 319 l-6 312 -2 -317 c-1 -204
-6 -318 -12 -318 -6 0 -10 148 -11 423 -1 232 -5 487 -9 567 -4 95 -7 -52 -8
-422 -2 -561 -2 -568 -22 -568 -20 0 -20 7 -22 523 -1 346 -4 477 -9 387 -3
-74 -7 -309 -8 -522 -1 -381 -1 -388 -21 -388 -20 0 -20 7 -21 338 -1 185 -4
362 -9 392 -4 32 -8 -110 -9 -337 -1 -340 -3 -393 -16 -393 -12 0 -15 37 -18
248 l-2 247 -3 -247 c-1 -157 -6 -248 -12 -248 -7 0 -11 239 -12 693 -1 452
-4 631 -9 517 -3 -96 -7 -408 -8 -692 -1 -338 -4 -518 -11 -518 -7 0 -10 363
-11 1068 -1 587 -5 1045 -9 1017 -5 -27 -9 -508 -9 -1067 -1 -981 -2 -1018
-19 -1018 -18 0 -19 26 -25 578 -4 317 -8 771 -9 1007 -1 237 -5 -21 -8 -572
-3 -551 -8 -1005 -12 -1009 -5 -4 -11 -5 -14 -2 -3 4 -9 138 -12 300 -8 333
-19 293 -21 -74 -1 -137 -5 -228 -11 -228 -5 0 -11 28 -13 63 l-3 62 -4 -65
c-3 -36 -7 169 -10 455 l-5 520 -3 -517 c-1 -337 -5 -518 -12 -518 -6 0 -11
73 -11 198 -1 108 -5 359 -8 557 l-7 360 -2 -557 c-1 -354 -6 -558 -12 -558
-5 0 -11 61 -13 148 l-3 147 -2 -147 c-1 -91 -6 -148 -12 -148 -7 0 -11 366
-12 1073 l-2 1072 -6 -1070 c-4 -588 -7 -1071 -8 -1072 -1 -2 -8 -3 -15 -3
-14 0 -24 584 -29 1739 -1 262 -5 -21 -8 -628 -4 -871 -8 -1105 -17 -1109 -15
-4 -16 -502 -4 -1157 6 -312 7 -258 9 398 2 665 4 757 17 757 13 0 15 -84 17
-687 l3 -688 5 565 5 565 5 -350 5 -350 3 473 c1 306 6 472 12 472 6 0 10 -59
10 -158 0 -88 3 -215 8 -283 6 -114 7 -101 12 161 5 257 6 232 10 -250 l4
-535 7 405 c3 223 7 462 8 533 0 77 5 127 11 127 7 0 11 -214 12 -617 l2 -618
6 612 c3 336 8 615 13 619 4 4 7 1 7 -7 0 -11 2 -11 10 1 7 10 10 -23 11 -105
1 -66 5 -154 9 -195 5 -57 7 -30 8 118 2 163 4 192 17 192 13 0 15 -51 16
-397 1 -219 5 -618 8 -888 7 -461 7 -437 9 398 2 781 4 887 17 887 13 0 15
-48 17 -362 l2 -363 6 250 c7 331 11 217 19 -535 l7 -625 2 818 c1 537 5 817
12 817 7 0 11 -399 12 -1172 1 -882 4 -1066 9 -743 3 237 7 764 8 1173 1 487
4 742 11 742 6 0 11 -95 12 -262 l2 -263 6 210 c4 116 9 235 10 265 6 108 18
-103 21 -365 l3 -250 7 180 c3 99 7 249 8 333 1 94 5 152 11 152 6 0 11 -77
12 -207 l2 -208 6 155 c4 85 9 157 11 160 2 3 6 -204 9 -460 l5 -465 3 513 c1
299 6 512 11 512 14 0 22 -176 29 -685 l7 -470 8 334 c4 184 7 444 7 578 0
155 4 243 10 243 6 0 10 -63 11 -167 0 -93 4 -177 9 -188 5 -12 9 53 9 168 1
117 5 187 11 187 6 0 11 -117 12 -327 1 -232 3 -299 8 -228 4 55 8 202 9 328
1 195 3 227 16 227 13 0 15 -51 17 -387 l2 -388 7 280 c3 154 7 328 8 388 1
88 4 107 16 107 12 0 15 -19 16 -107 1 -60 4 -146 8 -193 7 -71 8 -54 9 108 2
163 4 192 17 192 18 0 16 14 24 -150 l8 -135 1 143 c2 131 3 142 20 142 18 0
19 -18 25 -317 4 -174 8 -584 9 -912 l2 -596 7 750 c3 413 7 823 8 913 0 100
5 162 11 162 6 0 11 -327 13 -947 l2 -948 3 948 c2 834 4 947 17 947 12 0 15
-15 17 -67 l2 -68 6 70 6 70 4 -80 c1 -44 6 -219 9 -390 l7 -310 3 285 c3 289
15 541 21 445 1 -27 6 -97 10 -155 l7 -105 1 153 c2 128 4 152 17 152 13 0 15
-53 16 -407 1 -225 5 -532 8 -683 6 -218 8 -135 9 408 1 447 5 682 12 682 6 0
10 -44 10 -111 0 -71 4 -108 10 -104 7 4 10 -83 11 -252 1 -142 5 -289 9 -328
4 -39 8 119 8 363 1 237 6 432 10 432 11 0 21 -222 24 -535 2 -221 3 -205 8
145 l5 395 4 -400 c3 -294 6 -368 11 -280 4 66 8 245 9 398 1 177 5 277 11
277 6 0 10 -113 11 -317 1 -175 7 -493 13 -708 l13 -390 1 708 c1 463 5 707
12 707 7 0 10 -167 11 -477 2 -582 16 -552 25 55 6 357 11 439 26 420 1 -2 5
-86 8 -188 l6 -185 2 189 c1 104 5 186 9 182 4 -4 10 -127 13 -274 l6 -267 2
273 c1 173 6 272 12 272 6 0 10 -83 11 -227 0 -126 4 -250 9 -278 4 -31 8 55
9 229 0 154 4 277 7 273 4 -3 10 -206 14 -449 l7 -443 1 448 c2 390 4 447 17
447 13 0 15 -80 16 -657 1 -362 5 -647 9 -633 4 14 8 310 9 658 1 555 3 632
16 632 13 0 15 -26 17 -162 l2 -163 6 165 6 165 3 -185 c2 -102 7 -320 11
-485 6 -299 6 -299 8 183 2 421 4 482 17 482 13 0 15 -60 17 -477 l1 -478 8
415 c8 428 14 540 30 540 5 0 10 -181 10 -442 1 -244 5 -537 9 -653 4 -148 7
-18 8 443 2 569 4 652 17 652 13 0 15 -42 18 -292 l2 -293 3 293 c1 186 6 292
12 292 6 0 11 -54 12 -137 1 -116 2 -128 8 -73 4 36 9 99 11 140 2 61 4 49 9
-60 l6 -135 2 133 c2 156 21 183 24 35 l2 -98 6 100 6 100 3 -140 c3 -171 19
-155 20 20 1 81 4 115 11 105 6 -10 10 -11 10 -2 0 6 5 12 10 12 7 0 11 -287
12 -837 2 -732 3 -787 9 -433 3 223 7 600 8 838 1 280 5 432 11 432 6 0 11
-169 12 -482 l3 -483 5 480 c3 264 7 482 10 485 2 3 9 -377 15 -845 l11 -850
2 848 c2 745 4 847 17 847 13 0 15 -47 17 -357 l3 -358 5 340 c3 187 7 338 10
335 2 -3 6 -273 10 -600 l6 -595 2 618 c1 403 5 617 12 617 7 0 11 -179 12
-512 l3 -513 5 515 c3 283 7 513 9 510 2 -3 7 -351 11 -775 l6 -770 2 773 c1
506 5 772 12 772 12 0 11 19 19 -355 l7 -310 2 333 c1 210 6 332 12 332 6 0
11 -131 13 -357 l2 -358 3 358 c2 350 2 357 22 357 19 0 20 -7 21 -197 1 -109
5 -513 8 -898 l7 -700 2 898 c1 590 5 897 12 897 6 0 10 -77 11 -207 1 -115 5
-347 8 -518 7 -304 7 -301 9 208 1 337 5 517 12 517 7 0 11 -254 12 -737 1
-601 3 -680 9 -428 3 171 7 502 8 738 1 277 5 427 11 427 6 0 11 -67 12 -177
1 -195 13 -152 18 67 4 155 9 103 19 -190 l8 -245 1 273 c2 234 4 272 17 272
10 0 15 -11 16 -32 l2 -33 6 35 c6 34 7 33 14 -20 4 -30 8 -332 9 -670 2 -602
2 -607 9 -250 3 201 7 501 8 668 1 194 5 302 11 302 6 0 11 -78 11 -212 1
-117 5 -307 9 -423 l6 -210 2 331 c2 391 9 514 28 514 11 0 14 -70 17 -377 l2
-378 3 378 c1 237 6 377 12 377 6 0 11 -74 13 -187 l2 -188 3 188 c1 116 6
187 12 187 6 0 11 -68 11 -182 1 -128 4 -168 9 -133 12 75 12 315 0 315 -6 0
-11 50 -11 128 l-2 127 -12 -130 -12 -130 -3 265 -4 265 -6 -257 c-3 -141 -8
-260 -12 -264 -5 -4 -8 67 -9 157 -1 90 -5 191 -9 224 -6 53 -7 46 -9 -56 -2
-207 -13 -329 -28 -329 -11 0 -13 88 -14 498 -1 273 -5 623 -8 777 -6 210 -8
86 -9 -497 -2 -684 -4 -778 -17 -778 -13 0 -15 33 -17 233 l-2 232 -6 -235
c-6 -265 -18 -241 -22 40 l-2 165 -7 -190 c-3 -104 -7 -202 -8 -217 0 -16 -5
-28 -11 -28 -6 0 -11 87 -13 228 l-2 227 -3 -227 c-1 -144 -6 -228 -12 -228
-6 0 -11 113 -11 318 -1 174 -5 452 -9 617 -5 261 -6 220 -8 -317 -1 -404 -5
-618 -12 -618 -6 0 -11 45 -11 113 -1 61 -5 297 -8 522 l-7 410 -2 -522 c-1
-340 -5 -523 -12 -523 -7 0 -11 437 -12 1278 l-3 1277 -5 -1272z"/>
<path d="M6622 7133 c-1 -747 1 -1133 8 -1133 6 0 11 -397 13 -1157 l2 -1158
3 1158 c1 759 5 1157 12 1157 6 0 11 -336 13 -972 l2 -973 3 973 2 972 21 0
c20 0 20 3 13 143 -3 78 -10 297 -14 487 l-7 345 -2 -450 c-1 -247 -6 -468
-10 -490 -5 -24 -10 151 -11 430 -1 259 -5 508 -9 555 -5 52 -9 -130 -12 -470
-2 -305 -5 -508 -7 -450 -1 58 -6 569 -11 1135 l-8 1030 -1 -1132z"/>
<path d="M9782 6643 c-1 -408 -6 -643 -12 -643 -5 0 -11 57 -13 138 l-3 137
-2 -137 c-1 -84 -6 -138 -12 -138 -7 0 -10 164 -10 473 0 287 -4 478 -10 487
-6 10 -10 -154 -10 -472 0 -427 -2 -488 -15 -488 -13 0 -15 27 -15 183 0 121
-4 177 -10 167 -5 -8 -10 -90 -10 -182 0 -143 -2 -168 -15 -168 -12 0 -15 17
-17 88 -1 58 -3 69 -5 32 -5 -86 -12 -117 -28 -117 -10 0 -16 19 -20 66 -9 95
-13 97 -15 6 -2 -75 -2 -78 -15 -50 l-13 30 -5 -30 c-3 -22 -5 -16 -6 20 -2
38 -4 45 -11 30 -6 -15 -9 -6 -11 35 -1 30 -5 125 -9 210 l-6 155 -2 -237 c-1
-151 -6 -238 -12 -238 -6 0 -11 43 -11 108 -1 59 -5 307 -8 552 l-7 445 -2
-552 c-2 -484 -4 -553 -17 -553 -12 0 -15 22 -17 128 l-1 127 -6 -102 c-7
-121 -21 -147 -22 -42 -1 41 -5 103 -9 139 -5 52 -7 32 -8 -92 l-2 -158 25 0
c24 0 25 -3 26 -67 1 -38 5 -255 8 -483 l7 -415 2 361 c2 394 10 604 24 604 4
0 9 -170 10 -377 1 -310 3 -348 8 -213 4 91 8 261 9 378 1 204 2 212 21 212
17 0 20 -8 23 -92 l3 -93 2 93 c2 87 16 124 25 65 l4 -28 2 28 c2 43 19 32 24
-15 l4 -43 3 45 c3 38 5 34 10 -30 l6 -75 2 73 c2 71 14 94 26 50 3 -13 7 -61
8 -108 l2 -85 5 104 c7 116 24 146 34 59 4 -29 8 -246 8 -483 1 -243 5 -402 9
-365 4 36 8 253 9 483 1 270 5 417 11 417 6 0 11 -65 12 -172 l1 -173 7 167
c3 92 9 170 13 174 4 4 7 -159 8 -362 1 -203 5 -396 9 -429 4 -34 8 125 9 368
0 273 5 427 11 427 6 0 11 -129 13 -352 l2 -353 3 353 c1 226 6 352 12 352 6
0 11 -50 11 -127 1 -71 4 -117 6 -104 4 19 7 21 14 10 5 -9 9 31 9 104 0 64 4
117 9 117 8 0 19 -86 23 -185 1 -27 4 1 7 64 4 75 10 116 18 118 8 3 13 -11
16 -39 l4 -43 1 43 c1 23 7 42 12 42 6 0 11 -54 12 -137 l2 -138 6 140 c3 77
8 138 10 135 2 -3 7 -122 10 -265 l6 -260 2 263 c1 166 6 262 12 262 6 0 11
-57 12 -147 l1 -148 7 100 c4 55 8 121 9 148 0 26 6 47 11 47 6 0 11 -67 12
-177 l1 -178 8 130 c3 72 7 151 8 178 1 35 5 47 16 47 13 0 15 -24 16 -152 1
-84 5 -292 8 -463 l7 -310 2 395 c2 400 8 530 23 530 5 0 10 -73 11 -162 l2
-163 6 165 c7 191 10 163 19 -160 l7 -235 2 255 c1 140 5 265 8 278 11 39 24
24 26 -30 l1 -53 7 55 c5 44 7 31 10 -70 1 -69 6 -249 9 -400 l7 -275 2 398
c1 257 6 397 12 397 6 0 11 -33 11 -77 1 -43 5 -109 9 -148 7 -69 7 -69 11 45
2 81 5 37 9 -145 l6 -260 2 246 c1 135 5 267 8 293 15 107 24 29 27 -236 l2
-283 3 283 c1 180 6 282 12 282 6 0 11 -136 12 -382 l2 -383 6 377 c3 207 9
380 13 384 17 17 25 -23 32 -165 10 -175 23 -156 24 37 1 81 5 132 11 132 6 0
11 -19 11 -42 1 -24 5 -151 8 -283 l7 -240 2 283 c2 233 4 282 16 282 8 0 17
-7 20 -16 3 -9 7 -178 8 -377 l2 -362 7 240 c3 132 7 302 8 378 0 84 5 137 11
137 6 0 11 -67 11 -177 l2 -178 8 165 c10 198 16 230 18 95 3 -169 19 -202 20
-42 1 82 5 137 11 137 5 0 12 -10 14 -22 3 -13 7 -32 9 -43 3 -11 5 -1 6 23 1
52 18 56 24 5 2 -21 3 -11 1 22 -4 64 -24 103 -24 47 0 -18 -4 -32 -9 -32 -5
0 -13 46 -18 103 l-10 102 -2 -102 c0 -60 -5 -103 -11 -103 -6 0 -11 81 -13
208 l-2 207 -3 -207 c-1 -131 -6 -208 -12 -208 -6 0 -10 63 -11 168 -1 92 -5
253 -8 357 -7 174 -8 159 -9 -167 -2 -293 -4 -358 -16 -358 -16 0 -25 99 -27
295 -2 113 -3 121 -9 65 -4 -36 -8 -131 -9 -212 -1 -91 -5 -148 -11 -148 -6 0
-11 87 -12 238 l-2 237 -9 -237 c-9 -222 -11 -238 -28 -238 -17 0 -19 10 -20
118 -1 64 -5 167 -9 227 -6 95 -7 79 -8 -117 -1 -144 -6 -228 -12 -228 -6 0
-10 50 -10 129 0 76 -4 132 -10 136 -6 4 -11 -43 -12 -132 -2 -156 -5 -117
-17 292 l-8 270 -1 -347 -2 -348 -25 0 -25 0 -2 553 -2 552 -7 -495 c-8 -635
-7 -610 -19 -610 -6 0 -11 52 -12 133 l-2 132 -6 -135 c-3 -74 -8 -133 -10
-130 -2 3 -6 158 -10 345 l-6 340 -2 -342 c-2 -297 -4 -343 -17 -343 -12 0
-15 17 -17 88 l-2 87 -6 -90 c-9 -132 -12 -65 -19 450 l-7 460 -2 -497 c-2
-435 -4 -498 -17 -498 -13 0 -15 30 -16 203 -1 115 -5 189 -9 172 -4 -16 -8
-87 -9 -156 -1 -135 -9 -219 -21 -219 -4 0 -12 89 -17 198 l-10 197 -1 -197
c-1 -124 -6 -198 -12 -198 -6 0 -10 60 -10 161 0 104 -3 158 -10 154 -6 -4
-10 -68 -10 -161 0 -96 -4 -154 -10 -154 -6 0 -11 34 -12 78 l-2 77 -5 -80
c-4 -47 -9 -70 -12 -55 l-6 25 -11 -25 c-9 -21 -11 -10 -12 65 -1 50 -5 115
-10 145 -6 43 -7 24 -9 -87 -1 -120 -3 -143 -16 -143 -13 0 -15 23 -17 138
l-1 137 -10 -137 c-7 -98 -13 -138 -22 -138 -19 0 -25 57 -27 270 l-2 195 -6
-235 -6 -235 -3 170 c-2 94 -7 384 -10 645 l-7 475 -2 -642z"/>
<path d="M12652 6543 c-1 -354 -5 -543 -12 -543 -6 0 -10 38 -10 93 0 108 -15
149 -24 66 -14 -132 -18 -159 -27 -159 -5 0 -9 20 -9 44 0 24 -7 59 -15 77
-14 34 -14 33 -15 -43 0 -44 -4 -78 -10 -78 -6 0 -11 77 -13 198 l-2 197 -3
-197 c-1 -124 -6 -198 -12 -198 -6 0 -11 97 -12 268 l-2 267 -6 -200 c-4 -110
-8 -230 -9 -267 -1 -53 -4 -68 -16 -68 -13 0 -15 24 -16 153 -1 83 -5 195 -9
247 -5 74 -7 41 -8 -152 -1 -150 -6 -248 -12 -248 -5 0 -11 35 -13 78 l-3 77
-2 -77 c-1 -44 -6 -78 -12 -78 -6 0 -11 154 -13 428 l-2 427 -3 -427 c-1 -270
-6 -428 -12 -428 -6 0 -11 66 -13 163 l-3 162 -2 -162 c-1 -101 -6 -163 -12
-163 -6 0 -11 132 -12 373 -1 321 -3 348 -9 197 -3 -96 -7 -264 -8 -372 0
-109 -5 -198 -10 -198 -4 0 -13 46 -18 103 l-10 102 -3 -105 -3 -105 -11 95
-11 95 -3 -92 c-1 -51 -7 -93 -12 -93 -6 0 -11 90 -12 228 -1 181 -3 209 -9
137 -4 -49 -7 -152 -8 -227 -1 -77 -5 -138 -10 -138 -11 0 -21 86 -31 260 l-7
125 -2 -170 c-1 -171 -6 -215 -22 -215 -5 0 -9 10 -10 23 -1 21 -1 21 -9 -3
-6 -18 -9 -6 -10 45 -1 39 -6 97 -10 130 -6 51 -7 40 -9 -67 -1 -106 -4 -128
-16 -128 -12 0 -15 35 -18 228 l-2 227 -3 -227 c-1 -144 -6 -228 -12 -228 -5
0 -10 17 -11 38 0 20 -4 55 -8 77 -8 35 -9 30 -10 -39 0 -44 -4 -76 -8 -73 -3
4 -9 118 -13 254 l-7 248 -1 -252 c-2 -199 -5 -253 -15 -253 -19 0 -37 80 -38
173 -1 70 -2 76 -10 42 -4 -22 -8 -79 -8 -127 -1 -52 -5 -88 -11 -88 -6 0 -11
82 -12 223 -1 197 -2 209 -8 107 -4 -63 -8 -163 -9 -222 0 -65 -5 -108 -11
-108 -6 0 -11 92 -12 253 -1 192 -3 231 -9 162 -4 -49 -7 -163 -8 -252 -1
-138 -3 -163 -16 -163 -11 0 -15 13 -16 53 -1 28 -5 99 -9 157 l-7 105 -1
-157 c-2 -150 -3 -158 -22 -158 -18 0 -20 8 -23 108 l-3 107 -2 -107 c-3 -146
-21 -142 -24 5 l-2 112 -6 -115 c-7 -139 -10 -129 -20 60 l-6 145 -2 -157 c-1
-98 -6 -158 -12 -158 -6 0 -11 90 -12 248 -1 197 -3 227 -8 147 -4 -55 -8
-166 -9 -247 -1 -124 -3 -148 -16 -148 -12 0 -15 17 -16 93 -1 50 -5 139 -9
197 l-7 105 -1 -145 c-2 -162 -10 -250 -23 -250 -5 0 -10 33 -10 73 l-2 72 -8
-64 c-13 -102 -17 -94 -19 39 -2 147 -17 128 -19 -22 -1 -54 -5 -98 -10 -98
-5 0 -12 8 -14 18 -4 16 -5 16 -6 0 0 -10 -5 -18 -11 -18 -6 0 -11 161 -13
448 l-2 447 -3 -447 c-1 -291 -6 -448 -12 -448 -5 0 -10 24 -11 53 -2 92 -17
111 -18 23 -1 -44 -4 -77 -7 -73 -3 3 -9 201 -13 439 l-8 433 -1 -437 c-1
-284 -6 -438 -12 -438 -6 0 -11 61 -12 158 l-2 157 -6 -160 c-9 -289 -20 -121
-22 360 l-2 470 -7 -335 c-3 -184 -7 -406 -8 -492 -1 -204 -20 -216 -23 -15
l-1 142 -7 -110 c-12 -179 -14 -185 -20 -70 l-6 110 -2 -95 c-1 -52 -7 -102
-12 -110 -6 -10 -10 46 -11 170 -1 102 -4 226 -8 275 -6 67 -8 19 -9 -182 -2
-223 -4 -273 -16 -273 -18 0 -26 62 -28 229 -1 134 -1 135 -9 51 -4 -47 -7
-129 -8 -182 -1 -58 -5 -98 -11 -98 -6 0 -10 68 -11 183 -1 100 -5 193 -9 207
-5 14 -8 -63 -9 -182 -1 -132 -5 -208 -11 -208 -5 0 -11 26 -11 58 -1 31 -5
129 -9 217 l-6 160 -2 -217 c-1 -138 -6 -218 -12 -218 -6 0 -11 140 -12 398
-1 291 -3 362 -9 267 -3 -71 -7 -250 -8 -397 -1 -171 -5 -268 -11 -268 -6 0
-10 46 -10 117 0 64 -3 113 -7 109 -5 -4 -11 -58 -14 -119 l-6 -112 -2 125
c-5 188 -18 211 -20 33 -1 -123 -4 -153 -15 -153 -22 0 -26 48 -28 364 l-2
301 -6 -295 c-10 -399 -8 -370 -25 -370 -13 0 -15 44 -17 333 -1 225 -3 305
-9 247 -4 -47 -7 -196 -8 -332 -1 -158 -5 -248 -11 -248 -7 0 -11 167 -12 478
-1 300 -4 434 -8 362 -4 -63 -8 -278 -9 -477 0 -200 -5 -363 -10 -363 -8 0
-13 31 -30 185 -7 65 -8 60 -9 -57 -2 -108 0 -128 13 -128 13 0 15 -32 16
-222 1 -123 5 -317 9 -433 5 -182 7 -153 8 223 1 280 6 432 12 432 6 0 11
-117 12 -327 1 -201 4 -301 8 -258 4 39 8 186 9 328 1 164 5 257 11 257 6 0
10 -55 11 -142 1 -79 4 -181 8 -228 l6 -85 8 130 c4 72 7 174 7 228 0 79 3 97
15 97 13 0 15 -30 16 -207 l2 -208 13 195 c7 107 13 201 13 208 1 6 5 12 11
12 5 0 11 -39 13 -87 l3 -88 2 88 c1 50 6 87 12 87 6 0 10 -88 11 -242 1 -134
5 -304 8 -378 6 -102 8 -44 9 243 1 243 6 377 12 377 6 0 11 -74 12 -197 l1
-198 8 130 c3 72 7 160 8 198 0 37 5 67 11 67 6 0 11 -107 12 -297 1 -256 2
-278 9 -158 3 77 7 211 8 298 1 97 5 157 11 157 6 0 10 -45 11 -112 1 -62 4
-138 9 -168 5 -40 8 -10 9 113 1 136 4 167 15 167 11 0 15 -31 20 -147 4 -82
10 -193 15 -248 7 -85 8 -63 10 148 1 312 19 339 24 35 l2 -213 3 213 c2 189
8 241 25 200 4 -10 6 -10 6 0 1 6 6 12 11 12 6 0 10 -75 11 -202 1 -112 5
-306 8 -433 7 -211 7 -194 9 203 2 376 4 432 17 432 13 0 15 -41 17 -302 l3
-303 5 305 c5 269 6 284 9 125 5 -288 18 -325 20 -57 0 142 5 232 11 232 5 0
11 -59 13 -142 l3 -143 2 143 c1 86 6 142 12 142 6 0 11 -132 12 -372 l2 -373
7 310 c3 171 7 338 8 373 2 103 21 62 23 -51 l2 -102 6 110 6 110 4 -130 3
-130 10 128 c10 132 23 165 30 75 l3 -53 2 53 c3 82 22 62 23 -25 1 -43 4
-116 8 -163 7 -77 8 -69 9 78 2 130 5 162 16 162 22 0 26 -34 26 -260 0 -143
4 -210 10 -200 6 9 10 111 10 238 0 141 4 222 10 222 6 0 11 -21 11 -47 1 -27
5 -100 9 -163 l7 -115 1 163 c2 203 21 223 24 25 l2 -138 6 140 c3 77 7 126 8
108 3 -45 22 -52 22 -8 0 60 20 29 21 -33 2 -87 17 -123 18 -42 1 72 9 110 22
110 5 0 9 -53 9 -117 1 -107 2 -116 15 -93 9 17 14 56 15 118 0 54 4 92 10 92
6 0 10 -72 11 -192 1 -106 5 -222 9 -258 4 -43 7 24 8 193 1 163 6 257 12 257
6 0 11 -38 11 -92 1 -51 5 -124 9 -163 5 -56 7 -38 8 93 2 155 3 162 22 162
14 0 20 -7 21 -22 1 -13 5 -131 8 -263 l7 -240 2 247 c1 135 5 253 8 262 14
36 23 11 27 -71 l3 -88 2 88 c1 50 6 87 12 87 6 0 11 -106 12 -292 l2 -293 6
290 c3 160 7 292 9 295 10 19 20 -53 22 -155 l2 -120 7 110 c4 61 8 122 9 137
1 20 6 26 21 25 12 -1 20 -9 21 -22 1 -11 5 -105 8 -210 l7 -190 2 213 c2 205
3 212 22 212 19 0 20 -7 20 -204 0 -126 4 -207 10 -211 7 -4 10 67 10 204 0
134 4 211 10 211 6 0 11 -12 11 -27 1 -16 5 -80 9 -143 l7 -115 1 143 c1 81 6
142 11 142 6 0 12 -19 14 -42 l4 -43 1 43 c1 23 7 42 12 42 6 0 10 -90 11
-247 0 -137 4 -268 8 -293 5 -28 9 66 10 248 0 160 5 292 10 292 10 0 20 -140
23 -329 2 -121 3 -105 8 94 l6 240 3 -175 c4 -199 18 -168 22 50 l2 125 7 -98
c4 -54 11 -101 14 -104 3 -4 7 41 8 98 1 57 5 3 8 -121 6 -223 6 -223 8 -64 2
176 11 284 22 284 4 0 11 -107 16 -237 l9 -238 6 130 c4 72 7 178 8 238 1 64
5 107 11 107 6 0 11 -17 11 -37 1 -21 5 -103 9 -183 l6 -145 2 184 c1 101 5
181 9 177 5 -4 11 -83 14 -174 l5 -167 2 173 c2 141 5 172 16 172 10 0 17 -17
21 -57 9 -84 13 -87 14 -10 1 60 3 67 21 67 20 0 20 -7 22 -467 2 -420 2 -444
9 -228 3 132 7 342 8 468 1 144 5 227 11 227 6 0 11 -79 12 -212 1 -171 3
-196 9 -128 4 47 8 144 10 215 l3 130 6 -185 6 -185 2 183 c1 111 6 182 12
182 6 0 11 -116 13 -312 l2 -313 3 313 c1 200 6 312 12 312 6 0 11 -67 12
-177 l2 -178 6 175 c3 96 7 175 8 176 19 8 32 -4 33 -30 l1 -31 8 30 7 30 6
-25 c4 -14 8 -43 10 -65 2 -25 4 -14 5 28 1 37 6 67 12 67 6 0 10 -8 11 -17 0
-15 2 -15 9 2 5 12 9 -53 11 -170 1 -104 5 -316 8 -470 7 -274 7 -270 9 188 1
303 6 467 12 467 11 0 11 16 19 -360 l7 -285 2 323 c1 203 6 322 12 322 6 0
11 -106 13 -282 l2 -283 3 283 c2 268 3 282 21 282 16 0 19 -11 25 -77 3 -43
10 -98 15 -123 l8 -45 2 46 c2 95 14 199 22 199 5 0 10 -93 10 -207 1 -145 4
-190 9 -148 4 33 8 126 9 208 1 123 3 147 16 147 12 0 15 -16 17 -72 l2 -73 6
75 c4 41 8 73 10 70 1 -3 6 -115 10 -250 l6 -245 2 248 c2 212 4 247 17 247
12 0 15 -14 16 -67 1 -78 17 -60 18 20 1 34 5 47 15 47 11 0 16 -14 19 -47 l3
-48 2 48 c1 33 6 47 16 47 8 0 17 -6 19 -12 4 -10 6 -10 6 0 1 6 6 12 11 12 6
0 11 -124 12 -347 l2 -348 7 285 c3 157 7 313 8 348 0 34 5 62 11 62 6 0 11
-67 13 -167 l3 -168 2 168 c1 103 6 167 12 167 6 0 11 -72 12 -192 1 -173 2
-183 8 -93 4 55 8 142 9 193 1 116 21 125 22 10 1 -98 17 -80 18 20 1 48 4 62
16 62 8 0 16 -1 16 -2 1 -2 5 -201 8 -443 l7 -440 2 443 c2 385 4 442 17 442
13 0 15 -32 17 -222 l1 -223 8 158 c4 88 13 173 18 189 6 17 11 47 11 66 0 20
3 32 7 29 4 -4 10 -89 13 -190 l7 -182 1 189 c1 104 5 186 9 182 4 -4 10 -64
14 -134 l6 -127 1 133 c2 109 5 132 17 132 22 0 24 -20 33 -325 l9 -280 1 303
c1 193 6 302 12 302 6 0 11 -67 12 -177 l1 -178 8 174 c4 95 10 176 13 179 3
3 7 -78 8 -179 1 -140 3 -167 8 -114 4 39 8 121 9 183 0 66 5 112 11 112 6 0
11 -97 13 -257 l2 -258 3 258 c1 163 6 257 12 257 6 0 11 -32 12 -72 l2 -73 6
75 c6 76 15 72 23 -10 2 -22 4 -14 5 23 1 32 -2 57 -8 57 -6 0 -11 67 -12 178
l-2 177 -6 -180 c-3 -99 -8 -172 -12 -162 -5 10 -9 42 -10 70 -1 49 -2 48 -8
-18 -5 -59 -7 -47 -9 75 -2 80 -7 206 -10 280 -7 118 -8 100 -9 -142 -1 -168
-6 -278 -12 -278 -5 0 -11 26 -13 58 l-3 57 -2 -57 c-1 -32 -6 -58 -12 -58 -6
0 -11 134 -12 378 -1 323 -3 352 -9 202 -3 -96 -7 -266 -8 -377 -1 -167 -3
-203 -15 -203 -11 0 -16 25 -21 108 -9 151 -10 152 -19 15 -4 -68 -12 -123
-17 -123 -5 0 -10 80 -12 178 l-2 177 -3 -177 c-1 -109 -6 -178 -12 -178 -6 0
-11 109 -13 293 l-2 292 -3 -292 c-2 -286 -3 -293 -22 -293 -18 0 -20 7 -21
73 -1 39 -5 221 -8 402 l-7 330 -2 -350 c-1 -192 -5 -374 -8 -402 -13 -108
-24 -47 -26 145 l-3 197 -2 -188 c-2 -119 -7 -186 -13 -182 -6 3 -10 -1 -10
-9 0 -9 -4 -16 -10 -16 -5 0 -11 26 -11 58 -1 31 -5 131 -9 222 l-6 165 -2
-222 c-1 -141 -6 -223 -12 -223 -6 0 -11 54 -12 138 l-1 137 -7 -132 c-3 -73
-9 -136 -13 -139 -9 -9 -9 -20 -16 406 l-7 365 -2 -387 c-1 -220 -6 -388 -11
-388 -14 0 -21 28 -23 98 l-2 67 -5 -85 -6 -85 -8 80 c-12 110 -15 114 -16 18
-1 -45 -5 -85 -11 -88 -5 -3 -10 3 -10 14 0 30 -17 34 -24 5 -4 -14 -12 -24
-19 -21 -9 2 -14 55 -17 183 -3 98 -7 148 -8 109 -5 -162 -16 -295 -24 -295
-4 0 -9 37 -10 83 l-2 82 -5 -85 -6 -85 -7 115 c-5 63 -9 144 -10 180 -1 36
-4 -13 -8 -107 -6 -155 -11 -195 -24 -182 -2 2 -8 137 -13 299 l-10 295 -1
-297 c-2 -291 -2 -298 -22 -298 -18 0 -20 7 -21 68 -1 37 -4 96 -8 132 -6 64
-7 62 -15 -56 -9 -137 -25 -186 -27 -84 -1 36 -5 164 -8 285 l-7 220 -2 -282
c-1 -181 -6 -283 -12 -283 -7 0 -11 167 -12 478 l-2 477 -7 -325 c-3 -179 -7
-394 -8 -477 0 -95 -5 -153 -11 -153 -6 0 -11 69 -12 183 l-2 182 -6 -185 c-3
-102 -7 -148 -8 -103 -3 112 -22 120 -22 9 0 -78 -2 -86 -19 -86 -12 0 -21 8
-24 23 -4 21 -4 21 -7 -3 -2 -14 -6 7 -10 45 l-6 70 -2 -67 c-1 -38 -6 -68
-12 -68 -6 0 -11 81 -12 218 l-2 217 -6 -212 c-3 -116 -8 -215 -12 -219 -5 -4
-9 154 -10 352 l-2 359 -7 -235 c-3 -129 -7 -291 -8 -360 -1 -75 -5 -120 -10
-111 -7 11 -9 11 -13 0 -3 -8 -8 -12 -11 -9 -3 3 -9 248 -14 545 l-10 540 -1
-542z"/>
<path d="M14038 6396 c-4 -213 -9 -391 -12 -394 -3 -3 -8 -3 -11 0 -3 3 -9
117 -14 254 l-8 249 -2 -240 c-1 -135 -6 -247 -11 -255 -8 -12 -10 -11 -10 7
0 33 -18 37 -23 6 -2 -16 -5 5 -6 45 -1 92 -21 88 -21 -4 0 -50 -3 -64 -15
-64 -13 0 -15 23 -17 138 l-2 137 -7 -110 c-4 -60 -10 -186 -12 -280 -2 -93
-2 -106 0 -27 2 83 8 142 13 142 6 0 10 -22 10 -49 0 -67 18 -75 22 -10 3 57
24 78 31 32 l4 -28 2 28 c0 15 5 27 11 27 6 0 11 -72 13 -182 l2 -183 3 183
c2 154 4 182 17 182 13 0 15 -29 16 -197 1 -109 4 -238 8 -288 6 -65 8 -11 9
198 1 183 6 287 12 287 13 0 12 11 20 -175 l6 -160 4 170 4 170 6 -215 6 -215
2 213 c1 133 6 212 12 212 6 0 10 -24 11 -52 0 -29 4 -75 9 -103 6 -43 8 -35
9 53 0 59 5 102 11 102 6 0 11 -84 13 -217 l2 -218 3 218 c1 136 6 217 12 217
6 0 10 -51 11 -132 1 -218 14 -241 23 -40 4 94 12 172 16 172 4 0 11 -48 15
-107 8 -141 12 -156 15 -58 3 76 3 77 10 30 6 -43 7 -37 8 43 3 143 22 114 23
-35 1 -190 14 -204 23 -25 4 83 12 152 17 152 5 0 9 -18 9 -39 0 -59 20 -62
21 -4 2 45 2 46 8 13 l7 -35 7 33 c7 35 27 44 27 13 0 -28 18 -36 22 -9 2 12
9 23 16 26 9 3 12 -22 13 -100 1 -56 5 -186 8 -288 l7 -185 2 288 c2 248 4
287 17 287 13 0 15 -25 17 -152 l2 -153 6 155 c3 85 7 153 9 150 2 -3 7 -124
10 -270 l7 -265 2 268 c2 230 4 267 17 267 11 0 15 -12 17 -42 l1 -43 7 45 c4
28 8 -27 10 -145 3 -225 17 -205 19 28 1 97 5 157 11 157 6 0 11 -35 12 -82
l2 -83 3 70 c6 134 18 99 23 -70 l6 -170 2 168 c4 289 30 178 34 -142 l1 -156
7 115 c4 63 8 168 9 233 0 64 5 117 10 117 12 0 21 -77 23 -219 2 -124 2 -124
8 49 5 150 6 161 9 75 2 -55 7 -134 11 -175 5 -60 7 -41 8 98 1 94 6 172 11
172 14 0 21 -54 22 -164 0 -55 4 -121 8 -146 6 -31 9 9 10 133 1 149 3 177 16
177 12 0 15 -27 18 -162 l3 -163 2 163 c1 100 6 162 12 162 6 0 11 -40 12 -97
l2 -98 6 100 6 100 3 -80 c2 -44 7 -107 11 -140 6 -49 7 -35 9 78 1 145 13
179 26 75 20 -163 22 -167 24 -50 1 92 4 112 16 112 12 0 15 -22 17 -132 l1
-133 7 115 c11 171 9 157 20 140 6 -10 10 -11 10 -2 0 28 20 9 21 -20 l2 -33
6 35 7 35 11 -30 11 -30 1 28 c1 44 35 32 39 -13 5 -56 22 -61 22 -6 0 46 1
47 28 44 l27 -3 5 -225 c3 -124 7 -184 8 -134 5 196 16 364 24 364 4 0 8 -55
9 -122 0 -78 4 -116 9 -103 5 11 9 66 9 123 1 61 5 102 11 102 6 0 10 -10 11
-22 1 -21 1 -22 7 -3 6 16 39 34 43 23 1 -2 5 -66 8 -143 l8 -140 1 143 c2
123 4 142 18 142 11 0 14 5 10 16 -3 9 -7 61 -8 117 l-1 102 -7 -105 c-4 -58
-8 -111 -9 -117 0 -7 -5 -13 -11 -13 -5 0 -10 21 -11 48 -1 51 -3 49 -15 -13
-6 -37 -8 -38 -14 -15 l-8 25 -1 -24 c-2 -56 -16 -2 -22 82 l-5 92 -2 -97 c-3
-148 -22 -123 -23 30 -1 70 -5 172 -9 227 -5 83 -7 61 -8 -127 -2 -195 -4
-228 -17 -228 -12 0 -15 16 -17 73 l-2 72 -3 -63 c-5 -77 -22 -73 -25 6 -1 44
-2 48 -5 17 -6 -75 -14 -105 -27 -105 -7 0 -17 15 -23 33 l-10 32 -7 -32 c-9
-38 -26 -44 -27 -10 -1 21 -1 21 -9 -3 -8 -24 -8 -24 -9 7 -1 47 -21 52 -23 6
-1 -21 -5 0 -8 47 l-6 85 -2 -82 c-1 -48 -6 -83 -12 -83 -12 0 -11 -10 -19
160 l-8 135 -1 -110 c-3 -135 -10 -185 -28 -185 -11 0 -14 18 -15 73 -1 39 -5
124 -9 187 -6 112 -7 110 -8 -72 -1 -118 -6 -188 -12 -188 -5 0 -11 26 -12 58
l-1 57 -7 -60 c-6 -51 -7 -40 -10 65 -2 107 -4 117 -10 70 -5 -30 -8 -86 -9
-124 -2 -139 -14 -51 -21 151 l-7 208 -1 -166 c-2 -191 -9 -259 -27 -259 -9 0
-15 58 -22 228 l-10 227 -1 -227 c-2 -280 -20 -313 -25 -45 l-2 182 -3 -182
c-1 -114 -6 -183 -12 -183 -6 0 -11 100 -12 278 l-2 277 -7 -225 c-3 -124 -7
-249 -8 -277 -1 -40 -5 -53 -16 -53 -13 0 -15 42 -17 308 l-2 307 -6 -305 c-4
-168 -8 -307 -9 -310 -2 -3 -7 6 -11 20 -8 24 -8 24 -9 3 -1 -13 -5 -23 -11
-23 -6 0 -11 37 -11 88 -1 48 -5 161 -9 252 l-6 165 -2 -252 c-1 -161 -6 -253
-12 -253 -6 0 -11 34 -12 78 l-2 77 -5 -80 c-9 -123 -21 -46 -23 149 -1 158
-1 159 -8 61 -4 -55 -8 -142 -9 -192 -2 -146 -21 -114 -23 40 l-2 132 -6 -135
c-8 -202 -19 -86 -22 220 l-2 245 -6 -245 c-4 -135 -8 -269 -9 -297 0 -29 -5
-53 -11 -53 -6 0 -10 48 -11 123 -1 140 -5 137 -14 -16 -6 -93 -9 -108 -23
-105 -12 2 -19 17 -23 48 l-6 45 -1 -47 c-3 -72 -21 -57 -25 20 l-3 67 -2 -67
c-1 -38 -6 -68 -12 -68 -6 0 -11 57 -12 148 l-1 147 -10 -147 c-8 -113 -13
-148 -23 -148 -11 0 -14 38 -15 198 0 119 -4 189 -9 177 -5 -11 -9 -100 -9
-197 -1 -171 -2 -178 -21 -178 -19 0 -20 7 -22 223 -1 186 -2 206 -8 122 -4
-55 -8 -155 -9 -222 -1 -102 -4 -123 -16 -123 -13 0 -15 34 -17 243 -1 210 -2
226 -8 122 -4 -66 -8 -176 -9 -244 -1 -134 -12 -153 -22 -38 l-6 72 -1 -77
c-1 -44 -6 -78 -12 -78 -6 0 -11 95 -12 263 l-2 262 -7 -220 c-10 -322 -9
-313 -19 -290 -7 17 -9 17 -9 3 -1 -10 -5 -18 -11 -18 -6 0 -11 142 -12 393
l-3 392 -7 -389z"/>
<path d="M15712 6328 c-1 -197 -6 -328 -11 -328 -6 0 -12 19 -15 43 -12 89
-13 94 -15 57 -2 -29 -4 -32 -11 -15 -7 16 -9 12 -9 -20 -2 -60 -20 -82 -22
-25 -1 25 -5 104 -8 175 l-8 130 -1 -172 c-2 -188 -19 -240 -25 -75 l-3 97 -2
-97 c-1 -57 -6 -98 -12 -98 -6 0 -10 71 -10 193 0 127 -4 187 -10 177 -5 -8
-10 -96 -10 -195 0 -120 -4 -175 -10 -165 -6 10 -10 11 -10 3 0 -7 -4 -13 -10
-13 -6 0 -11 104 -12 288 -1 225 -3 262 -8 172 -4 -63 -8 -193 -9 -287 0 -95
-5 -173 -10 -173 -5 0 -13 30 -18 68 l-10 67 -2 -67 c0 -40 3 -68 9 -68 6 0
10 -55 11 -142 1 -79 5 -170 9 -203 5 -42 7 1 9 143 0 127 5 202 11 202 6 0
11 -69 12 -182 l2 -183 7 175 c3 96 8 180 10 185 2 6 6 -102 9 -240 l6 -250 2
248 c1 156 6 247 12 247 6 0 11 -47 11 -117 2 -103 3 -110 9 -58 4 33 9 87 10
120 3 85 10 49 19 -106 l8 -134 2 148 c1 186 19 198 24 15 l3 -133 2 133 2
132 25 0 25 0 2 -297 2 -298 6 195 c4 107 8 241 9 298 0 60 5 102 11 102 6 0
10 -50 10 -130 0 -80 4 -130 10 -130 6 0 10 50 10 130 0 72 -4 130 -9 130 -5
0 -13 147 -18 328 l-10 327 -1 -327z"/>
<path d="M17572 6238 c-2 -201 -4 -238 -17 -238 -11 0 -15 20 -18 98 l-3 97
-2 -97 c-3 -158 -22 -119 -24 50 -1 147 -1 147 -8 52 -4 -52 -8 -119 -9 -147
-1 -76 -17 -65 -27 20 l-9 72 -3 -72 c-5 -128 -21 -79 -25 75 l-3 147 -2 -147
c-1 -91 -6 -148 -12 -148 -5 0 -10 24 -10 54 0 30 -4 58 -10 61 -6 3 -10 -4
-10 -17 0 -13 -3 -40 -6 -60 -5 -31 -4 -38 10 -38 14 0 16 -21 18 -177 l1
-178 8 174 c4 95 10 175 13 178 3 3 9 -10 15 -28 l9 -34 1 33 c1 17 6 32 11
32 6 0 10 -43 11 -107 1 -60 5 -119 9 -133 5 -15 8 26 9 108 1 72 5 132 10
132 4 0 13 -19 18 -42 l11 -43 1 44 c0 24 4 41 8 37 4 -4 10 -95 13 -204 l7
-197 2 185 c2 185 10 251 24 199 4 -13 7 -35 8 -49 1 -14 5 -2 9 25 5 38 8 18
10 -80 3 -144 6 -141 15 18 4 59 11 107 16 107 4 0 10 -48 12 -107 l3 -108 2
108 c1 63 6 107 12 107 6 0 10 -61 11 -162 1 -97 4 -153 9 -138 4 14 8 87 9
163 1 169 20 189 23 25 2 -111 2 -111 5 -23 5 152 18 152 23 0 l6 -140 1 135
c1 74 -2 144 -7 155 -7 17 -9 17 -9 3 -1 -10 -5 -18 -11 -18 -6 0 -10 65 -11
173 -1 101 -4 162 -9 147 -4 -14 -8 -91 -9 -172 -1 -92 -5 -148 -11 -148 -6 0
-11 38 -11 93 l-2 92 -12 -95 -12 -95 -2 85 c-2 47 -6 105 -10 130 -7 34 -9
15 -10 -82 -1 -114 -9 -153 -24 -115 -4 10 -6 10 -6 0 -1 -7 -5 -13 -11 -13
-6 0 -11 91 -13 238 l-2 237 -3 -237z"/>
<path d="M16632 6208 c-1 -121 -6 -208 -11 -208 -5 0 -12 12 -14 28 l-4 27 -2
-27 c0 -16 -5 -28 -11 -28 -6 0 -10 52 -11 133 -1 72 -5 146 -9 162 -5 18 -8
-36 -9 -132 0 -90 -5 -163 -10 -163 -4 0 -13 15 -19 33 -9 30 -10 31 -13 7 -2
-14 -6 20 -9 75 l-6 100 -2 -107 c-2 -102 -1 -108 18 -108 19 0 20 -7 21 -122
1 -68 5 -136 9 -153 5 -18 8 30 9 123 1 94 5 152 11 152 6 0 11 -26 12 -57 l2
-58 3 50 c2 28 8 54 14 59 5 6 9 -35 10 -110 1 -90 3 -109 10 -79 4 22 8 75 8
118 1 120 21 94 23 -30 l2 -108 6 110 6 110 5 -85 5 -85 2 83 c2 86 18 112 25
40 l4 -43 1 43 c2 35 5 42 22 42 19 0 20 -7 21 -152 0 -95 4 -145 9 -133 5 11
9 80 9 153 1 81 5 132 11 132 6 0 10 -24 10 -54 0 -79 20 -82 22 -4 l1 63 7
-65 7 -65 1 63 c1 34 7 62 12 62 6 0 11 -28 11 -62 1 -35 4 -49 6 -33 2 17 6
46 10 65 7 30 8 24 13 -40 l6 -75 2 73 c2 86 21 98 24 15 l1 -58 6 55 c4 41
10 56 23 58 17 3 17 0 31 -208 2 -25 4 12 5 83 1 79 -2 127 -8 127 -6 0 -11
33 -11 78 l-2 77 -11 -75 c-12 -81 -36 -109 -36 -43 0 65 -20 76 -21 13 -1
-43 -3 -49 -9 -30 -8 24 -8 24 -9 3 -1 -13 -5 -23 -11 -23 -6 0 -11 51 -12
128 l-2 127 -3 -115 c-4 -126 -12 -167 -23 -110 l-7 35 -2 -32 c0 -18 -5 -33
-11 -33 -6 0 -10 46 -11 118 0 64 -4 137 -8 162 -6 32 -9 -2 -10 -117 -1 -101
-5 -163 -11 -163 -5 0 -11 21 -12 48 l-1 47 -7 -45 -7 -45 -2 45 c-2 35 -4 41
-11 25 -5 -11 -10 -33 -11 -50 -2 -16 -6 8 -9 55 l-6 85 -2 -70 c-2 -76 -21
-127 -23 -65 l-2 35 -7 -35 c-10 -48 -12 -33 -20 190 l-6 195 -2 -207z"/>
<path d="M17321 6193 c0 -106 -5 -193 -10 -193 -5 0 -13 26 -19 58 l-9 57 -2
-57 c0 -33 3 -58 9 -58 6 0 10 -63 11 -167 1 -100 4 -158 9 -143 4 14 8 89 9
168 1 87 5 142 11 142 6 0 11 -30 11 -67 2 -116 16 -140 18 -30 1 59 -3 97 -9
97 -6 0 -10 52 -11 133 -1 72 -5 159 -9 192 -5 43 -7 5 -9 -132z"/>
<path d="M16132 6225 c-2 -159 -9 -225 -23 -225 -5 0 -9 18 -9 41 0 24 -4 38
-10 34 -6 -4 -11 13 -12 42 -1 46 -2 46 -5 8 -14 -172 -33 -165 -35 13 -1 119
-2 128 -8 67 -4 -38 -8 -100 -9 -137 -1 -51 -5 -68 -15 -68 -16 0 -25 28 -28
85 -1 30 -3 24 -8 -25 l-7 -65 -1 58 c-2 73 -22 75 -22 2 0 -30 -4 -55 -10
-55 -6 0 -10 52 -11 133 -2 153 -5 149 -14 -15 -5 -91 -10 -118 -21 -118 -10
0 -14 13 -14 43 0 29 -3 38 -9 27 -7 -10 -11 -1 -14 30 -3 40 -4 38 -5 -15 -3
-85 -22 -109 -22 -27 0 34 -4 62 -10 62 -5 0 -11 -28 -13 -62 -2 -45 -4 -33
-5 40 -3 131 -22 138 -22 8 0 -52 -2 -100 -3 -108 -2 -7 -2 -10 0 -5 16 27 23
-11 26 -135 l3 -143 2 143 c3 191 21 187 25 -5 l3 -148 2 148 c2 136 3 147 21
147 21 0 30 -38 32 -125 1 -76 17 -25 18 58 1 37 5 67 11 67 13 0 12 13 20
-150 l6 -145 2 148 c1 82 6 147 11 147 5 0 12 -8 14 -17 4 -17 5 -17 6 0 0 9
6 17 11 17 13 0 10 11 25 -110 l12 -105 2 108 c0 64 5 107 11 107 6 0 10 -21
11 -47 0 -27 4 -68 8 -93 7 -39 9 -32 10 48 1 85 3 92 21 92 18 0 20 -7 21
-67 1 -38 5 -120 9 -183 6 -114 7 -113 8 68 2 154 4 182 17 182 12 0 15 -20
17 -112 l2 -113 6 115 c8 144 11 129 19 -90 l7 -175 2 188 c1 117 6 187 12
187 6 0 11 -12 11 -27 1 -16 5 -107 8 -203 l7 -175 2 165 c2 171 9 240 23 240
4 0 10 -17 12 -37 l4 -38 1 38 c1 20 7 37 12 37 6 0 11 -52 12 -132 1 -114 2
-124 8 -68 4 36 8 95 9 133 0 37 5 67 11 67 5 0 11 -61 13 -147 l3 -148 2 148
c1 90 6 147 12 147 6 0 10 -12 10 -26 0 -14 4 -23 10 -19 6 3 10 15 10 26 0
10 5 19 10 19 6 0 10 -21 10 -47 0 -27 5 -55 10 -63 7 -11 10 3 10 48 0 34 4
62 10 62 6 0 10 -48 11 -122 1 -145 16 -124 18 25 2 157 20 115 24 -55 2 -84
2 -43 0 92 -5 278 -20 410 -22 193 -1 -81 -5 -133 -11 -133 -6 0 -10 32 -10
75 0 43 -4 75 -10 75 -6 0 -10 -32 -10 -75 0 -43 -4 -75 -10 -75 -5 0 -10 16
-10 36 0 21 -4 33 -10 29 -5 -3 -10 -19 -10 -36 0 -16 -4 -29 -10 -29 -6 0
-10 37 -11 88 -1 97 -5 93 -17 -18 l-8 -75 -10 145 -11 145 -1 -142 c-2 -142
-13 -182 -28 -100 l-8 42 -6 -45 c-4 -34 -8 -13 -16 90 l-11 135 -1 -132 c-2
-111 -4 -133 -17 -133 -13 0 -15 28 -17 188 -1 208 -15 158 -17 -65 -1 -149
-20 -170 -23 -25 l-2 97 -6 -100 c-7 -120 -11 -101 -20 115 l-6 165 -2 -150z"/>
<path d="M19142 6187 c-2 -174 -3 -188 -19 -185 -13 2 -19 15 -21 46 -4 53
-22 45 -22 -10 0 -38 -2 -40 -25 -35 -25 4 -25 4 -8 -13 15 -14 19 -15 26 -4
14 24 34 15 41 -17 3 -17 7 -73 8 -123 l1 -91 7 115 c9 138 8 130 20 130 6 0
10 -42 11 -102 1 -108 8 -95 24 45 3 31 10 57 15 57 5 0 11 -33 13 -72 l3 -73
2 73 c1 40 6 72 12 72 6 0 10 -10 11 -22 l0 -23 11 23 c6 12 20 22 32 23 12 0
15 3 9 6 -7 2 -13 14 -14 26 0 19 -2 18 -11 -5 -13 -38 -28 -35 -29 5 -1 19
-3 24 -6 12 -11 -53 -17 -42 -28 50 l-12 100 -2 -97 c-1 -80 -4 -98 -16 -98
-19 0 -16 -18 -24 195 l-7 180 -2 -188z"/>
<path d="M18176 6183 c-5 -101 -12 -183 -17 -183 -5 0 -10 19 -11 43 l-1 42
-7 -45 c-10 -73 -20 -15 -23 140 l-3 135 -2 -157 c-1 -100 2 -158 8 -158 6 0
11 -17 11 -37 l2 -38 7 40 c10 53 11 39 19 -165 l7 -175 2 188 c1 117 6 187
12 187 6 0 11 -40 12 -97 0 -54 3 -82 5 -63 1 19 6 64 9 99 6 62 18 71 27 21
4 -21 4 -20 6 8 2 65 18 29 30 -70 18 -140 19 -140 20 -10 1 67 5 112 11 112
6 0 10 -30 10 -70 0 -40 4 -70 10 -70 6 0 10 30 10 70 0 56 3 70 15 70 12 0
15 -17 16 -87 2 -136 17 -158 18 -25 1 115 14 148 28 70 l8 -43 5 45 c5 35 7
22 13 -65 12 -168 14 -171 16 -27 0 80 5 132 11 132 6 0 11 -28 12 -62 l1 -63
6 59 c4 34 11 61 19 64 9 3 12 -22 13 -100 1 -120 16 -99 18 25 1 90 18 104
24 20 l3 -58 2 58 c2 43 6 57 17 57 9 0 15 9 15 25 0 33 -13 32 -27 -2 -10
-25 -11 -20 -13 42 -3 113 -18 134 -19 28 -1 -51 -5 -93 -10 -93 -5 0 -13 30
-18 68 l-10 67 -2 -67 c0 -38 -5 -68 -10 -68 -4 0 -12 48 -18 108 l-10 107 -1
-107 c-2 -127 -20 -145 -25 -25 l-3 82 -2 -82 c-3 -129 -22 -101 -23 35 -2
102 -3 109 -9 57 -4 -33 -8 -86 -9 -117 -1 -59 -14 -76 -26 -36 -4 11 -11 53
-15 92 l-7 71 -2 -92 c0 -55 -5 -93 -11 -93 -6 0 -11 65 -12 173 l-2 172 -6
-145 c-4 -80 -8 -157 -9 -172 -1 -18 -7 -28 -16 -28 -12 0 -15 13 -15 55 0 30
-4 55 -10 55 -5 0 -10 -25 -10 -55 0 -65 -17 -74 -23 -12 l-4 42 -1 -42 c-1
-24 -6 -43 -12 -43 -6 0 -11 72 -12 183 l-3 182 -9 -182z"/>
<path d="M18710 6183 c-3 -94 -8 -175 -12 -179 -15 -15 -22 8 -29 89 l-6 82
-1 -87 c-3 -119 -22 -115 -23 5 l-2 92 -9 -90 c-5 -49 -13 -91 -19 -93 -12 -5
-12 -152 1 -152 6 0 10 32 10 75 0 43 4 75 10 75 6 0 11 -17 11 -37 l2 -38 10
38 c17 59 27 44 28 -40 0 -43 4 -96 8 -118 7 -31 9 -12 10 78 1 97 4 117 16
117 12 0 15 -18 17 -92 l2 -93 6 95 6 95 4 -105 4 -105 5 97 c6 93 21 149 21
75 0 -20 5 -39 10 -42 6 -4 10 10 10 34 0 65 19 47 23 -21 l3 -63 2 63 c1 34
7 62 12 62 6 0 9 30 8 73 l-2 72 -5 -68 c-7 -74 -23 -89 -32 -30 l-6 38 -2
-42 c0 -24 -5 -43 -11 -43 -5 0 -11 61 -13 148 l-3 147 -2 -147 c-1 -91 -6
-148 -12 -148 -5 0 -10 8 -11 18 0 14 -2 14 -9 -3 -5 -11 -10 -18 -11 -15 -1
3 -5 84 -8 180 l-7 175 -4 -172z"/>
<path d="M17922 6285 c-6 -166 -16 -285 -23 -285 -5 0 -10 37 -12 83 l-3 82
-2 -82 c-1 -47 -6 -83 -12 -83 -6 0 -11 57 -11 148 -2 116 -3 134 -9 87 -4
-33 -8 -99 -9 -147 -1 -110 -21 -119 -22 -10 -2 124 -17 143 -18 23 -1 -57 -4
-101 -8 -98 -3 4 -9 69 -13 144 l-7 138 -1 -142 c-1 -87 2 -143 8 -143 5 0 11
-52 13 -122 l3 -123 2 123 c3 186 22 154 23 -40 1 -97 4 -151 9 -133 4 17 8
90 9 163 1 80 5 132 11 132 6 0 10 -15 10 -34 0 -19 5 -38 10 -41 6 -4 10 10
10 36 0 23 3 39 8 35 4 -4 10 -89 13 -189 l5 -182 2 188 c2 169 9 216 26 171
3 -9 6 -43 7 -77 1 -108 18 -112 18 -4 1 77 4 97 15 97 8 0 17 -10 19 -22 l4
-23 2 23 c0 12 6 22 11 22 6 0 10 -38 10 -92 0 -51 5 -100 10 -108 7 -10 10
20 10 93 0 82 3 108 13 105 6 -3 15 -20 18 -39 l6 -34 4 40 c2 22 6 -27 9
-110 l6 -150 2 145 c1 80 -3 152 -8 160 -6 10 -10 11 -10 3 0 -7 -4 -13 -10
-13 -6 0 -10 53 -11 138 -1 165 -5 161 -14 -10 -4 -71 -10 -128 -15 -128 -4 0
-12 19 -17 43 l-11 42 -2 -45 c-3 -73 -18 -18 -21 75 -1 47 -4 62 -6 35 -8
-114 -15 -150 -28 -150 -12 0 -15 32 -18 173 -1 94 -4 145 -5 112z"/>
<path d="M20262 6148 c-2 -165 -19 -204 -25 -55 l-3 92 -2 -92 c-3 -141 -22
-116 -23 30 -1 145 -16 123 -18 -26 -1 -71 -4 -98 -13 -95 -16 6 -25 26 -35
73 l-8 40 -3 -57 c-3 -56 -16 -76 -25 -40 -4 16 -5 16 -6 0 0 -10 -5 -18 -11
-18 -6 0 -11 30 -11 68 l-2 67 -7 -63 c-8 -73 -20 -93 -20 -34 0 23 -4 42 -10
42 -5 0 -10 -18 -10 -40 0 -22 -4 -40 -10 -40 -6 0 -11 52 -12 133 -1 72 -3
110 -5 82 -9 -156 -16 -215 -24 -215 -5 0 -9 23 -9 50 0 28 -4 50 -10 50 -5 0
-10 -22 -10 -50 0 -27 -4 -50 -10 -50 -6 0 -10 38 -10 93 0 63 -3 87 -10 77
-5 -8 -10 -50 -10 -92 0 -98 -18 -102 -23 -5 l-3 72 -2 -72 c-3 -115 -22 -87
-23 35 -2 94 -3 100 -9 52 -5 -30 -8 -79 -9 -107 -1 -63 -20 -72 -23 -10 l-1
42 -6 -45 c-9 -71 -21 -24 -23 93 l-1 102 -7 -105 c-4 -58 -8 -111 -9 -117 -2
-25 -21 -12 -22 15 0 24 -1 25 -9 7 -7 -17 -9 -14 -9 13 -1 44 -21 31 -21 -14
0 -24 -5 -34 -15 -34 -11 0 -15 12 -16 43 0 23 -4 62 -8 87 -8 39 -9 34 -10
-42 -1 -71 -4 -88 -16 -88 -11 0 -15 12 -15 48 0 56 -19 39 -21 -18 -1 -64
-17 -1 -20 80 l-3 75 -5 -89 c-4 -58 -10 -91 -18 -94 -10 -3 -13 17 -15 75
l-2 78 -6 -80 c-4 -68 -7 -75 -13 -45 -4 19 -8 67 -10 105 -2 54 -4 46 -5 -32
-3 -155 -22 -130 -23 30 -1 81 -4 122 -9 107 -4 -14 -8 -73 -9 -132 -1 -60 -5
-108 -10 -108 -5 0 -11 8 -13 18 -2 9 -2 -32 0 -93 6 -170 20 -205 21 -52 1
77 5 127 11 127 6 0 10 -21 11 -47 0 -27 4 -70 9 -98 6 -44 7 -38 9 48 1 102
20 138 23 45 l1 -53 6 55 c6 52 7 48 17 -60 l11 -115 1 113 c2 90 5 112 16
112 10 0 16 -13 19 -37 l4 -38 1 38 c3 65 20 40 27 -40 9 -111 13 -119 14 -31
0 42 4 83 7 92 11 30 24 16 24 -26 0 -24 5 -50 10 -58 7 -11 10 -4 10 27 0 54
8 73 30 73 19 0 21 -14 33 -190 2 -25 4 8 5 73 2 97 5 117 17 117 11 0 15 -13
17 -47 l1 -48 7 50 c4 28 8 48 10 45 2 -3 6 -63 10 -135 l6 -130 2 133 c1 80
6 132 12 132 6 0 10 -11 10 -24 0 -14 5 -28 10 -31 6 -4 10 7 10 26 0 18 2 30
5 27 3 -3 9 -70 14 -149 l8 -144 2 148 c0 90 5 147 11 147 6 0 10 -14 10 -31
0 -17 4 -28 10 -24 6 3 10 17 10 31 0 13 5 24 10 24 6 0 10 -33 11 -77 0 -43
4 -100 9 -128 6 -39 8 -23 9 78 1 98 4 128 14 125 7 -3 14 -33 18 -79 l5 -74
2 78 c3 113 21 94 25 -25 l3 -103 2 103 c2 93 11 123 26 90 5 -10 8 -9 13 2 4
10 11 0 19 -30 l12 -45 1 43 c1 35 4 42 21 42 19 0 20 -7 21 -107 1 -85 3 -99
10 -68 4 22 8 70 8 108 1 37 5 67 11 67 6 0 11 -30 11 -67 l2 -68 8 64 c4 35
11 66 14 69 3 3 6 -62 7 -144 1 -148 1 -148 8 -54 4 52 8 119 9 148 1 75 19
64 24 -15 l3 -68 2 68 c3 99 22 83 24 -20 0 -49 3 -72 5 -53 10 111 15 140 24
140 5 0 9 -10 10 -22 l0 -23 10 23 c19 48 29 9 31 -116 1 -128 3 -124 14 46 6
99 24 127 25 40 0 -29 4 -71 8 -93 8 -35 9 -31 10 37 1 86 7 108 27 108 10 0
14 -15 16 -52 l1 -53 7 55 c6 53 6 54 13 20 4 -19 8 -60 10 -90 2 -37 4 -26 5
33 1 50 6 87 12 87 6 0 10 -13 10 -30 0 -16 5 -30 10 -30 6 0 10 14 10 30 0
17 -4 30 -10 30 -6 0 -10 28 -10 63 0 44 -3 58 -10 47 -5 -8 -10 -36 -10 -62
0 -56 -19 -65 -21 -10 l-2 37 -6 -40 c-6 -39 -7 -39 -16 25 -6 44 -10 55 -12
35 -8 -73 -15 -95 -28 -95 -12 0 -15 18 -16 83 -1 45 -5 111 -9 147 -6 53 -7
38 -8 -82 -2 -122 -5 -148 -16 -148 -11 0 -16 15 -19 53 l-3 52 -2 -52 c-3
-70 -19 -67 -27 5 -10 90 -13 93 -14 15 -1 -92 -20 -96 -23 -5 l-2 67 -3 -60
c-5 -70 -22 -99 -24 -39 -1 21 -5 89 -9 149 l-7 110 -1 -147z"/>
<path d="M17141 6143 c-1 -115 -4 -143 -15 -143 -10 0 -16 25 -24 93 l-9 92
-2 -92 c-1 -65 3 -93 12 -95 8 -3 13 -44 16 -139 4 -103 6 -124 12 -89 4 25 8
87 8 138 1 104 20 129 23 30 l2 -63 3 55 c6 86 23 86 24 0 1 -41 5 -106 9
-145 6 -60 7 -49 8 73 1 87 6 142 12 142 6 0 10 -28 11 -62 1 -47 3 -57 9 -38
4 14 8 42 9 63 1 20 6 37 11 37 6 0 10 14 10 30 0 17 -4 30 -10 30 -5 0 -10
-13 -10 -30 0 -16 -4 -30 -10 -30 -6 0 -10 32 -11 73 -1 39 -5 99 -9 132 -6
50 -7 37 -9 -72 -1 -150 -18 -182 -24 -45 l-3 87 -2 -87 c-3 -119 -22 -115
-23 5 0 50 -4 115 -9 142 -5 38 -8 15 -9 -92z"/>
<path d="M21042 6123 c-1 -74 -6 -123 -12 -123 -5 0 -10 -24 -10 -52 0 -38 3
-49 10 -38 5 8 10 32 10 53 0 59 19 43 23 -20 l3 -58 4 60 c4 60 4 60 10 -25
l6 -85 2 83 c2 79 16 111 25 55 l4 -28 2 28 c2 54 21 26 21 -33 0 -33 4 -60
10 -60 6 0 10 27 10 60 0 33 4 60 10 60 6 0 10 -18 10 -40 0 -22 4 -40 9 -40
5 0 12 18 16 40 6 34 11 40 31 40 23 0 24 -2 25 -77 1 -91 17 -73 18 20 1 68
21 77 22 10 l1 -48 12 50 13 50 5 -55 4 -55 2 53 c1 28 7 52 12 52 6 0 10 -6
10 -12 0 -9 4 -8 10 2 7 11 10 0 10 -38 0 -33 4 -51 10 -47 6 3 10 26 10 51 0
58 15 56 28 -3 8 -41 10 -43 11 -16 2 60 30 91 32 36 l1 -28 10 28 c14 38 31
29 44 -24 l11 -44 7 48 c8 50 22 62 29 25 l4 -23 2 23 c0 12 6 22 11 22 6 0
10 -26 10 -57 0 -32 5 -65 10 -73 7 -10 10 7 10 58 0 54 3 73 13 70 6 -3 15
-18 18 -34 l6 -29 5 35 c4 30 5 29 6 -14 2 -35 5 -47 12 -40 6 6 12 64 14 130
2 65 1 82 -1 37 -4 -83 -18 -111 -26 -50 l-4 32 -1 -32 c-1 -18 -6 -33 -12
-33 -6 0 -11 34 -12 78 l-1 77 -10 -77 c-10 -76 -26 -106 -28 -50 0 15 -4 36
-9 47 -6 15 -9 8 -9 -29 -1 -68 -13 -50 -21 32 l-7 67 -2 -72 c-1 -66 -3 -73
-21 -73 -16 0 -20 7 -20 35 0 19 -4 35 -10 35 -5 0 -10 -16 -10 -35 0 -46 -14
-45 -27 3 l-10 37 -2 -37 c-1 -27 -6 -38 -16 -38 -12 0 -15 13 -16 58 -1 92
-17 110 -18 20 -1 -45 -5 -78 -11 -78 -5 0 -10 6 -10 13 0 8 -4 7 -10 -3 -7
-11 -10 0 -11 40 l-1 55 -11 -55 -11 -55 -7 50 -6 50 -1 -47 c-3 -83 -22 -53
-23 35 -1 97 -17 79 -18 -20 -1 -35 -5 -63 -11 -63 -5 0 -10 10 -11 23 0 12
-3 16 -6 10 -11 -28 -23 -10 -24 35 -1 54 -5 48 -14 -20 -4 -32 -11 -48 -21
-48 -11 0 -14 19 -15 93 -2 103 -16 79 -18 -30 -1 -64 -20 -90 -22 -30 l-1 32
-11 -35 c-11 -32 -12 -26 -18 75 l-5 110 -3 -85 c-2 -47 -6 -94 -9 -105 -8
-23 -31 -32 -33 -12 -1 6 -5 62 -9 122 l-7 110 -1 -122z"/>
<path d="M20862 6118 c-2 -111 -3 -118 -22 -118 -18 0 -20 7 -21 83 -1 90 -16
66 -18 -30 -1 -39 -5 -53 -15 -53 -10 0 -16 18 -20 63 -3 34 -8 78 -9 97 -2
19 -5 -9 -5 -62 -2 -89 -4 -98 -21 -98 -15 0 -20 11 -27 63 l-8 62 -6 -60 c-4
-49 -8 -60 -22 -59 -11 1 -15 -3 -11 -10 4 -6 10 -33 14 -61 l6 -50 2 58 c1
43 5 57 16 57 8 0 15 -9 15 -19 0 -11 5 -32 12 -48 l12 -28 5 44 c9 69 31 65
32 -6 1 -32 4 -48 6 -35 2 12 9 22 14 22 5 0 9 16 9 35 0 50 20 43 22 -7 1
-42 1 -42 6 -8 5 33 6 32 17 -25 l12 -60 2 68 c1 85 20 89 23 5 l2 -63 5 55 5
55 6 -60 7 -60 1 68 c1 37 6 67 12 67 6 0 10 -10 10 -22 0 -18 2 -20 9 -9 10
16 17 -14 24 -94 2 -22 4 -3 5 43 2 65 5 82 17 82 10 0 15 -12 17 -37 l1 -38
4 34 c3 18 0 38 -6 44 -6 6 -12 47 -12 92 l-2 80 -10 -87 c-8 -76 -12 -88 -28
-88 -17 0 -19 10 -21 118 l-1 117 -7 -105 c-4 -58 -8 -111 -9 -117 0 -7 -7
-13 -15 -13 -10 0 -16 29 -23 118 l-10 117 -1 -117z"/>
<path d="M22422 6130 c-3 -125 -18 -163 -40 -102 -9 24 -10 25 -11 5 -2 -40
-20 -25 -24 20 l-4 42 -1 -47 c-2 -44 0 -48 22 -48 22 0 25 -5 34 -72 l9 -73
2 73 c1 72 15 96 27 45 10 -48 12 -49 15 -8 2 35 3 32 9 -20 l7 -60 1 58 c2
59 16 74 32 35 l9 -23 0 23 c2 45 20 20 29 -40 l9 -63 2 63 c1 48 4 62 16 62
8 0 15 -6 15 -12 0 -9 3 -8 9 1 8 12 11 8 16 -15 11 -49 13 -51 14 -11 1 39
20 53 22 15 1 -22 1 -22 9 2 4 14 8 41 8 60 l-1 35 -7 -40 -7 -40 -3 45 -2 45
-10 -40 c-13 -49 -17 -53 -28 -35 -7 11 -10 12 -10 2 0 -7 -4 -10 -10 -7 -5 3
-11 30 -12 58 -1 38 -2 42 -5 17 -6 -56 -13 -80 -23 -80 -6 0 -10 17 -10 38 0
27 -3 33 -10 22 -5 -8 -10 -25 -10 -37 0 -13 -4 -23 -10 -23 -5 0 -11 26 -11
58 -1 31 -3 46 -6 32 -13 -88 -15 -93 -24 -79 -6 10 -9 10 -9 2 0 -7 -4 -13
-10 -13 -5 0 -11 47 -13 108 -3 104 -3 105 -5 22z"/>
<path d="M23622 6088 c-2 -81 -14 -114 -25 -70 -4 15 -5 14 -7 -3 -1 -11 -8
14 -15 55 l-12 75 -2 -72 c0 -41 -5 -73 -11 -73 -5 0 -10 9 -10 20 0 27 -18
25 -23 -2 -2 -13 -5 5 -6 39 -2 85 -21 93 -21 9 0 -59 -2 -66 -20 -66 -16 0
-20 7 -21 38 -1 20 -5 51 -9 67 -6 23 -8 15 -9 -37 0 -38 -5 -68 -11 -68 -6 0
-9 -28 -8 -67 0 -38 3 -52 5 -33 7 68 14 100 23 100 6 0 10 -7 10 -16 0 -8 4
-12 10 -9 9 6 15 -10 23 -65 3 -14 5 1 6 33 1 71 19 75 24 5 l3 -53 2 53 c3
71 22 66 23 -5 l2 -58 10 58 c12 65 26 75 28 20 l2 -38 7 40 c7 39 7 38 10
-20 l3 -60 9 58 c11 60 27 77 29 30 1 -20 3 -22 6 -9 4 15 7 16 14 5 6 -11 9
-8 9 9 0 12 6 22 14 22 10 0 18 -18 24 -52 10 -52 10 -53 11 -13 1 38 15 75
24 65 3 -3 9 -30 15 -60 10 -55 10 -55 11 -13 0 23 4 48 7 57 8 22 34 20 35
-1 0 -10 2 -13 5 -8 2 6 -2 30 -9 55 l-14 45 -8 -37 c-10 -54 -35 -50 -36 5
-1 73 -17 91 -18 20 -1 -48 -4 -63 -15 -63 -9 0 -18 16 -24 43 l-9 42 -7 -42
c-5 -27 -13 -43 -22 -43 -17 0 -23 25 -27 110 -3 57 -3 54 -5 -22z"/>
<path d="M25702 6083 c-2 -75 -12 -104 -25 -70 -4 9 -6 9 -6 -1 -1 -7 -5 -10
-11 -7 -5 3 -11 27 -11 53 l-2 47 -10 -52 c-8 -41 -13 -51 -28 -50 -17 1 -19
11 -20 72 l-2 70 -10 -75 c-7 -54 -12 -69 -18 -55 -6 17 -8 17 -8 3 -1 -10 -5
-18 -11 -18 -6 0 -11 34 -12 78 l-2 77 -3 -72 c-3 -47 1 -82 11 -105 l14 -33
3 30 c1 17 5 1 9 -35 l7 -65 1 63 c2 63 21 88 23 30 l2 -33 7 35 c6 33 7 34
13 10 3 -14 8 -36 10 -50 3 -14 5 -4 6 23 1 34 5 47 16 47 9 0 15 -10 16 -27
l1 -28 8 30 c7 28 8 27 10 -15 l2 -45 12 45 c10 38 13 42 20 25 8 -20 8 -20
16 0 6 15 9 7 10 -30 1 -38 4 -45 10 -30 5 11 9 32 9 48 1 38 19 34 24 -5 l4
-33 1 33 c3 59 21 33 25 -35 l3 -68 2 68 c2 67 12 83 31 50 6 -11 11 -13 11
-5 0 7 4 11 9 7 5 -3 12 -1 16 5 15 24 25 6 27 -47 l2 -58 3 53 c3 34 9 55 19
59 9 3 14 19 14 42 0 27 -3 32 -10 21 -5 -8 -10 -25 -10 -38 0 -44 -25 -17
-31 34 l-6 49 -1 -52 c-2 -49 -4 -53 -27 -53 -24 0 -25 3 -26 63 -1 65 -3 63
-15 -18 -3 -27 -9 -44 -11 -37 -4 10 -8 10 -19 1 -12 -10 -14 -4 -14 35 0 25
-4 46 -10 46 -5 0 -10 -20 -10 -45 0 -49 -16 -62 -23 -17 l-4 27 -2 -27 c0
-16 -5 -28 -11 -28 -5 0 -11 37 -13 83 l-3 82 -2 -82z"/>
<path d="M22751 6078 c0 -45 -5 -78 -11 -78 -5 0 -11 12 -11 28 l-1 27 -7 -30
c-7 -28 -8 -27 -15 20 -12 80 -14 83 -15 25 0 -31 -6 -61 -11 -66 -7 -7 -9
-40 -7 -80 l3 -69 2 73 c2 56 5 72 17 72 8 0 15 -6 15 -12 0 -9 4 -8 10 2 7
11 10 3 11 -30 2 -80 17 -103 18 -27 1 65 15 91 24 45 l4 -23 2 23 c0 12 8 22
16 22 11 0 15 -12 15 -47 0 -27 5 -55 10 -63 7 -11 10 3 10 48 0 47 3 62 14
62 10 0 16 -13 19 -37 l4 -38 1 38 c3 56 20 45 25 -15 l3 -53 2 53 c2 39 6 52
17 52 10 0 15 -10 15 -31 0 -17 4 -28 10 -24 6 3 10 17 10 31 0 30 20 32 21 2
l0 -23 9 23 c16 38 30 25 30 -28 0 -27 5 -50 10 -50 6 0 10 23 10 50 0 28 5
50 10 50 6 0 10 -11 10 -24 0 -38 20 -42 21 -4 l1 33 8 -30 8 -30 1 28 c1 28
15 37 24 15 4 -10 6 -9 6 1 1 11 4 11 16 1 10 -9 15 -9 15 -1 0 17 21 13 36
-6 13 -17 13 -17 14 0 0 9 5 17 10 17 6 0 11 -34 12 -77 1 -46 3 -59 5 -33 5
71 13 110 23 110 5 0 11 -8 13 -17 4 -17 5 -17 6 0 0 9 6 17 11 17 6 0 11 -28
12 -62 l1 -63 6 59 c6 62 30 91 32 39 1 -18 3 -21 5 -8 2 11 -2 45 -10 75
l-14 55 -1 -47 c-1 -53 -16 -64 -28 -20 l-7 27 -6 -30 c-6 -27 -7 -25 -17 25
l-11 55 -1 -52 c-1 -66 -16 -68 -29 -5 l-10 47 -1 -47 c-1 -49 -13 -63 -26
-30 -6 15 -8 15 -18 1 -19 -25 -47 -20 -48 10 0 14 -3 19 -6 11 -14 -42 -17
-44 -23 -10 l-7 35 -2 -32 c0 -18 -5 -33 -11 -33 -6 0 -11 34 -12 78 l-1 77
-10 -77 c-10 -80 -22 -98 -33 -50 -10 47 -12 48 -13 10 -1 -48 -21 -50 -21 -2
0 21 -4 33 -10 29 -5 -3 -10 -19 -10 -36 0 -34 -17 -39 -24 -6 -3 12 -7 31 -9
42 -4 15 -5 13 -6 -7 0 -14 -4 -34 -8 -44 -5 -14 -9 -11 -19 17 l-12 34 -1
-33 c-2 -62 -21 -22 -22 46 l-2 67 -9 -72 c-6 -40 -13 -73 -18 -73 -4 0 -12
15 -18 33 -9 30 -10 30 -11 6 -2 -56 -17 -37 -27 38 l-11 78 -2 -77z"/>
<path d="M24137 6078 c-9 -81 -26 -106 -28 -40 l-2 37 -7 -45 c-4 -25 -6 -47
-4 -49 2 -2 5 2 5 10 1 8 7 -17 14 -56 l12 -70 2 68 c1 50 4 68 14 65 6 -3 15
-18 18 -34 l6 -29 5 35 c4 28 5 24 7 -20 2 -63 21 -52 21 13 0 43 17 50 23 10
l4 -28 2 28 c2 54 21 26 22 -35 l2 -63 10 63 c5 34 14 62 18 62 5 0 9 -26 9
-57 0 -41 3 -54 10 -43 5 8 10 34 10 58 0 40 13 56 23 30 3 -7 3 5 0 27 -9 61
-22 78 -23 28 0 -68 -17 -50 -26 30 l-9 72 -3 -72 c-3 -78 -21 -101 -23 -30
-2 32 -3 35 -6 12 -8 -61 -16 -58 -28 10 l-12 70 -2 -67 c-1 -73 -17 -93 -24
-30 l-4 37 -1 -37 c-3 -69 -21 -39 -24 40 l-3 77 -8 -77z"/>
<path d="M22218 6101 c-5 -18 -8 -50 -8 -70 -1 -32 -2 -34 -12 -16 -11 19 -11
19 -19 0 -5 -14 -8 -7 -9 25 -2 76 -18 94 -19 23 -1 -47 -5 -63 -15 -63 -7 0
-16 9 -19 20 -3 11 -10 20 -15 20 -6 0 -14 -9 -17 -20 -11 -34 -25 -22 -25 19
0 22 -4 43 -10 46 -6 4 -10 -12 -10 -39 0 -25 -4 -46 -10 -46 -5 0 -10 10 -10
23 -1 22 -1 22 -15 -3 -13 -24 -14 -22 -17 35 l-4 60 -2 -57 c-2 -49 -5 -58
-21 -58 -14 0 -21 11 -27 43 l-8 42 -4 -42 c-4 -59 -18 -54 -28 10 l-8 52 -4
-52 c-3 -52 -22 -76 -22 -29 0 14 -4 28 -10 31 -6 4 -10 -7 -10 -24 0 -17 5
-31 10 -31 6 0 10 -18 10 -39 0 -22 5 -43 10 -46 6 -4 10 12 10 39 0 58 20 61
21 4 l2 -43 6 39 c6 40 31 63 31 29 0 -15 2 -16 10 -3 7 11 10 5 11 -25 l2
-40 6 39 c5 31 11 40 29 42 20 4 22 0 23 -49 l1 -52 10 53 c9 50 28 72 28 33
0 -11 5 -23 10 -26 6 -4 10 5 10 19 0 19 5 26 20 26 19 0 25 -16 33 -100 3
-30 4 -29 6 10 3 91 27 124 34 48 l4 -43 1 43 c3 69 21 48 25 -30 l3 -73 2 73
c2 82 16 94 28 25 l8 -48 6 44 c6 51 26 66 33 24 l4 -28 2 28 c2 40 19 33 26
-10 11 -67 13 -69 14 -15 0 29 -3 52 -9 52 -5 0 -11 21 -11 48 l-2 47 -6 -42
c-9 -54 -18 -63 -26 -27 -11 49 -13 50 -14 12 -1 -26 -6 -38 -16 -38 -11 0
-15 16 -17 68 -3 57 -4 62 -10 33z"/>
</g>
</svg>
