<?xml version="1.0" standalone="no"?>
<!DOCTYPE svg PUBLIC "-//W3C//DTD SVG 20010904//EN"
 "http://www.w3.org/TR/2001/REC-SVG-20010904/DTD/svg10.dtd">
<svg version="1.0" xmlns="http://www.w3.org/2000/svg"
 width="3600.000000pt" height="1200.000000pt" viewBox="0 0 3600.000000 1200.000000"
 preserveAspectRatio="xMidYMid meet">
<metadata>
Created by potrace 1.16, written by Peter Selinger 2001-2019
</metadata>
<g transform="translate(0.000000,1200.000000) scale(0.100000,-0.100000)"
fill="#000000" stroke="none">
<path d="M236 9678 c-3 -117 -8 -710 -11 -1318 -3 -608 -8 -1387 -12 -1732
l-6 -628 -42 0 -42 0 -7 92 c-3 50 -6 319 -6 597 0 780 -19 2776 -27 2871 l-7
85 -7 -85 c-4 -47 -12 -803 -18 -1680 -13 -1739 -15 -1880 -37 -1880 -11 0
-12 -69 -7 -422 3 -233 9 -432 13 -442 9 -26 20 302 20 612 l0 252 33 0 34 0
6 -1062 c4 -585 10 -1458 14 -1941 l6 -877 21 6 c12 3 25 10 30 15 8 7 15 578
32 2952 l6 907 53 0 52 0 6 -67 c4 -38 7 -277 7 -533 0 -644 21 -3274 27
-3280 2 -2 13 1 23 8 11 7 30 12 44 12 l23 0 7 623 c8 750 26 2811 26 3060 l0
177 70 0 70 0 0 -262 c1 -750 36 -3490 46 -3575 4 -37 9 -43 29 -43 23 0 23 2
29 142 10 248 25 1148 36 2168 6 542 13 1117 16 1278 l6 292 73 0 73 0 6 -72
c3 -40 11 -545 16 -1123 11 -1207 26 -2014 41 -2265 5 -96 13 -228 16 -293 5
-103 8 -117 24 -117 15 0 18 16 23 157 11 340 26 997 35 1608 5 352 15 970 22
1373 l13 732 88 0 c48 0 88 -1 88 -2 1 -2 5 -228 10 -503 5 -275 15 -732 21
-1015 6 -283 14 -711 19 -950 5 -239 16 -577 24 -750 8 -173 16 -351 17 -395
1 -74 2 -76 10 -35 4 25 8 83 8 130 1 49 5 79 10 72 10 -17 19 160 31 609 5
196 12 421 15 500 6 166 21 846 35 1594 6 286 13 571 16 633 l7 112 107 0 108
0 5 -232 c7 -322 25 -879 37 -1143 6 -121 15 -321 21 -445 10 -231 27 -376 44
-373 6 1 13 12 16 25 5 20 7 18 11 -12 3 -19 6 8 7 60 1 52 6 131 12 175 11
97 34 517 58 1070 9 226 20 401 23 390 3 -11 6 94 7 233 l1 252 125 0 c69 0
125 -1 126 -2 1 -2 5 -88 10 -193 22 -454 27 -551 33 -570 4 -11 10 -127 15
-259 5 -147 12 -241 19 -245 11 -6 26 -109 47 -321 l12 -125 2 102 c1 113 16
145 26 56 4 -32 8 -62 9 -68 2 -5 6 58 10 142 4 83 11 175 17 205 6 29 14 107
18 174 5 66 13 130 20 141 6 13 11 76 12 155 1 181 32 619 55 776 l5 32 143 0
143 0 6 -122 c4 -66 8 -155 9 -197 l1 -76 7 55 c5 41 7 46 8 20 5 -105 35
-428 42 -445 5 -11 13 -74 20 -140 6 -65 13 -121 15 -124 3 -2 5 4 5 14 0 46
13 -2 20 -72 l7 -78 3 80 2 80 14 -84 c8 -47 16 -87 19 -89 3 -3 6 35 6 84 1
66 4 80 9 54 l7 -35 2 31 c0 17 4 53 8 80 7 46 8 47 14 19 5 -21 7 -7 8 44 0
40 5 101 10 135 28 176 43 305 51 431 5 82 13 141 19 143 6 2 11 18 11 36 0
18 3 61 6 95 l7 61 142 0 141 0 12 -67 c38 -229 46 -268 54 -271 4 -2 8 -22 8
-45 1 -68 26 -216 32 -187 3 14 6 -4 7 -40 1 -73 9 -110 22 -110 5 0 10 12 10
28 1 17 3 20 6 9 2 -9 9 -15 14 -12 5 4 9 -3 9 -14 0 -12 5 -21 10 -21 6 0 10
6 10 14 0 8 5 16 11 18 12 4 49 158 56 237 3 32 8 49 13 41 4 -7 11 28 15 80
4 51 11 87 15 80 5 -8 10 5 13 31 18 139 30 205 39 217 7 8 50 12 148 12 l137
0 11 -25 c7 -14 12 -34 12 -43 0 -9 7 -30 15 -46 8 -15 15 -38 15 -50 0 -12 7
-31 15 -42 8 -10 15 -36 15 -56 0 -24 5 -38 13 -38 6 0 18 -15 26 -32 22 -50
48 -85 65 -85 9 0 16 7 16 16 0 13 2 14 9 2 7 -11 11 -4 17 24 4 22 13 45 20
52 7 7 15 31 19 53 4 22 12 46 19 53 7 6 20 43 30 80 12 44 22 64 27 56 5 -8
9 4 11 31 l3 45 166 3 166 2 13 -30 c7 -16 16 -27 21 -24 5 3 9 -4 9 -15 0
-11 6 -24 13 -28 12 -8 32 -36 44 -63 10 -22 27 -30 35 -17 6 9 8 9 8 -1 0 -7
4 -10 10 -7 6 3 10 1 10 -4 0 -19 18 -12 25 9 4 11 11 18 16 15 5 -4 9 1 9 10
0 9 4 14 8 11 4 -2 18 11 31 30 13 18 27 31 31 29 5 -3 11 8 15 24 6 27 28 47
48 43 4 -1 7 3 7 8 0 6 60 10 159 10 135 0 160 -2 165 -16 3 -8 10 -12 16 -9
5 3 10 1 10 -5 0 -6 20 -31 45 -54 25 -24 45 -39 45 -34 0 5 8 4 19 -1 10 -6
21 -8 24 -4 4 3 13 0 22 -7 12 -10 15 -10 15 0 0 9 3 10 13 1 13 -10 37 2 37
21 0 7 61 69 93 94 8 8 65 12 148 13 l135 2 58 -55 c32 -31 61 -55 64 -54 4 1
30 -2 59 -6 61 -9 86 3 123 64 24 39 34 46 55 40 6 -2 39 -5 75 -6 36 -2 86
-6 113 -8 26 -3 47 -1 47 3 0 3 33 5 73 4 39 -2 99 -5 132 -6 33 -1 69 -7 79
-13 21 -13 93 3 121 26 9 8 27 10 47 5 18 -4 76 -6 128 -5 52 0 421 1 820 1
872 1 771 0 910 4 63 1 189 3 280 5 l165 3 -115 9 c-63 5 -128 9 -145 7 -27
-2 -63 -2 -205 0 -25 1 -77 0 -115 -1 -54 -1 -77 3 -98 17 -28 18 -31 18 -98
1 -42 -11 -81 -16 -101 -12 -80 17 -106 17 -134 3 -25 -13 -38 -13 -89 -2 -33
7 -75 20 -92 29 -36 18 -75 21 -101 6 -37 -21 -142 -60 -162 -60 -11 0 -44 16
-74 35 -62 39 -88 43 -121 17 -19 -15 -38 -18 -124 -15 -72 2 -111 -1 -136
-11 -27 -12 -42 -12 -65 -4 -17 5 -43 7 -58 3 -15 -4 -48 -8 -73 -10 -25 -1
-55 -6 -67 -9 -17 -6 -29 -1 -49 23 -29 33 -63 40 -83 16 -8 -9 -22 -12 -41
-8 -19 3 -42 -2 -69 -16 -48 -25 -97 -27 -120 -6 -26 24 -57 26 -81 6 -20 -16
-27 -17 -71 -4 -43 13 -50 13 -65 -2 -12 -13 -25 -15 -52 -9 -20 4 -48 6 -63
5 -16 -1 -28 4 -28 9 0 6 -4 8 -10 5 -14 -9 -86 -15 -245 -21 l-140 -6 -37 37
c-21 21 -38 41 -38 45 0 9 -40 25 -53 22 -4 -1 -10 5 -13 13 -4 9 -19 22 -34
30 -25 13 -29 12 -49 -11 -15 -17 -28 -23 -41 -19 -13 4 -29 -5 -54 -31 -20
-20 -36 -41 -36 -46 0 -5 -4 -7 -9 -4 -5 3 -11 -3 -14 -14 -5 -19 -14 -20
-134 -20 -132 0 -153 6 -153 40 0 9 -9 26 -20 38 -11 12 -20 26 -20 31 0 18
-34 51 -51 51 -25 0 -49 11 -49 22 0 19 -30 40 -48 32 -9 -4 -22 -6 -27 -6 -6
1 -19 -11 -28 -27 -19 -32 -55 -50 -66 -33 -3 6 -22 -14 -41 -44 -19 -30 -41
-61 -47 -69 -7 -7 -13 -18 -13 -24 0 -7 -41 -11 -119 -11 -115 0 -120 1 -127
22 -3 12 -13 28 -21 36 -8 8 -17 27 -20 43 -3 15 -14 37 -24 48 -11 11 -19 25
-19 31 0 6 -5 8 -10 5 -6 -3 -10 5 -10 19 0 27 -23 56 -46 56 -8 0 -14 6 -14
14 0 12 -34 30 -53 27 -4 -1 -7 5 -7 12 0 6 -11 13 -24 13 -19 1 -26 -6 -36
-37 -8 -22 -16 -35 -20 -29 -4 6 -10 -12 -13 -41 -4 -29 -10 -55 -15 -58 -20
-13 -62 -92 -62 -115 0 -38 -27 -46 -164 -46 -121 0 -126 1 -126 21 0 11 -6
26 -13 34 -7 7 -19 45 -26 84 -7 39 -17 69 -22 65 -5 -3 -9 3 -9 12 0 30 -34
94 -47 89 -9 -3 -13 6 -13 28 0 44 -19 74 -21 32 -1 -32 -3 -28 -14 19 -3 15
-9 26 -12 22 -3 -3 -16 8 -28 24 -25 34 -35 30 -35 -14 0 -23 -3 -27 -10 -16
-7 11 -11 9 -19 -13 -6 -16 -11 -33 -11 -38 0 -5 -4 -17 -9 -27 -8 -15 -19
-67 -54 -252 l-12 -65 -150 0 -150 0 -8 85 c-4 47 -12 108 -18 135 -7 36 -50
276 -59 333 0 2 -4 1 -9 -2 -10 -7 -21 27 -21 66 0 51 -22 132 -31 117 -6 -9
-9 1 -10 31 l-2 45 -6 -45 c-6 -42 -7 -40 -16 40 -5 47 -10 74 -12 60 -9 -63
-13 -72 -28 -60 -13 11 -15 7 -15 -26 0 -26 -3 -34 -9 -25 -9 15 -15 -22 -27
-164 -4 -44 -10 -82 -14 -85 -4 -3 -13 -59 -19 -125 -26 -260 -30 -302 -36
-342 l-6 -43 -140 0 -139 0 0 49 c0 27 -7 85 -15 128 -8 43 -18 149 -22 235
-3 87 -10 155 -14 153 -4 -3 -10 25 -13 62 -4 38 -11 113 -17 168 -10 97 -23
266 -38 490 -4 61 -9 99 -11 85 -1 -14 -8 16 -15 65 l-12 90 -3 -100 c-2 -66
-5 -90 -10 -70 l-7 30 -5 -30 c-4 -22 -6 -15 -8 25 -1 30 -6 69 -9 85 -7 28
-8 27 -15 -20 -4 -27 -9 -61 -12 -75 -3 -14 -10 -74 -15 -135 -6 -60 -17 -168
-26 -240 -8 -71 -19 -200 -24 -285 -5 -85 -14 -184 -20 -220 -6 -36 -14 -155
-19 -265 -4 -110 -8 -206 -9 -212 -1 -10 -34 -13 -130 -13 l-129 0 -5 103 c-5
106 -20 359 -37 607 -6 80 -11 208 -12 285 -1 111 -3 126 -8 75 -7 -65 -7 -64
-9 30 -1 52 -9 165 -17 250 -9 85 -19 211 -23 280 -6 126 -7 127 -25 10 -2
-14 -5 -2 -6 25 l-3 50 -7 -45 c-4 -29 -8 -35 -8 -18 -2 35 -22 48 -22 14 0
-14 -4 -27 -8 -30 -5 -3 -12 -95 -15 -205 -4 -109 -11 -211 -17 -226 -5 -14
-11 -97 -11 -183 -1 -98 -5 -142 -9 -117 -5 28 -8 3 -9 -80 -3 -222 -20 -705
-27 -765 l-7 -60 -107 0 -108 0 -6 123 c-3 67 -10 289 -16 492 -20 666 -31
1008 -35 1105 -3 52 -10 208 -15 345 -10 236 -19 384 -36 605 -6 70 -10 87
-15 65 -5 -21 -7 -8 -8 45 -3 146 -19 45 -30 -195 -6 -132 -16 -310 -21 -395
-17 -266 -30 -617 -30 -815 0 -104 -4 -262 -9 -350 -5 -88 -13 -355 -17 -592
l-7 -433 -98 0 -99 0 0 68 c0 186 -21 1417 -30 1842 -6 267 -15 710 -20 985
-10 528 -26 910 -40 960 l-8 30 -2 -35 -3 -35 -7 35 c-6 27 -8 18 -9 -42 0
-42 -6 -200 -11 -350 -13 -333 -27 -959 -39 -1738 -6 -322 -15 -840 -22 -1152
l-12 -568 -78 0 c-73 0 -79 1 -83 23 -3 12 -7 308 -10 657 -7 861 -25 2099
-39 2700 -10 428 -14 495 -27 495 -8 0 -20 4 -26 8 -9 5 -14 -27 -18 -116 -10
-213 -26 -1076 -36 -1892 -5 -434 -12 -1034 -16 -1332 l-7 -543 -67 0 -68 0
-6 193 c-3 105 -10 804 -16 1552 -6 748 -13 1534 -17 1748 -6 361 -7 387 -24
387 -10 0 -20 -8 -22 -17 -4 -14 -5 -12 -6 5 0 12 -7 22 -15 22 -22 0 -25
-102 -36 -1535 -5 -731 -13 -1561 -16 -1842 l-6 -513 -67 0 -67 0 -13 1937
c-7 1066 -15 1941 -17 1945 -19 30 -24 -15 -26 -214 -1 -162 -3 -197 -8 -128
-5 83 -6 88 -11 45 -3 -27 -6 30 -7 128 -1 97 -6 177 -11 177 -5 0 -11 -96
-15 -212z"/>
</g>
</svg>
