<?xml version="1.0" standalone="no"?>
<!DOCTYPE svg PUBLIC "-//W3C//DTD SVG 20010904//EN"
 "http://www.w3.org/TR/2001/REC-SVG-20010904/DTD/svg10.dtd">
<svg version="1.0" xmlns="http://www.w3.org/2000/svg"
 width="3600.000000pt" height="1200.000000pt" viewBox="0 0 3600.000000 1200.000000"
 preserveAspectRatio="xMidYMid meet">
<metadata>
Created by potrace 1.16, written by Peter Selinger 2001-2019
</metadata>
<g transform="translate(0.000000,1200.000000) scale(0.100000,-0.100000)"
fill="#000000" stroke="none">
<path d="M107 9995 c-5 -753 -11 -1437 -15 -1520 l-7 -150 -7 214 c-5 118 -9
260 -10 315 -2 56 -5 -149 -8 -454 l-5 -555 -5 810 -4 810 -7 -750 c-3 -412
-8 -975 -10 -1250 -2 -330 -5 -441 -9 -325 l-5 175 -7 -199 c-14 -371 -9
-2159 8 -2531 8 -187 18 -506 22 -710 l7 -370 5 365 c5 336 6 310 10 -315 l5
-680 5 485 c5 418 6 450 10 235 4 -222 5 -235 10 -120 6 146 18 -477 22 -1129
2 -210 5 101 8 689 l5 1070 5 -915 c3 -643 6 -821 10 -600 5 279 6 245 9 -290
2 -333 7 -792 10 -1020 6 -336 8 -201 11 715 3 622 7 1038 10 925 4 -176 6
-191 11 -105 4 76 6 48 8 -120 2 -121 7 -326 10 -455 l7 -235 3 195 c2 107 7
355 10 550 l7 355 4 -320 c4 -338 6 -340 19 -20 8 193 8 185 11 -210 3 -365 4
-389 11 -220 3 105 8 343 9 530 l3 340 8 -319 c5 -175 10 -324 13 -330 2 -6 6
61 7 149 2 126 4 145 9 90 6 -62 7 -65 10 -25 1 25 6 216 9 425 5 242 9 -268
12 -1405 l4 -1785 5 1290 c3 710 7 1229 10 1155 l4 -135 6 115 c5 91 7 57 10
-160 2 -183 6 -18 12 495 9 847 23 1196 28 670 1 -165 6 -329 10 -365 8 -72 7
-96 19 645 l7 400 3 -380 c2 -209 7 -513 11 -675 l6 -295 2 424 c1 233 5 422
8 419 3 -4 9 -365 13 -805 l8 -798 3 880 c2 484 7 819 10 745 5 -116 6 -96 10
145 l4 280 6 -300 c4 -165 9 -507 11 -760 l4 -460 5 535 c4 408 6 219 10 -800
l4 -1335 6 1312 c3 721 8 1315 13 1319 9 10 9 24 16 -471 6 -388 8 -337 11
515 4 886 5 912 10 420 4 -406 6 -467 9 -270 3 201 6 241 13 190 4 -36 13 -90
18 -121 6 -30 11 -194 12 -365 l3 -309 5 365 5 365 5 -400 c4 -366 5 -382 10
-190 4 168 7 190 10 110 3 -62 7 9 10 185 l5 285 5 -445 5 -445 5 650 5 650 4
-705 c3 -388 6 -685 8 -660 3 25 8 49 14 54 5 6 9 150 9 345 0 184 3 331 8
327 4 -4 12 -407 18 -894 l11 -887 3 595 c2 327 6 575 10 550 5 -34 7 -17 8
66 1 61 5 167 10 235 4 80 9 -158 12 -666 l5 -790 3 910 c2 501 7 930 11 955
5 26 10 -199 12 -530 4 -566 4 -569 9 -215 3 198 7 329 11 290 3 -46 7 0 9
135 3 138 7 10 12 -390 4 -327 11 -674 16 -770 l8 -175 3 285 c2 157 7 411 10
565 6 238 8 258 11 130 2 -120 4 -139 10 -95 5 30 9 321 11 645 l3 590 7 -385
c3 -212 8 -491 9 -620 l4 -235 7 315 c3 173 8 405 10 515 2 116 6 -26 9 -335
l5 -535 4 550 c4 485 6 522 12 310 3 -132 8 -296 10 -365 3 -100 5 -77 9 115
l6 240 4 -245 c4 -235 5 -228 10 170 l5 415 4 -440 c2 -242 7 -609 10 -815 7
-358 7 -344 11 335 4 804 17 845 28 90 l7 -450 9 270 c5 149 12 536 16 860 5
440 7 526 10 340 4 -239 4 -244 10 -105 5 119 7 88 10 -180 3 -226 6 -293 10
-220 6 99 6 96 8 -63 1 -109 6 -166 12 -162 6 4 11 135 12 353 l3 347 5 -275
5 -275 5 260 4 260 6 -175 c3 -96 7 -173 10 -170 2 3 6 217 10 475 5 432 6
392 10 -485 l5 -955 5 710 5 710 4 -775 c2 -426 7 -860 10 -965 5 -118 9 180
11 790 5 1011 5 1013 28 100 l8 -320 4 525 c4 485 5 503 10 235 5 -273 5 -260
10 235 l5 525 4 -760 5 -760 11 705 11 705 4 -420 c3 -418 4 -420 21 -50 2 44
6 -116 9 -355 l5 -435 5 555 c3 375 6 498 10 380 5 -155 6 -164 10 -75 l4 100
6 -80 c4 -55 7 -13 8 139 1 121 5 217 8 213 4 -3 10 -219 14 -479 6 -431 7
-447 8 -175 1 163 6 297 11 297 15 0 21 -102 23 -445 l3 -340 5 300 c3 165 7
269 10 230 l5 -70 11 75 c10 66 12 34 15 -255 l3 -330 7 415 c3 228 8 537 10
685 l3 270 8 -240 c5 -132 12 -499 16 -815 l8 -575 4 870 4 870 6 -652 c3
-359 9 -656 13 -659 4 -4 8 49 9 117 1 100 3 111 7 59 8 -90 22 235 31 730 l7
385 3 -365 c3 -240 6 -327 10 -255 6 105 6 102 10 -80 l4 -190 6 150 c5 122 7
85 10 -200 l5 -350 5 445 c4 346 6 402 10 250 4 -157 6 -112 10 230 l5 425 5
-495 5 -495 5 410 c5 408 5 408 9 145 3 -214 6 -247 11 -170 4 52 8 188 9 303
1 123 5 207 11 207 5 0 11 26 13 58 2 32 5 0 7 -73 l4 -130 6 120 6 120 4
-110 c4 -95 5 -82 10 95 4 158 7 89 10 -305 2 -280 7 -465 9 -410 5 91 6 84
11 -85 4 -132 7 -49 9 295 2 279 7 459 11 430 5 -27 9 -207 11 -400 1 -192 5
-462 9 -600 6 -247 6 -245 8 158 1 269 5 406 12 402 6 -4 11 -161 11 -433 l2
-427 13 690 c16 857 30 1011 34 380 1 -247 6 -508 9 -580 6 -101 8 -46 10 245
4 465 17 605 22 235 2 -182 5 -229 8 -155 l6 105 5 -165 6 -165 3 245 c8 584
17 608 22 55 3 -514 4 -525 9 -225 3 180 7 281 10 235 5 -63 7 -44 9 90 l4
170 13 -140 c7 -77 13 -241 15 -365 4 -370 16 -141 20 375 l4 460 5 -365 c4
-289 6 -333 10 -210 3 85 7 -164 10 -555 l4 -710 7 475 c3 261 8 594 9 740 2
146 6 240 9 210 4 -33 8 25 11 145 4 153 7 89 9 -270 4 -393 5 -440 11 -285
15 382 24 535 31 500 3 -19 8 60 10 175 l3 210 6 -265 c5 -229 6 -245 9 -120
l4 145 8 -130 c3 -71 8 -211 9 -310 4 -243 16 -121 20 200 l3 230 12 -145 12
-145 4 275 c3 229 5 187 9 -255 l5 -530 3 495 c2 365 5 490 14 476 7 -12 13
-150 18 -385 l7 -366 4 405 4 405 5 -500 c4 -395 6 -449 9 -255 4 217 5 232
11 132 4 -62 10 -115 13 -119 4 -3 8 70 9 163 2 93 5 -103 8 -436 l5 -605 5
710 c2 391 7 652 10 580 4 -112 6 -123 13 -80 13 78 15 82 17 45 6 -82 18 71
21 255 l2 190 8 -150 c12 -228 15 -235 19 -45 l4 175 6 -115 c6 -106 6 -99 10
95 3 189 5 171 11 -180 3 -214 7 -506 8 -647 0 -165 5 -258 11 -258 6 0 10
139 10 397 0 218 3 393 8 389 4 -4 9 -121 12 -259 l6 -252 2 352 c1 217 6 354
12 358 6 4 11 -76 13 -222 2 -226 2 -225 6 87 4 311 9 306 21 -20 4 -98 10
-51 19 136 l8 169 1 -193 c1 -121 6 -191 12 -187 6 3 11 -36 13 -102 3 -104 3
-102 7 47 3 85 7 -77 10 -360 l5 -515 5 665 c2 397 7 597 10 495 l6 -170 2
149 c1 82 5 147 8 143 3 -3 10 -30 14 -59 6 -44 8 -30 10 77 4 210 18 79 21
-200 l3 -240 6 175 6 175 4 -155 c3 -108 5 -131 7 -75 2 45 9 82 15 86 8 5 14
65 18 166 l7 158 3 -145 c1 -80 6 -215 10 -300 6 -138 7 -116 10 190 l5 345 5
-285 c4 -196 7 -248 10 -165 3 112 4 115 9 50 l6 -70 8 85 c4 47 9 108 10 135
2 28 5 -92 7 -265 3 -241 5 -285 10 -185 5 122 6 125 11 55 5 -74 5 -73 8 35
2 61 7 191 10 290 l7 180 4 -245 c3 -211 4 -233 11 -155 5 50 13 178 17 285
l9 195 3 -265 c4 -294 7 -278 19 110 l8 265 2 -250 c4 -310 17 -440 21 -195 1
100 5 155 10 140 5 -17 9 6 10 70 5 195 18 150 21 -70 1 -124 4 -202 6 -175 2
28 8 104 15 170 6 66 14 172 18 235 6 99 7 81 9 -125 1 -132 5 -234 8 -227 16
39 23 -22 25 -206 1 -177 2 -194 9 -117 4 50 12 108 18 130 6 22 11 87 13 145
l2 105 6 -95 c6 -88 6 -82 10 75 l3 170 8 -130 c12 -182 16 -196 19 -70 l4
110 6 -75 6 -75 2 107 c1 59 7 110 12 113 7 4 11 -73 12 -222 l2 -228 6 190
c3 105 8 168 10 140 3 -37 5 -23 10 55 5 82 7 49 10 -150 l3 -255 11 178 c6
99 14 175 19 171 4 -4 8 -104 9 -223 l2 -216 6 215 c5 180 6 195 9 95 2 -66 7
-149 11 -185 7 -62 7 -63 10 -20 l3 45 6 -40 c3 -22 8 50 11 160 4 135 7 11
10 -385 5 -573 5 -578 10 -240 3 204 7 294 9 220 l4 -125 8 90 c9 102 27 483
31 655 2 63 8 -63 13 -280 l10 -395 5 375 c4 287 6 335 10 205 l4 -170 7 175
c4 96 12 207 17 245 8 66 9 61 12 -85 4 -146 4 -150 10 -65 3 50 8 88 10 85 2
-3 6 -129 10 -280 l6 -275 4 395 4 395 7 -275 c3 -151 7 -324 9 -385 5 -223
18 -47 20 285 l3 335 8 -225 c5 -124 12 -263 17 -310 9 -80 9 -81 12 -30 2 44
4 50 10 30 7 -21 8 -18 10 20 3 38 4 34 11 -30 5 -41 13 -124 17 -185 7 -84
10 1 12 355 2 256 4 454 6 440 1 -14 9 -108 16 -210 l13 -185 6 95 c4 75 6 50
9 -120 4 -193 5 -203 9 -95 l6 120 5 -190 c5 -155 6 -112 10 235 3 311 6 381
10 260 5 -154 12 -173 23 -60 2 19 5 -44 7 -140 3 -209 16 -288 21 -130 3 103
3 102 9 -50 5 -126 6 -92 9 185 2 211 7 321 11 290 5 -27 9 -97 11 -155 2 -95
3 -100 9 -50 5 30 9 89 10 130 1 54 4 68 10 50 4 -14 9 -155 11 -315 l2 -290
8 190 c4 105 12 215 17 245 l10 55 2 -65 c3 -91 18 -41 19 65 2 114 20 134 23
25 l2 -85 6 95 c4 68 7 16 10 -180 l3 -275 12 220 12 220 4 -165 3 -165 6 205
c3 113 7 176 8 140 1 -36 7 -72 12 -80 6 -10 10 34 10 135 0 220 19 172 29
-76 l8 -204 3 205 3 205 7 -203 c7 -210 19 -277 22 -131 l2 84 6 -100 6 -100
4 145 c4 175 8 149 19 -115 l8 -200 3 190 c1 114 6 176 10 155 6 -30 8 -31 10
-10 2 21 4 20 10 -10 5 -25 8 -6 9 65 2 119 20 168 22 60 2 -51 4 -61 8 -35 3
19 8 -62 11 -180 l6 -215 4 275 c2 151 5 253 7 225 3 -35 7 -45 13 -35 7 10
10 -6 10 -48 0 -38 4 -61 10 -57 6 4 11 -43 13 -122 l3 -128 4 175 4 175 6
-245 6 -245 3 270 c3 168 7 246 11 205 4 -36 7 -55 8 -42 1 13 6 20 12 17 6
-4 11 51 13 147 l3 153 2 -180 c4 -207 20 -287 21 -101 1 197 13 123 21 -131
l7 -238 3 215 c4 190 5 202 10 105 l6 -110 4 100 4 100 6 -90 6 -90 3 120 c1
75 6 113 11 100 6 -15 9 -6 12 35 2 30 5 -38 6 -152 1 -125 6 -209 12 -213 6
-4 11 23 12 72 1 43 5 -41 8 -187 l6 -265 3 325 c2 179 7 377 11 440 l7 115 1
-105 c2 -113 10 -180 22 -180 3 0 11 21 17 48 l10 47 3 -50 3 -50 7 65 c5 50
7 28 10 -100 3 -137 5 -152 10 -90 l6 75 4 -70 c3 -69 3 -68 10 35 4 58 9 186
10 285 4 203 7 190 19 -70 l8 -180 2 170 c2 261 20 184 23 -100 l2 -240 6 210
5 210 9 -260 c5 -143 11 -336 15 -430 l6 -170 7 115 c5 63 9 194 10 290 l2
175 6 -160 c5 -147 6 -138 8 115 3 253 4 272 17 235 11 -31 15 -107 17 -325 2
-226 3 -245 5 -95 2 105 7 199 13 210 5 11 11 90 13 175 2 134 3 123 6 -80 5
-265 17 -228 22 65 l3 170 6 -120 c4 -66 8 -122 10 -125 1 -3 6 11 10 30 6 26
8 11 10 -60 2 -59 5 -77 7 -47 2 26 8 45 14 42 5 -4 10 39 11 107 2 110 2 111
7 33 l5 -80 6 105 6 105 4 -140 4 -140 6 155 6 155 2 -193 c2 -157 5 -196 17
-208 13 -14 15 -11 16 28 1 24 5 117 9 208 l6 165 4 -270 4 -270 6 205 c5 195
6 199 10 80 l4 -125 6 145 6 145 4 -200 4 -200 6 185 c3 102 7 166 8 143 1
-24 6 -43 11 -43 6 0 12 -24 14 -52 2 -29 5 -1 6 62 6 223 18 240 22 30 2
-131 4 -161 6 -92 2 63 7 100 13 97 6 -4 10 17 11 52 1 48 3 53 9 28 4 -16 9
-52 10 -80 3 -48 3 -49 10 -15 6 30 8 26 10 -30 l3 -65 9 80 c5 44 13 112 17
150 l8 70 3 -115 c2 -75 5 -99 9 -70 5 39 6 34 11 -40 l6 -85 4 100 c3 86 4
93 10 50 5 -39 8 -24 11 75 3 100 5 77 9 -120 l6 -245 3 220 c3 225 13 243 27
50 l7 -90 13 60 c7 33 14 76 15 95 l2 35 6 -35 c4 -22 8 8 11 80 6 105 6 97
10 -90 2 -136 5 -181 9 -135 l6 70 9 -95 c5 -52 12 -167 16 -255 l7 -160 4
270 3 270 6 -230 c3 -126 7 -207 8 -180 8 173 17 144 22 -70 5 -211 6 -195 10
190 2 267 6 378 10 305 3 -63 7 -98 8 -77 3 49 22 48 22 -1 0 -21 4 -42 9 -47
5 -6 11 -23 14 -40 2 -16 6 67 8 185 l3 215 6 -225 c3 -124 7 -200 8 -170 3
41 6 50 12 35 6 -14 9 7 11 65 1 76 2 80 10 40 4 -25 9 -103 10 -175 l2 -130
7 120 c11 184 23 293 29 265 3 -14 8 20 12 75 5 94 5 89 9 -70 3 -116 6 -149
9 -105 5 56 6 47 11 -65 l6 -130 3 140 c2 90 6 129 11 110 5 -21 8 3 10 75 3
124 17 202 19 105 1 -36 5 -55 10 -47 10 17 20 -126 23 -332 2 -141 2 -131 7
86 4 178 10 251 19 260 9 10 12 -5 12 -72 0 -57 3 -80 10 -70 6 10 10 -10 13
-65 2 -68 4 -61 7 45 3 119 3 122 10 55 4 -38 9 -115 10 -170 2 -95 3 -97 11
-45 5 30 12 114 16 185 l8 130 5 -135 c5 -124 6 -128 9 -45 5 174 20 134 21
-60 1 -116 5 -182 10 -170 5 11 9 76 9 146 1 69 5 129 10 135 6 5 11 29 14 54
2 30 5 18 7 -40 3 -79 4 -82 10 -35 l7 50 1 -62 c1 -34 6 -65 12 -68 6 -4 11
44 13 127 l3 133 3 -175 c4 -184 6 -184 20 -5 l8 110 3 -105 c1 -58 6 -132 10
-165 7 -59 7 -58 10 35 1 52 5 133 9 180 l8 85 3 -90 3 -90 8 130 c13 200 15
210 19 70 1 -85 5 -120 10 -100 5 20 8 -12 10 -90 1 -66 4 -115 6 -109 2 6 8
82 13 170 l8 159 3 -190 3 -190 12 140 12 140 2 -114 c0 -63 4 -111 8 -107 5
4 13 76 19 159 8 114 11 134 12 79 1 -44 6 -71 12 -67 5 3 11 -23 13 -62 2
-41 5 -11 7 77 l4 145 6 -120 6 -120 3 100 c5 154 18 181 20 40 1 -66 4 -151
9 -190 6 -65 7 -60 12 75 l6 145 4 -155 4 -155 6 140 6 140 2 -180 c3 -199 21
-283 23 -105 0 58 4 116 8 130 7 23 8 21 14 -15 4 -22 7 -62 7 -90 1 -27 5
-68 9 -90 6 -36 8 -31 14 45 3 47 9 159 13 250 4 91 10 172 15 180 5 9 9 -63
10 -170 l2 -185 11 115 11 115 5 -150 c4 -132 6 -142 13 -86 4 35 8 91 8 125
1 64 16 143 18 98 0 -13 5 -20 11 -17 5 3 11 43 11 88 l2 82 8 -94 c5 -52 11
-96 14 -99 3 -3 6 53 7 124 1 102 3 117 8 69 l7 -60 3 60 c3 45 5 30 10 -60
l6 -120 3 110 4 110 9 -125 c4 -69 12 -152 17 -185 l9 -60 1 72 c1 86 12 124
22 78 7 -30 7 -30 8 6 2 58 13 102 21 88 7 -11 12 17 23 131 2 19 5 -44 7
-140 l4 -175 6 135 6 135 2 -125 c2 -85 5 -120 12 -110 5 8 10 49 11 90 0 41
4 100 9 130 7 54 7 54 9 13 0 -24 6 -43 11 -43 6 0 10 -12 10 -26 0 -14 4 -23
9 -19 5 3 12 -9 14 -27 2 -18 5 -2 7 37 l3 70 7 -73 c5 -40 11 -85 15 -100 7
-25 9 -22 21 28 7 30 13 76 14 102 0 56 16 72 25 26 3 -18 10 -42 15 -53 4
-11 13 -45 18 -75 l9 -55 2 63 c1 39 5 61 11 57 6 -4 11 33 12 102 1 98 2 93
8 -57 10 -238 11 -247 20 -180 5 30 9 87 10 125 3 105 17 44 21 -90 3 -109 3
-108 9 50 5 127 6 143 9 75 4 -82 4 -83 11 -35 5 28 10 88 11 135 2 47 6 -36
9 -185 l5 -270 3 208 c1 130 6 207 12 207 6 0 10 -9 10 -19 0 -11 4 -22 10
-26 5 -3 11 21 13 57 3 58 3 57 5 -19 2 -100 21 -112 23 -15 2 59 3 63 9 27
l7 -40 2 40 c1 22 6 47 11 55 7 10 10 -9 11 -65 1 -58 3 -72 9 -50 6 25 8 20
10 -30 2 -43 5 -52 9 -30 4 24 7 18 11 -30 5 -43 8 -13 10 105 l4 165 6 -140
6 -140 3 130 c4 172 18 128 22 -70 l3 -150 6 135 c3 74 7 126 8 115 1 -11 9
-38 17 -60 14 -40 14 -40 16 60 l3 100 6 -90 c4 -60 7 -75 9 -45 6 86 19 101
22 25 1 -47 4 -57 6 -30 6 67 13 74 33 35 l18 -35 7 40 c11 70 13 71 14 12 2
-84 21 -62 23 26 2 70 2 71 5 14 4 -57 21 -71 25 -19 1 15 4 -2 8 -38 l7 -65
2 60 c2 74 16 57 29 -36 l10 -64 2 60 3 60 7 -65 7 -65 2 65 2 65 15 -45 c7
-25 15 -58 16 -75 1 -16 4 -1 8 35 l7 65 1 -85 c3 -128 16 -153 23 -45 3 59 6
-2 9 -175 l3 -265 9 240 c5 132 13 249 18 260 5 11 11 29 13 40 3 11 5 -21 6
-72 2 -142 21 -126 23 19 2 119 2 120 8 43 6 -71 7 -74 10 -30 l3 50 7 -55 7
-55 3 50 3 50 7 -65 c6 -59 7 -55 8 44 1 60 5 106 9 102 4 -3 10 -66 13 -139
l7 -132 4 180 3 180 6 -185 c6 -185 6 -185 9 -55 2 108 12 186 22 165 1 -3 5
-66 9 -140 l6 -135 2 115 c3 182 29 174 34 -10 l2 -75 6 90 c4 64 7 77 10 45
l3 -45 7 45 c7 44 7 44 9 -20 2 -36 6 -87 11 -115 5 -38 8 -12 11 110 l3 160
6 -140 6 -140 4 105 c3 98 4 101 10 45 l7 -60 3 60 c2 50 4 55 10 30 l8 -30 1
33 c2 56 21 35 22 -25 1 -48 3 -53 9 -28 4 17 9 57 10 90 2 81 8 61 19 -65 l8
-105 4 110 3 110 6 -105 c4 -68 7 -85 8 -48 1 34 7 58 14 60 8 3 15 31 19 69
5 57 6 53 8 -46 3 -117 17 -114 22 5 l3 65 3 -53 c6 -74 23 -55 25 26 0 37 3
51 5 32 2 -19 8 -66 15 -105 13 -83 26 -67 27 33 1 34 5 62 11 62 6 0 11 -10
11 -22 1 -13 5 -5 9 17 5 30 8 12 10 -70 3 -108 4 -109 10 -40 4 43 7 55 8 32
1 -22 6 -36 12 -32 6 3 11 -36 13 -102 2 -99 3 -96 5 42 2 83 6 168 10 190 l8
40 14 -60 c8 -33 17 -130 20 -215 l6 -155 4 210 c2 116 5 186 7 156 3 -35 10
-59 20 -66 11 -9 19 -36 23 -86 7 -74 7 -74 10 -19 l2 55 11 -45 12 -45 6 75
5 75 4 -75 3 -75 9 70 c5 39 15 102 22 140 l12 70 9 -135 c10 -161 21 -137 25
55 l3 130 8 -130 c11 -177 15 -204 18 -115 l2 75 17 -50 17 -50 5 115 c5 111
5 113 14 57 11 -77 26 -82 26 -10 0 41 3 54 10 43 5 -8 10 -25 10 -38 0 -13 4
-21 9 -17 5 3 13 -25 17 -62 7 -61 9 -64 15 -33 5 25 7 13 8 -44 0 -44 4 -77
7 -73 3 3 9 56 13 119 l8 113 4 -190 c3 -160 4 -171 7 -70 2 81 6 115 12 105
7 -10 10 13 10 72 0 48 4 89 9 92 13 8 21 -19 21 -71 0 -31 4 -43 13 -41 7 3
14 33 18 79 l5 74 3 -80 4 -80 12 75 12 75 3 -50 c2 -45 3 -47 10 -20 4 17 8
23 9 14 2 -27 29 -31 34 -6 2 12 6 -7 7 -43 2 -36 5 -52 7 -36 3 16 10 34 16
41 9 10 15 6 26 -19 l14 -31 10 60 c5 33 13 62 18 65 4 3 9 26 12 50 3 35 4
28 7 -30 l3 -75 6 55 c5 44 9 22 17 -110 l11 -165 2 110 c2 61 6 121 11 135 7
24 7 23 13 -10 4 -19 8 -46 10 -60 3 -14 5 16 6 65 2 104 15 97 25 -14 11
-124 25 -120 27 9 1 63 5 99 7 80 l6 -35 6 40 c5 28 8 6 10 -75 3 -110 4 -112
10 -45 l6 70 4 -70 4 -70 5 70 c7 81 20 59 22 -35 1 -67 17 -41 18 30 1 33 4
41 11 30 7 -10 10 16 11 85 l1 100 10 -60 c5 -33 13 -109 17 -170 l8 -110 2
118 c0 70 5 117 11 117 6 0 11 -6 11 -12 1 -7 5 -60 9 -118 l7 -105 3 155 c2
85 5 133 7 105 2 -27 6 -61 10 -75 5 -20 8 -14 18 35 l12 60 2 -82 c1 -97 20
-114 23 -20 l2 62 6 -75 c5 -61 7 -66 8 -26 2 41 4 47 17 36 12 -10 16 -6 24
22 8 28 10 21 11 -52 l2 -85 9 59 c9 63 19 86 19 43 0 -62 15 -61 26 3 l12 65
3 -120 3 -120 6 85 6 85 4 -95 4 -95 6 110 6 110 4 -90 c3 -76 4 -82 9 -40 l5
50 6 -70 c6 -65 7 -62 10 50 l4 120 6 -125 6 -125 3 95 c3 125 19 163 22 55 2
-50 4 -64 6 -37 2 23 8 42 13 42 5 0 11 33 13 73 3 66 3 64 5 -25 2 -80 5 -96
16 -92 10 4 16 -3 19 -23 2 -15 5 28 7 97 3 112 4 118 10 55 5 -57 7 -64 11
-35 6 35 6 35 7 -7 2 -47 21 -60 23 -15 2 21 3 18 9 -13 7 -39 7 -38 9 16 1
40 5 59 16 63 9 3 15 0 15 -9 0 -31 20 -14 21 18 l1 32 13 -40 13 -40 3 55 2
55 7 -60 c4 -33 9 -87 11 -120 l2 -60 7 55 7 55 2 -50 c1 -27 5 -68 9 -90 8
-40 8 -40 20 32 7 39 12 99 12 133 0 38 4 59 10 55 6 -4 11 -65 12 -143 1
-108 3 -122 7 -67 5 61 7 66 14 36 4 -18 8 -79 9 -135 1 -72 5 -33 13 134 9
178 12 212 15 140 1 -52 6 -142 10 -200 l7 -105 3 110 c1 61 6 142 10 180 l7
70 3 -70 3 -70 12 75 12 75 4 -55 3 -55 3 48 c5 62 23 61 23 -2 0 -28 5 -53
10 -56 6 -3 10 -12 10 -20 0 -8 5 -26 12 -42 l11 -28 8 40 c4 22 8 57 8 78 1
21 5 36 10 32 5 -3 11 3 14 12 2 11 7 1 12 -22 13 -67 24 -75 26 -20 l2 50 6
-45 7 -45 11 45 c10 41 11 35 14 -80 l3 -125 6 95 c3 52 7 84 8 71 3 -41 13
-16 21 56 8 62 8 64 10 20 0 -28 7 -55 16 -63 13 -14 15 -10 15 38 0 38 3 49
10 38 5 -8 10 -26 11 -40 1 -27 3 -22 14 24 5 23 8 27 16 15 6 -10 9 -5 9 18
0 56 20 48 21 -9 0 -29 3 -46 6 -38 18 47 28 42 34 -16 5 -53 6 -50 9 41 3 95
4 97 10 40 6 -52 7 -55 8 -18 2 48 21 69 24 26 1 -19 3 -14 8 17 5 33 8 8 10
-90 l4 -135 6 90 c6 83 6 86 9 30 2 -33 7 -87 11 -120 l7 -60 3 75 c2 91 16
195 20 160 2 -15 6 -5 10 25 6 43 7 36 10 -50 l4 -100 5 75 6 75 11 -95 c10
-88 11 -91 14 -40 l3 55 7 -40 7 -40 2 39 c2 81 16 20 22 -97 l5 -122 3 140
c3 148 17 155 22 10 l3 -80 6 95 6 95 3 -75 4 -75 12 85 c7 47 13 73 14 58 0
-16 6 -28 11 -28 6 0 11 12 12 28 0 15 4 6 7 -21 8 -67 25 -59 32 15 5 59 6
57 9 -37 l3 -100 12 110 c7 61 13 99 15 85 2 -21 4 -20 10 10 6 30 8 26 10
-30 1 -49 4 -59 10 -40 7 21 8 22 10 5 1 -11 8 5 16 34 27 100 37 83 44 -72
l6 -122 7 130 c10 160 14 181 17 90 2 -38 5 -55 7 -37 8 59 23 33 24 -40 l2
-73 12 80 12 80 3 -55 2 -55 16 50 c14 46 16 48 23 25 5 -17 7 -3 8 43 1 69
12 81 31 33 8 -20 9 -20 11 4 1 15 5 8 9 -20 l7 -45 3 50 c3 49 4 48 10 -20
l6 -70 2 58 c2 63 22 80 22 18 0 -49 19 -66 21 -19 2 32 2 32 9 -7 7 -37 7
-36 10 25 l4 65 6 -85 6 -85 4 70 4 70 6 -75 6 -75 4 85 c3 73 4 79 10 40 6
-42 6 -43 12 -15 4 22 6 16 7 -25 2 -30 6 -77 11 -105 7 -50 7 -50 9 23 1 85
20 98 22 15 1 -48 3 -53 9 -28 4 17 8 25 9 19 0 -6 8 -11 16 -11 12 0 15 14
15 63 0 61 12 90 24 58 3 -9 7 -55 7 -102 l2 -87 7 93 c8 96 20 136 20 67 0
-50 9 -40 20 22 l8 48 1 -50 c2 -48 2 -49 16 -25 l13 25 6 -25 c3 -14 7 -43 9
-65 2 -25 4 -14 5 28 2 47 6 66 15 65 6 -2 15 -16 18 -33 5 -21 7 -11 8 35 3
74 19 58 21 -20 l1 -45 14 33 c11 24 19 31 36 29 13 -2 26 -12 30 -23 5 -13 8
-3 10 31 l2 50 7 -45 c4 -25 8 -36 9 -25 1 11 8 38 16 60 12 34 14 36 16 15 1
-18 3 -20 6 -7 7 28 23 9 23 -29 0 -19 5 -34 10 -34 6 0 10 -15 11 -32 l1 -33
13 30 c8 17 15 46 16 65 1 32 2 33 9 10 7 -23 8 -23 10 10 2 33 3 33 10 10 l8
-25 3 25 c1 14 7 -29 14 -95 12 -119 12 -119 14 -43 1 80 7 108 22 108 5 0 10
-51 10 -112 2 -129 6 -115 18 62 l8 125 3 -95 3 -95 7 65 7 65 3 -75 c3 -70 3
-72 10 -30 l7 45 2 -40 c1 -22 5 -58 9 -80 7 -36 9 -30 22 65 l15 105 6 -70 5
-70 3 65 c2 45 5 59 11 45 7 -19 8 -18 18 7 19 46 32 43 34 -9 l1 -48 7 45 c7
43 7 42 10 -25 l3 -70 10 85 c10 77 12 81 18 45 5 -36 6 -37 8 -10 2 26 3 27
11 10 6 -14 9 -16 11 -5 1 8 5 -5 9 -30 l7 -45 2 50 c2 83 21 91 22 10 0 -71
4 -71 29 0 9 22 13 26 20 15 6 -10 10 -6 13 16 3 22 5 19 6 -16 3 -38 4 -41
11 -20 5 15 9 19 11 10 1 -8 5 12 9 45 6 52 7 44 10 -60 l4 -120 6 80 6 80 4
-90 3 -90 16 140 c12 101 17 127 19 92 2 -38 6 -47 18 -43 11 4 14 -4 14 -34
0 -21 5 -42 10 -45 6 -4 10 9 10 33 0 22 6 45 14 51 12 10 15 3 21 -46 9 -81
13 -87 16 -23 l2 55 7 -45 7 -45 1 57 c3 86 22 83 23 -4 2 -62 3 -67 9 -33 l7
40 3 -35 c3 -29 4 -26 10 20 l7 55 3 -80 c2 -68 4 -74 10 -40 6 31 8 34 10 15
2 -17 5 -11 10 20 l7 45 2 -40 c2 -32 4 -36 11 -20 5 11 10 40 11 65 2 36 3
39 7 15 4 -26 5 -28 12 -10 8 18 9 18 9 -5 1 -14 6 -32 11 -40 7 -11 10 7 11
60 l2 75 7 -55 c6 -51 7 -52 9 -15 4 63 19 14 22 -70 2 -66 2 -68 9 -25 4 25
8 41 9 35 5 -17 19 38 20 74 1 40 10 36 21 -11 7 -31 8 -30 9 17 1 57 20 45
22 -15 l2 -35 7 40 c5 29 8 7 11 -80 l3 -120 6 125 c3 69 7 115 8 102 1 -13 7
-20 12 -17 6 3 10 -3 10 -15 0 -26 17 -60 30 -60 6 0 10 8 10 18 0 14 2 15 10
2 7 -11 10 -3 11 30 l2 45 7 -50 7 -50 3 60 3 60 7 -45 7 -45 2 55 c2 72 20
48 22 -30 l2 -55 7 50 7 50 3 -50 3 -50 7 50 7 50 1 -64 c1 -35 5 -62 8 -59 3
4 12 42 19 85 l13 78 1 -70 c1 -40 8 -81 16 -95 l14 -25 1 30 c0 17 3 41 7 54
6 23 7 23 14 5 5 -13 8 -2 10 36 2 41 4 29 9 -45 l6 -100 4 100 c3 87 4 93 10
50 l7 -50 3 50 3 50 7 -55 c4 -30 7 -45 8 -32 1 13 6 21 11 17 5 -3 12 3 14
12 3 10 5 2 6 -17 1 -30 3 -33 14 -19 14 18 31 7 40 -27 3 -13 5 -10 6 10 1
24 3 26 16 16 12 -10 15 -7 21 14 9 37 32 33 37 -6 2 -22 5 -13 7 27 l3 60 7
-60 7 -60 1 53 c1 33 6 51 12 47 5 -3 10 -13 10 -21 0 -9 7 -22 15 -30 13 -13
15 -13 15 -1 0 8 6 27 14 42 l14 27 10 -54 c5 -29 10 -43 11 -30 0 13 6 20 11
17 6 -3 10 0 11 7 0 7 4 4 9 -7 7 -17 9 -14 11 15 2 31 3 29 9 -15 4 -28 8
-38 8 -22 1 15 7 27 12 27 6 0 11 19 11 43 l1 42 12 -55 12 -55 11 45 11 45 1
-37 c0 -21 6 -38 11 -38 6 0 10 -10 11 -22 0 -22 1 -22 12 2 10 24 11 23 17
-20 l7 -45 1 52 c3 102 40 131 43 33 l1 -45 10 38 c9 35 28 51 28 25 0 -9 4
-8 10 2 9 13 11 13 20 0 7 -11 10 -12 10 -2 0 8 6 12 13 10 6 -3 15 -24 18
-49 6 -42 6 -41 7 18 2 68 21 98 23 36 1 -37 2 -37 9 10 10 57 20 73 20 31 0
-16 7 -51 14 -79 l14 -50 1 48 c1 27 5 46 10 42 5 -3 12 4 16 15 9 28 22 25
33 -7 l10 -28 2 25 c2 22 3 21 12 -10 11 -34 11 -34 18 -10 8 24 8 24 9 -5 l2
-30 14 25 c8 14 15 41 15 60 1 51 19 17 22 -40 1 -40 2 -37 8 20 l7 65 2 -80
c3 -77 4 -78 13 -37 5 23 13 40 19 37 5 -4 9 1 9 9 0 23 18 20 25 -4 6 -20 7
-20 25 2 11 13 19 17 20 11 0 -15 30 -18 30 -3 0 6 7 10 15 10 10 0 15 -11 16
-37 1 -34 2 -35 9 -13 6 20 9 14 11 -30 l2 -55 6 50 7 50 13 -60 c21 -96 25
-96 31 0 5 92 19 96 21 7 2 -47 2 -46 11 16 11 70 18 73 29 9 l6 -42 3 40 3
40 7 -40 c6 -35 8 -31 10 35 2 47 5 62 8 40 3 -29 6 -32 12 -15 6 16 9 11 18
-25 5 -25 10 -35 11 -22 1 13 5 20 11 17 5 -3 10 0 11 7 0 7 4 4 9 -7 7 -17 9
-15 9 11 1 46 31 41 33 -5 l1 -36 4 33 c5 40 23 32 24 -11 l1 -32 12 40 c12
35 14 38 22 20 8 -17 10 -14 15 20 l5 40 9 -53 c9 -60 24 -53 26 13 2 40 2 39
9 -10 4 -27 8 -40 8 -27 1 13 7 20 12 17 6 -3 10 4 10 17 0 18 2 20 10 8 8
-12 10 -10 11 10 1 17 3 19 6 8 2 -10 10 -18 18 -18 9 0 15 -24 20 -87 9 -115
13 -125 15 -33 1 41 6 89 10 105 l8 30 1 -33 c1 -36 21 -35 21 1 0 18 2 19 10
7 9 -13 10 -13 11 0 0 8 6 -3 14 -25 12 -38 13 -38 14 -11 1 36 11 29 21 -16
8 -32 8 -32 9 -5 1 30 30 71 32 45 0 -7 4 -4 9 7 7 17 9 14 11 -15 l2 -35 7
35 c6 31 8 27 10 -30 3 -63 4 -63 7 -15 3 35 7 45 13 35 8 -12 10 -9 11 10 0
23 1 23 9 5 7 -17 9 -16 10 10 l2 30 8 -30 c5 -16 12 -43 18 -60 l9 -30 11 35
c6 19 13 46 15 60 4 25 4 25 6 -2 1 -19 5 -26 15 -22 11 4 16 -6 19 -43 3 -37
4 -30 7 32 2 68 4 74 10 40 6 -32 7 -34 9 -12 2 46 21 20 22 -31 2 -46 2 -46
9 -12 l7 35 3 -35 c2 -28 4 -30 7 -11 4 19 7 21 14 10 6 -9 9 0 10 31 0 39 2
42 11 23 l11 -22 18 22 18 22 2 -35 1 -35 8 30 7 30 7 -30 c4 -16 9 -34 10
-40 2 -5 7 15 11 45 l9 55 6 -50 c4 -27 8 -40 8 -27 1 12 6 22 10 22 5 0 14
-10 20 -22 l11 -23 0 25 c1 20 3 22 11 10 9 -13 10 -13 11 0 1 8 5 2 9 -15 l8
-30 1 37 c1 42 16 58 26 28 5 -17 9 -18 20 -7 7 7 15 22 18 33 4 17 5 17 6 1
0 -10 6 -15 11 -12 6 4 11 -13 11 -42 l2 -48 7 40 7 40 3 -40 3 -40 7 40 c4
22 8 36 10 30 1 -5 6 1 10 15 6 19 8 11 9 -34 1 -66 11 -68 21 -3 l7 42 9 -35
10 -35 7 34 c9 44 15 38 26 -30 l9 -54 2 80 c2 44 5 67 7 50 6 -43 23 -56 25
-19 1 16 4 4 7 -26 l6 -55 15 75 14 75 6 -57 c7 -73 20 -86 20 -20 0 42 3 50
15 46 8 -4 15 -16 15 -28 0 -16 2 -18 9 -7 7 11 10 10 14 -5 3 -13 5 -9 6 11
1 23 3 27 11 15 8 -12 10 -12 10 5 1 18 2 17 15 -5 8 -14 15 -38 16 -55 1 -17
5 -6 8 25 l6 55 22 -45 22 -45 1 33 c0 17 3 32 6 32 13 0 34 -30 34 -50 0 -12
4 -18 10 -15 5 3 10 18 10 33 0 22 2 24 11 12 8 -11 12 -12 16 -3 7 18 30 -6
36 -38 3 -19 5 -17 6 9 1 22 5 31 12 26 6 -3 15 0 20 7 7 11 9 10 9 -4 0 -10
7 -25 15 -33 13 -14 15 -12 17 13 1 15 4 3 8 -27 l7 -55 3 45 3 45 7 -50 7
-50 2 60 c1 43 4 56 11 45 7 -11 10 -5 11 25 l1 40 11 -38 c13 -43 27 -40 28
7 0 27 2 29 10 11 13 -26 56 -47 63 -31 2 6 5 -2 5 -18 1 -16 4 -26 9 -22 4 4
12 -9 19 -31 l11 -38 2 40 c1 22 6 54 10 70 6 25 8 17 15 -45 l9 -75 12 65 c6
36 13 58 14 50 1 -8 6 -1 10 15 7 29 8 29 10 -10 1 -23 4 -32 7 -20 8 33 23
42 24 14 0 -22 1 -22 8 -4 4 11 16 20 27 20 13 0 21 10 25 30 5 22 7 13 9 -35
l2 -65 13 40 c8 22 14 33 15 25 1 -10 4 -9 10 5 5 11 9 15 9 8 1 -6 10 -10 21
-8 14 3 20 -2 20 -15 0 -31 20 -34 21 -3 0 18 3 23 7 13 9 -19 32 -24 33 -7 1
6 5 -1 9 -18 l8 -30 1 28 c0 16 5 26 11 22 6 -3 10 0 10 7 0 9 3 9 10 -2 5 -8
10 -10 10 -5 0 6 9 11 19 12 14 1 22 -7 27 -30 l8 -32 7 35 c6 34 6 34 8 6 1
-32 15 -26 24 9 3 11 6 0 7 -25 l3 -45 7 45 c4 25 8 35 8 23 2 -16 7 -20 21
-16 11 3 22 12 24 22 3 9 6 -2 7 -24 l2 -40 12 33 c6 18 15 30 19 26 4 -4 7 1
8 12 1 15 3 13 9 -6 l8 -25 2 25 c1 23 2 23 10 5 7 -17 9 -16 10 10 2 18 4 23
7 13 6 -23 23 -23 24 0 0 14 2 14 9 -3 6 -14 9 -16 11 -5 1 8 5 -1 9 -20 7
-33 7 -33 9 15 l1 50 16 -33 c15 -30 34 -43 34 -24 0 5 7 9 15 9 9 0 15 -10
16 -26 0 -24 1 -24 9 -6 6 13 9 15 9 5 2 -26 21 11 21 40 1 22 2 23 11 7 6 -9
14 -15 20 -12 13 9 18 -10 28 -100 l8 -80 3 85 c3 74 4 79 10 40 4 -29 8 -35
8 -18 2 26 22 51 22 28 0 -7 7 -10 15 -6 12 4 15 -4 16 -37 2 -32 3 -35 6 -12
9 73 17 83 50 62 6 -4 14 -1 16 5 3 7 6 4 7 -7 1 -18 1 -19 11 -2 5 9 17 17
24 17 9 0 16 10 16 23 1 18 3 16 9 -8 5 -21 8 -24 9 -10 2 20 2 20 16 1 15
-20 15 -20 16 0 0 10 3 13 6 7 2 -7 11 -13 18 -13 8 0 16 -10 18 -22 2 -13 5
-3 6 22 2 35 4 41 11 25 5 -11 10 -15 11 -10 1 6 5 -6 9 -25 l7 -35 2 43 c0
23 6 42 11 42 6 0 11 -19 11 -42 l2 -43 7 35 7 35 2 -35 c2 -19 5 -28 8 -20 4
8 12 21 20 28 11 11 13 10 13 -5 1 -12 5 -8 14 12 l13 30 8 -55 9 -55 6 60 c4
33 7 54 8 47 1 -7 7 -10 12 -7 5 3 10 -4 11 -17 1 -17 5 -12 14 17 12 35 14
37 14 13 1 -31 4 -33 32 -18 17 10 19 7 20 -27 0 -36 1 -37 11 -13 10 24 10
24 18 5 7 -16 9 -14 11 15 l2 35 7 -35 7 -35 2 34 c1 33 1 34 21 16 19 -18 20
-17 21 6 1 17 3 19 6 7 6 -23 23 -23 23 0 0 14 4 12 21 -8 11 -14 24 -34 29
-45 7 -15 9 -8 10 30 0 36 3 46 10 35 7 -11 10 -11 10 -2 0 9 5 10 19 3 10 -6
21 -7 25 -4 3 3 7 -14 7 -38 1 -24 3 -36 6 -26 2 9 13 17 24 17 13 0 19 7 20
23 1 20 2 19 14 -8 l14 -30 2 50 2 50 7 -45 c5 -33 7 -37 8 -16 l2 29 20 -23
c11 -13 21 -19 21 -14 1 5 5 -4 9 -21 7 -28 8 -27 10 15 1 35 3 41 10 25 5
-11 9 -15 10 -10 2 6 6 -3 10 -20 l8 -30 1 27 c1 30 21 50 21 21 0 -15 2 -16
10 -3 8 12 10 12 11 -5 l0 -20 9 20 c6 13 9 15 9 5 1 -13 2 -13 11 0 9 13 10
13 10 0 1 -8 6 -4 12 10 10 25 10 25 18 4 12 -31 30 -40 30 -15 0 29 18 35 23
9 l4 -23 2 23 c2 32 21 27 21 -5 l1 -28 14 25 c11 19 14 21 15 8 0 -10 5 -18
10 -18 6 0 10 -12 11 -27 l1 -28 8 25 c6 18 8 20 9 7 1 -27 21 -10 21 19 0 33
20 30 21 -3 2 -22 3 -19 9 12 4 22 8 31 10 20 2 -17 3 -17 10 5 8 25 8 25 9
-5 2 -27 3 -28 15 -12 8 10 20 15 30 11 10 -4 16 -1 16 7 0 21 18 -3 23 -31 4
-24 4 -24 6 3 1 34 23 32 32 -4 6 -24 6 -24 14 5 7 27 9 28 21 11 13 -18 14
-18 14 3 0 23 24 30 36 11 4 -8 9 -7 15 2 6 10 9 5 10 -16 1 -29 1 -30 9 -5 8
24 8 24 9 3 1 -25 21 -32 21 -8 0 21 18 19 23 -2 3 -10 6 0 7 22 l2 40 13 -45
c10 -36 13 -39 14 -18 1 29 16 45 24 26 4 -9 6 -8 6 3 1 19 28 21 35 2 3 -8
10 -12 15 -8 5 3 17 -5 25 -17 16 -22 16 -22 17 12 1 23 3 27 6 13 3 -14 9
-20 19 -16 8 3 14 -1 15 -8 0 -8 5 -3 11 11 10 24 10 24 18 5 8 -18 9 -18 10
5 2 24 3 23 10 -5 6 -22 8 -25 10 -10 2 17 3 17 10 -5 l8 -25 1 27 1 28 21
-21 22 -22 12 23 c12 23 13 23 20 -11 l8 -34 18 40 c12 29 18 34 19 20 2 -17
3 -16 10 5 6 22 8 23 15 8 4 -10 11 -15 16 -12 5 3 9 -5 9 -18 0 -13 5 -30 10
-38 8 -12 10 -9 10 12 0 15 5 30 10 33 6 3 10 -1 10 -9 0 -9 4 -16 9 -16 5 0
12 -10 14 -22 2 -13 5 -3 6 20 1 30 5 42 13 40 7 -3 20 2 28 11 13 13 15 12
18 -7 2 -12 8 -20 13 -17 5 4 10 -6 10 -22 2 -25 2 -25 6 -5 3 13 13 32 23 42
18 18 18 18 24 -6 8 -31 26 -22 27 14 0 15 3 21 6 12 3 -8 11 -28 18 -45 7
-16 16 -37 18 -45 3 -8 6 10 8 40 1 43 3 48 8 25 6 -31 41 -46 41 -18 0 8 5
11 10 8 6 -3 10 -1 10 4 0 6 7 11 15 11 8 0 15 -8 15 -17 0 -15 4 -13 20 7
l20 25 0 -40 c0 -30 3 -36 10 -25 5 8 10 25 10 38 0 12 5 22 10 22 6 0 10 -8
10 -17 0 -15 2 -16 10 -3 9 13 10 13 11 0 0 -8 5 -4 9 10 l8 25 7 -23 c6 -18
10 -20 16 -10 6 9 9 6 10 -12 1 -17 4 -12 9 15 7 39 7 39 9 7 0 -18 5 -31 10
-28 5 4 12 0 14 -6 3 -8 6 -5 6 6 1 12 6 16 16 12 8 -3 15 -1 15 5 0 6 7 9 15
5 10 -3 15 1 16 12 0 9 7 1 14 -18 l13 -35 2 35 c2 31 3 32 9 11 l7 -25 22 24
c15 16 22 19 22 9 0 -12 2 -12 10 1 8 12 10 10 11 -10 0 -14 3 -19 6 -10 15
45 15 45 24 23 7 -19 14 -22 44 -18 23 3 35 0 36 -8 0 -7 5 -1 10 13 10 24 11
24 25 6 14 -19 14 -19 14 2 0 32 13 27 30 -10 l14 -33 7 25 c4 14 8 21 8 15 1
-5 6 -3 11 5 7 11 10 7 11 -20 l2 -35 6 40 6 40 17 -30 c14 -25 17 -26 18 -10
0 15 2 17 9 6 7 -11 10 -11 16 0 6 9 10 8 16 -7 6 -15 8 -13 8 11 1 23 4 27
11 15 5 -8 10 -25 10 -37 0 -34 17 -28 25 8 5 23 9 28 16 18 5 -8 9 -9 9 -4 0
6 5 3 11 -5 8 -11 12 -12 16 -2 2 6 9 10 14 6 5 -3 9 5 10 18 1 18 3 15 12
-12 l10 -35 7 30 c5 20 8 23 9 10 1 -15 3 -17 10 -6 7 11 10 8 16 -10 7 -22 8
-22 21 -4 13 18 14 18 15 -6 l1 -24 8 25 c4 14 9 21 9 15 1 -5 6 -3 11 5 8 13
10 13 10 -1 0 -22 28 -20 36 3 7 23 24 24 24 1 0 -15 2 -16 10 -3 8 12 10 12
10 -5 1 -17 3 -17 12 5 11 24 12 23 24 -25 8 -32 12 -41 13 -25 1 14 6 32 11
40 7 11 10 5 11 -25 1 -23 4 -31 6 -17 5 26 23 30 24 5 1 -10 7 0 14 22 l13
40 2 -35 c1 -29 3 -32 10 -15 8 18 9 18 10 -5 2 -23 3 -23 10 5 l7 30 11 -25
c9 -22 11 -23 12 -5 l1 20 9 -20 c7 -16 9 -12 10 20 2 34 3 36 9 15 6 -22 8
-23 14 -6 6 15 10 16 23 5 13 -10 17 -10 24 1 6 10 10 3 13 -21 4 -34 4 -34 6
6 2 40 2 40 16 15 13 -22 14 -23 15 -5 l1 20 9 -20 c8 -18 9 -18 10 5 l2 25
12 -28 13 -29 10 34 c10 29 11 30 12 9 1 -24 2 -24 15 -6 12 16 16 17 30 6 13
-11 16 -11 17 0 0 8 7 1 14 -16 l13 -30 7 26 c8 33 33 33 42 0 l7 -26 7 30 c5
23 7 25 8 8 1 -31 14 -35 51 -16 56 28 85 26 97 -5 11 -27 11 -26 13 13 2 24
4 31 7 18 3 -14 9 -20 19 -16 8 3 14 -1 15 -8 0 -8 7 0 14 16 l14 30 2 -30 c1
-17 3 -23 6 -12 7 25 33 21 34 -5 1 -22 1 -22 9 2 4 14 9 18 10 10 1 -10 5 -8
12 7 10 22 10 22 32 2 17 -17 22 -18 24 -5 4 21 42 16 42 -6 0 -29 20 -31 22
-1 1 19 3 14 8 -17 l7 -45 1 41 c3 57 31 70 33 16 2 -33 2 -34 6 -8 4 22 7 26
14 15 7 -11 9 -10 9 6 0 17 3 16 19 -9 l19 -29 16 29 c12 23 15 25 16 10 0
-16 3 -17 12 -8 9 9 15 6 24 -16 l12 -27 2 25 c1 14 4 19 7 13 7 -18 21 -16
26 5 3 11 5 9 6 -8 1 -20 3 -22 11 -10 8 12 10 12 10 1 0 -8 10 -3 26 14 21
23 28 25 35 14 6 -10 9 -10 9 -1 0 6 7 12 15 12 8 0 15 -5 15 -11 0 -8 4 -8
15 1 24 20 63 19 68 -1 3 -12 11 -16 26 -12 12 3 21 10 21 15 0 5 4 6 10 3 5
-3 10 0 10 7 1 7 7 2 15 -12 11 -20 14 -21 15 -7 0 10 4 16 9 13 5 -4 11 0 14
6 2 7 9 -3 14 -22 l9 -35 7 28 c9 35 39 33 48 -3 l6 -25 11 26 c10 24 62 48
62 28 0 -4 10 -6 23 -3 58 13 67 12 68 -10 1 -17 2 -18 6 -3 2 9 9 15 14 11 5
-3 12 3 16 13 6 15 9 13 19 -12 7 -17 13 -24 14 -17 0 6 7 12 15 12 8 0 15 6
16 13 0 6 4 3 9 -8 l9 -20 0 20 c1 15 3 17 10 6 7 -11 9 -11 14 0 3 9 6 7 6
-5 1 -16 4 -17 13 -8 17 17 26 15 31 -5 4 -14 5 -12 6 5 1 24 21 31 21 8 0
-10 9 -14 28 -12 15 2 30 -2 34 -8 4 -6 8 2 9 19 1 29 1 30 9 5 6 -19 8 -20 9
-6 1 15 4 16 16 6 10 -9 15 -9 15 -1 0 16 24 9 32 -9 5 -12 7 -12 7 3 1 19 31
24 31 5 0 -6 3 -8 7 -5 3 4 12 2 19 -4 9 -7 14 -5 19 10 9 30 25 26 26 -6 1
-17 3 -21 6 -10 6 21 23 23 23 2 0 -12 4 -13 19 -6 10 6 21 7 25 4 3 -3 6 -1
6 6 0 8 8 6 24 -4 23 -16 25 -15 28 6 3 22 4 22 21 5 9 -10 17 -13 17 -7 0 6
14 11 30 11 17 0 31 6 31 13 1 6 5 -1 9 -18 6 -24 8 -26 9 -7 1 27 9 28 27 5
12 -17 13 -16 14 5 0 12 5 22 10 22 6 0 10 -10 11 -22 0 -22 1 -22 9 -3 8 18
9 18 10 -5 1 -23 2 -23 10 -5 5 11 9 16 9 10 1 -5 6 -3 11 5 8 13 10 13 10 -2
0 -22 28 -13 32 10 3 14 5 14 21 -2 14 -15 20 -16 33 -5 13 10 17 10 24 -1 8
-12 10 -12 15 1 8 21 55 13 55 -10 0 -10 3 -12 8 -5 13 19 50 23 57 6 5 -14 8
-14 15 -3 5 9 23 14 44 13 23 -1 38 4 45 15 7 13 10 10 16 -18 8 -33 8 -34 17
-9 7 20 11 22 18 10 5 -8 10 -10 10 -5 0 6 5 3 10 -5 8 -12 10 -12 11 5 l0 20
9 -20 c7 -16 9 -17 9 -3 1 14 8 16 37 12 20 -2 42 1 50 6 9 8 14 6 19 -9 7
-22 25 -29 25 -9 0 6 3 8 7 4 4 -3 13 4 19 16 l13 23 10 -25 c8 -21 10 -22 11
-5 1 18 1 19 11 3 5 -10 17 -18 24 -18 8 0 16 -6 16 -12 1 -7 5 1 9 17 l7 30
11 -25 c9 -22 11 -22 12 -5 0 15 2 17 9 6 6 -9 11 -10 15 -2 4 6 11 9 16 6 5
-3 13 3 19 12 9 16 10 16 11 -4 0 -12 5 -25 10 -28 6 -3 10 1 10 9 0 19 17 21
23 4 3 -10 7 -10 19 0 13 10 17 10 21 0 4 -9 6 -8 6 3 1 15 31 23 31 8 0 -4
11 -6 25 -3 16 3 25 0 25 -8 0 -10 2 -10 9 0 4 8 19 11 34 8 15 -3 27 0 27 5
0 6 8 5 20 -1 11 -6 25 -8 30 -5 6 4 13 -1 16 -10 5 -13 9 -14 15 -4 12 20 49
22 50 1 0 -14 2 -14 9 3 5 11 9 16 9 11 1 -5 7 -3 15 3 11 9 17 8 29 -4 10 -9
18 -11 22 -5 9 14 45 12 46 -2 0 -7 4 -4 9 7 5 11 9 14 9 8 1 -15 47 -18 56
-3 3 5 12 7 19 4 8 -3 17 0 21 7 6 8 12 4 21 -12 10 -19 13 -20 14 -6 0 19 25
23 35 7 5 -8 11 -8 20 0 10 8 16 7 24 -7 9 -15 10 -15 11 -2 0 18 60 23 72 5
6 -8 8 -8 8 0 0 7 11 9 25 6 17 -3 25 0 26 9 0 8 5 3 10 -11 8 -20 12 -22 19
-10 10 16 100 21 100 5 0 -7 3 -7 8 0 14 19 32 15 33 -8 1 -16 2 -18 6 -4 2 9
10 18 16 18 48 6 74 4 85 -4 8 -6 12 -5 12 3 0 7 7 10 15 6 8 -3 15 0 15 6 0
7 10 1 23 -12 l22 -25 3 23 c3 22 5 22 27 8 21 -14 25 -14 33 -1 7 13 11 12
30 -5 12 -12 22 -16 22 -11 0 6 7 8 15 5 8 -4 15 -1 15 6 0 6 5 8 11 4 6 -3
15 0 20 7 6 11 9 10 14 -4 6 -15 8 -15 23 0 9 8 17 12 19 7 2 -5 26 -8 55 -7
34 2 54 -1 60 -9 5 -9 8 -9 8 -1 0 6 8 10 18 8 9 -1 25 2 35 7 14 7 22 5 33
-9 7 -10 14 -13 14 -6 0 7 12 12 28 12 15 1 45 1 67 2 59 1 89 -4 97 -16 5 -6
8 -1 8 10 0 11 4 16 8 10 10 -14 42 -15 42 -1 0 6 7 3 14 -7 8 -11 17 -14 20
-8 4 5 26 9 49 8 23 0 48 2 55 6 7 5 12 3 12 -5 0 -10 2 -10 8 -1 7 12 24 11
105 -1 16 -3 27 0 27 7 0 8 3 7 9 -1 10 -16 9 -16 44 -3 20 8 34 8 48 1 11 -6
25 -8 31 -4 15 9 71 9 86 1 6 -4 13 -3 17 3 9 14 55 12 55 -2 0 -8 3 -9 8 -3
10 14 92 16 92 2 0 -7 4 -6 9 2 5 8 16 11 25 8 8 -3 18 -1 22 5 5 7 11 5 20
-6 6 -9 14 -13 17 -9 3 5 31 8 62 8 31 -1 58 2 61 7 3 5 10 5 16 2 16 -10 78
-12 78 -2 0 5 6 6 12 1 7 -4 25 -6 40 -4 16 1 28 -2 28 -8 0 -8 7 -7 20 1 17
11 22 10 30 -2 6 -9 13 -11 18 -5 8 12 131 14 148 3 7 -5 15 -1 18 9 6 15 8
15 17 3 7 -13 10 -13 18 -1 7 11 11 10 20 -5 6 -11 11 -14 11 -8 0 6 21 12 47
13 26 1 49 3 51 6 3 3 11 0 19 -6 10 -9 13 -8 13 1 0 8 6 9 18 5 20 -9 24 -9
80 0 23 4 42 3 42 -2 0 -5 9 -9 20 -9 11 0 20 3 20 6 0 3 39 4 86 4 61 -1 89
-5 95 -15 7 -11 9 -11 9 2 0 17 26 18 63 4 9 -4 17 -3 17 1 0 5 290 9 645 9
355 0 645 3 645 7 0 4 12 3 28 -1 15 -5 68 -6 117 -4 50 2 117 3 150 2 33 0
67 0 75 0 8 1 60 1 115 1 55 0 147 0 205 0 58 1 238 1 400 0 162 0 302 0 310
0 2225 3 4455 11 4458 15 3 3 -111 5 -254 5 -1448 0 -3445 8 -3450 12 -3 4
-18 3 -32 -1 -34 -9 -284 -7 -299 2 -7 4 -14 4 -16 0 -6 -10 -861 -8 -876 1
-6 4 -16 4 -22 0 -7 -4 -170 -6 -363 -5 -591 4 -885 3 -895 -4 -5 -3 -12 -2
-14 2 -3 5 -53 8 -111 8 -64 0 -106 4 -106 10 0 6 -3 6 -8 -1 -8 -11 -186 -13
-198 -2 -3 4 -17 3 -29 -2 -16 -6 -25 -5 -27 2 -3 8 -11 7 -28 -2 -18 -9 -25
-10 -28 -1 -2 6 -9 8 -15 4 -15 -9 -228 -11 -248 -1 -9 4 -20 4 -24 0 -4 -4
-45 -7 -91 -7 -65 0 -85 3 -89 15 -5 13 -8 12 -16 -3 -8 -14 -14 -16 -25 -6
-8 6 -14 8 -14 3 0 -5 -32 -9 -70 -9 -39 0 -70 2 -70 5 0 8 -174 5 -187 -3 -6
-4 -14 -4 -17 1 -2 4 -25 7 -50 5 -29 -2 -46 2 -46 8 0 8 -4 8 -12 2 -21 -16
-57 -22 -62 -9 -3 8 -7 7 -14 -3 -5 -7 -12 -9 -15 -5 -6 11 -88 10 -105 0 -7
-4 -12 -2 -12 4 0 6 -4 9 -9 5 -5 -3 -12 -1 -16 5 -4 6 -12 7 -18 3 -18 -12
-220 -12 -234 -1 -8 6 -13 7 -13 1 0 -5 -7 -10 -15 -10 -8 0 -15 5 -15 11 0 6
-4 5 -9 -3 -8 -12 -12 -12 -25 -2 -10 9 -16 10 -16 3 0 -6 -7 -9 -15 -6 -8 4
-15 1 -15 -5 0 -7 -8 -8 -25 -1 -18 7 -25 6 -25 -3 0 -6 -5 -4 -11 7 -9 14
-13 15 -19 5 -6 -9 -13 -10 -22 -3 -14 11 -27 12 -43 3 -20 -11 -86 -3 -95 11
-8 13 -10 12 -10 -2 0 -10 -4 -18 -10 -18 -5 0 -10 3 -10 8 0 4 -11 7 -25 7
-14 0 -25 -4 -25 -8 0 -4 -10 -2 -22 4 -16 9 -23 9 -26 1 -3 -9 -9 -9 -23 -2
-13 8 -19 7 -19 0 0 -7 -5 -8 -12 -3 -17 10 -79 11 -100 1 -11 -6 -18 -5 -18
2 0 7 -6 8 -19 0 -13 -6 -21 -6 -23 0 -2 7 -15 7 -37 0 -26 -7 -37 -6 -49 6
-14 14 -16 14 -25 -1 -8 -14 -11 -15 -18 -4 -8 12 -11 12 -19 -1 -7 -11 -10
-11 -10 -2 0 7 -4 10 -10 7 -5 -3 -26 -2 -45 4 -24 6 -35 6 -35 -1 0 -6 -2 -9
-6 -6 -3 3 -21 2 -40 -2 -21 -5 -37 -4 -40 2 -4 6 -10 5 -15 -3 -7 -11 -9 -11
-9 1 0 13 -1 13 -10 0 -5 -8 -10 -10 -10 -5 0 6 -16 12 -35 13 -21 2 -35 -2
-35 -9 0 -9 -3 -9 -14 0 -11 9 -15 9 -19 -1 -4 -9 -6 -10 -6 -1 -1 7 -7 10
-15 7 -8 -3 -23 -1 -34 5 -15 8 -21 8 -25 -2 -3 -9 -7 -9 -19 0 -8 7 -18 10
-21 7 -12 -13 -97 -13 -98 -1 0 7 -4 3 -9 -8 -7 -17 -9 -18 -9 -2 -1 15 -4 15
-21 5 -17 -11 -22 -10 -30 2 -8 12 -10 12 -11 -5 0 -11 -3 -14 -6 -7 -4 10 -8
10 -19 1 -11 -9 -14 -9 -14 0 0 7 -11 10 -27 8 -17 -2 -33 2 -40 12 -11 14
-12 14 -13 1 0 -16 -60 -25 -60 -9 0 12 -42 1 -52 -13 -6 -11 -8 -11 -8 0 0
13 -35 13 -56 -1 -7 -4 -17 0 -24 8 -10 12 -16 13 -26 4 -11 -9 -14 -8 -14 2
0 11 -2 11 -10 -1 -5 -8 -10 -10 -10 -4 0 7 -15 9 -45 4 -26 -4 -48 -3 -55 4
-7 7 -10 6 -10 -2 0 -9 -5 -10 -18 -3 -10 6 -28 7 -40 4 -15 -3 -22 -1 -23 8
0 8 -4 5 -9 -6 -7 -17 -9 -17 -9 -2 -1 21 -21 23 -21 2 0 -13 -4 -14 -20 -5
-15 8 -20 8 -20 -1 0 -8 -4 -8 -15 1 -12 10 -15 9 -15 -5 0 -17 -1 -17 -17 1
-24 25 -43 28 -43 6 0 -12 -2 -14 -8 -4 -5 7 -16 10 -25 6 -10 -4 -17 -1 -17
6 0 9 -7 7 -20 -5 -18 -16 -20 -16 -20 -2 0 20 -18 23 -26 4 -7 -19 -34 -17
-34 2 -1 13 -3 12 -15 -3 -13 -17 -15 -18 -15 -3 0 9 -4 17 -10 17 -5 0 -10
-5 -10 -11 0 -5 -4 -8 -9 -5 -5 4 -11 1 -13 -5 -3 -8 -9 -6 -20 5 -21 20 -25
20 -31 -1 -4 -17 -5 -17 -6 0 -1 15 -4 15 -21 5 -17 -11 -22 -10 -29 1 -7 11
-9 11 -14 0 -4 -12 -7 -11 -16 1 -9 13 -11 13 -11 -2 0 -10 -4 -18 -10 -18 -5
0 -10 4 -10 9 0 9 -70 6 -97 -4 -7 -2 -13 1 -13 8 0 7 -3 8 -8 2 -13 -19 -32
-15 -32 6 0 20 -1 21 -25 5 -14 -9 -25 -12 -25 -6 0 8 -6 7 -20 0 -11 -6 -20
-7 -20 -3 0 4 -5 1 -10 -7 -8 -12 -10 -8 -11 15 -1 29 -1 30 -9 5 -7 -21 -8
-22 -10 -5 -2 17 -3 16 -10 -5 -7 -24 -7 -24 -18 10 -5 19 -11 27 -11 17 -1
-10 -5 -15 -11 -12 -5 3 -10 -2 -10 -12 0 -15 -2 -16 -10 -3 -9 13 -10 13 -10
0 0 -12 -2 -13 -9 -1 -7 11 -9 11 -14 0 -4 -9 -8 -10 -14 -4 -13 16 -67 12
-75 -5 -4 -10 -7 -4 -8 15 l-2 30 -13 -30 c-10 -24 -13 -26 -16 -10 -4 18 -5
18 -22 1 -16 -16 -18 -16 -23 -1 -6 13 -8 14 -15 3 -7 -10 -9 -10 -9 2 0 13
-1 13 -10 0 -7 -12 -10 -8 -11 15 l-1 30 -11 -35 -10 -35 -7 30 c-6 23 -8 25
-9 8 -1 -31 -18 -38 -27 -11 -7 22 -7 22 -14 3 -8 -19 -8 -19 -15 -1 -8 17 -9
17 -21 -5 l-13 -24 -9 24 c-5 15 -11 20 -16 13 -4 -6 -13 -9 -21 -5 -8 3 -15
0 -15 -7 0 -6 -5 -8 -10 -5 -5 3 -10 0 -11 -7 -1 -7 -5 -2 -9 12 -5 16 -8 19
-9 8 -1 -14 -6 -16 -25 -8 -26 9 -44 9 -63 -3 -6 -4 -14 -3 -17 2 -3 5 -15 7
-25 4 -13 -3 -21 1 -24 14 -4 17 -5 17 -6 0 0 -10 -5 -15 -11 -12 -5 3 -10 2
-10 -3 0 -5 -7 -9 -15 -9 -8 0 -15 5 -15 11 0 6 -5 4 -10 -4 -6 -9 -10 -11
-10 -3 0 7 -7 10 -16 6 -9 -3 -20 0 -25 8 -7 11 -9 11 -9 -3 0 -20 -20 -25
-21 -5 0 6 -4 3 -9 -8 -7 -17 -9 -17 -9 -2 -1 19 -17 23 -23 6 -6 -17 -36 1
-41 24 -4 21 -4 21 -6 -2 -1 -20 -5 -22 -26 -17 -16 4 -25 2 -25 -5 0 -21 -12
-1 -20 33 l-8 33 -1 -32 c-1 -39 -6 -41 -32 -10 l-18 22 -1 -35 c-1 -27 -3
-30 -9 -16 -7 19 -8 19 -15 1 -4 -12 -10 -15 -14 -9 -4 6 -22 14 -39 17 -27 5
-33 3 -34 -11 -1 -9 -5 -3 -9 13 -6 23 -8 25 -9 8 -2 -32 -15 -35 -36 -7 l-18
24 -15 -21 c-14 -20 -16 -20 -25 -4 -8 14 -11 15 -18 4 -7 -11 -9 -10 -9 4 0
17 -2 17 -30 -3 l-30 -21 -1 23 c-1 17 -3 18 -6 6 -5 -21 -23 -24 -23 -5 0 9
-2 9 -8 0 -5 -8 -13 -9 -22 -3 -8 5 -21 5 -32 -1 -14 -7 -23 -6 -35 7 -10 10
-19 12 -21 6 -2 -6 -10 -8 -18 -5 -8 3 -14 0 -14 -7 0 -7 -8 -9 -20 -5 -13 4
-20 2 -20 -7 0 -8 -3 -9 -8 -3 -10 16 -62 17 -62 2 -1 -6 -7 -1 -14 12 l-13
23 -7 -23 -8 -24 -8 25 -8 25 -1 -25 c-1 -19 -4 -21 -10 -11 -5 8 -16 11 -25
8 -9 -4 -16 -2 -16 3 0 6 -7 10 -15 10 -8 0 -15 -4 -15 -9 0 -19 -50 15 -51
34 -1 16 -2 15 -8 -5 -4 -14 -13 -24 -19 -23 -6 2 -22 -1 -35 -6 -26 -10 -41
-4 -50 19 -4 12 -6 12 -6 -1 -1 -22 -30 -32 -47 -18 -11 9 -18 8 -29 -1 -12
-10 -15 -10 -15 4 0 19 -20 17 -38 -4 -10 -11 -15 -12 -18 -3 -3 7 -12 9 -20
6 -8 -3 -17 3 -21 13 -6 16 -7 16 -14 -2 -7 -17 -8 -17 -8 4 -1 23 -21 32 -21
10 0 -7 -6 -4 -13 7 -11 19 -12 17 -18 -15 -5 -34 -6 -34 -16 -11 -12 30 -50
36 -59 9 -6 -19 -16 -23 -28 -11 -14 14 -36 11 -36 -5 0 -14 -2 -14 -9 -3 -5
7 -13 11 -19 7 -7 -4 -12 8 -15 31 -4 37 -4 37 -6 -7 l-2 -45 -16 30 c-12 21
-18 26 -21 15 -3 -8 -11 -21 -19 -28 -11 -11 -13 -10 -13 9 0 18 -2 19 -15 9
-11 -9 -15 -9 -15 -1 0 7 -4 9 -10 6 -5 -3 -10 2 -11 12 0 13 -3 12 -10 -7 -8
-19 -12 -21 -19 -11 -6 11 -9 8 -12 -9 -3 -23 -4 -23 -20 -6 -10 9 -22 15 -27
11 -6 -3 -14 2 -19 11 -8 14 -10 13 -15 -9 -9 -34 -45 -43 -57 -14 -6 14 -9
17 -10 7 -1 -8 -6 -4 -10 10 l-8 25 -1 -24 c-1 -19 -4 -21 -15 -12 -11 9 -15
9 -19 -1 -3 -8 -9 -4 -15 12 -10 24 -11 24 -11 3 -1 -25 -19 -26 -38 -3 -11
13 -12 13 -13 -2 0 -19 -20 -20 -32 -3 -4 6 -8 2 -8 -9 0 -15 -3 -16 -15 -6
-12 10 -15 9 -15 -6 -1 -18 -1 -18 -14 -2 -7 10 -15 16 -17 14 -2 -2 -19 -6
-36 -9 -32 -6 -33 -6 -34 31 l-1 37 -13 -35 c-8 -20 -14 -27 -14 -17 -1 11 -6
15 -12 11 -6 -3 -15 0 -20 7 -6 10 -9 8 -9 -8 0 -13 -4 -23 -10 -23 -5 0 -10
11 -10 25 0 18 -4 23 -15 19 -8 -4 -15 -14 -15 -23 -1 -11 -5 -9 -14 9 l-14
24 -5 -24 c-3 -18 -5 -14 -7 15 l-3 40 -7 -35 -6 -35 -11 35 -11 35 -3 -40 -2
-40 -7 40 c-4 22 -8 31 -9 20 l-2 -20 -9 20 c-7 17 -9 14 -10 -15 -2 -32 -3
-33 -10 -10 l-8 25 -1 -28 c-1 -38 -21 -24 -22 16 -1 28 -2 27 -10 -12 -9 -47
-19 -66 -19 -36 0 14 -3 15 -14 6 -11 -9 -15 -9 -19 1 -3 7 -6 0 -6 -17 l-2
-30 -18 40 c-18 38 -19 39 -20 12 -1 -24 -4 -26 -20 -18 -10 6 -21 7 -25 4 -3
-3 -6 5 -7 18 l0 24 -11 -25 -11 -25 -7 30 c-6 25 -8 26 -9 7 0 -13 -5 -21
-10 -17 -6 3 -14 -3 -20 -12 -6 -11 -11 -13 -11 -5 0 9 -7 11 -20 7 -16 -5
-20 -2 -20 19 0 29 -26 27 -33 -2 -4 -13 -5 -13 -6 3 -1 16 -3 17 -11 5 -7
-12 -11 -10 -18 10 -9 25 -9 24 -17 -9 -7 -31 -8 -32 -18 -15 -10 18 -11 18
-17 -5 l-6 -25 -22 24 -21 23 -10 -24 c-5 -13 -10 -18 -10 -10 -1 7 -7 11 -16
7 -9 -3 -21 4 -31 19 -18 27 -34 25 -34 -5 0 -29 -28 -13 -33 18 -3 23 -4 22
-6 -7 -1 -27 -4 -31 -14 -22 -8 6 -17 8 -20 4 -4 -3 -7 -2 -7 4 0 5 -7 10 -15
10 -8 0 -15 -7 -15 -15 0 -12 -3 -12 -15 -2 -12 10 -18 10 -30 0 -13 -11 -15
-7 -17 21 -1 31 -2 29 -8 -11 -6 -37 -7 -40 -9 -15 -3 30 -3 30 -11 5 -5 -17
-8 -19 -9 -7 -1 9 -5 17 -10 17 -5 0 -12 8 -14 18 -4 13 -5 12 -6 -5 -1 -31
-17 -37 -25 -10 -6 20 -7 20 -17 4 -15 -26 -27 -21 -38 16 -6 22 -9 25 -10 11
-2 -33 -14 -37 -27 -7 l-12 28 -1 -27 c-1 -29 -21 -40 -21 -12 0 8 -7 22 -15
30 -13 14 -15 11 -15 -23 0 -24 -3 -33 -9 -25 -6 10 -13 6 -27 -15 l-18 -28
-6 30 c-4 23 -11 30 -28 30 -13 0 -28 9 -34 18 -8 14 -13 16 -24 6 -8 -6 -14
-18 -14 -25 0 -20 -17 -17 -29 4 -8 14 -11 14 -12 2 -1 -8 -5 -1 -9 15 -7 28
-8 27 -10 -15 -1 -25 -4 -38 -7 -30 -2 8 -9 25 -16 38 -11 22 -11 22 -25 -10
-13 -28 -16 -30 -19 -13 -8 35 -23 41 -24 9 -1 -29 -1 -29 -9 -4 -5 17 -8 19
-9 8 -2 -34 -21 -18 -23 20 l-1 37 -4 -34 c-3 -26 -7 -31 -14 -20 -6 10 -9 7
-9 -13 0 -35 -25 -28 -35 10 -4 15 -10 21 -12 15 -3 -7 -13 -13 -22 -13 -13 0
-21 12 -28 43 l-11 42 -1 -37 c-1 -26 -8 -42 -23 -53 -22 -15 -23 -14 -30 7
-3 13 -7 16 -7 8 -1 -13 -3 -13 -10 -1 -7 11 -10 9 -14 -10 -4 -21 -4 -20 -6
6 l-2 30 -15 -28 c-18 -34 -25 -30 -34 20 l-8 38 -1 -45 c-1 -30 -4 -40 -10
-31 -7 11 -11 10 -20 -5 -9 -17 -10 -17 -11 -1 0 19 -19 24 -21 5 -1 -7 -5 -2
-9 12 l-8 25 -2 -25 -2 -25 -8 25 -8 25 -8 -25 -8 -25 -7 25 c-7 24 -7 24 -8
3 -1 -27 -21 -31 -21 -5 0 14 -2 15 -10 2 -8 -12 -10 -12 -10 -1 0 20 -30 -7
-30 -28 -1 -14 -2 -13 -11 2 -8 14 -14 16 -25 6 -10 -8 -14 -8 -14 -1 0 6 -7
9 -15 6 -9 -4 -15 0 -15 10 0 9 -4 16 -10 16 -5 0 -10 -6 -10 -13 0 -22 -39
-17 -46 6 -7 21 -8 20 -15 -8 -6 -28 -7 -29 -9 -5 -2 24 -3 24 -10 -5 l-8 -30
-1 29 c-1 24 -3 27 -16 16 -11 -9 -15 -10 -15 -1 0 7 -6 18 -13 25 -10 11 -15
11 -25 0 -7 -7 -12 -19 -13 -26 0 -7 -4 -4 -9 7 -8 18 -9 16 -11 -10 -1 -16
-5 -1 -9 35 l-7 65 -1 -53 c-2 -57 -20 -68 -33 -21 -6 21 -7 21 -8 -8 -1 -36
-11 -42 -31 -18 -18 21 -30 19 -31 -7 -1 -22 -1 -22 -9 2 -5 14 -9 19 -10 10
-2 -8 -6 3 -10 25 l-7 40 -2 -35 c-1 -27 -6 -36 -20 -37 -10 -1 -23 8 -29 20
-10 21 -11 21 -13 2 -1 -12 -5 -5 -9 15 l-7 35 -2 -40 c-2 -32 -4 -36 -11 -20
-7 17 -9 14 -11 -15 l-2 -35 -7 35 -7 35 -3 -30 -3 -30 -6 35 c-6 32 -8 33
-15 13 -8 -24 -26 -31 -26 -11 0 6 -7 3 -15 -8 -11 -15 -15 -16 -15 -4 0 9 -6
5 -15 -10 -14 -25 -14 -25 -16 15 l-2 40 -6 -35 c-6 -30 -8 -32 -14 -14 -9 27
-37 27 -38 0 -1 -15 -4 -13 -9 9 -4 17 -8 22 -9 13 -1 -25 -16 -22 -29 5 -10
20 -11 20 -12 -13 -1 -33 -1 -34 -15 -16 -8 11 -16 38 -17 60 -1 41 -1 41 -7
-8 -7 -54 -26 -71 -40 -34 l-10 23 0 -22 c-1 -25 -21 -33 -21 -8 0 7 -6 18
-14 22 -8 4 -16 19 -19 33 -3 16 -5 8 -6 -20 -1 -33 -4 -41 -11 -30 -8 12 -10
12 -10 -5 0 -15 -2 -17 -9 -6 -7 11 -9 11 -14 0 -3 -9 -6 -7 -6 6 -1 16 -3 17
-10 6 -8 -12 -11 -8 -18 15 -8 28 -8 28 -14 -16 l-6 -45 -1 42 c-2 47 -22 70
-22 26 -1 -27 -1 -27 -16 -8 -13 17 -16 18 -24 5 -9 -13 -11 -13 -20 0 -9 13
-10 13 -11 0 0 -8 -5 -4 -9 10 l-8 25 -1 -25 c-1 -19 -4 -21 -10 -11 -7 11
-10 10 -14 -5 -4 -16 -5 -16 -6 4 0 12 -5 22 -11 22 -5 0 -10 -10 -11 -22 -1
-22 -1 -22 -9 2 l-8 25 -1 -25 c-1 -14 -6 -32 -11 -40 -7 -11 -10 -7 -11 20
-2 30 -3 28 -9 -15 l-7 -50 -1 58 c-1 36 -6 56 -12 52 -5 -3 -10 -15 -10 -26
0 -10 -4 -19 -9 -19 -11 0 -21 25 -21 51 0 11 -4 17 -10 14 -5 -3 -10 -19 -10
-36 0 -16 -4 -29 -10 -29 -5 0 -10 11 -10 24 0 35 -20 43 -21 9 0 -15 -4 -37
-9 -48 -7 -17 -9 -15 -9 11 -1 19 -7 34 -16 38 -12 4 -15 -3 -16 -32 -1 -33
-2 -34 -9 -12 -4 14 -9 18 -10 10 -1 -11 -4 -9 -10 5 -6 14 -9 16 -10 5 -1 -8
-6 -4 -10 10 -8 25 -8 25 -10 -5 -2 -30 -2 -30 -10 -5 -7 23 -8 23 -9 3 -3
-72 -31 -68 -31 5 -1 56 -1 57 -15 27 -13 -30 -13 -30 -16 -5 -1 14 -5 3 -9
-25 l-7 -50 -2 40 c-2 35 -3 37 -11 18 -10 -25 -30 -31 -30 -10 0 8 -4 7 -10
-3 -7 -11 -10 -5 -11 25 -1 22 -3 32 -6 22 -2 -9 -9 -15 -14 -12 -5 4 -9 -3
-9 -14 0 -38 -20 -22 -21 17 -1 74 -17 81 -20 7 l-2 -70 -7 55 c-5 37 -8 45
-9 25 -2 -16 -6 -41 -10 -55 -7 -23 -9 -21 -18 20 l-11 45 -2 -45 -3 -45 -7
45 c-4 26 -8 34 -9 20 -1 -14 -6 -32 -11 -40 -8 -12 -10 -12 -10 5 -1 19 -2
19 -10 -1 -4 -12 -15 -24 -24 -27 -12 -5 -16 0 -17 21 0 24 -1 25 -9 7 -6 -13
-9 -15 -9 -5 -1 13 -3 13 -10 1 -7 -11 -10 -10 -14 5 -3 11 -6 5 -7 -16 l-2
-35 -9 32 c-12 42 -25 49 -33 18 -4 -14 -11 -23 -16 -20 -6 3 -10 -2 -10 -12
-1 -14 -3 -13 -14 6 -13 23 -14 23 -19 5 -4 -16 -5 -16 -6 -1 0 9 -5 17 -11
17 -5 0 -11 15 -11 33 -2 31 -2 31 -9 -8 l-7 -40 -3 55 -4 55 -3 -47 c-2 -27
-8 -48 -14 -48 -5 0 -9 -8 -10 -17 0 -10 -7 5 -14 32 -9 35 -13 43 -15 25 -1
-14 -4 -19 -7 -12 -2 6 -9 10 -14 6 -5 -3 -9 9 -9 26 0 18 -4 29 -10 25 -5 -3
-10 3 -10 15 0 12 -4 18 -10 15 -5 -3 -10 -26 -10 -51 0 -48 -6 -54 -26 -27
-13 17 -13 17 -14 -2 -1 -17 -3 -17 -12 5 -11 24 -12 24 -18 -15 -4 -22 -8
-35 -9 -28 0 6 -6 24 -12 40 l-11 28 -14 -28 c-11 -19 -20 -26 -33 -22 -12 4
-20 -3 -28 -22 l-11 -28 -2 30 c-1 29 -1 29 -11 6 l-9 -24 -23 27 c-26 30 -37
33 -38 9 0 -13 -3 -11 -11 7 -10 24 -10 24 -18 5 -5 -11 -9 -15 -10 -10 -1 6
-5 1 -10 -10 -7 -16 -9 -10 -11 25 l-2 45 -7 -55 c-5 -51 -6 -53 -14 -25 -10
35 -27 49 -38 32 -5 -7 -8 0 -9 18 -1 24 -4 21 -13 -20 -11 -44 -13 -47 -19
-25 -4 14 -7 43 -8 65 l-1 40 -18 -50 -17 -50 -8 38 c-8 43 -24 49 -27 10 -1
-19 -3 -13 -8 17 l-7 45 -2 -40 c-3 -36 -4 -37 -11 -15 -7 21 -8 19 -9 -17 -1
-46 -17 -66 -24 -31 l-4 23 -2 -22 c-1 -28 -31 -31 -31 -4 0 11 -3 28 -7 38
-6 14 -9 8 -13 -22 l-6 -40 -11 55 c-8 43 -11 48 -12 23 0 -18 -5 -33 -10 -33
-5 0 -12 -12 -14 -27 -2 -16 -5 1 -6 37 -1 46 -4 61 -11 50 -5 -8 -10 -25 -10
-38 0 -13 -4 -20 -10 -17 -5 3 -10 -3 -10 -14 0 -14 -6 -21 -20 -21 -17 0 -20
7 -21 43 0 23 -3 36 -6 30 -9 -25 -22 -13 -26 25 -3 29 -4 25 -5 -18 -3 -62
-21 -106 -23 -55 -1 17 -3 22 -6 13 -2 -10 -9 -18 -14 -18 -5 0 -9 -10 -9 -22
l0 -22 -21 23 c-12 12 -26 39 -32 59 l-11 37 -9 -47 -9 -46 -21 21 -22 22 -6
-35 -6 -35 -2 40 c-2 40 -2 40 -16 15 -14 -25 -14 -25 -16 15 -2 37 -2 38 -6
7 -5 -37 -33 -97 -33 -70 0 9 -5 29 -11 45 l-12 28 -7 -25 c-5 -16 -8 -19 -9
-7 -1 9 -5 17 -11 17 -5 0 -10 8 -11 18 0 14 -2 14 -9 -3 l-9 -20 -1 20 -1 20
-9 -20 c-7 -17 -9 -17 -9 -2 -2 30 -21 18 -21 -13 0 -44 -20 -37 -21 8 l-1 37
-13 -50 -13 -50 -2 40 -3 40 -7 -40 c-6 -33 -8 -26 -11 45 l-3 85 -3 -70 c-4
-74 -22 -116 -24 -54 0 18 -3 27 -6 19 -14 -44 -15 -45 -29 -15 -13 30 -13 30
-15 -25 l-2 -55 -7 55 c-4 30 -7 45 -8 33 -3 -38 -22 -37 -22 2 0 48 -20 36
-21 -13 l-1 -37 -9 44 c-11 58 -19 63 -20 15 -1 -34 -2 -36 -9 -14 l-8 25 -2
-25 c-1 -20 -6 -14 -20 25 l-18 50 -1 -44 c-1 -53 -12 -47 -22 12 l-6 42 -3
-45 c-2 -38 -3 -41 -10 -20 -7 23 -8 22 -9 -10 -1 -19 -6 -42 -11 -50 -7 -11
-10 2 -12 45 -2 60 -2 60 -5 11 l-4 -50 -20 30 c-11 18 -19 23 -20 14 0 -8 -6
1 -12 20 l-11 35 -5 -35 c-5 -32 -6 -30 -11 20 l-7 55 -2 -60 c-2 -47 -5 -54
-11 -35 l-8 25 -2 -25 c-1 -23 -2 -23 -10 -5 -6 14 -9 15 -10 5 -1 -10 -4 -9
-10 5 l-9 20 -2 -20 c-1 -12 -5 -6 -9 15 -7 31 -8 28 -9 -25 l-2 -60 -17 50
-16 50 -4 -37 c-2 -21 -6 -38 -10 -38 -9 0 -32 49 -32 67 0 28 -19 11 -23 -19
-2 -21 -5 -12 -7 27 -2 61 -4 60 -15 -8 -7 -42 -24 -41 -27 1 0 15 -4 5 -8
-23 -7 -48 -7 -47 -10 30 -4 75 -4 76 -7 22 -3 -37 -8 -57 -16 -56 -31 4 -47
-2 -48 -18 -1 -10 -5 -2 -9 17 -6 30 -8 31 -10 10 -2 -21 -4 -20 -10 10 l-7
35 -2 -45 -1 -45 -19 28 c-13 20 -20 25 -24 15 -3 -7 -6 30 -8 82 l-2 95 -12
-120 c-9 -96 -13 -113 -20 -88 -9 38 -25 34 -26 -5 0 -26 -1 -26 -9 -5 -12 30
-40 19 -41 -16 -1 -24 -2 -23 -9 7 -9 41 -20 53 -20 24 0 -30 -30 -29 -31 1 0
21 -1 21 -9 2 -8 -18 -9 -18 -10 5 -1 23 -2 23 -10 5 -7 -16 -9 -12 -11 20 -2
37 -3 36 -9 -15 l-7 -55 -3 45 c-2 42 -3 43 -10 15 -7 -28 -8 -28 -9 -5 -1 20
-3 22 -11 10 -8 -12 -10 -11 -10 7 0 39 -20 36 -22 -4 l-1 -38 -6 45 -6 45
-16 -49 -16 -50 -8 55 c-7 53 -8 54 -17 22 -5 -18 -13 -33 -18 -33 -6 0 -10
-8 -10 -17 0 -15 -2 -14 -15 3 -8 10 -15 28 -15 39 -1 20 -1 20 -15 1 -8 -11
-15 -14 -15 -7 0 7 -4 9 -10 6 -6 -4 -11 13 -11 42 -2 47 -2 46 -9 -15 -8 -76
-19 -92 -21 -31 -1 26 -4 34 -6 20 -4 -19 -7 -21 -14 -10 -6 10 -9 4 -10 -21
-1 -32 -2 -33 -9 -10 -8 25 -8 24 -9 -5 -2 -52 -19 -64 -26 -19 -11 63 -13 63
-16 -6 -2 -54 -3 -57 -6 -20 -2 25 -6 52 -9 60 -8 23 -23 -7 -25 -50 -2 -27
-4 -22 -9 20 -7 53 -7 54 -10 15 -3 -31 -5 -25 -10 30 l-6 70 -8 -63 c-7 -51
-11 -60 -22 -51 -8 6 -15 32 -16 58 -1 38 -3 34 -8 -24 -6 -61 -7 -64 -9 -25
l-3 45 -11 -45 -11 -45 -6 35 c-5 34 -6 34 -14 10 -8 -24 -9 -23 -16 15 -6 32
-7 35 -9 12 -2 -40 -21 -23 -21 19 0 63 -20 26 -21 -39 -1 -34 -4 -53 -6 -42
-3 11 -9 22 -13 25 -4 3 -12 34 -18 70 l-9 65 -2 -50 c-2 -55 -18 -142 -20
-110 -1 17 -3 18 -11 5 -7 -11 -10 0 -11 40 l-2 55 -7 -50 c-6 -46 -9 -47 -23
-5 -3 8 -6 2 -8 -15 l-2 -30 -7 35 -7 35 -11 -25 c-10 -24 -11 -23 -13 15 -2
37 -3 36 -9 -15 l-7 -55 -2 60 c-2 75 -20 111 -22 45 -1 -32 -3 -38 -7 -20 -5
20 -7 17 -13 -20 l-6 -45 -2 45 -3 45 -13 -50 -13 -50 -2 70 c-2 39 -5 55 -7
35 -2 -19 -8 -44 -13 -55 -5 -11 -11 -29 -13 -40 -3 -11 -6 9 -7 45 -1 36 -5
90 -9 120 l-7 55 -10 -85 c-9 -73 -12 -80 -19 -53 -11 47 -25 31 -25 -28 0
-31 -4 -48 -10 -44 -6 3 -10 16 -10 28 0 18 -2 19 -10 7 -7 -11 -10 -7 -11 20
-1 34 -1 34 -10 -9 -8 -43 -19 -66 -19 -42 0 7 -4 9 -10 6 -6 -4 -10 9 -11 32
-1 34 -2 33 -10 -16 -12 -70 -19 -76 -20 -20 l-2 44 -7 -40 -7 -40 -2 35 c-1
19 -6 44 -11 55 -8 18 -9 18 -9 -5 -1 -14 -5 -31 -10 -39 -12 -19 -31 16 -32
61 l-1 33 -10 -35 c-20 -71 -27 -78 -27 -29 -1 34 -5 46 -16 46 -10 0 -15 -11
-16 -31 -2 -28 -3 -27 -9 9 -7 38 -7 38 -10 -20 l-2 -60 -9 50 c-5 28 -13 77
-18 110 l-8 60 -2 -72 c0 -39 -6 -84 -13 -100 l-12 -28 -6 40 c-6 31 -7 34 -9
13 -2 -42 -21 -34 -23 10 -1 31 -2 28 -8 -18 -4 -30 -7 -45 -8 -32 -3 42 -22
22 -24 -25 -1 -39 -2 -41 -5 -13 -9 97 -15 123 -24 109 -6 -10 -9 -4 -10 21
-1 25 -4 16 -13 -32 -14 -79 -26 -98 -26 -40 0 22 -4 44 -10 47 -5 3 -10 -2
-10 -11 0 -10 -3 -14 -7 -10 -4 4 -10 44 -14 89 l-6 82 -3 -105 -4 -105 -6 70
-6 70 -3 -75 c-2 -52 -5 -69 -11 -55 -8 19 -9 19 -9 -3 -1 -31 -21 -18 -21 14
0 37 -20 19 -21 -19 l-2 -32 -6 30 c-4 25 -6 21 -11 -25 -6 -48 -7 -43 -10 45
-3 86 -4 93 -10 50 -4 -30 -8 -40 -10 -25 -1 14 -8 -6 -15 -45 l-13 -70 -2 85
-3 85 -8 -64 c-11 -85 -17 -96 -19 -36 l-2 50 -13 -30 c-14 -29 -14 -30 -15
-5 -1 21 -3 22 -9 7 -11 -30 -29 0 -34 58 l-3 50 -2 -53 c-2 -48 -4 -52 -17
-38 -8 8 -15 20 -15 26 0 21 -20 -1 -21 -23 -1 -20 -2 -20 -9 3 -6 20 -9 14
-11 -30 -3 -54 -3 -54 -9 20 -5 66 -7 71 -14 42 -6 -24 -12 -30 -20 -22 -8 8
-14 2 -23 -22 l-11 -33 -2 45 c-1 35 -3 40 -10 25 -8 -19 -9 -18 -11 5 -1 14
-5 -2 -9 -35 l-7 -60 -2 60 c-5 94 -19 124 -21 45 -2 -52 -4 -59 -10 -35 -7
29 -8 29 -10 -10 -3 -37 -3 -38 -8 -10 -6 28 -6 27 -12 -15 -6 -40 -7 -36 -10
35 -2 44 -5 65 -7 47 -2 -18 -9 -30 -14 -27 -5 4 -9 -3 -9 -14 0 -12 -4 -21
-10 -21 -5 0 -13 -15 -18 -32 l-9 -33 -7 50 c-11 73 -14 76 -16 15 l-2 -55
-12 40 -13 39 -7 -34 c-7 -31 -9 -32 -16 -15 -8 18 -9 18 -9 -5 -1 -14 -6 -32
-11 -40 -7 -11 -10 -5 -11 25 l-2 40 -6 -35 c-7 -35 -8 -31 -24 175 -2 22 -4
-9 -5 -70 -2 -75 -5 -105 -12 -95 -5 8 -10 33 -11 55 -1 47 -5 39 -14 -30 -6
-39 -9 -46 -16 -30 -7 18 -8 18 -10 -5 -1 -14 -5 2 -9 35 l-7 60 -3 -65 -3
-65 -7 50 c-6 46 -7 47 -10 15 -2 -19 -7 6 -10 55 l-6 90 -3 -90 c-3 -66 -5
-82 -11 -60 -7 29 -8 29 -10 -10 l-3 -40 -8 45 c-4 25 -8 65 -9 90 l-1 45 -15
-40 c-21 -57 -34 -66 -35 -25 -1 32 -2 33 -9 10 -7 -21 -8 -18 -10 20 l-3 45
-6 -52 c-11 -88 -28 -81 -33 12 -3 50 -3 50 -14 -25 l-11 -75 -2 110 -2 110
-15 -45 c-7 -25 -14 -73 -14 -108 0 -100 -20 -64 -22 41 l-2 92 -6 -85 -6 -85
-3 70 c-4 77 -6 73 -18 -30 l-8 -70 -6 110 -5 110 -2 -100 c-2 -69 -5 -95 -12
-85 -7 12 -10 8 -10 -15 0 -32 -15 -63 -25 -54 -3 4 -9 55 -13 115 l-8 109 -9
-105 c-6 -71 -11 -97 -16 -80 -6 21 -7 17 -10 -20 -2 -36 -4 -31 -9 30 l-6 75
-4 -75 -3 -75 -7 60 c-4 34 -8 47 -9 30 -2 -26 -3 -28 -11 -10 -8 18 -9 16
-11 -10 -1 -17 -5 -3 -9 30 l-6 60 -8 -73 c-5 -40 -11 -70 -14 -68 -3 3 -11
27 -18 53 -7 27 -13 38 -13 25 -1 -13 -5 -20 -11 -17 -5 3 -11 34 -11 68 -1
34 -4 49 -6 32 -8 -72 -15 -95 -24 -90 -5 4 -9 -2 -9 -12 -1 -42 -19 14 -26
77 -8 71 -21 61 -25 -20 -2 -33 -4 -24 -9 35 l-6 80 -4 -105 c-3 -89 -4 -97
-10 -55 -6 45 -7 46 -9 15 -2 -19 -7 -46 -11 -60 -6 -18 -9 -6 -10 45 -2 55
-4 63 -10 40 -8 -30 -8 -30 -9 8 0 21 -5 36 -10 32 -6 -3 -12 17 -14 47 -2 40
-4 30 -7 -37 -1 -49 -5 -79 -7 -65 -2 14 -7 32 -11 40 -3 8 -11 53 -18 100
l-11 85 -2 -65 c-1 -36 -6 -83 -10 -105 -9 -40 -9 -40 -10 -7 -2 65 -19 21
-27 -70 -5 -51 -10 -81 -12 -65 -2 15 -8 27 -13 27 -5 0 -9 14 -9 31 0 17 -4
28 -10 24 -5 -3 -10 -18 -10 -31 0 -37 -24 -24 -31 17 -4 22 -7 27 -9 14 -2
-11 -6 12 -10 50 l-6 70 -2 -68 c-2 -52 -7 -73 -22 -89 l-20 -22 0 32 c0 17
-4 34 -10 37 -9 6 -15 -10 -23 -65 -3 -14 -5 -5 -6 20 -2 61 -20 90 -22 35 -1
-22 -3 -31 -6 -20 -3 11 -9 24 -14 30 -5 5 -10 47 -10 95 l-2 85 -8 -93 c-5
-51 -12 -100 -18 -109 -9 -17 -12 -1 -24 127 -2 19 -5 -17 -7 -80 -4 -115 -4
-115 -10 -40 l-6 75 -3 -65 -3 -65 -14 99 c-17 122 -22 137 -24 66 -1 -30 -5
-75 -9 -100 l-8 -45 -2 44 c-1 53 -8 49 -20 -10 -7 -36 -9 -22 -12 81 -1 73
-4 102 -7 70 -3 -41 -6 -50 -12 -35 -6 14 -9 -2 -11 -50 -1 -38 -4 -57 -6 -41
-4 22 -7 26 -14 15 -5 -9 -9 21 -9 81 0 65 -3 90 -10 80 -5 -8 -10 -53 -11
-100 -1 -86 -15 -82 -19 5 l-2 40 -13 -45 c-12 -41 -13 -42 -15 -15 -1 17 -5
39 -10 50 -7 19 -8 18 -14 -5 -3 -14 -7 -43 -9 -65 -2 -22 -4 6 -5 63 -1 62
-6 101 -11 97 -6 -3 -12 14 -14 37 -2 24 -5 -11 -6 -77 -1 -66 -6 -138 -10
-160 -8 -39 -9 -38 -10 20 -1 33 -4 71 -8 85 l-7 25 -7 -30 c-4 -19 -8 9 -10
75 -3 98 -4 94 -9 -60 -5 -145 -6 -153 -9 -65 -3 103 -18 103 -20 0 -1 -27 -4
-68 -8 -90 -9 -55 -21 -21 -23 65 -1 44 -4 59 -10 45 -6 -17 -9 -13 -15 20
-10 60 -13 64 -14 19 -1 -23 -4 -57 -8 -75 -7 -31 -8 -30 -14 26 -5 55 -6 53
-8 -35 -1 -52 -5 -88 -8 -80 -2 8 -8 24 -13 35 -5 11 -11 29 -13 40 -3 11 -5
-6 -6 -38 -1 -81 -17 -63 -26 29 -4 41 -9 73 -12 70 -3 -3 -9 -43 -13 -88 -7
-83 -7 -83 -9 -20 -2 86 -21 78 -23 -10 l-2 -73 -6 95 c-4 64 -7 79 -9 45 -1
-27 -6 -68 -10 -90 -9 -39 -9 -39 -11 20 l-2 60 -13 -40 -13 -40 -1 57 c-1 31
-7 70 -13 85 -12 26 -13 23 -18 -42 l-5 -70 -11 75 -11 75 -3 -60 c-2 -33 -5
-50 -7 -37 -6 29 -23 18 -24 -16 -1 -21 -2 -23 -6 -7 -3 11 -11 24 -19 28 -8
4 -15 22 -15 40 -2 30 -2 30 -6 5 -6 -41 -23 -34 -23 9 0 53 -11 33 -20 -34
l-7 -58 -3 60 c-1 46 -4 54 -10 35 -5 -17 -8 4 -9 65 -1 62 -4 85 -11 75 -5
-8 -10 -68 -10 -132 0 -139 -19 -175 -22 -41 -1 75 -2 81 -8 38 -6 -53 -5 -55
-27 33 -6 26 -7 25 -13 -13 -6 -31 -8 -34 -10 -15 -2 14 -6 0 -10 -30 l-7 -55
-3 65 c-4 61 -4 59 -10 -35 l-6 -100 -2 97 c-1 53 -6 99 -11 102 -11 7 -20
-15 -23 -52 -1 -15 -4 5 -8 43 -6 64 -7 60 -10 -55 -3 -111 -4 -118 -10 -65
-4 33 -9 98 -11 145 -3 79 -3 81 -6 23 -3 -49 -7 -61 -18 -56 -10 3 -15 -1
-15 -13 0 -14 -2 -16 -9 -6 -8 14 -28 -67 -34 -143 -2 -22 -5 -2 -6 45 l-3 85
-13 -55 -12 -55 -5 130 -4 130 -2 -127 c-1 -77 -6 -128 -12 -128 -5 0 -10 26
-11 58 -2 92 -16 121 -20 37 l-3 -70 -6 70 c-6 61 -7 64 -9 25 -2 -25 -7 -58
-11 -75 -7 -29 -8 -29 -10 -5 -2 19 -5 15 -10 -15 -6 -34 -7 -29 -9 34 -1 90
-10 87 -20 -6 l-8 -68 -2 70 c-1 44 -5 65 -10 56 -6 -10 -11 -5 -16 19 -9 40
-22 28 -28 -25 -3 -33 -4 -30 -7 20 -2 50 -4 55 -10 30 -4 -16 -8 -54 -9 -82
-2 -89 -21 -60 -23 35 l-1 87 -6 -72 c-9 -107 -21 -100 -22 13 l-2 99 -11 -70
c-6 -38 -16 -79 -23 -90 -11 -17 -13 -10 -14 50 -2 53 -3 59 -6 25 -3 -31 -7
-40 -14 -30 -6 11 -9 7 -9 -15 0 -16 -3 -41 -7 -55 -7 -24 -8 -23 -14 10 -6
32 -7 30 -9 -20 l-3 -55 -7 50 -7 50 -2 -45 c-1 -29 -4 -40 -10 -32 -5 9 -11
0 -17 -30 -8 -39 -9 -34 -14 57 -4 57 -7 81 -9 55 -3 -39 -4 -41 -11 -20 -4
14 -9 48 -10 75 -2 43 -4 39 -11 -30 -4 -45 -12 -96 -17 -115 -9 -30 -11 -20
-13 65 l-2 100 -6 -77 c-3 -42 -9 -79 -12 -83 -4 -3 -11 27 -16 67 l-9 73 -9
-90 -9 -90 -12 40 c-10 33 -13 36 -14 15 -2 -24 -3 -23 -10 5 -4 17 -8 22 -9
12 -2 -35 -21 -5 -23 36 -1 32 -3 27 -7 -23 l-6 -65 -8 100 c-12 153 -14 158
-16 50 -2 -55 -6 -125 -11 -155 -6 -50 -7 -46 -9 45 -1 55 -5 111 -8 125 -7
23 -8 21 -14 -15 -6 -39 -6 -38 -8 14 -2 85 -15 49 -21 -57 l-6 -97 -7 70
c-17 160 -22 168 -28 50 l-5 -110 -4 110 -3 110 -11 -115 c-10 -112 -11 -114
-17 -55 -5 57 -6 58 -8 15 -4 -81 -19 -92 -21 -15 -2 68 -2 69 -15 40 l-14
-30 -2 50 c-2 41 -4 35 -9 -30 l-6 -80 -2 67 c-1 37 -7 70 -12 73 -5 3 -11 0
-11 -7 -1 -7 -5 1 -9 17 -6 22 -8 8 -10 -55 -3 -82 -4 -83 -10 -30 l-6 55 -5
-50 c-4 -39 -6 -30 -9 45 -2 69 -5 84 -9 55 l-6 -39 -12 27 c-7 15 -14 51 -14
80 l-1 52 -9 -40 c-4 -22 -9 -85 -10 -140 l-3 -100 -5 75 c-4 43 -9 66 -12 55
-4 -11 -7 22 -8 74 0 52 -3 92 -6 90 -2 -3 -10 -70 -17 -150 l-13 -144 -6 100
-5 100 -3 -75 c-2 -41 -6 -66 -8 -56 -4 15 -7 16 -14 5 -5 -9 -10 23 -11 86
l-2 100 -5 -80 -5 -80 -6 95 c-6 94 -6 93 -10 -55 -3 -122 -5 -138 -10 -85 -4
36 -7 61 -8 55 -1 -5 -7 -3 -12 5 -7 11 -10 -6 -11 -55 -2 -70 -2 -70 -9 -20
-7 50 -7 49 -10 -25 l-4 -75 -6 105 -6 105 -3 -110 -4 -110 -11 100 c-7 55
-14 91 -18 80 -4 -13 -6 -8 -7 18 0 20 -5 37 -11 37 -5 0 -11 52 -13 123 -2
92 -4 71 -6 -88 l-4 -210 -12 100 -12 100 -3 -75 -4 -75 -6 90 -6 90 -4 -120
c-3 -90 -5 -103 -7 -52 -2 39 -8 65 -13 62 -6 -4 -11 40 -12 112 -1 76 -3 94
-5 51 -2 -38 -8 -68 -13 -68 -6 0 -11 -26 -12 -57 -1 -33 -5 -9 -8 57 l-6 115
-4 -125 c-3 -116 -4 -120 -10 -55 -4 46 -8 58 -10 35 l-3 -35 -7 35 c-5 24 -8
0 -10 -80 -2 -108 -3 -112 -12 -60 -5 30 -13 98 -17 150 l-8 95 -2 -72 c0 -45
-5 -73 -13 -75 -7 -3 -14 -37 -18 -84 -7 -79 -7 -78 -10 46 -4 124 -4 124 -10
45 -3 -44 -7 -72 -8 -62 -1 10 -7 15 -12 12 -6 -4 -11 11 -12 37 l-1 43 -7
-45 c-4 -25 -8 -38 -9 -30 -1 13 -2 13 -11 0 -8 -13 -10 -12 -10 4 0 37 -15 4
-21 -47 -5 -40 -7 -23 -9 68 -1 66 -5 109 -7 96 -4 -19 -7 -21 -14 -10 -5 9
-9 -18 -9 -73 0 -113 -19 -118 -22 -5 l-2 82 -3 -68 c-2 -39 -8 -65 -13 -62
-6 4 -10 -6 -11 -22 0 -15 -4 -37 -8 -48 -6 -14 -11 5 -15 60 -4 44 -11 100
-15 125 -8 44 -9 44 -10 -24 -2 -116 -15 -64 -21 87 l-7 142 -2 -150 c-1 -109
-6 -157 -16 -175 -13 -23 -14 -19 -17 65 l-2 90 -6 -85 c-4 -48 -8 -70 -10
-50 -3 30 -4 27 -9 -20 l-7 -55 -9 80 -10 80 -6 -65 -6 -65 -1 60 c-1 34 -6
65 -11 70 -5 6 -11 26 -14 45 -2 19 -5 -1 -7 -45 -3 -78 -3 -76 -15 60 l-12
140 -3 -130 c-2 -99 -5 -118 -10 -80 -6 42 -7 45 -9 15 0 -19 -4 -60 -8 -90
-8 -72 -21 -41 -24 60 l-2 75 -7 -60 c-6 -53 -7 -46 -10 55 l-3 115 -7 -93
c-4 -50 -10 -95 -13 -99 -4 -3 -8 34 -9 83 l-2 89 -6 -90 c-3 -49 -7 -72 -9
-50 l-3 40 -10 -35 -11 -35 -7 33 c-10 42 -20 52 -21 21 -1 -15 -5 -9 -9 16
-6 33 -8 23 -10 -50 l-4 -90 -6 95 -6 95 -3 -85 c-5 -150 -19 -49 -22 160 -2
207 -3 209 -16 35 l-8 -110 -6 70 -5 70 -2 -79 c-2 -86 -12 -94 -23 -18 l-6
47 -3 -50 c-2 -45 -3 -47 -10 -20 -5 19 -9 -20 -11 -110 -3 -138 -3 -139 -9
-50 -5 75 -7 80 -8 32 -1 -33 -6 -56 -11 -52 -5 3 -12 -9 -14 -27 -2 -19 -5
-3 -7 37 l-3 70 -7 -50 c-6 -46 -7 -42 -10 40 l-4 90 -3 -70 c-3 -48 -7 -65
-13 -55 -7 10 -10 -1 -10 -37 0 -29 -4 -53 -10 -53 -5 0 -10 21 -10 48 0 59
-19 38 -21 -23 0 -32 -2 -36 -9 -20 l-9 20 -1 -20 -1 -20 -9 20 c-5 11 -9 42
-9 68 -1 29 -5 46 -11 42 -5 -3 -10 -26 -10 -51 0 -24 -4 -44 -10 -44 -6 0
-10 31 -10 74 0 41 -3 81 -6 90 -12 32 -24 15 -24 -33 0 -28 -4 -53 -10 -56
-5 -3 -11 -43 -12 -88 l-2 -82 -5 75 -6 75 -8 -47 c-10 -57 -27 -63 -27 -10 0
27 -3 33 -10 22 -6 -10 -10 21 -12 95 l-3 110 -11 -115 -11 -115 -1 124 c-1
68 -4 122 -7 119 -3 -3 -9 -57 -14 -119 -8 -111 -8 -109 -11 101 l-3 215 -8
-203 c-4 -112 -9 -205 -12 -208 -3 -3 -8 39 -12 93 -9 143 -13 144 -14 3 -1
-69 -6 -132 -11 -140 -5 -8 -10 -10 -11 -5 -1 6 -5 -8 -8 -30 -6 -32 -9 -16
-16 75 l-9 115 -12 -75 -11 -75 -4 155 c-3 150 -3 152 -9 60 l-6 -95 -3 70 -4
70 -7 -55 c-5 -30 -9 -84 -10 -120 -2 -62 -3 -63 -11 -25 -4 22 -9 105 -10
185 l-3 145 -6 -100 c-5 -90 -6 -94 -11 -45 -5 50 -6 47 -9 -35 l-4 -90 -6 85
c-6 85 -6 85 -9 -45 -4 -155 -17 -128 -22 45 l-3 115 -6 -135 c-4 -91 -7 -114
-9 -70 -2 36 -6 90 -11 120 -8 62 -8 65 -20 -130 l-7 -115 -1 107 c-2 110 -18
156 -25 71 -3 -48 -3 -48 -7 12 l-3 60 -9 -65 c-4 -36 -12 -108 -16 -160 -9
-95 -9 -95 -12 75 -2 94 -5 152 -7 130 -5 -50 -23 -71 -24 -30 -1 30 -1 30 -9
5 l-8 -25 -1 28 c-1 38 -19 34 -24 -5 l-4 -33 -3 35 -3 35 -7 -40 c-6 -34 -7
-29 -9 34 -2 122 -13 73 -20 -96 l-8 -158 -2 125 c-2 80 -5 118 -11 105 -7
-15 -9 -8 -11 30 -1 28 -3 39 -6 25 -13 -86 -28 -140 -34 -123 -5 11 -8 0 -10
-32 -1 -27 -7 15 -14 95 l-12 145 -4 -150 -3 -150 -5 105 -6 105 -5 -140 -6
-140 -4 205 -4 205 -6 -165 -6 -165 -3 140 c-2 77 -7 185 -11 240 l-7 100 -2
-140 c-3 -155 -17 -349 -19 -273 -3 69 -15 93 -23 43 -5 -34 -7 -29 -9 30 -1
39 -6 149 -9 245 l-7 175 -4 -165 c-1 -103 -5 -152 -10 -130 -7 32 -8 29 -11
-25 -2 -54 -3 -50 -9 35 l-6 95 -4 -115 -4 -115 -6 100 -6 100 -4 -105 -3
-105 -8 130 c-3 72 -8 157 -9 190 -4 107 -11 33 -19 -211 l-8 -239 -1 203 c-1
118 -6 202 -11 202 -6 0 -12 17 -14 38 -2 20 -5 -3 -7 -53 -3 -81 -4 -85 -10
-40 -6 43 -7 37 -11 -50 -3 -87 -4 -78 -9 75 l-6 175 -2 -209 c-1 -115 -5
-207 -8 -203 -3 3 -9 48 -14 99 l-7 93 -3 -145 c-4 -227 -18 -108 -21 175 -2
233 -3 236 -10 100 -3 -77 -8 -198 -9 -270 -2 -94 -5 -117 -10 -85 -7 43 -7
42 -10 -25 -3 -66 -4 -63 -10 40 -4 61 -9 200 -10 310 l-3 200 -8 -160 c-9
-182 -15 -235 -18 -156 -2 75 -12 58 -21 -36 l-7 -78 -2 67 c-2 111 -21 92
-21 -21 0 -83 -3 -101 -15 -101 -9 0 -15 10 -16 28 l-1 27 -7 -30 c-11 -50
-21 -5 -22 98 -1 85 -2 88 -9 39 -9 -64 -19 -78 -21 -31 -1 19 -5 122 -9 229
l-6 195 -3 -135 c-2 -87 -6 -124 -11 -105 -5 19 -9 -20 -11 -110 l-3 -140 -6
165 -6 165 -4 -130 c-3 -105 -5 -119 -10 -75 -6 48 -7 41 -10 -55 l-4 -110 -6
115 -6 115 -2 -154 c-1 -85 -5 -151 -9 -148 -3 4 -12 2 -20 -4 -11 -10 -13 10
-15 112 l-2 124 -6 -95 -6 -95 -2 134 c-1 74 -5 131 -9 127 -4 -3 -10 -64 -13
-134 -7 -125 -7 -126 -9 -37 -2 61 -5 84 -11 70 -6 -14 -9 5 -11 60 -2 51 -5
18 -9 -90 l-6 -170 -3 235 c-5 285 -18 224 -21 -95 l-2 -210 -15 75 c-8 41
-18 120 -22 175 -8 96 -8 94 -9 -73 -1 -102 -6 -171 -11 -168 -5 4 -12 0 -14
-6 -3 -7 -6 37 -8 97 -1 61 -4 99 -6 86 -4 -19 -7 -21 -14 -10 -6 10 -9 0 -10
-31 l-2 -45 -7 45 c-6 41 -7 39 -9 -30 -2 -41 -6 -86 -10 -100 -7 -23 -8 -21
-14 15 -4 22 -7 110 -7 195 -1 145 -2 153 -15 121 -9 -20 -15 -68 -16 -120 -2
-165 -18 -18 -20 189 l-2 195 -8 -214 c-5 -118 -12 -222 -16 -230 -4 -9 -12
54 -18 139 -11 149 -12 152 -15 70 l-4 -85 -6 110 c-5 99 -6 90 -10 -100 -4
-199 -4 -204 -10 -90 -3 66 -7 98 -9 70 -5 -106 -20 -90 -22 25 l-2 115 -8
-80 c-12 -118 -17 -121 -18 -15 -1 52 -4 140 -8 195 -9 138 -21 88 -22 -97 -1
-86 -5 -149 -11 -153 -6 -3 -11 -41 -11 -83 -1 -71 -2 -74 -10 -32 -4 25 -8
68 -10 95 -2 48 -2 49 -9 15 -4 -21 -9 46 -11 165 l-3 200 -7 -235 c-3 -129
-7 -284 -8 -344 0 -60 -4 -107 -7 -104 -3 3 -10 73 -16 154 -5 82 -13 187 -17
234 -8 84 -8 83 -11 -60 -2 -119 -4 -134 -10 -85 -10 77 -35 174 -49 188 -6 6
-12 43 -13 82 l-1 70 -9 -95 c-5 -52 -12 -180 -17 -285 l-8 -190 -2 145 c-2
92 -6 138 -11 125 -6 -15 -9 -4 -10 40 l-2 60 -8 -48 c-12 -66 -20 -70 -22
-11 -1 47 -2 47 -8 -16 -6 -61 -7 -58 -9 45 -2 75 -6 100 -11 80 -7 -27 -8
-25 -10 20 -1 28 -6 111 -9 185 l-8 135 -3 -140 c-4 -136 -5 -134 -10 80 l-6
220 -3 -180 c-2 -159 -14 -297 -21 -255 -2 8 -6 107 -10 220 l-6 205 -4 -350
c-3 -269 -5 -322 -10 -230 -4 66 -9 125 -11 130 -1 6 -6 -42 -9 -105 l-6 -115
-4 140 -4 140 -6 -175 -6 -175 -3 205 c-3 219 -17 241 -22 35 l-2 -120 -7 115
c-4 63 -9 169 -11 235 -2 78 -4 98 -6 58 -2 -35 -8 -63 -13 -63 -6 0 -11 -82
-12 -202 -2 -186 -3 -193 -8 -83 -3 66 -7 98 -9 70 -2 -38 -4 -45 -11 -30 -7
15 -9 8 -11 -30 -2 -27 -6 42 -9 155 l-6 205 -3 -260 c-5 -329 -18 -243 -21
140 -3 434 -14 505 -22 154 -8 -317 -20 -412 -33 -254 -11 147 -20 165 -29 58
-4 -51 -12 -95 -17 -98 -5 -4 -10 -52 -10 -108 -1 -64 -4 -89 -8 -67 l-7 35
-11 -30 c-11 -28 -11 -26 -12 33 -1 34 -5 62 -11 62 -6 0 -11 81 -12 218 l-2
217 -6 -205 c-4 -153 -7 -185 -11 -125 -4 73 -5 67 -8 -55 -2 -86 -6 -122 -11
-100 -10 54 -18 20 -27 -125 -8 -130 -8 -129 -13 125 l-5 255 -8 -211 c-9
-249 -24 -329 -28 -154 -2 100 -3 107 -9 55 -4 -33 -8 93 -10 280 l-3 340 -9
-240 c-8 -240 -22 -424 -28 -355 -1 19 -6 123 -10 230 l-6 195 -4 -325 c-4
-344 -9 -336 -29 35 -7 147 -7 148 -11 55 -2 -52 -5 -80 -7 -62 -9 67 -23 28
-24 -65 l-2 -98 -8 95 c-12 137 -16 146 -19 45 -1 -62 -4 -82 -10 -65 l-8 25
-3 -25 c-4 -45 -16 122 -20 280 l-3 155 -6 -140 c-5 -131 -6 -134 -10 -55 -4
72 -5 60 -10 -75 l-6 -160 -3 225 -4 225 -12 -130 c-8 -71 -14 -186 -16 -255
l-2 -125 -7 105 c-4 58 -9 184 -11 280 l-3 175 -7 -185 c-3 -102 -7 -227 -8
-277 0 -53 -5 -93 -11 -93 -6 0 -11 66 -13 163 -2 160 -3 159 -5 -53 -4 -242
-19 -262 -23 -30 l-3 145 -6 -135 -6 -135 -3 195 -4 195 -11 -135 c-6 -74 -12
-120 -14 -102 -6 59 -22 33 -24 -40 -1 -40 -5 19 -8 132 l-6 205 -3 -165 c-1
-91 -6 -185 -10 -210 -8 -42 -9 -40 -11 35 l-3 80 -7 -55 c-6 -53 -7 -51 -10
35 l-4 90 -5 -80 c-6 -74 -7 -67 -16 95 -6 96 -11 150 -12 120 -5 -104 -15
-180 -24 -180 -4 0 -10 73 -12 163 -2 145 -3 137 -6 -78 -2 -132 -7 -301 -10
-375 l-8 -135 -1 100 c-1 55 -5 138 -9 185 -7 73 -8 79 -14 45 -4 -28 -7 -9
-9 65 l-4 105 -6 -75 -6 -75 -4 105 c-2 65 -5 86 -7 55 -3 -27 -8 -52 -13 -55
-5 -3 -13 -75 -18 -160 l-9 -155 -3 135 c-3 124 -4 129 -10 60 l-6 -75 -2 65
c-1 36 -6 76 -10 90 -6 22 -8 19 -13 -20 l-6 -45 -1 47 c-2 50 -18 73 -25 36
-2 -13 -6 94 -7 237 l-4 260 -6 -165 c-4 -91 -8 -190 -10 -220 l-3 -55 -7 50
c-4 28 -14 160 -21 295 l-14 245 -6 -280 c-3 -154 -7 -282 -9 -285 -2 -3 -7
31 -10 75 -6 71 -7 63 -9 -70 -4 -188 -18 -149 -20 54 0 79 -4 142 -7 138 -4
-3 -10 -70 -14 -149 l-7 -143 -3 185 c-3 209 -12 184 -26 -72 l-9 -153 -6 115
-5 115 -3 -155 c-3 -126 -5 -144 -11 -95 -4 33 -9 130 -10 215 -1 85 -6 187
-10 225 -6 59 -7 44 -10 -95 -4 -170 -5 -159 -19 178 l-8 197 -3 -250 c-2
-137 -6 -214 -9 -170 -4 79 -5 77 -16 -70 l-12 -150 -4 180 -3 180 -6 -165 -6
-165 -4 220 -4 220 -6 -250 -6 -250 -3 255 c-4 311 -18 385 -21 110 -3 -264
-17 -182 -28 165 -9 257 -9 258 -13 105 l-3 -155 -6 180 -6 180 -3 -245 c-2
-135 -7 -310 -11 -390 l-6 -145 -2 165 c-3 193 -14 260 -23 130 -3 -54 -7 17
-9 190 l-4 275 -6 -185 -6 -185 -4 295 c-3 249 -5 273 -10 155 -5 -128 -6
-133 -10 -60 -3 44 -9 -134 -14 -395 -4 -261 -12 -482 -17 -490 -5 -9 -9 31
-10 105 -2 173 -17 85 -20 -120 l-3 -160 -7 220 c-4 121 -11 276 -15 345 l-9
125 -6 -105 c-3 -65 -7 28 -9 240 l-4 345 -6 -245 c-4 -135 -9 -276 -10 -315
l-3 -70 -7 50 -7 50 -3 -45 c-2 -34 -5 -23 -11 45 -12 132 -24 213 -32 221 -4
4 -8 -82 -8 -192 -1 -109 -5 -246 -9 -304 l-7 -105 -3 170 -4 170 -6 -170 -6
-170 -4 160 -4 160 -6 -190 -6 -190 -4 260 -4 260 -8 -210 c-4 -115 -11 -241
-16 -280 -8 -60 -9 -44 -12 115 -1 102 -6 212 -10 245 -6 50 -8 35 -10 -85 -3
-114 -5 -132 -10 -85 -5 42 -8 4 -11 -130 l-3 -190 -6 230 c-3 127 -7 187 -8
135 -2 -76 -5 -91 -14 -75 -7 12 -13 131 -17 350 -6 360 -17 334 -22 -55 -3
-206 -3 -209 -9 -85 -5 121 -6 113 -10 -110 l-5 -240 -5 310 -5 310 -3 -235
c-4 -271 -19 -409 -21 -190 0 74 -4 214 -9 310 l-7 175 -7 -270 c-4 -148 -11
-301 -16 -340 -10 -81 -11 -78 -22 165 l-6 155 -4 -235 c-3 -214 -4 -225 -11
-130 -4 58 -12 260 -18 449 -5 189 -12 346 -15 349 -4 3 -7 -165 -8 -374 -1
-208 -4 -345 -8 -304 -5 62 -7 67 -9 30 -2 -25 -7 -58 -11 -75 -6 -25 -8 -21
-9 25 -1 30 -5 73 -9 95 -6 33 -8 20 -13 -65 -4 -91 -6 -78 -9 100 l-4 205 -6
-160 -6 -160 -4 240 c-4 227 -4 233 -10 100 -6 -160 -19 -134 -22 45 l-1 105
-7 -105 c-4 -58 -8 -174 -9 -259 0 -85 -4 -151 -8 -148 -3 4 -9 222 -13 484
l-7 478 -3 -435 c-3 -333 -6 -394 -10 -260 l-6 175 -3 -185 c-2 -102 -7 -234
-11 -295 l-7 -110 -3 100 c-1 55 -6 251 -9 435 l-7 335 -4 -375 c-4 -434 -16
-402 -21 55 l-4 300 -5 -300 -5 -300 -5 205 -4 205 -6 -245 c-5 -240 -6 -237
-10 170 l-5 415 -5 -315 c-3 -173 -7 -306 -10 -295 -2 11 -7 -29 -10 -90 -5
-87 -7 -54 -10 160 l-4 270 -6 -230 -6 -230 -2 315 c-2 173 -7 324 -12 335 -6
14 -9 2 -11 -45 -2 -36 -6 2 -9 85 -5 136 -6 123 -10 -140 l-5 -290 -5 315 -5
315 -5 -250 -4 -250 -6 155 c-5 143 -6 135 -8 -104 -1 -143 -5 -257 -8 -254
-3 4 -9 159 -13 345 l-8 338 -3 -310 c-3 -402 -15 -548 -20 -245 -2 130 -6
197 -10 170 -4 -25 -8 -43 -10 -40 -2 3 -6 145 -10 315 l-6 310 -4 -290 -4
-290 -6 185 c-4 145 -6 100 -8 -209 -1 -217 -5 -392 -8 -388 -3 3 -9 254 -13
559 l-8 553 -3 -365 c-2 -210 -6 -331 -10 -285 -4 54 -7 0 -9 -170 -2 -165 -6
-235 -12 -205 -4 25 -9 74 -10 110 l-3 65 -6 -75 c-5 -53 -8 -9 -10 155 l-5
230 -5 -330 -5 -330 -4 400 c-2 220 -7 454 -11 520 -4 77 -8 -86 -11 -450 -2
-340 -5 -459 -6 -295 -2 162 -7 278 -13 284 -6 6 -11 110 -12 256 l-1 245 -7
-201 c-4 -111 -11 -207 -16 -215 -5 -8 -11 -77 -15 -154 -5 -129 -6 -120 -8
105 -4 285 -17 383 -21 150 -1 -85 -6 -220 -10 -300 l-6 -145 -3 115 c-2 63
-7 196 -10 295 l-7 180 -4 -285 -5 -285 -5 285 -5 285 -3 -307 c-1 -197 -6
-308 -12 -308 -6 0 -10 59 -10 156 0 101 -3 153 -10 149 -6 -4 -11 43 -12 132
l-2 138 -6 -145 -5 -145 -7 235 c-5 129 -9 325 -10 435 -1 110 -5 -34 -9 -320
-4 -286 -11 -603 -16 -705 l-8 -185 -7 205 c-5 113 -12 329 -16 480 -9 287
-10 287 -21 0 -6 -140 -8 -79 -11 310 l-4 485 -11 -780 c-6 -429 -13 -699 -15
-600 -1 99 -6 349 -9 555 l-7 375 -4 -380 c-4 -358 -5 -368 -10 -165 l-5 215
-5 -205 c-5 -185 -6 -167 -10 175 l-5 380 -5 -315 c-5 -309 -6 -311 -10 -120
l-4 195 -6 -175 c-5 -162 -6 -151 -10 145 l-4 320 -7 -270 c-8 -344 -11 -386
-19 -255 -4 76 -7 21 -10 -200 l-5 -305 -5 320 c-3 196 -7 277 -10 210 -4 -92
-5 -73 -10 110 -5 186 -6 146 -10 -255 -4 -457 -5 -465 -10 -215 -6 224 -24
759 -33 980 -2 39 -5 -157 -6 -435 -3 -376 -6 -476 -12 -390 -5 63 -13 116
-19 118 -6 2 -10 121 -11 350 l0 347 -19 -75 c-17 -66 -19 -122 -22 -470 -3
-365 -3 -349 -8 225 l-5 620 -5 -390 c-4 -326 -5 -361 -10 -215 -5 157 -6 141
-10 -160 -4 -333 -4 -334 -11 -145 -3 105 -8 327 -10 495 -3 286 -4 274 -9
-195 l-5 -500 -5 485 -5 485 -5 -330 c-5 -319 -6 -311 -10 245 -5 574 -5 574
-10 225 l-5 -350 -5 335 -5 335 -4 -480 c-2 -264 -7 -538 -10 -610 -7 -126 -8
-123 -10 100 -5 326 -18 233 -22 -145 -2 -268 -3 -295 -10 -180 -3 74 -8 281
-9 460 -1 179 -5 348 -10 375 -4 30 -9 -101 -11 -335 l-4 -385 -5 280 c-4 193
-7 244 -10 165 l-4 -115 -6 100 c-3 67 -7 87 -10 60 -3 -22 -8 94 -13 259 -4
164 -10 303 -13 308 -4 6 -10 5 -15 -3 -5 -8 -10 229 -11 546 -3 529 -3 510
-10 -360 -7 -905 -17 -1398 -29 -1409 -15 -15 -22 318 -29 1304 l-6 1065 -4
-1140 c-3 -642 -7 -1013 -10 -850 l-5 290 -4 -365 c-4 -328 -5 -348 -11 -200
-4 91 -11 311 -16 490 l-9 325 -11 -400 -10 -400 -5 470 c-3 458 -4 463 -9
190 -3 -154 -6 -272 -8 -261 -1 11 -7 16 -16 13 -22 -8 -24 32 -37 528 -6 253
-13 462 -15 464 -2 2 -5 -142 -6 -320 -2 -211 -4 -279 -8 -194 -4 121 -5 114
-10 -105 -4 -187 -6 -128 -9 285 -2 286 -7 606 -10 710 -7 183 -7 178 -9 -135
-6 -974 -26 -1586 -33 -1005 -2 150 -4 172 -9 105 -3 -47 -8 115 -10 360 l-4
445 -7 -370 c-3 -203 -8 -426 -9 -495 l-3 -125 -7 95 c-4 52 -8 153 -9 224 -1
145 -13 160 -22 28 -3 -48 -7 116 -9 363 -3 309 -6 403 -10 300 -5 -126 -6
-97 -10 175 l-4 325 -7 -325 c-3 -179 -8 -521 -9 -760 l-4 -435 -6 680 c-7
660 -13 825 -31 825 -5 0 -10 -197 -11 -437 l-3 -438 -5 305 c-3 168 -7 267
-9 220 -2 -47 -7 -170 -10 -275 l-7 -190 -2 255 c-2 169 -6 250 -12 240 -6 -9
-11 -232 -12 -565 l-3 -550 -5 710 -5 710 -3 -519 c-1 -286 -5 -516 -9 -512
-4 3 -10 507 -13 1119 l-6 1112 -5 -925 -4 -925 -5 635 -5 635 -3 -810 c-1
-528 -6 -805 -12 -795 -6 10 -11 -83 -12 -275 l-3 -290 -5 365 -5 365 -5 -300
-4 -300 -6 190 c-5 168 -6 177 -9 80 l-4 -110 -8 85 c-4 47 -9 393 -10 770 -3
592 -4 623 -6 233 -2 -291 -7 -453 -13 -453 -6 0 -11 -96 -12 -257 -2 -240 -3
-231 -8 127 l-5 385 -10 -450 c-9 -419 -10 -436 -15 -250 l-6 200 -3 -255
c-14 -939 -17 -961 -21 -135 -3 474 -7 708 -10 565 l-5 -245 -5 280 -5 280 -5
-295 c-3 -162 -7 236 -10 885 l-5 1180 -3 -1240 c-1 -682 -5 -1271 -10 -1310
-4 -46 -9 68 -12 325 l-5 395 -5 -630 c-2 -346 -7 -585 -9 -530 l-5 100 -6
-130 c-3 -71 -7 139 -8 467 -1 385 -6 599 -12 603 -7 4 -10 -56 -10 -173 0
-98 -3 -262 -7 -363 l-8 -184 -5 170 -6 170 -4 -210 -4 -210 -6 245 c-4 135
-8 513 -10 840 -4 792 -13 957 -22 410 -5 -228 -9 -530 -10 -670 -2 -140 -5 2
-8 315 l-5 570 -4 -580 c-1 -319 -6 -605 -11 -635 -7 -54 -7 -53 -10 35 -2 50
-6 421 -9 825 l-7 735 -4 -1115 c-3 -746 -6 -993 -10 -745 -3 219 -7 317 -10
240 -3 -118 -4 -107 -11 110 -3 132 -8 362 -9 510 -5 442 -17 181 -27 -575 -7
-630 -8 -655 -14 -380 -3 162 -8 518 -9 790 l-3 495 -7 -293 c-4 -161 -10
-296 -14 -299 -3 -4 -7 68 -8 158 -1 151 -2 142 -9 -98 -14 -438 -15 -451 -19
-253 -4 152 -6 116 -10 -195 l-5 -380 -5 435 c-2 256 -6 394 -10 335 -3 -55
-8 181 -10 525 l-4 625 -6 -430 c-4 -236 -10 -639 -14 -895 -7 -468 -12 -597
-24 -585 -4 4 -9 687 -12 1518 l-5 1512 -8 -1370z"/>
</g>
</svg>
