<?xml version="1.0" standalone="no"?>
<!DOCTYPE svg PUBLIC "-//W3C//DTD SVG 20010904//EN"
 "http://www.w3.org/TR/2001/REC-SVG-20010904/DTD/svg10.dtd">
<svg version="1.0" xmlns="http://www.w3.org/2000/svg"
 width="3600.000000pt" height="1200.000000pt" viewBox="0 0 3600.000000 1200.000000"
 preserveAspectRatio="xMidYMid meet">
<metadata>
Created by potrace 1.16, written by Peter Selinger 2001-2019
</metadata>
<g transform="translate(0.000000,1200.000000) scale(0.100000,-0.100000)"
fill="#000000" stroke="none">
<path d="M98 9275 c-3 -341 -11 -699 -16 -795 -6 -96 -11 -202 -13 -235 -1
-33 -6 147 -9 400 -10 650 -23 778 -30 285 l-5 -375 -5 525 c-3 429 -5 489
-10 330 -9 -247 -9 -4789 -1 -6320 l7 -1155 3 900 c2 495 5 893 8 884 2 -9 8
-788 12 -1730 l8 -1714 3 1355 c2 745 6 1337 9 1315 3 -22 8 149 11 380 5 358
6 295 9 -430 l4 -850 8 690 c6 556 18 1079 30 1310 4 71 17 -158 20 -350 l4
-210 5 285 c5 271 6 261 10 -215 l4 -500 7 360 c3 198 8 583 10 855 l3 495 7
-580 c3 -319 8 -659 9 -755 l4 -175 6 120 c4 66 9 325 11 575 1 257 6 409 9
350 l6 -105 4 75 3 75 8 -90 c4 -49 8 -358 10 -685 4 -557 4 -533 9 375 5 886
6 923 9 425 5 -555 13 -535 22 50 4 252 3 258 18 -390 l8 -365 4 395 c3 372 4
382 9 170 l6 -225 3 210 c2 124 6 200 11 185 6 -20 9 -14 11 30 2 32 6 3 9
-70 5 -98 7 -59 10 180 2 168 6 280 9 250 l5 -55 6 65 c4 39 8 -44 11 -205 l4
-270 5 300 c5 287 6 277 10 -230 4 -454 5 -494 10 -280 l6 250 4 -180 4 -180
8 300 c4 165 12 388 16 495 l8 195 4 -130 4 -130 6 95 c4 55 8 -81 10 -325 3
-288 6 -373 10 -270 3 83 8 139 11 125 4 -14 7 45 9 130 1 85 6 261 9 390 l7
235 4 -345 c4 -359 4 -359 20 60 3 88 8 68 19 -90 l8 -115 2 103 c0 60 5 102
11 102 6 0 11 -15 11 -32 1 -18 5 -107 9 -198 l6 -165 3 160 c2 88 7 210 11
270 7 109 7 110 10 35 l3 -75 6 55 c5 40 9 -1 17 -150 l11 -205 1 142 c1 82 6
144 12 148 6 3 10 -5 10 -19 0 -14 5 -28 10 -31 7 -4 11 78 12 237 l1 243 8
-205 c5 -113 13 -261 17 -330 l9 -125 2 193 c0 120 5 192 11 192 6 0 10 -35
10 -86 0 -54 4 -83 10 -79 6 4 11 -14 11 -47 1 -29 5 -141 9 -248 6 -179 7
-186 10 -85 4 99 5 91 10 -80 5 -173 6 -159 9 150 1 187 5 335 7 329 3 -7 9
-41 13 -75 8 -58 9 -53 10 61 1 69 6 132 11 140 12 19 11 35 19 -250 l7 -225
3 190 c2 119 6 178 11 157 13 -57 20 -48 22 34 1 43 5 -20 8 -141 l6 -220 2
195 c2 130 6 190 12 180 7 -10 10 30 12 125 l2 140 6 -165 c3 -91 7 -149 9
-130 l3 35 8 -30 c5 -19 9 33 11 135 l3 165 6 -210 6 -210 4 295 c3 265 4 281
11 160 3 -74 8 -189 10 -255 2 -88 4 -105 8 -65 5 47 6 40 11 -50 l5 -105 11
185 11 185 2 -150 c2 -82 6 -190 10 -240 7 -89 7 -88 14 80 4 94 11 193 16
220 l8 50 3 -40 3 -40 7 45 c5 30 8 -7 10 -115 l4 -160 5 167 c3 91 9 170 14
174 4 4 8 -42 8 -102 l1 -109 14 99 c7 54 15 101 18 103 7 7 16 -126 25 -352
l8 -210 4 375 4 375 5 -275 5 -275 3 280 c1 154 6 286 11 293 8 13 21 -153 21
-272 0 -109 14 -47 20 92 l7 137 2 -155 c0 -85 6 -162 11 -170 7 -10 10 28 10
116 0 108 3 133 15 138 11 4 16 23 17 73 2 64 2 62 8 -27 l6 -95 3 80 c8 208
17 197 24 -30 4 -126 10 -275 14 -330 11 -164 21 -50 23 265 2 278 15 420 21
225 l3 -100 6 115 6 115 4 -100 4 -100 5 80 c12 158 21 41 22 -268 1 -172 4
-350 8 -397 6 -58 9 35 12 295 2 298 4 345 9 220 5 -143 6 -126 10 155 4 296
5 304 10 135 5 -171 15 -215 23 -95 2 34 4 15 6 -50 2 -58 7 -136 11 -175 6
-61 7 -50 10 80 5 229 17 81 20 -245 l3 -265 8 255 c13 407 15 427 19 200 l3
-215 8 135 c5 74 13 191 17 260 l9 125 3 -195 c3 -152 5 -177 10 -115 4 57 7
12 10 -155 l3 -235 8 320 c12 475 15 492 19 135 4 -273 5 -301 10 -175 l6 150
3 -180 c4 -167 5 -173 12 -90 4 50 8 203 10 340 2 164 5 221 9 165 4 -63 7
-76 11 -50 3 19 7 -60 7 -177 1 -129 6 -214 12 -218 6 -4 11 6 11 22 1 15 5
93 9 173 l6 145 3 -210 c4 -307 17 -383 21 -120 1 116 6 296 9 400 l7 190 4
-240 c2 -165 6 -217 10 -165 5 59 7 38 10 -105 l3 -180 7 115 c4 63 9 201 10
305 l3 190 11 -205 11 -205 5 155 6 155 2 -209 c1 -115 5 -206 8 -203 4 4 10
149 14 324 l7 318 3 -400 c4 -410 6 -412 29 -20 7 110 14 202 17 204 2 2 4
-76 5 -175 0 -98 4 -188 9 -199 5 -13 9 32 10 120 1 77 5 178 9 225 7 72 8 51
12 -130 l3 -215 6 180 c6 201 9 201 19 5 l8 -135 2 190 c1 105 6 199 11 210 6
14 9 1 9 -45 1 -36 4 -90 8 -120 l6 -55 13 30 c12 27 13 16 14 -95 0 -99 3
-122 13 -112 8 9 14 78 18 240 3 125 6 189 7 142 1 -48 6 -90 12 -96 5 -5 11
-66 13 -134 l3 -125 3 130 c2 83 6 121 11 105 6 -18 9 -2 10 55 2 63 4 73 10
45 5 -24 8 -29 11 -15 1 11 6 -32 9 -95 l6 -115 4 120 c2 96 5 110 10 70 l7
-50 1 44 c4 93 15 25 22 -126 l7 -158 2 160 c1 88 6 180 10 205 l8 45 6 -35
c4 -19 11 -111 15 -205 l8 -170 8 193 c5 106 10 191 12 189 2 -2 8 -37 13 -78
l8 -74 4 60 3 60 6 -75 6 -75 3 100 c3 91 4 96 12 55 6 -25 14 -72 18 -105 l8
-60 2 90 c2 76 16 154 21 120 1 -5 5 1 9 15 5 17 12 -21 20 -110 17 -185 18
-186 22 -20 2 117 4 133 9 80 l7 -65 3 95 c2 59 5 82 9 60 4 -30 6 -25 11 30
5 45 7 16 8 -98 1 -91 6 -161 11 -158 5 3 12 63 16 133 7 129 16 141 31 43 l8
-55 7 45 c4 29 7 0 7 -82 1 -72 6 -128 11 -128 6 0 12 -15 14 -32 2 -18 5 -5
5 30 1 34 7 62 12 62 6 0 11 54 12 138 l2 137 5 -125 4 -125 12 145 12 145 3
-170 c3 -125 5 -152 9 -100 l6 70 9 -65 c4 -36 12 -69 16 -75 5 -5 10 -23 13
-40 2 -16 6 44 8 135 l3 165 6 -170 6 -170 3 190 c3 215 18 228 22 20 1 -71 4
-107 6 -80 2 28 8 54 14 60 5 5 10 41 10 80 l2 70 9 -90 c17 -175 25 -193 29
-65 3 114 3 114 9 40 4 -41 7 -62 8 -46 1 16 5 26 9 22 5 -4 11 -67 14 -139 5
-127 6 -123 9 88 2 121 5 195 7 165 3 -30 8 -59 14 -66 5 -6 12 -74 16 -150
l8 -139 8 85 c4 47 11 135 16 195 7 101 8 93 9 -110 1 -121 7 -227 12 -235 7
-10 10 22 10 101 0 64 3 152 7 195 6 76 7 78 19 49 l13 -30 2 35 c1 27 3 23 9
-20 4 -30 10 -73 15 -95 6 -33 9 -37 15 -20 5 11 9 35 9 53 1 19 5 31 11 27 6
-4 10 18 11 57 2 107 16 136 19 38 1 -47 6 -112 10 -145 6 -52 8 -41 11 75 l3
135 6 -120 c4 -81 7 -100 9 -60 1 33 5 53 8 45 2 -8 8 -24 13 -35 5 -11 11
-31 13 -45 2 -14 5 26 6 88 0 67 5 112 11 112 6 0 10 -35 10 -85 0 -50 4 -85
10 -85 6 0 10 15 10 33 0 23 3 28 10 17 6 -10 10 5 13 50 3 57 4 53 6 -30 4
-143 19 -166 20 -32 1 66 5 111 10 108 5 -4 12 0 14 6 3 7 7 -54 8 -137 2 -92
4 -120 6 -72 2 42 8 77 13 77 6 0 11 50 12 118 1 90 3 104 8 62 5 -46 7 -50
11 -25 3 17 7 -26 9 -95 3 -133 17 -127 19 9 1 64 3 72 16 61 12 -10 15 -39
16 -134 2 -143 5 -135 23 45 l13 134 3 -170 c2 -204 18 -186 19 23 1 93 5 141
11 137 6 -3 11 -16 11 -28 1 -17 3 -15 9 8 5 19 8 -22 10 -110 3 -198 17 -226
20 -40 2 113 5 139 11 105 17 -96 34 -169 42 -176 4 -4 8 13 9 37 1 24 5 -14
8 -86 l6 -130 2 180 c2 121 6 175 12 165 7 -10 10 23 11 105 l2 120 8 -105 c5
-58 13 -134 18 -170 8 -60 8 -55 11 70 2 127 3 133 15 95 8 -22 15 -89 16
-150 2 -102 3 -105 9 -45 l7 65 3 -90 4 -90 6 90 c4 64 7 80 11 55 4 -26 7
-16 9 40 4 63 5 53 10 -60 l6 -135 4 165 4 165 6 -115 c5 -105 6 -109 10 -45
l4 70 6 -85 c6 -77 7 -70 10 75 3 142 4 151 10 75 5 -82 6 -83 10 -30 4 46 7
37 14 -62 13 -182 35 -143 37 67 2 161 17 64 20 -130 2 -124 3 -139 9 -85 4
36 8 112 9 170 1 58 6 112 11 120 6 10 10 -50 12 -180 1 -145 3 -174 8 -115
l6 80 4 -85 3 -85 7 105 c4 58 9 150 11 205 l3 100 6 -90 c4 -51 7 -71 8 -45
2 33 5 41 12 30 7 -11 10 -1 11 35 0 28 4 59 9 70 6 13 9 -21 10 -95 2 -121 4
-127 16 -45 7 47 8 48 15 20 4 -19 8 9 9 80 3 105 3 107 10 45 4 -36 9 -94 10
-130 3 -71 6 -59 16 74 6 95 23 102 25 11 0 -37 3 -45 9 -30 7 16 9 10 11 -25
2 -35 4 -29 9 30 4 41 7 58 8 37 1 -21 6 -36 11 -33 10 7 20 -73 22 -184 l2
-85 8 90 c14 158 28 277 34 283 3 3 5 -24 6 -59 1 -35 4 -89 9 -119 7 -51 7
-48 10 45 2 78 4 90 9 55 4 -25 12 -54 19 -65 9 -17 12 -7 13 60 2 140 14 152
24 25 7 -77 11 -102 14 -75 l5 40 6 -45 c6 -41 7 -38 10 30 l2 75 10 -55 c12
-67 23 -81 33 -43 l8 28 7 -30 c6 -24 8 -19 9 28 1 67 21 78 21 12 0 -25 5
-45 10 -45 6 0 10 31 11 73 1 104 14 128 22 42 4 -39 7 -88 8 -110 l1 -40 13
40 13 40 3 -60 3 -60 3 50 c3 35 7 45 13 35 8 -13 10 -12 10 3 0 9 4 17 10 17
5 0 11 30 13 68 2 43 4 19 7 -68 2 -74 5 -116 7 -92 2 23 8 42 14 42 5 0 10
33 11 73 0 39 3 56 5 37 1 -19 6 -60 10 -90 l8 -55 6 80 5 80 2 -85 c3 -98 20
-94 24 5 l2 60 5 -70 6 -70 8 64 c5 35 11 61 14 58 2 -3 8 -48 13 -99 l7 -93
3 100 c1 66 5 90 9 70 6 -25 9 -18 15 40 12 111 13 108 17 -30 l3 -130 6 140
c3 77 7 118 8 90 1 -27 5 -68 9 -90 6 -36 7 -38 14 -15 4 14 8 43 8 65 1 30 4
36 11 25 5 -8 11 -58 12 -110 l2 -95 5 105 6 105 9 -90 c13 -136 24 -147 27
-25 l2 105 8 -110 c12 -156 16 -158 20 -10 3 126 3 128 8 45 5 -69 7 -79 14
-51 4 18 7 62 7 97 0 87 20 94 21 7 1 -37 5 -99 9 -138 l7 -70 1 84 c3 126 16
88 23 -62 l5 -132 4 140 c1 82 5 125 9 105 6 -34 7 -33 14 20 4 30 7 70 7 88
0 20 4 31 10 27 6 -3 10 -32 11 -63 0 -31 4 -77 8 -102 8 -44 9 -43 11 25 1
52 4 63 10 45 6 -19 9 -9 11 40 l2 65 7 -55 c6 -53 7 -53 10 -15 3 42 4 38 27
-155 8 -60 9 -62 16 -31 4 18 7 46 7 62 0 16 5 29 10 29 6 0 10 18 10 41 0 24
4 38 10 34 6 -3 10 4 11 17 2 46 17 -23 20 -92 3 -59 3 -56 9 35 4 72 7 84 8
43 1 -32 7 -58 12 -58 6 0 11 -40 11 -97 l2 -98 11 100 c7 55 15 91 18 80 3
-11 7 23 9 75 l3 95 5 -95 6 -95 9 57 c4 32 12 55 17 53 4 -3 10 12 12 32 3
28 4 23 5 -20 1 -36 6 -56 12 -52 6 3 11 0 11 -7 1 -7 5 5 9 27 7 39 7 38 10
-20 4 -59 4 -58 10 25 l6 85 2 -87 c2 -93 22 -126 22 -36 0 57 9 58 20 1 l8
-38 3 45 c2 29 5 11 9 -50 l6 -95 2 87 c2 101 22 133 22 36 0 -44 3 -59 10
-48 5 8 10 31 10 50 0 26 3 31 10 20 7 -11 10 -7 11 20 l2 35 7 -35 c5 -24 8
-28 9 -12 0 13 5 21 10 17 6 -3 11 12 13 32 2 21 7 -8 12 -67 6 -58 11 -96 12
-85 2 11 6 52 11 90 l8 70 6 -65 6 -65 2 60 c3 81 19 45 21 -50 3 -98 17 -47
20 70 l3 90 8 -68 c4 -38 12 -82 18 -99 6 -17 11 -49 12 -72 1 -68 17 -11 18
64 1 36 6 72 11 80 7 10 10 -20 12 -95 1 -60 3 -86 5 -57 2 28 8 52 14 52 5 0
10 28 11 63 2 56 2 54 8 -28 l6 -90 2 95 c3 107 20 161 24 70 l1 -55 7 65 7
65 3 -70 3 -70 7 50 c4 28 14 66 23 85 l16 35 2 -100 1 -100 13 50 12 50 12
-75 c7 -41 15 -79 16 -85 2 -5 4 46 4 115 1 85 4 120 11 110 5 -8 10 -37 10
-65 0 -36 3 -46 10 -35 7 11 10 -1 10 -42 0 -59 7 -72 29 -59 8 5 15 47 20
117 5 60 9 93 10 74 1 -27 4 -31 11 -20 8 12 10 10 10 -10 0 -15 6 -32 12 -38
7 -7 18 -48 23 -90 l11 -77 8 104 c5 68 11 99 17 90 5 -8 9 -32 10 -54 1 -30
5 -20 14 40 11 71 13 75 14 33 0 -27 6 -48 11 -48 6 0 10 -14 10 -32 0 -54 12
-22 18 51 6 58 9 69 22 61 8 -5 17 -32 21 -62 l6 -53 2 70 c3 98 19 130 22 45
2 -52 3 -56 6 -22 2 23 8 40 14 37 5 -4 10 9 10 27 1 20 3 25 6 14 4 -15 7
-16 14 -5 6 9 9 -3 10 -36 l1 -50 13 45 13 45 1 -41 c1 -23 7 -47 15 -54 12
-9 16 -5 21 27 14 82 27 92 39 32 8 -40 15 -33 32 28 l13 48 1 -65 c1 -36 5
-90 10 -120 l7 -55 2 80 3 80 19 -40 18 -40 1 65 c1 47 4 59 10 44 5 -12 13
-25 19 -29 6 -3 12 -36 12 -73 l2 -67 8 69 c11 79 27 119 30 71 1 -18 7 -2 14
40 l13 70 1 -67 c0 -38 5 -68 11 -68 6 0 11 -17 11 -37 l2 -38 6 42 c7 43 20
68 22 42 1 -8 4 -3 8 11 6 19 10 7 16 -50 l9 -75 6 60 c6 59 7 59 9 15 2 -25
5 -36 8 -25 2 11 8 31 13 45 4 14 12 39 16 55 7 29 8 28 16 -20 5 -27 12 -84
16 -125 7 -66 9 -71 15 -40 4 19 8 60 10 90 l3 55 8 -54 9 -55 13 45 c8 24 14
66 14 94 0 64 18 48 22 -20 2 -36 7 -50 18 -50 8 0 18 -13 21 -30 5 -22 7 -13
8 32 1 58 13 88 24 61 3 -7 7 5 8 27 2 34 3 31 8 -19 7 -66 27 -87 34 -34 2
18 5 -21 7 -87 2 -100 4 -112 10 -70 5 28 9 97 10 155 2 99 3 102 11 50 17
-108 20 -111 40 -50 l18 55 0 -62 c1 -68 17 -93 25 -41 19 108 24 131 25 106
2 -51 20 -29 24 30 2 44 4 35 6 -38 3 -72 5 -86 11 -60 l7 35 2 -30 3 -30 15
34 c11 26 17 31 23 21 6 -10 10 -6 15 16 12 52 13 50 15 -21 l2 -70 13 50 c14
55 22 47 28 -25 2 -27 5 -9 7 45 3 86 4 87 10 35 4 -36 8 -44 9 -25 5 67 20
71 21 5 2 -48 4 -59 10 -40 4 14 8 19 9 13 1 -7 6 -13 11 -13 6 0 11 32 12 73
l2 72 6 -80 c3 -44 7 -68 8 -53 1 20 6 26 17 22 10 -4 15 -21 15 -53 0 -70 20
-29 21 44 1 83 17 43 20 -50 2 -70 2 -70 9 -20 l6 50 5 -45 c5 -42 6 -41 9 20
3 61 3 62 10 25 l7 -40 2 52 c1 64 20 82 22 21 l2 -43 7 40 7 40 3 -55 3 -55
7 45 7 45 3 -45 3 -45 6 55 7 55 8 -60 c11 -85 14 -89 17 -20 2 57 2 58 9 20
5 -29 8 -33 9 -15 2 23 4 22 16 -10 l13 -35 3 60 3 60 4 -50 5 -50 12 45 13
45 1 -45 c1 -33 4 -41 11 -30 5 8 10 11 11 5 0 -5 5 1 9 15 6 20 9 14 11 -30
2 -48 3 -44 8 30 l6 85 9 -110 c12 -158 24 -172 26 -30 1 66 4 113 7 105 3 -8
12 -19 19 -23 9 -5 14 -26 14 -53 0 -28 4 -43 10 -39 5 3 10 25 10 48 0 66 17
80 25 21 10 -80 13 -82 14 -14 1 71 21 124 21 58 0 -21 5 -38 10 -38 6 0 10
21 11 48 0 40 2 43 10 23 6 -15 15 -21 24 -17 13 4 15 -12 17 -107 1 -105 2
-108 8 -42 4 45 7 56 8 31 3 -66 18 -28 41 104 5 25 9 35 10 23 2 -32 21 -29
21 3 0 51 25 18 31 -42 l6 -59 2 65 c2 55 4 61 12 40 6 -14 14 -52 18 -85 8
-54 9 -56 10 -17 0 23 6 42 11 42 6 0 11 19 11 43 2 33 3 36 6 12 8 -55 23
-52 24 5 2 54 2 55 9 15 4 -22 8 -33 10 -25 1 8 6 -1 10 -20 l7 -35 3 40 c2
39 3 39 10 10 l8 -30 1 28 c0 16 8 35 16 43 13 14 15 10 15 -38 0 -36 3 -48 9
-39 11 17 18 -6 24 -69 1 -19 6 11 11 67 4 57 12 100 17 97 5 -3 9 -20 9 -38
0 -19 7 -47 15 -62 l15 -29 0 32 c0 51 17 47 24 -6 3 -26 9 -51 12 -54 9 -9
44 38 44 60 1 10 7 29 15 43 14 24 14 22 16 -40 l2 -65 7 50 c6 41 7 44 8 15
2 -42 19 -29 25 20 2 23 4 15 5 -24 2 -70 11 -67 28 12 9 43 13 50 14 27 l2
-30 7 30 c7 27 8 24 16 -29 5 -38 10 -53 16 -45 5 8 9 24 9 37 0 12 5 22 10
22 6 0 10 -15 10 -34 0 -55 19 -52 26 4 10 77 24 60 26 -32 l1 -83 7 65 c5 45
7 54 9 30 3 -33 4 -33 11 -10 7 20 8 16 10 -25 2 -47 3 -45 16 35 7 47 14 92
15 100 2 26 17 -34 18 -75 1 -30 4 -36 11 -25 5 8 10 11 10 5 1 -20 30 58 31
84 0 14 3 19 6 11 2 -8 8 -24 13 -35 5 -11 11 -33 13 -50 4 -27 4 -26 6 7 2
59 9 70 32 50 15 -13 19 -30 20 -77 1 -71 17 -125 18 -60 1 22 4 58 8 80 l7
40 7 -30 7 -30 2 35 c1 19 6 46 10 60 7 22 8 20 9 -14 1 -49 7 -44 25 25 l15
54 0 -92 c1 -99 15 -124 27 -45 8 56 14 69 24 51 6 -8 11 1 16 27 l8 39 7 -30
c6 -28 7 -28 8 -5 1 14 6 32 11 40 7 10 10 -8 11 -60 l2 -75 10 65 c11 73 14
70 26 -21 7 -54 9 -57 10 -22 0 23 4 50 8 60 6 16 8 15 14 -7 l7 -25 1 24 c1
24 1 24 16 5 14 -18 14 -18 15 11 1 25 3 27 9 10 l8 -20 5 20 c4 15 6 13 7 -8
1 -29 21 -57 40 -57 6 0 12 23 12 53 1 43 3 47 9 22 l7 -30 5 30 c3 17 6 -6 8
-50 2 -64 4 -73 10 -45 6 27 8 29 9 10 2 -44 21 -6 30 61 l8 64 3 -90 c2 -49
5 -80 7 -67 6 33 23 27 23 -9 0 -50 20 -22 21 29 0 26 4 70 8 97 l7 50 8 -40
c5 -22 14 -47 21 -55 7 -8 15 -24 18 -35 2 -11 6 3 7 30 2 45 3 47 10 20 l8
-30 2 30 2 30 9 -33 c5 -18 14 -30 19 -27 4 3 13 -7 18 -22 8 -25 10 -21 17
36 5 42 10 59 16 50 5 -8 9 -9 9 -4 1 25 20 -24 21 -55 2 -33 2 -32 9 10 5 30
7 36 8 18 2 -33 21 -38 23 -5 1 15 4 10 9 -13 l7 -35 3 40 c2 36 4 33 15 -30
11 -61 13 -65 15 -30 1 22 7 58 14 80 l12 40 12 -47 c7 -26 13 -68 14 -95 1
-44 2 -45 7 -13 4 28 7 19 11 -40 l6 -75 2 82 c1 45 5 89 9 99 6 16 7 16 14
-2 6 -14 8 -8 9 21 1 38 2 39 12 15 l11 -25 7 25 c8 24 8 24 9 3 1 -13 6 -23
11 -23 6 0 11 -8 11 -17 1 -10 5 -2 9 17 7 31 8 29 10 -25 l3 -60 7 45 6 45 5
-35 c4 -23 7 -9 9 45 2 44 5 65 7 47 4 -28 7 -31 19 -21 12 9 14 6 14 -19 0
-39 20 -53 21 -15 0 24 1 25 9 8 6 -16 9 -10 12 25 l5 45 1 -53 c1 -33 6 -51
12 -47 6 3 11 16 11 28 1 12 5 4 9 -18 5 -30 8 -33 9 -13 4 79 31 76 32 -4 l2
-63 11 75 10 75 7 -50 c3 -27 7 -40 7 -28 3 36 17 34 31 -3 10 -29 15 -33 27
-23 8 6 15 30 15 53 1 39 2 40 9 11 7 -29 8 -29 9 10 l2 40 19 -55 c13 -41 18
-49 20 -30 l2 25 7 -25 c7 -24 7 -24 15 -5 l8 20 8 -20 c6 -15 10 -7 17 35 8
42 11 47 12 23 1 -38 17 -44 24 -10 2 12 5 -3 6 -33 3 -65 18 -44 22 30 l2 45
5 -40 c4 -36 6 -38 12 -15 l8 25 1 -27 c1 -34 26 -38 37 -5 l8 22 7 -25 c4
-16 7 -19 8 -7 1 9 6 17 11 17 6 0 11 8 11 18 1 9 5 1 9 -18 7 -31 7 -32 9 -7
1 17 7 27 16 27 8 0 15 8 15 18 0 27 19 -7 21 -38 l1 -25 8 27 c13 42 21 52
31 37 6 -10 9 -6 9 14 0 15 5 27 10 27 6 0 10 -12 10 -27 0 -43 11 -73 26 -73
10 0 14 14 14 47 0 65 10 48 19 -34 l8 -68 3 60 c1 46 4 54 10 35 4 -14 9 -18
10 -10 1 8 6 0 12 -19 7 -26 12 -31 19 -20 5 8 9 24 9 37 0 12 5 22 10 22 6 0
10 -9 10 -20 0 -18 2 -19 20 -8 11 7 20 24 21 38 0 14 3 18 6 10 2 -8 8 -24
13 -35 5 -11 11 -27 13 -35 3 -8 6 -1 8 15 2 27 3 26 9 -10 l7 -40 2 42 c1 36
4 41 21 38 15 -3 20 2 20 18 1 21 1 21 14 -2 13 -23 14 -23 19 -5 4 17 5 17 6
-3 2 -36 21 -37 22 -1 1 31 2 30 12 -12 l10 -45 8 44 c11 58 15 60 24 9 l7
-43 12 50 13 50 7 -80 c10 -104 14 -114 16 -40 1 33 6 71 10 85 7 23 8 23 10
-10 2 -29 3 -31 8 -12 4 13 10 23 15 23 4 -1 12 -1 17 -1 6 0 10 -8 10 -17 0
-15 2 -16 10 -3 8 12 10 12 11 -5 l0 -20 8 20 c8 19 9 18 13 -5 4 -18 6 -14 7
15 l2 40 14 -34 c8 -18 16 -43 16 -55 1 -12 5 -7 9 14 l7 35 3 -35 2 -35 10
43 c11 52 26 54 30 5 l4 -38 11 45 c6 25 11 35 12 23 3 -55 31 -74 31 -20 0
23 3 28 9 18 8 -12 11 -9 16 12 7 26 8 26 21 10 7 -10 14 -27 15 -38 0 -13 4
-9 10 13 16 53 38 35 40 -31 l0 -32 20 43 c19 44 38 48 40 9 1 -18 2 -19 6 -4
4 14 8 16 19 6 11 -9 14 -6 14 17 0 27 1 27 15 8 14 -19 14 -19 16 1 0 11 7
-2 14 -30 11 -45 13 -47 14 -17 0 18 5 31 10 28 5 -4 12 0 14 6 3 7 6 0 7 -17
l2 -30 8 30 c7 27 8 26 9 -16 1 -28 7 -52 16 -59 13 -11 15 -7 16 26 1 38 2
38 9 9 7 -27 8 -24 10 20 l2 50 13 -35 c13 -33 14 -33 21 -12 3 12 10 22 15
22 5 0 10 15 10 33 1 17 7 -8 14 -58 9 -67 12 -79 14 -46 0 24 4 41 9 37 4 -4
12 8 17 28 l11 37 22 -21 22 -21 1 23 c1 18 3 16 10 -10 5 -18 14 -30 19 -27
6 4 10 1 10 -5 0 -6 4 -8 10 -5 5 3 10 15 10 26 0 11 4 17 10 14 6 -3 10 2 11
12 0 11 3 13 6 5 2 -6 9 -10 14 -6 5 3 10 -5 10 -18 1 -16 4 -12 9 12 l7 35 3
-40 c2 -39 3 -39 10 -10 7 28 8 27 10 -15 l3 -45 6 49 c7 58 31 76 32 24 0
-27 2 -29 9 -13 9 22 15 12 23 -35 3 -16 5 -8 7 20 2 42 3 43 10 15 l8 -30 1
32 c1 24 5 31 16 27 10 -4 15 -22 16 -58 0 -28 3 -45 6 -38 2 6 9 10 14 6 5
-3 9 12 9 33 0 28 3 34 10 23 8 -12 10 -12 11 5 l0 20 9 -20 c7 -17 9 -17 9
-2 1 20 17 23 24 5 3 -7 6 -3 6 10 1 37 21 14 22 -26 l2 -37 7 35 7 35 2 -35
c2 -28 4 -31 10 -15 l8 20 5 -20 c4 -15 6 -13 7 8 0 16 5 26 11 22 6 -3 10 3
10 13 0 11 7 22 14 25 11 4 21 -9 35 -46 l20 -52 1 45 c2 38 3 41 10 20 l8
-25 1 28 c1 32 17 36 26 6 6 -17 9 -19 16 -8 5 8 9 10 10 4 0 -5 4 -1 9 10 6
13 9 15 9 5 1 -8 10 -21 21 -28 18 -11 20 -10 21 15 2 22 3 19 9 -12 l7 -40 2
35 c1 19 8 43 15 53 13 17 15 16 21 -15 10 -44 28 -55 36 -20 l6 27 11 -25
c10 -24 11 -24 11 -3 1 35 21 38 21 3 0 -37 22 -37 30 1 5 24 30 39 30 18 0
-5 4 -8 9 -4 5 3 13 0 17 -7 5 -7 10 -3 17 13 5 13 11 19 14 12 2 -7 11 -9 19
-6 8 3 14 0 14 -6 0 -23 30 3 31 28 0 22 3 20 14 -14 l13 -40 1 33 c1 36 18
44 23 10 4 -30 26 -34 30 -6 4 18 6 16 12 -14 9 -40 26 -52 26 -18 0 10 9 24
20 30 17 9 20 8 21 -12 0 -22 1 -22 9 -3 7 17 9 16 9 -11 1 -16 5 -34 10 -40
5 -5 11 -20 14 -34 3 -15 5 -7 6 20 1 33 4 41 11 30 8 -13 10 -12 10 3 0 10 5
15 10 12 6 -4 10 6 11 22 l1 28 13 -30 c12 -26 14 -27 15 -8 0 33 17 37 25 6
5 -20 9 -23 15 -13 6 10 10 3 13 -21 l4 -34 3 35 2 35 8 -30 c7 -28 8 -27 10
15 1 35 3 41 10 25 6 -14 9 -16 10 -5 1 8 5 4 10 -10 l7 -25 11 28 c11 25 32
38 32 19 0 -12 43 -12 57 0 10 8 13 7 13 -2 0 -9 7 -7 20 5 19 18 20 17 20 -5
0 -16 4 -20 15 -16 11 4 15 -2 16 -27 1 -33 3 -30 13 16 7 28 26 38 26 12 0
-8 6 -12 13 -9 8 3 18 -7 24 -23 l11 -28 1 28 c1 17 7 27 16 27 8 0 15 7 15
15 0 8 5 15 10 15 6 0 10 -8 10 -17 0 -15 2 -16 10 -3 9 13 11 13 19 1 7 -11
10 -9 14 10 3 15 5 8 6 -18 1 -31 5 -43 16 -43 8 0 15 8 15 18 0 10 4 22 9 28
5 5 11 18 14 29 4 17 5 16 6 -5 1 -20 3 -22 11 -10 7 12 10 8 11 -15 0 -16 4
-39 9 -50 8 -19 9 -19 9 3 2 48 35 82 44 45 2 -12 7 -7 14 17 7 22 12 27 12
15 1 -17 3 -17 11 -5 7 11 10 6 10 -21 0 -25 4 -36 15 -36 10 0 15 12 16 36
l1 36 8 -30 7 -30 11 25 c6 14 11 19 11 13 1 -22 19 -14 24 10 3 13 5 7 7 -18
2 -35 3 -37 10 -15 7 23 8 23 11 -10 2 -34 2 -34 9 10 7 43 7 43 9 10 l2 -35
16 35 17 35 4 -32 c2 -18 7 -33 13 -33 5 0 9 -12 9 -27 0 -22 2 -25 10 -13 5
8 10 23 10 33 0 10 9 27 20 39 l20 22 1 -30 c1 -16 3 -22 6 -11 2 9 8 17 13
17 5 0 15 3 24 6 12 4 16 0 16 -15 0 -28 20 -27 21 2 0 21 1 21 11 -3 l11 -25
6 33 c6 33 6 33 24 12 9 -11 17 -30 18 -43 1 -12 5 -3 11 21 9 43 27 49 29 9
1 -17 3 -15 9 8 5 20 8 24 9 10 1 -17 3 -18 11 -5 9 13 11 13 20 0 8 -12 10
-10 10 10 0 18 3 21 9 11 7 -11 10 -10 14 5 2 10 5 1 6 -21 l1 -40 20 30 c16
24 20 26 26 12 9 -24 24 -21 25 6 1 20 2 19 11 -6 11 -31 28 -27 29 6 0 21 1
21 9 2 8 -18 9 -18 9 -2 2 34 21 6 22 -31 l1 -37 10 35 c13 47 24 56 39 33 10
-17 16 -19 41 -9 15 6 28 14 28 19 0 19 20 -6 21 -26 1 -19 2 -19 6 -3 4 15 7
16 14 5 7 -11 9 -11 9 2 0 11 8 15 25 14 14 -2 25 1 25 6 0 5 7 9 15 9 8 0 15
-8 15 -19 0 -27 37 -34 60 -11 10 10 21 16 24 13 3 -4 6 -1 6 5 0 22 31 12 40
-14 12 -30 27 -24 46 20 l13 31 1 -27 c0 -26 2 -27 45 -24 40 3 45 1 46 -18 0
-19 1 -19 11 4 10 24 10 24 18 5 l9 -20 1 20 1 20 8 -20 c8 -19 9 -18 13 5 l5
25 2 -24 1 -24 20 23 c13 15 20 18 20 9 0 -11 2 -11 10 1 7 11 10 7 10 -18 0
-40 15 -34 25 10 l8 33 7 -35 c6 -30 8 -31 9 -8 1 25 3 26 30 18 16 -4 32 -6
35 -2 3 3 7 -8 7 -24 1 -20 3 -23 6 -9 2 11 9 30 15 42 l11 22 19 -21 c10 -11
18 -16 18 -11 0 6 9 13 20 16 15 4 20 0 20 -13 0 -11 5 -22 10 -25 5 -3 10 0
10 7 0 9 3 9 8 2 4 -6 17 -10 30 -9 19 1 22 -3 23 -34 l2 -36 6 40 c4 22 12
49 19 60 11 20 11 20 12 -1 0 -21 22 -26 48 -10 6 4 12 2 12 -3 0 -20 20 -11
30 12 8 20 9 21 10 2 1 -11 4 -14 7 -7 6 17 28 15 43 -3 9 -11 16 -12 26 -4 7
6 17 8 23 5 5 -4 13 3 16 14 5 17 10 19 21 9 7 -6 20 -9 28 -6 7 3 19 0 25 -6
8 -8 11 -8 11 0 0 18 40 2 40 -16 1 -12 4 -11 13 6 9 17 16 19 30 12 9 -6 17
-6 18 -2 1 4 5 -3 9 -17 l8 -25 1 24 c1 19 4 21 16 11 8 -6 19 -9 25 -5 6 4
18 -1 25 -11 13 -18 14 -17 15 9 0 16 4 26 9 23 5 -4 12 0 14 6 3 7 6 3 6 -9
1 -25 17 -26 40 -5 8 8 25 12 42 8 17 -3 29 -1 33 7 2 7 5 5 5 -5 1 -14 5 -16
26 -8 16 6 25 6 25 0 0 -12 43 -8 52 5 5 6 8 5 8 -3 0 -7 4 -11 9 -7 5 3 13 0
17 -6 4 -8 9 -7 15 2 6 10 9 11 9 2 0 -19 18 -16 23 5 4 13 5 12 6 -5 2 -32
35 -22 42 13 l7 29 1 -30 c1 -23 3 -27 11 -15 9 13 11 13 20 0 8 -13 10 -12
10 3 0 10 5 15 10 12 6 -3 10 2 11 12 0 16 1 16 9 -2 l9 -20 1 20 c1 18 1 19
11 3 12 -22 32 -23 49 -3 10 12 16 13 26 4 11 -9 18 -8 29 1 12 10 15 9 16 -6
0 -12 3 -14 6 -6 4 10 8 10 20 0 12 -10 17 -9 27 3 14 19 46 21 46 2 0 -19 20
-16 36 4 13 17 13 17 14 -2 1 -19 1 -19 14 -2 12 15 14 16 20 2 8 -21 46 -20
46 2 0 13 3 12 19 -5 23 -27 41 -28 41 -2 0 20 0 20 21 -1 12 -12 24 -17 28
-13 7 11 41 15 41 5 0 -4 18 -7 40 -7 22 1 40 5 40 9 0 5 4 6 9 2 5 -3 13 0
17 6 5 9 11 7 21 -6 9 -14 13 -15 13 -4 0 12 2 12 10 -1 8 -12 10 -12 10 5 0
17 2 17 10 5 5 -8 10 -10 11 -5 0 6 4 1 9 -10 8 -20 9 -20 9 1 1 18 31 32 31
14 0 -3 10 -6 22 -7 11 -1 24 -7 28 -14 5 -7 13 -3 24 12 16 23 16 23 16 2 0
-27 26 -38 33 -13 6 24 44 16 52 -11 8 -25 25 -25 25 0 0 22 26 36 34 18 3 -8
10 -6 20 7 16 19 16 19 17 -5 l1 -24 7 25 c7 24 7 24 19 5 9 -17 11 -17 12 -3
0 12 7 16 28 14 15 -2 34 0 44 5 11 6 18 4 22 -8 6 -15 7 -15 19 0 13 18 30
12 40 -13 4 -12 6 -11 6 3 1 12 9 17 30 17 17 0 33 -5 36 -10 4 -6 11 -8 16
-5 5 4 9 0 9 -7 0 -7 7 -2 16 11 12 17 19 20 24 11 5 -8 15 -10 26 -5 28 12
38 12 52 2 7 -6 17 -6 25 1 7 6 31 7 60 2 26 -4 50 -3 53 2 3 4 20 5 37 2 18
-3 39 -7 47 -9 8 -1 18 3 22 9 5 7 8 4 8 -6 0 -18 11 -23 24 -11 10 10 46 11
46 1 0 -4 9 -8 20 -8 11 0 20 6 20 13 0 9 3 8 9 -2 5 -7 14 -10 20 -7 6 4 11
1 11 -6 0 -9 3 -9 10 2 9 13 10 13 10 0 0 -13 2 -13 9 -1 7 11 10 10 14 -5 4
-16 5 -16 6 -2 1 11 6 15 16 12 8 -4 15 -2 15 4 0 5 9 12 20 15 15 4 20 0 21
-16 0 -16 2 -18 7 -7 9 20 33 24 43 8 7 -10 9 -9 9 5 0 9 7 17 15 17 8 0 15
-8 16 -17 0 -15 1 -16 7 -2 9 21 109 21 122 -1 8 -12 10 -12 15 1 6 16 53 18
76 4 5 -4 9 0 9 7 0 8 3 9 8 3 4 -5 28 -10 55 -10 26 0 47 5 48 10 0 6 4 2 8
-9 7 -18 8 -18 26 0 13 13 20 15 23 6 2 -8 9 -9 22 -2 13 7 21 7 25 0 4 -7 13
-7 26 0 10 6 19 7 19 2 0 -5 10 -8 23 -6 12 1 22 3 22 4 0 2 21 4 48 5 26 2
47 -1 47 -5 0 -11 53 -7 62 4 4 6 13 4 23 -4 14 -12 18 -12 26 1 8 12 10 12
19 -1 6 -9 10 -10 10 -3 0 7 9 10 23 7 12 -3 29 -7 37 -8 8 -2 23 1 33 6 12 6
17 5 17 -4 0 -9 3 -9 10 2 5 8 10 10 10 4 0 -6 7 -11 15 -11 8 0 15 3 15 6 0
9 165 6 178 -3 7 -4 12 -3 12 2 0 10 181 9 198 -2 7 -4 12 -4 12 1 0 8 56 12
170 12 30 0 62 0 70 0 149 2 303 0 310 -4 6 -4 10 -2 10 4 0 9 37 7 68 -4 6
-2 12 1 12 8 0 7 3 8 8 2 9 -13 32 -18 32 -7 0 13 36 8 54 -7 10 -9 16 -10 16
-2 0 12 108 10 128 -3 7 -4 17 -4 24 0 6 4 28 9 47 11 65 7 281 8 281 2 0 -3
7 -6 15 -6 8 0 15 3 15 6 0 3 63 6 140 6 77 0 140 -3 140 -6 0 -3 7 -6 15 -6
8 0 15 3 15 7 0 4 18 4 40 0 22 -4 40 -4 40 0 0 10 20 8 37 -3 6 -4 14 -3 17
2 4 5 2817 9 6968 10 3829 1 6964 4 6967 6 2 3 -2727 5 -6065 5 -3338 1 -6440
3 -6894 5 -454 3 -832 5 -840 5 -8 -1 -58 -1 -110 -1 -52 0 -124 0 -160 -1
-36 0 -186 0 -335 2 -242 2 -614 1 -640 -2 -5 0 -22 3 -36 7 -15 3 -29 2 -33
-3 -3 -6 -23 -6 -48 -2 -24 5 -62 5 -85 1 -24 -5 -43 -5 -43 -1 0 7 -118 3
-152 -4 -10 -2 -18 -1 -18 3 0 11 -44 8 -52 -4 -5 -7 -8 -6 -8 1 0 6 -21 10
-55 9 -34 -1 -55 2 -55 9 0 8 -2 8 -8 0 -8 -13 -50 -13 -69 -1 -7 5 -13 4 -13
-1 0 -11 -241 -9 -258 2 -6 3 -14 2 -17 -4 -5 -8 -11 -7 -21 1 -8 6 -14 8 -14
3 0 -5 -5 -2 -10 6 -7 12 -10 12 -10 1 0 -7 -6 -11 -13 -8 -8 3 -20 1 -27 -3
-8 -5 -19 -6 -25 -2 -13 8 -65 10 -65 2 0 -8 -135 -4 -149 4 -6 4 -11 3 -11
-1 0 -5 -24 -8 -52 -7 -29 1 -53 2 -53 4 0 1 -8 3 -17 5 -10 2 -18 0 -18 -3 0
-9 -104 -7 -119 2 -6 4 -11 3 -11 -3 0 -7 -8 -7 -24 -1 -13 5 -27 6 -30 3 -3
-4 -6 -2 -6 4 0 14 -28 12 -34 -3 -4 -10 -11 -10 -36 -1 -25 9 -33 9 -39 -1
-11 -19 -15 -19 -35 -3 -13 11 -19 12 -25 3 -7 -11 -41 -10 -61 3 -6 3 -10 2
-10 -2 0 -5 -16 -9 -35 -9 -25 0 -35 5 -36 16 0 10 -3 9 -9 -5 -8 -18 -9 -18
-9 -2 -1 17 -2 17 -17 3 -19 -19 -34 -21 -34 -3 0 8 -4 7 -10 -3 -6 -10 -10
-11 -10 -2 0 16 -37 16 -43 0 -3 -8 -6 -6 -6 5 -1 15 -4 16 -22 6 -15 -8 -24
-8 -28 -1 -4 7 -23 9 -46 6 -78 -11 -95 -9 -96 14 0 12 -3 10 -10 -8 -8 -20
-12 -22 -19 -10 -9 13 -10 13 -10 0 0 -12 -2 -13 -9 -1 -7 11 -9 11 -14 0 -4
-11 -6 -11 -6 -1 -1 7 -6 10 -12 7 -6 -4 -26 -7 -45 -7 -24 0 -34 -5 -34 -16
0 -13 -3 -12 -20 3 -11 10 -20 13 -20 7 0 -7 -10 -8 -30 -2 -38 11 -42 11 -57
-2 -9 -7 -13 -7 -13 2 0 7 -6 10 -14 7 -8 -3 -17 -1 -19 6 -3 9 -8 9 -19 -1
-12 -9 -18 -10 -23 -2 -5 8 -11 8 -21 -1 -8 -6 -14 -8 -14 -4 0 4 -7 2 -15 -5
-11 -9 -15 -9 -15 -1 0 7 -4 9 -10 6 -5 -3 -10 -1 -10 6 0 7 -9 5 -26 -6 -22
-14 -28 -15 -35 -4 -6 10 -9 10 -9 2 0 -11 -20 -11 -60 2 -10 3 -21 1 -25 -5
-4 -7 -11 -7 -18 -2 -7 5 -26 14 -43 20 -28 9 -33 8 -42 -11 -10 -21 -11 -20
-12 8 -1 26 -3 27 -10 10 -8 -18 -9 -18 -9 5 -1 20 -3 22 -11 10 -8 -12 -10
-10 -11 10 0 16 -3 19 -6 10 -3 -8 -14 -26 -24 -39 l-19 -24 0 29 c-1 26 -2
27 -14 12 -7 -10 -16 -15 -19 -11 -4 3 -7 -2 -7 -13 -1 -17 -2 -17 -13 -4 -14
18 -48 21 -59 5 -5 -6 -8 -2 -8 8 0 17 -1 17 -21 -2 -11 -10 -28 -18 -37 -16
-9 2 -17 4 -17 6 0 1 -12 2 -27 3 -16 1 -28 -2 -28 -6 0 -4 -4 -8 -10 -8 -5 0
-10 6 -10 14 0 17 -41 16 -63 -2 -11 -10 -17 -9 -27 4 -12 14 -14 14 -22 0 -7
-13 -14 -14 -29 -6 -14 8 -19 7 -19 -2 0 -9 -3 -9 -10 2 -9 13 -10 13 -10 0
-1 -12 -3 -12 -14 3 -12 15 -14 16 -20 2 -8 -22 -26 -18 -26 6 0 21 -1 21 -27
-5 -20 -20 -29 -24 -35 -14 -8 11 -11 10 -15 0 -4 -10 -9 -7 -20 8 l-16 22
-23 -28 c-13 -16 -23 -24 -24 -17 0 6 -10 15 -22 19 -37 12 -48 13 -54 3 -3
-6 -11 -5 -20 2 -11 9 -14 8 -14 -6 0 -16 -3 -15 -33 3 -28 16 -35 17 -43 6
-8 -12 -13 -12 -36 0 -15 8 -29 11 -33 8 -12 -12 -35 -10 -35 4 0 8 -7 14 -15
14 -8 0 -15 -5 -15 -10 0 -10 -59 -5 -69 6 -3 2 -11 -6 -18 -18 -10 -18 -12
-19 -13 -6 0 11 -5 15 -14 12 -8 -3 -16 2 -19 13 -4 15 -5 15 -6 -3 -1 -25
-31 -28 -48 -5 -11 14 -12 14 -13 -1 0 -20 -30 -25 -30 -6 0 9 -3 9 -12 0 -17
-17 -28 -15 -28 4 0 8 -4 13 -9 10 -5 -4 -12 0 -14 6 -3 7 -6 4 -6 -8 -1 -24
-31 -29 -32 -5 0 10 -2 12 -6 4 -3 -10 -9 -9 -21 3 -14 15 -17 15 -29 -2 -10
-13 -13 -14 -14 -3 0 8 -4 6 -8 -6 -8 -19 -8 -19 -15 3 l-8 24 -19 -21 c-19
-20 -21 -20 -37 -5 -10 11 -17 13 -20 5 -2 -6 -10 -11 -17 -11 -7 0 -15 -5
-17 -12 -3 -8 -12 -5 -28 10 -29 27 -36 27 -45 5 -6 -17 -7 -17 -17 2 -11 19
-11 19 -19 0 -7 -18 -8 -18 -8 -2 -1 10 -7 24 -13 31 -10 11 -15 9 -23 -8 -6
-12 -19 -20 -28 -18 -9 2 -17 -3 -17 -10 -1 -7 -12 1 -25 17 l-25 30 -1 -25
c-1 -18 -3 -20 -6 -7 -3 11 -10 16 -20 13 -8 -3 -18 -6 -23 -6 -5 0 -11 -10
-13 -22 -3 -17 -5 -15 -6 8 -1 37 -31 57 -31 21 0 -16 -3 -18 -9 -9 -9 15 -71
23 -71 10 0 -4 -7 -8 -15 -8 -9 0 -19 -10 -24 -22 -7 -20 -8 -20 -15 -2 -6 16
-9 16 -17 4 -8 -13 -11 -12 -22 5 -6 11 -15 29 -19 40 -5 16 -6 15 -7 -8 -1
-18 -5 -26 -12 -21 -6 3 -15 1 -19 -5 -5 -9 -11 -8 -24 4 -15 15 -16 15 -17
-2 0 -15 -2 -15 -7 -3 -4 9 -13 15 -19 14 -7 -1 -17 -2 -23 -3 -5 0 -11 -9
-11 -18 -1 -10 -5 -2 -9 17 -6 29 -8 31 -9 10 -2 -23 -3 -24 -11 -5 -7 17 -9
17 -9 3 -1 -24 -27 -23 -43 1 -15 22 -30 17 -43 -14 -7 -18 -9 -18 -12 -2 -5
20 -23 23 -24 5 0 -7 -5 -2 -11 12 l-11 25 -7 -25 c-5 -14 -8 -18 -9 -11 -1
11 -4 12 -12 4 -9 -9 -16 -8 -27 4 -14 14 -16 14 -22 -3 -8 -22 -70 -30 -70
-9 0 23 -47 14 -61 -11 -8 -16 -15 -20 -20 -13 -4 7 -15 9 -24 5 -18 -6 -45
14 -46 36 0 7 -4 4 -9 -7 l-9 -20 -1 20 c-1 18 -1 19 -11 2 -11 -19 -57 -17
-70 4 -5 8 -9 4 -11 -12 l-5 -24 -11 25 c-6 14 -11 19 -11 12 -1 -7 -5 -10
-11 -7 -5 3 -10 2 -10 -3 0 -5 -9 -12 -20 -15 -11 -3 -20 -1 -20 5 0 5 -4 6
-10 3 -5 -3 -10 4 -11 17 -1 23 -1 23 -8 -2 -5 -17 -9 -21 -15 -12 -4 7 -16
10 -27 7 -14 -5 -19 -1 -20 12 0 10 -6 3 -14 -17 -9 -24 -14 -29 -14 -15 -1
11 -5 16 -9 10 -13 -18 -47 -11 -57 13 -13 28 -25 28 -26 0 0 -13 -3 -17 -6
-10 -4 10 -8 10 -19 1 -11 -9 -14 -8 -14 4 0 10 -6 14 -15 11 -11 -5 -15 1
-15 21 0 34 -20 23 -21 -13 -1 -24 -3 -23 -9 8 l-7 35 -2 -35 c-2 -33 -3 -34
-13 -12 l-12 23 -12 -28 c-11 -25 -12 -26 -13 -6 -1 31 -21 40 -21 9 0 -14 -4
-26 -10 -26 -5 0 -10 7 -10 16 0 9 -9 27 -20 41 -15 20 -20 22 -20 9 0 -10 -4
-14 -10 -11 -6 4 -10 -8 -10 -29 0 -42 -17 -48 -26 -10 -4 17 -9 22 -14 14 -6
-9 -11 -7 -19 6 -10 18 -10 18 -11 1 0 -10 -4 -15 -10 -12 -5 3 -10 1 -10 -5
0 -6 -4 -9 -9 -6 -5 4 -12 0 -14 -6 -3 -7 -6 1 -7 17 l-1 30 -11 -25 c-8 -19
-12 -21 -16 -10 -10 30 -26 29 -40 -3 -10 -25 -15 -29 -22 -17 -5 8 -10 26
-11 40 -2 25 -2 25 -6 2 -3 -15 -10 -22 -19 -18 -8 3 -15 -1 -15 -12 -1 -9 -5
-1 -9 18 -7 33 -7 33 -9 6 -1 -21 -5 -27 -16 -22 -8 3 -15 0 -15 -7 0 -26 -20
19 -21 48 l-1 30 -12 -35 c-13 -34 -14 -34 -18 -10 -5 22 -5 20 -7 -7 -1 -35
-15 -44 -25 -17 -3 8 -10 13 -15 10 -5 -4 -11 -1 -13 6 -3 9 -10 7 -24 -6 -19
-19 -19 -19 -31 20 l-11 39 -2 -35 c-1 -19 -4 -29 -7 -22 -7 18 -23 15 -24 -5
0 -14 -2 -13 -9 5 -8 20 -12 21 -30 10 -11 -7 -20 -19 -20 -26 0 -7 -4 -11 -9
-8 -5 4 -12 0 -14 -6 -3 -7 -6 -3 -6 10 -1 28 -21 30 -21 1 0 -33 -20 -11 -21
24 l-2 32 -4 -29 c-4 -22 -7 -26 -14 -15 -7 12 -9 12 -10 -1 0 -8 -5 -4 -9 10
-8 24 -8 24 -9 -7 -1 -43 -21 -53 -22 -11 0 26 -2 29 -8 14 -7 -19 -8 -18 -14
4 -6 24 -7 24 -21 5 -14 -18 -15 -19 -16 -2 0 10 -4 15 -10 12 -5 -3 -10 1
-10 9 0 27 -29 6 -39 -28 l-9 -31 -1 33 c-1 30 -3 32 -21 22 -16 -9 -20 -8
-20 5 0 20 -16 19 -24 -1 -9 -22 -26 -7 -28 24 0 17 -4 10 -8 -18 -6 -43 -7
-44 -17 -20 -11 24 -12 23 -13 -15 -2 -35 -3 -37 -10 -15 -5 14 -9 18 -10 10
-1 -8 -6 -1 -10 15 l-8 30 -2 -35 -2 -35 -8 30 -8 30 -1 -30 c-1 -23 -3 -27
-11 -15 -9 13 -10 13 -10 0 0 -13 -2 -13 -9 -1 -7 11 -10 10 -14 -5 -5 -18 -5
-17 -12 3 -8 24 -31 21 -38 -5 -3 -12 -5 -11 -6 5 -2 36 -21 37 -22 1 -2 -31
-2 -32 -6 -5 -4 28 -5 28 -24 11 -18 -17 -19 -16 -19 14 0 18 -4 32 -10 32 -5
0 -10 8 -11 18 -1 9 -6 0 -13 -20 -14 -47 -25 -57 -33 -30 -3 12 -9 22 -14 22
-4 0 -10 21 -12 48 l-3 47 -2 -55 c-2 -40 -5 -51 -12 -40 -7 11 -10 6 -11 -20
0 -28 -2 -31 -8 -15 l-8 20 -5 -20 c-5 -17 -6 -16 -8 5 -1 14 -5 34 -9 45 -7
17 -10 13 -22 -24 -7 -24 -15 -39 -17 -32 -2 6 -8 9 -13 5 -5 -3 -9 7 -10 23
0 16 -3 22 -6 13 -4 -8 -12 -20 -19 -27 -10 -10 -13 -10 -18 2 -3 8 -12 12
-21 9 -11 -4 -15 0 -16 17 0 17 -2 20 -7 9 -4 -8 -17 -16 -29 -17 -18 -2 -23
4 -26 30 -4 30 -4 29 -6 -8 -2 -32 -4 -36 -11 -20 -7 17 -9 14 -10 -15 -1 -28
-3 -31 -9 -15 l-8 20 -5 -20 c-4 -14 -6 -9 -8 15 l-3 35 -7 -35 c-7 -34 -7
-34 -10 15 -3 49 -3 49 -10 15 -6 -29 -8 -31 -10 -10 l-2 25 -8 -25 c-8 -24
-8 -23 -9 8 -1 36 -21 35 -21 -1 0 -16 -3 -18 -9 -8 -7 11 -9 11 -14 0 -3 -8
-6 0 -6 16 -1 23 -4 27 -11 15 -8 -13 -10 -12 -11 5 -1 11 -5 0 -8 -25 l-7
-45 -11 35 -11 35 -1 -30 c-1 -23 -4 -26 -11 -15 -13 21 -34 19 -40 -4 -9 -32
-30 -31 -31 1 l-1 28 -8 -25 c-6 -20 -9 -14 -11 30 l-2 55 -7 -50 c-4 -27 -8
-38 -8 -23 -2 28 -22 51 -22 25 0 -8 -7 -28 -15 -43 l-15 -29 0 44 c0 50 -9
47 -26 -7 l-12 -37 -1 39 c-1 37 -2 39 -16 20 -9 -12 -14 -14 -15 -6 0 7 -5
10 -10 7 -6 -3 -14 4 -19 17 -8 19 -10 15 -12 -27 l-2 -50 -7 55 -7 55 -2 -45
c-2 -42 -3 -43 -13 -20 l-11 25 -7 -30 c-6 -28 -7 -26 -17 25 l-11 55 -2 -55
c-1 -41 -4 -50 -10 -35 -8 18 -9 18 -9 2 -1 -30 -21 -8 -21 23 0 48 -18 44
-26 -6 -7 -49 -24 -43 -24 9 0 41 -16 32 -27 -15 l-11 -43 -1 50 c-1 48 -13
53 -24 10 -3 -11 -6 12 -7 50 -1 39 -4 61 -6 50 -3 -11 -10 -47 -17 -80 l-12
-60 -6 45 -6 45 -2 -50 c-2 -38 -4 -45 -11 -30 -5 11 -9 34 -10 50 l-2 30 -10
-27 c-5 -16 -14 -28 -19 -28 -5 0 -9 -7 -9 -15 0 -12 -4 -11 -19 4 -10 10 -21
25 -24 32 -3 8 -6 3 -6 -11 -1 -14 -5 -29 -9 -35 -12 -16 -32 -16 -32 0 0 8
-7 15 -15 15 -11 0 -15 12 -16 43 -1 33 -3 27 -10 -26 -9 -79 -19 -99 -20 -41
-1 34 -2 36 -9 14 -7 -21 -8 -22 -10 -5 l-1 20 -9 -20 c-8 -17 -9 -16 -11 10
-2 22 -4 16 -9 -20 -6 -47 -7 -47 -8 -12 -1 23 -6 36 -12 32 -5 -3 -10 -1 -10
5 0 6 -4 8 -10 5 -5 -3 -10 4 -11 17 -1 23 -1 23 -9 -2 l-8 -25 -2 25 c-2 21
-4 19 -10 -10 -6 -28 -8 -30 -9 -10 -2 23 -3 24 -15 7 -12 -15 -14 -13 -20 25
-5 32 -9 39 -16 28 -5 -8 -10 -24 -11 -35 -1 -17 -2 -16 -9 5 -6 21 -8 17 -15
-27 -8 -56 -24 -62 -26 -10 0 18 -3 25 -6 17 -14 -43 -16 -44 -23 -15 l-8 30
-1 -28 c0 -16 -5 -26 -11 -22 -6 4 -11 -6 -11 -22 -1 -21 -3 -23 -6 -8 -7 29
-23 43 -23 20 0 -30 -19 3 -21 35 -1 25 -1 24 -14 -5 -14 -30 -14 -29 -16 30
-2 57 -2 58 -9 20 -4 -22 -8 -36 -9 -31 0 6 -8 1 -16 -10 -12 -16 -14 -16 -15
-3 0 9 -7 22 -15 29 -13 11 -15 7 -17 -26 l-1 -39 -7 45 -7 45 -3 -40 c-2 -39
-3 -39 -9 -10 l-7 30 -8 -34 c-5 -22 -11 -29 -16 -21 -6 10 -9 9 -13 -1 -3 -8
-6 -4 -6 9 -1 12 -5 22 -11 22 -5 0 -10 12 -11 28 l-1 27 -8 -25 c-5 -14 -9
-18 -10 -10 -1 8 -6 2 -10 -15 -8 -29 -8 -29 -10 10 l-3 40 -7 -50 c-6 -43 -7
-45 -8 -14 -2 24 -7 36 -17 36 -8 0 -15 -4 -15 -9 0 -5 -7 -16 -15 -24 -13
-14 -15 -12 -16 13 0 15 -7 44 -14 63 l-13 35 -1 -37 c-1 -21 -5 -38 -10 -38
-6 0 -11 -15 -13 -32 -4 -32 -4 -32 -15 12 -8 33 -11 38 -13 20 l-2 -25 -8 25
c-5 16 -8 19 -9 8 -1 -11 -6 -15 -16 -12 -12 5 -15 -3 -15 -42 0 -44 -1 -46
-15 -28 -8 10 -15 37 -16 59 -1 34 -2 37 -9 15 -6 -23 -8 -21 -12 15 l-5 40
-1 -48 c-3 -64 -22 -51 -24 16 l-1 52 -7 -55 c-4 -32 -7 -43 -9 -25 -1 17 -6
37 -11 45 -7 12 -10 8 -10 -15 0 -23 -3 -27 -10 -15 -7 11 -10 7 -10 -18 0
-18 -4 -31 -9 -27 -5 3 -12 -5 -14 -17 -2 -13 -5 2 -7 32 -2 44 -4 50 -10 30
l-8 -25 -2 25 c-2 24 -3 24 -9 -4 -8 -37 -26 -44 -35 -14 l-6 23 -19 -23 c-18
-20 -20 -21 -24 -5 -3 11 -5 8 -6 -9 -2 -42 -21 -34 -21 8 0 28 -3 35 -15 30
-10 -3 -15 1 -16 12 -1 9 -5 4 -9 -13 -7 -29 -8 -29 -10 10 l-2 40 -13 -45
c-7 -25 -14 -38 -14 -30 -1 10 -6 7 -15 -9 l-13 -23 -6 23 c-4 13 -7 35 -7 48
0 34 -12 19 -20 -26 -7 -34 -8 -31 -10 27 l-2 65 -14 -64 c-8 -36 -16 -67 -19
-69 -3 -3 -6 37 -7 89 -2 89 -2 90 -5 22 -4 -69 -16 -95 -26 -55 -3 9 -6 1 -7
-18 -1 -28 -3 -31 -9 -15 -8 19 -9 18 -13 -5 -4 -17 -6 -11 -8 20 l-3 45 -7
-40 c-6 -36 -7 -33 -10 30 l-3 70 -12 -80 c-8 -54 -13 -69 -14 -45 -2 19 -5
30 -7 23 -3 -7 -11 -10 -19 -7 -7 3 -15 -3 -18 -13 -3 -10 -6 5 -7 32 l-3 50
-6 -49 c-6 -53 -25 -71 -35 -34 -5 19 -8 20 -16 8 -7 -11 -10 -2 -10 33 0 63
-20 52 -21 -11 -1 -26 -4 -37 -6 -24 -2 12 -9 20 -14 17 -5 -4 -10 27 -11 72
l-2 78 -6 -90 c-3 -49 -8 -79 -9 -65 l-3 25 -8 -25 c-7 -23 -8 -23 -10 10 -2
24 -4 28 -8 15 -4 -17 -7 -14 -18 15 -11 32 -13 33 -15 10 -1 -18 -4 -14 -9
15 -6 36 -7 32 -9 -30 -2 -38 -5 -64 -8 -57 -2 6 -9 10 -14 6 -5 -3 -10 31
-11 78 l-2 83 -5 -78 c-3 -42 -10 -77 -16 -76 -5 0 -12 -8 -16 -18 -5 -11 -8
7 -8 42 -1 65 -20 61 -22 -5 -1 -32 -2 -33 -9 -10 -8 25 -8 25 -9 -5 -2 -28
-3 -29 -16 -11 -13 17 -14 14 -18 -25 l-4 -44 -1 43 c-1 26 -6 41 -12 37 -6
-4 -11 18 -12 57 l-2 63 -6 -80 c-3 -44 -8 -64 -9 -45 l-3 35 -10 -27 c-15
-43 -28 -33 -28 22 0 28 -4 50 -10 50 -5 0 -10 -20 -10 -44 0 -24 -3 -53 -7
-63 -6 -15 -9 -13 -14 12 -6 29 -7 28 -8 -9 -1 -33 -3 -37 -16 -26 -10 9 -15
33 -16 79 -1 36 -4 55 -6 41 l-5 -24 -14 24 -13 25 -1 -30 c-1 -16 -7 -43 -15
-60 l-13 -30 -3 45 -2 45 -7 -35 -7 -35 -3 35 c-2 33 -3 32 -10 -13 -10 -55
-19 -72 -21 -36 -1 18 -3 15 -9 -11 -6 -29 -8 -21 -10 40 -2 41 -5 62 -7 45
-7 -49 -21 -50 -31 -4 l-10 44 -1 -52 c-1 -70 -17 -76 -29 -11 l-10 53 -1 -52
c-1 -52 -21 -77 -21 -27 0 14 -4 23 -10 19 -6 -3 -10 5 -10 19 0 59 -28 29
-31 -34 -1 -17 -5 -11 -12 20 l-11 45 -6 -52 c-8 -71 -20 -78 -22 -12 -1 47
-2 49 -5 14 -6 -58 -23 -68 -25 -15 l-1 45 -6 -45 -6 -45 -9 45 c-9 44 -9 45
-16 15 -7 -27 -8 -24 -10 20 l-3 50 -7 -45 -7 -45 -3 40 c-3 38 -4 38 -10 -15
l-7 -55 -3 65 -4 65 -5 -75 -6 -75 -8 80 c-10 98 -16 118 -27 90 -7 -19 -8
-18 -12 5 -3 14 -8 -6 -12 -47 -9 -76 -34 -133 -37 -83 -1 23 -2 23 -9 -5 -7
-26 -8 -22 -9 23 -1 74 -21 65 -22 -10 -1 -76 -15 -45 -20 42 l-2 55 -6 -60
-6 -60 -9 71 c-11 103 -26 115 -26 21 0 -50 -4 -76 -10 -72 -5 3 -10 16 -11
28 0 21 -1 21 -11 -3 -11 -24 -12 -24 -18 15 l-7 40 -3 -50 -3 -50 -5 40 -5
40 -18 -55 -18 -55 -1 75 c-2 71 -3 73 -12 35 -22 -90 -34 -73 -38 50 l-3 70
-8 -70 c-11 -83 -17 -101 -19 -60 -2 30 -2 30 -10 5 -4 -14 -8 -40 -9 -58 -2
-59 -21 -23 -21 39 0 84 -18 73 -23 -13 l-3 -73 -2 90 c-2 62 -5 85 -12 75 -5
-8 -10 -28 -10 -45 0 -16 -5 -37 -10 -45 -7 -11 -10 -7 -10 19 0 49 -13 29
-21 -32 l-6 -52 -3 65 c-1 49 -4 59 -10 40 -4 -14 -8 -19 -9 -12 -2 26 -20 11
-24 -20 -3 -27 -4 -25 -6 12 -2 53 -20 37 -22 -20 -1 -23 -3 -28 -7 -15 -4 17
-8 13 -23 -20 -16 -37 -18 -38 -18 -13 -1 15 -5 30 -11 33 -5 3 -10 18 -11 33
0 24 -1 25 -8 7 l-8 -20 -5 20 c-3 11 -6 0 -7 -25 -2 -54 -21 -93 -21 -43 0
31 -19 58 -21 31 -1 -7 -5 3 -9 22 l-7 35 -3 -30 -2 -30 -8 30 -7 30 -8 -33
c-4 -18 -10 -30 -13 -27 -3 3 -14 -2 -24 -12 -17 -15 -18 -15 -18 4 0 12 -7
34 -15 49 l-15 29 -1 -55 c-1 -30 -3 -47 -6 -37 -5 18 -5 18 -19 0 -7 -10 -14
-13 -14 -8 -1 6 -7 33 -15 60 l-14 50 -1 -45 -1 -45 -16 38 c-11 28 -18 35
-24 25 -6 -8 -9 1 -9 27 0 39 -14 75 -24 64 -3 -3 -10 -43 -15 -90 -7 -74 -9
-78 -11 -34 l-3 50 -7 -40 -7 -40 -2 40 c-2 32 -4 36 -11 20 -8 -18 -9 -18
-10 5 -2 16 -7 4 -15 -30 -11 -49 -13 -51 -14 -20 -2 58 -13 110 -22 104 -5
-3 -9 1 -10 8 -1 19 -38 -63 -39 -85 0 -10 -4 -16 -9 -13 -5 4 -12 0 -14 -6
-3 -7 -6 34 -8 92 -1 58 -4 92 -6 76 -4 -22 -7 -26 -14 -15 -5 9 -9 -20 -10
-81 -1 -60 -4 -86 -9 -70 -7 24 -7 23 -11 -10 -3 -26 -7 -13 -15 50 l-11 85
-3 -70 c-1 -52 -4 -63 -10 -45 -5 15 -9 19 -11 10 -1 -8 -5 19 -9 60 l-6 75
-2 -78 c-2 -85 -21 -100 -24 -19 l-1 47 -7 -45 -6 -45 -5 40 c-4 31 -6 23 -9
-35 -3 -72 -3 -73 -10 -30 -18 103 -40 160 -40 102 0 -17 -5 -34 -10 -37 -6
-3 -11 -34 -12 -68 -1 -43 -2 -50 -5 -22 -2 22 -6 51 -10 65 -6 22 -7 21 -13
-15 l-7 -40 -2 50 c-2 38 -4 45 -11 30 -5 -11 -10 -33 -11 -50 -1 -21 -4 -14
-8 20 l-6 50 -17 -65 -16 -65 -2 75 c-2 79 -4 80 -16 15 l-7 -40 -7 30 -8 30
-2 -30 c-2 -30 -2 -30 -10 -5 -7 20 -8 16 -10 -25 -2 -44 -4 -40 -15 40 l-12
90 -3 -75 -4 -75 -6 70 -6 70 -4 -90 c-3 -86 -4 -87 -10 -35 -6 53 -7 54 -10
15 -3 -36 -4 -34 -10 20 -5 45 -7 51 -9 25 -3 -33 -4 -33 -11 -10 -8 25 -8 25
-10 -5 -2 -30 -2 -30 -10 -5 -4 14 -8 40 -9 58 -1 17 -5 32 -11 32 -6 0 -10
-33 -10 -77 0 -54 -3 -73 -10 -63 -8 12 -10 12 -10 -5 -1 -43 -20 10 -21 60
l-2 50 -6 -45 -6 -45 -10 35 c-8 33 -9 30 -15 -40 l-6 -75 -2 65 c-3 82 -21
117 -24 45 -1 -49 -2 -49 -8 15 -4 36 -8 54 -10 40 -2 -18 -5 -12 -10 20 l-7
45 -3 -45 -3 -45 -7 40 c-7 40 -7 40 -9 -15 -2 -44 -4 -50 -11 -32 -13 32 -30
27 -30 -8 0 -35 -19 -41 -21 -7 -1 21 -1 21 -8 -3 -6 -18 -10 -4 -15 55 -11
120 -13 134 -15 87 0 -26 -5 -41 -11 -37 -6 4 -10 -13 -10 -44 0 -28 -4 -51
-8 -51 -5 0 -14 -10 -20 -22 -9 -20 -11 -14 -12 37 -1 33 -4 54 -7 48 -8 -22
-23 -14 -25 15 -1 15 -5 -9 -8 -53 l-6 -80 -4 60 c-4 55 -4 52 -10 -35 l-6
-95 -3 135 c-4 139 -3 139 -28 5 l-7 -40 -9 50 c-4 28 -12 79 -16 115 -8 63
-8 61 -11 -50 -3 -97 -4 -105 -9 -55 -6 56 -7 57 -13 26 -5 -18 -8 -47 -8 -63
0 -46 -20 -23 -22 25 l-1 42 -7 -45 c-8 -55 -18 -37 -23 40 l-3 55 -2 -57 c-2
-56 -15 -77 -25 -40 -3 9 -5 -3 -6 -28 -3 -87 -18 -74 -26 21 -4 61 -10 87
-16 78 -5 -8 -9 -32 -10 -54 0 -22 -5 -51 -9 -65 -8 -24 -8 -23 -9 8 -1 33
-20 46 -23 15 0 -10 -4 5 -7 32 l-7 50 -11 -65 c-7 -43 -11 -55 -13 -35 -2 28
-3 27 -15 -15 l-13 -45 -2 85 c-3 79 -3 82 -10 35 -4 -27 -12 -63 -17 -80 -9
-29 -10 -28 -16 23 -9 80 -26 100 -28 32 -1 -51 -1 -53 -11 -25 -5 17 -13 46
-18 65 l-8 35 -2 -45 c-1 -25 -8 -61 -15 -80 l-13 -35 -2 45 c-2 69 -18 97
-20 35 -1 -27 -5 -59 -10 -70 -9 -19 -9 -19 -16 3 -3 12 -13 22 -20 22 -8 0
-14 11 -15 28 l-1 27 -8 -30 c-7 -26 -8 -23 -11 25 l-2 55 -7 -65 c-4 -36 -8
-51 -9 -35 -2 26 -3 28 -11 10 -8 -18 -9 -17 -9 7 -1 15 -5 30 -11 33 -5 3
-10 21 -11 38 l-1 32 -10 -34 c-7 -26 -12 -31 -19 -20 -5 8 -9 25 -9 39 0 14
-7 33 -15 43 -12 17 -14 14 -20 -30 -9 -64 -13 -75 -14 -35 -1 18 -7 40 -15
47 -11 12 -15 2 -22 -68 l-9 -82 -5 95 c-5 91 -18 104 -21 22 l-2 -37 -7 35
-7 35 -3 -40 c-2 -35 -3 -37 -10 -15 -7 24 -7 23 -12 -10 -3 -22 -6 -4 -8 45
-2 68 -4 74 -10 40 l-7 -40 -3 45 c-3 38 -5 33 -10 -30 -5 -59 -7 -36 -10 110
l-4 185 -6 -160 c-4 -112 -7 -137 -9 -85 l-4 75 -10 -67 c-9 -66 -27 -94 -27
-43 0 41 -18 28 -24 -17 -3 -24 -7 -54 -10 -68 -2 -14 -4 31 -6 100 -3 155
-17 125 -21 -45 l-3 -120 -6 115 c-6 106 -6 109 -8 36 -2 -92 -15 -93 -22 -3
l-5 62 -15 -78 c-8 -44 -15 -75 -16 -70 -2 4 -6 49 -10 98 -8 95 -19 85 -24
-20 l-2 -50 -11 35 -11 35 -6 -35 c-6 -26 -8 -14 -10 50 -3 81 -3 83 -11 35
-4 -27 -11 -63 -15 -80 l-8 -30 -7 25 c-5 19 -7 14 -9 -25 l-2 -50 -10 35
c-11 34 -11 34 -18 10 -7 -21 -8 -19 -9 14 -2 62 -13 35 -21 -51 l-7 -78 -3
125 c-3 110 -4 117 -10 60 -4 -36 -7 -50 -8 -32 -3 54 -22 36 -22 -22 0 -39
-4 -55 -15 -60 -13 -5 -15 12 -17 112 l-2 117 -6 -105 c-3 -58 -7 -85 -9 -60
-1 25 -5 38 -8 30 -14 -42 -17 -43 -23 -5 -7 37 -7 36 -9 -20 -2 -105 -20
-101 -23 5 l-2 95 -6 -70 -6 -70 -3 60 -3 60 -9 -40 c-5 -22 -13 -67 -18 -100
-8 -59 -8 -58 -11 45 l-4 105 -6 -75 -6 -75 -4 60 -4 60 -6 -75 -6 -75 -4 60
c-2 45 -4 53 -9 30 -4 -20 -8 -2 -11 55 l-6 85 -2 -102 c-2 -105 -21 -158 -23
-61 l0 53 -16 -45 c-8 -25 -18 -61 -23 -80 -6 -27 -8 -14 -10 60 -2 74 -4 86
-10 55 -6 -36 -7 -37 -9 -10 -2 29 -2 29 -16 11 -9 -12 -16 -45 -16 -85 l-2
-66 -7 50 c-5 28 -9 86 -10 130 l-3 80 -8 -90 c-12 -128 -16 -140 -18 -57 0
46 -5 71 -11 67 -6 -3 -10 -19 -10 -35 0 -16 -4 -32 -10 -35 -6 -4 -10 44 -11
137 -1 87 -4 133 -9 118 -4 -14 -8 -80 -9 -147 -1 -75 -5 -123 -11 -123 -5 0
-10 -10 -10 -21 0 -18 -2 -19 -15 -9 -11 9 -15 37 -17 109 l-2 96 -6 -90 c-6
-88 -6 -87 -10 55 -3 153 -5 150 -16 -22 -7 -122 -24 -137 -24 -22 0 48 -4 73
-10 69 -5 -3 -10 -18 -11 -33 l-1 -27 -8 25 c-6 19 -9 9 -10 -40 -2 -52 -4
-59 -10 -35 l-8 30 -1 -33 c0 -18 -5 -31 -10 -28 -5 4 -12 0 -14 -6 -3 -8 -6
-6 -6 5 -2 31 -21 18 -21 -15 0 -18 -5 -40 -10 -48 -7 -11 -10 1 -11 40 0 40
-3 50 -9 35 -7 -17 -9 -16 -9 10 -1 36 -21 73 -21 39 0 -12 -5 -36 -12 -55
-12 -34 -12 -34 -19 -9 -5 17 -8 3 -9 -45 l-3 -70 -7 60 c-4 33 -9 94 -10 135
-2 113 -18 58 -21 -75 l-3 -110 -5 90 -6 90 -7 -55 c-4 -30 -8 -73 -9 -95 l-1
-40 -9 40 c-4 22 -9 83 -10 135 l-2 95 -8 -110 c-12 -158 -16 -165 -19 -35 -2
77 -5 105 -10 85 -6 -23 -8 -15 -10 40 -2 65 -3 67 -12 35 -5 -19 -12 -50 -15
-67 -6 -37 -23 -44 -24 -10 -1 16 -4 13 -11 -13 -11 -34 -11 -34 -18 -10 -8
25 -8 25 -10 -5 -3 -27 -3 -27 -10 10 -5 28 -8 1 -10 -90 l-4 -130 -6 90 c-3
50 -8 77 -9 60 -3 -28 -4 -28 -12 10 -4 22 -8 58 -9 80 0 28 -3 36 -9 25 -7
-10 -11 -1 -14 30 -2 25 -5 -20 -7 -100 l-4 -145 -6 105 c-5 79 -7 89 -8 43
-1 -34 -6 -64 -11 -68 -12 -7 -19 30 -30 145 l-8 85 -3 -110 -4 -110 -5 102
c-7 123 -21 146 -22 37 -1 -109 -17 -154 -18 -52 -1 42 -5 79 -10 82 -5 3 -13
-31 -19 -77 l-9 -82 -3 65 c-1 36 -5 54 -7 40 -2 -14 -8 -34 -13 -45 -5 -11
-11 -36 -13 -55 -3 -24 -5 -17 -7 25 l-3 60 -7 -45 -7 -45 -2 50 c-2 45 -3 47
-13 25 -10 -24 -10 -24 -18 -5 -6 15 -9 16 -11 5 -1 -8 -5 12 -9 45 l-7 60 -2
-65 c-2 -36 -6 -90 -11 -120 -6 -46 -8 -32 -10 80 -2 83 -6 116 -9 85 l-5 -50
-6 65 c-6 64 -7 63 -8 -29 -1 -52 -5 -91 -9 -87 -4 4 -10 46 -14 94 l-6 87 -1
-119 c-1 -66 -5 -117 -8 -113 -4 3 -10 41 -14 84 l-7 78 -3 -110 c-3 -72 -5
-90 -7 -52 -2 31 -8 57 -13 57 -6 0 -10 19 -10 42 0 73 -11 33 -18 -68 l-8
-99 -13 90 c-7 50 -16 108 -19 130 -4 32 -6 36 -13 20 -4 -11 -8 -45 -8 -75
-2 -100 -16 -113 -21 -20 l-5 85 -11 -45 -12 -45 -3 85 -3 85 -6 -70 c-6 -63
-7 -58 -10 60 l-4 130 -6 -85 c-3 -47 -8 -80 -9 -75 -6 18 -19 -49 -21 -110
l-3 -60 -7 75 c-4 41 -9 122 -10 180 l-3 105 -8 -135 c-3 -74 -8 -166 -9 -205
-2 -44 -5 -55 -7 -30 -1 22 -6 69 -10 105 l-6 65 -18 -70 -17 -70 -3 45 -2 45
-7 -45 -6 -45 -7 35 c-4 19 -8 55 -10 80 -3 38 -4 35 -5 -16 -2 -46 -6 -61
-17 -61 -13 0 -15 28 -17 186 -1 174 -2 179 -8 81 -13 -190 -23 -280 -30 -280
-4 0 -11 28 -16 63 l-8 62 -6 -80 c-8 -97 -10 -82 -19 100 l-8 140 -1 -123
c-1 -79 -6 -121 -12 -117 -5 3 -11 21 -12 38 -1 18 -5 -4 -8 -48 l-6 -80 -3
90 c-3 97 -17 227 -20 183 -2 -46 -21 -43 -23 4 l-1 43 -7 -45 -7 -45 -2 50
c-3 92 -21 26 -23 -85 l-2 -105 -5 115 -6 115 -9 -178 c-5 -98 -10 -176 -12
-174 -4 3 -18 101 -33 227 -4 36 -9 53 -9 38 -1 -16 -6 -28 -12 -28 -6 0 -11
-49 -12 -122 l-2 -123 -6 140 c-4 126 -6 134 -13 80 -17 -131 -22 -134 -27
-20 -4 61 -7 86 -8 58 -2 -50 -14 -69 -25 -40 -3 6 -6 -1 -6 -18 -1 -16 -6
-37 -11 -45 -7 -10 -10 36 -11 140 l-1 155 -14 -85 c-7 -47 -14 -141 -16 -210
l-2 -125 -6 110 c-3 61 -7 90 -9 65 -1 -25 -6 -65 -10 -90 -7 -35 -9 -16 -12
90 l-3 135 -3 -110 c-2 -60 -8 -114 -13 -119 -7 -7 -10 -5 -11 5 0 7 -6 73
-13 144 l-13 130 -4 -145 -3 -145 -6 140 c-5 117 -7 127 -10 65 l-4 -75 -6 95
-6 95 -2 -120 c-2 -82 -5 -115 -12 -105 -5 8 -11 26 -12 40 -1 14 -4 -6 -8
-45 -4 -48 -8 1 -10 155 l-3 225 -8 -258 c-4 -143 -10 -261 -13 -265 -3 -3 -7
53 -8 124 l-2 129 -5 -110 -6 -110 -8 95 c-5 52 -12 122 -16 155 l-8 60 -2
-84 c0 -46 -4 -82 -7 -79 -3 3 -9 53 -13 109 -7 92 -8 96 -10 37 0 -37 -6 -70
-11 -73 -6 -3 -11 -57 -12 -118 l-2 -112 -3 93 c-2 50 -8 92 -13 92 -5 0 -11
17 -13 38 -2 20 -5 -3 -6 -53 -5 -154 -21 -40 -30 210 l-8 220 -3 -240 c-2
-150 -6 -217 -10 -180 l-7 60 -2 -80 c-1 -63 -4 -76 -12 -62 -6 11 -14 107
-18 215 l-8 197 -3 -190 c-1 -104 -6 -217 -10 -250 -6 -51 -8 -40 -10 75 -3
110 -5 124 -10 75 -6 -50 -7 -39 -10 70 l-4 130 -6 -140 c-3 -77 -7 -129 -9
-115 -2 23 -3 23 -10 5 -6 -13 -11 9 -15 70 -11 142 -13 147 -15 33 0 -60 -5
-108 -10 -108 -15 0 -21 28 -22 98 -2 81 -7 60 -18 -78 l-8 -105 -2 90 c0 50
-5 95 -11 101 -5 5 -11 45 -13 89 -2 51 -4 24 -6 -75 -2 -85 -7 -182 -11 -215
l-7 -60 -2 50 c-2 28 -6 73 -11 100 l-7 50 -2 -70 c-3 -84 -15 -62 -30 50 -6
47 -9 58 -10 32 0 -23 -5 -36 -11 -32 -6 4 -10 -9 -10 -32 0 -28 -3 -34 -10
-23 -7 11 -10 3 -11 -30 l-2 -45 -8 45 c-4 25 -8 70 -9 100 -2 47 -4 51 -10
25 -6 -22 -8 -7 -10 55 l-3 85 -8 -60 c-4 -33 -11 -116 -16 -185 l-8 -125 -6
105 -5 105 -4 -95 -4 -95 -8 95 c-5 52 -12 190 -16 305 -9 230 -10 229 -21
-20 -6 -127 -12 -178 -24 -200 l-17 -30 -1 75 c-1 95 -16 58 -20 -50 -1 -44
-4 -60 -6 -37 -6 58 -23 44 -24 -20 -1 -81 -17 -31 -18 58 -1 36 -4 102 -9
145 l-7 79 -6 -90 c-5 -86 -5 -83 -9 55 -3 133 -4 139 -10 70 -4 -41 -8 -122
-10 -180 -3 -143 -17 -92 -28 105 l-9 150 -1 -158 c-1 -103 -6 -156 -12 -152
-6 4 -11 -19 -11 -62 -1 -37 -8 25 -15 139 -7 114 -15 218 -17 230 -2 13 -6
-80 -7 -207 -3 -258 -16 -232 -21 40 -2 149 -3 154 -10 75 -4 -47 -7 -125 -8
-173 -1 -56 -5 -86 -11 -82 -5 3 -10 43 -10 89 0 46 -4 96 -10 112 -5 16 -14
90 -18 164 l-9 135 -3 -165 c-1 -91 -6 -212 -10 -270 -7 -104 -7 -103 -10 70
-3 228 -17 285 -19 80 -1 -122 -4 -151 -13 -135 -7 12 -14 99 -18 220 -6 177
-7 185 -8 71 -1 -71 -4 -127 -7 -124 -3 3 -9 45 -14 94 -7 76 -9 53 -12 -166
-3 -243 -4 -247 -6 -74 -3 146 -6 184 -18 194 -13 11 -15 -6 -17 -136 l-1
-149 -8 130 c-5 72 -12 153 -18 180 l-9 50 -2 -65 c-1 -36 -5 -85 -9 -110 -8
-40 -9 -34 -12 50 l-3 95 -5 -70 -5 -70 -6 75 c-5 73 -5 72 -16 -70 l-11 -145
-3 155 c-2 98 -5 142 -10 120 -6 -27 -8 -17 -10 50 -2 55 -7 0 -14 -155 l-11
-240 -13 130 c-6 72 -13 225 -14 340 l-2 210 -7 -240 c-9 -341 -9 -345 -19
-315 -4 14 -9 95 -10 180 -2 97 -5 142 -10 120 -7 -34 -7 -34 -10 15 l-3 50
-7 -60 c-4 -33 -9 -116 -10 -185 -3 -109 -4 -117 -10 -65 -4 33 -9 130 -11
215 -2 94 -4 125 -6 77 -2 -46 -8 -75 -13 -72 -6 4 -11 -56 -12 -157 -1 -159
-1 -160 -8 -63 -4 55 -9 159 -10 230 l-3 130 -8 -85 c-4 -47 -8 -175 -9 -285
-2 -176 -4 -191 -12 -125 -5 41 -15 188 -22 325 l-13 250 -3 -180 c-1 -99 -5
-205 -10 -235 l-7 -55 -2 52 c0 28 -5 55 -11 58 -5 3 -11 18 -11 33 -3 65 -18
-60 -20 -163 -4 -207 -17 -13 -20 300 l-3 290 -5 -297 c-6 -300 -20 -415 -22
-187 -1 84 -4 111 -9 84 -4 -24 -9 46 -11 175 l-4 215 -5 -285 -5 -285 -4 290
-4 290 -8 -245 c-5 -135 -13 -254 -19 -265 -5 -11 -11 -56 -13 -100 -2 -67 -3
-61 -5 35 -2 63 -7 187 -13 275 -6 88 -14 306 -18 485 l-7 325 -4 -445 c-1
-245 -6 -519 -10 -610 l-6 -165 -3 140 c-4 136 -16 314 -19 267 -1 -13 -6 -20
-12 -17 -6 4 -10 -13 -11 -42 0 -26 -4 -68 -8 -93 -7 -42 -8 -43 -15 -18 -5
15 -11 155 -15 310 l-8 283 -3 -195 c-2 -131 -5 -172 -9 -125 l-6 70 -7 -70
c-5 -38 -9 -119 -10 -180 l-1 -110 -9 110 c-4 61 -12 189 -16 285 l-9 175 -4
-260 -3 -260 -6 260 c-5 258 -6 259 -8 75 -1 -102 -5 -223 -9 -270 l-6 -85
-13 55 c-9 35 -14 144 -15 305 -2 229 -3 239 -10 120 -3 -71 -7 -163 -8 -203
-1 -46 -5 -71 -11 -67 -6 4 -11 63 -12 138 l-2 132 -6 -100 c-5 -98 -9 -99
-23 -5 -3 14 -6 -108 -8 -270 l-3 -295 -6 250 c-4 138 -9 428 -10 645 l-3 395
-8 -508 c-4 -280 -10 -511 -13 -515 -3 -3 -7 89 -8 204 -2 208 -2 208 -8 69
-3 -77 -7 -115 -9 -85 -3 52 -4 53 -11 20 -9 -43 -9 -41 -20 140 -16 262 -29
422 -34 428 -3 3 -7 -129 -8 -294 -1 -329 -13 -300 -19 46 l-3 205 -7 -225
c-3 -124 -7 -268 -9 -320 -2 -87 -3 -92 -13 -60 -11 32 -12 25 -18 -80 -4 -90
-5 -65 -7 117 -1 136 -6 234 -12 238 -6 3 -10 -34 -12 -97 -3 -91 -4 -82 -11
77 -4 99 -12 194 -17 211 -6 17 -11 136 -12 265 -2 245 -4 169 -19 -676 l-3
-200 -6 185 -6 185 -4 -185 -3 -185 -9 155 c-5 85 -12 261 -16 390 l-8 235 -4
-265 c-3 -205 -5 -239 -9 -150 -8 156 -20 107 -23 -90 -2 -129 -3 -109 -10
125 -4 154 -11 390 -16 525 l-8 245 -4 -385 c-2 -212 -6 -349 -9 -305 -6 74
-7 67 -13 -80 -5 -88 -8 -191 -9 -230 l0 -70 -15 45 c-9 29 -14 100 -16 200
l-2 155 -6 -130 c-5 -101 -7 -58 -10 190 l-4 320 -6 -297 c-3 -163 -9 -300
-13 -304 -4 -4 -7 97 -7 224 0 148 -4 232 -10 232 -6 0 -10 -62 -11 -162 -1
-156 -2 -160 -14 -108 l-13 55 -2 -110 -3 -110 -8 90 c-5 50 -13 207 -17 350
l-9 260 -2 -325 c-3 -372 -12 -490 -24 -291 -4 68 -8 244 -9 390 l-1 266 -9
-380 c-11 -499 -25 -601 -28 -210 -3 302 -13 331 -27 80 l-7 -130 -7 100 c-4
55 -8 231 -9 390 -3 261 -4 278 -12 170 -4 -66 -12 -385 -16 -710 l-9 -590 -4
530 -4 530 -5 -355 -5 -355 -5 265 c-3 228 -5 248 -10 140 -5 -97 -7 -54 -10
190 -3 250 -5 286 -10 175 l-5 -140 -7 95 c-4 52 -11 165 -16 250 l-9 155 -3
-290 c-4 -258 -5 -273 -10 -140 l-6 150 -4 -185 -4 -185 -8 310 c-5 171 -12
580 -16 910 l-8 600 -4 -750 c-3 -482 -6 -659 -10 -495 l-5 255 -5 -300 c-5
-295 -5 -292 -8 157 -1 291 -6 459 -12 463 -7 4 -10 -94 -11 -287 -1 -161 -5
-356 -8 -433 -6 -110 -8 -50 -11 275 -3 321 -6 377 -10 245 l-6 -170 -3 220
c-6 396 -20 167 -23 -380 -3 -505 -3 -498 -8 265 -4 575 -6 702 -10 475 -4
-244 -6 -158 -10 400 l-5 710 -7 -620z"/>
</g>
</svg>
