<?xml version="1.0" standalone="no"?>
<!DOCTYPE svg PUBLIC "-//W3C//DTD SVG 20010904//EN"
 "http://www.w3.org/TR/2001/REC-SVG-20010904/DTD/svg10.dtd">
<svg version="1.0" xmlns="http://www.w3.org/2000/svg"
 width="3600.000000pt" height="1200.000000pt" viewBox="0 0 3600.000000 1200.000000"
 preserveAspectRatio="xMidYMid meet">
<metadata>
Created by potrace 1.16, written by Peter Selinger 2001-2019
</metadata>
<g transform="translate(0.000000,1200.000000) scale(0.100000,-0.100000)"
fill="#000000" stroke="none">
<path d="M127 10738 c-9 -1636 -9 -9448 0 -10171 3 -307 10 -557 15 -557 4 0
9 75 10 168 l2 167 6 -170 c6 -186 20 1233 20 1995 0 518 8 840 22 840 4 0 9
-321 10 -712 l2 -713 7 520 c3 286 7 732 9 990 1 259 6 454 10 435 5 -24 8 3
9 80 1 63 4 147 9 185 4 44 9 -95 12 -375 l5 -445 4 605 c2 336 7 581 11 550
5 -30 9 -131 11 -225 2 -154 3 -162 10 -85 4 47 8 216 10 375 l2 290 8 -263
c4 -145 10 -266 13 -269 3 -4 7 196 8 443 1 279 4 394 8 304 l6 -145 4 175 4
175 6 -255 6 -255 2 303 c1 171 6 301 11 298 14 -9 21 48 22 178 1 66 3 113 6
104 11 -45 23 -10 25 75 l2 92 6 -80 6 -80 2 70 c1 39 9 102 18 140 9 39 18
99 21 134 4 41 9 58 14 50 6 -10 9 -3 10 21 l2 35 7 -40 7 -40 2 45 2 45 16
-32 c24 -47 33 -41 33 23 0 34 4 53 10 49 6 -3 10 0 11 7 1 7 5 2 9 -12 l8
-25 2 25 c1 23 2 23 10 5 7 -16 9 -12 11 20 2 34 3 32 9 -20 6 -57 7 -58 8
-15 2 33 5 41 12 30 5 -8 10 -26 11 -40 1 -16 5 -7 14 25 11 44 13 46 15 20
l3 -30 6 35 7 35 8 -39 c4 -21 10 -35 14 -31 4 4 12 -10 19 -32 l11 -38 2 50
c1 38 4 45 10 30 5 -11 9 -15 9 -10 1 6 6 3 11 -5 8 -12 10 -9 10 13 0 45 20
21 21 -26 1 -23 3 -34 6 -24 5 20 19 22 26 5 3 -7 6 1 6 17 1 23 4 27 11 15 7
-12 10 -8 10 15 1 29 2 29 11 7 5 -13 13 -20 19 -17 6 4 11 -8 12 -27 1 -20 4
-9 8 27 7 59 7 60 10 15 l3 -45 7 35 7 35 3 -45 c3 -45 3 -44 10 15 l7 60 3
-70 c2 -44 5 -57 7 -36 3 26 7 31 14 20 6 -9 9 1 9 34 0 27 4 46 9 42 5 -3 12
5 14 17 2 13 5 0 6 -29 1 -54 16 -80 24 -41 2 13 5 0 6 -29 2 -80 18 -71 23
13 5 79 27 128 29 64 1 -32 2 -33 9 -10 7 23 8 23 11 -10 2 -34 2 -34 9 10 l7
45 2 -45 c2 -58 21 -92 21 -37 0 36 19 54 21 20 1 -12 4 -10 9 7 6 18 9 2 10
-55 3 -87 3 -87 29 60 7 41 9 44 10 17 1 -21 5 -31 12 -27 6 4 13 -2 16 -14 9
-37 23 -11 25 47 1 43 2 48 5 20 3 -24 9 -38 18 -38 8 0 19 -15 24 -32 l9 -33
7 42 c9 53 25 46 26 -10 2 -41 2 -41 8 10 9 69 21 78 23 17 1 -45 2 -46 5 -10
3 27 10 40 24 43 10 3 19 9 19 14 0 5 5 9 10 9 6 0 11 -32 12 -72 l2 -73 6 75
c6 67 7 69 9 25 2 -37 5 -45 11 -30 8 19 8 19 18 -5 10 -24 11 -24 13 10 2 28
4 24 9 -20 l7 -55 2 45 c3 38 4 41 11 20 4 -14 9 -20 10 -15 1 6 5 1 10 -10 7
-16 9 -10 11 25 l2 45 7 -40 7 -40 3 40 3 40 7 -35 c7 -31 7 -32 9 -7 0 15 6
27 11 27 6 0 11 15 11 33 1 23 3 26 6 10 6 -32 23 -29 25 5 0 15 4 5 7 -23 l7
-50 11 35 11 35 3 -35 c2 -34 2 -34 9 10 4 25 8 35 8 23 1 -13 6 -23 11 -23 6
0 12 -17 14 -37 4 -38 4 -38 5 6 2 37 4 42 17 31 13 -11 15 -8 16 16 l1 29 8
-25 c5 -17 8 -19 9 -7 1 9 5 17 10 17 5 0 12 8 14 18 3 11 5 9 6 -8 1 -20 3
-22 11 -10 8 13 9 13 14 0 25 -80 24 -79 25 -32 1 39 21 63 21 25 0 -14 2 -15
9 -4 7 11 9 11 13 0 3 -8 8 4 13 26 l8 40 12 -35 c10 -24 14 -29 15 -15 1 17
3 17 11 -5 8 -20 12 -22 19 -10 8 13 10 12 10 -2 0 -23 30 -12 30 11 0 14 2
14 10 1 8 -12 10 -12 11 5 l0 20 9 -20 c8 -18 9 -18 10 5 1 24 1 24 15 6 11
-15 15 -16 16 -5 1 8 5 1 9 -16 7 -26 8 -24 9 20 2 63 21 42 21 -23 0 -26 4
-41 10 -37 6 3 10 18 10 33 0 15 4 23 8 17 15 -21 32 -14 34 13 1 15 4 2 8
-28 l7 -55 1 46 c3 63 29 63 37 0 4 -25 7 -53 9 -61 1 -8 6 19 11 60 l8 75 13
-40 c7 -22 13 -32 13 -22 1 10 6 15 11 12 6 -3 10 1 10 9 0 29 18 17 26 -16
l7 -33 9 33 c10 36 27 41 46 12 15 -25 29 -26 35 -2 3 12 5 11 6 -6 1 -22 2
-22 17 -7 14 13 19 14 25 4 6 -10 10 -9 16 6 6 17 9 14 14 -15 5 -32 6 -33 12
-10 3 14 9 43 13 65 5 29 8 35 13 22 4 -10 10 -17 15 -15 4 2 14 -8 21 -22
l14 -25 2 30 c1 25 3 22 14 -20 l13 -50 3 40 c1 32 3 34 6 13 6 -36 18 -35 33
3 8 19 16 26 20 19 6 -9 9 -9 15 0 6 9 9 9 16 -1 11 -18 30 -18 48 -1 11 11
15 11 22 0 6 -10 12 -9 23 7 12 15 15 16 16 5 0 -10 7 -7 20 10 l20 25 0 -27
c0 -16 4 -28 9 -28 5 0 12 -8 14 -17 3 -12 7 -8 12 14 4 18 11 30 16 27 5 -3
12 1 15 10 7 19 34 9 35 -13 0 -10 4 -7 11 9 6 15 12 20 15 13 3 -9 10 -10 24
-3 13 8 19 7 19 0 0 -6 5 -8 10 -5 5 3 10 -3 10 -14 0 -31 15 -33 40 -6 13 13
27 22 33 18 5 -3 13 0 18 8 6 11 12 10 28 -5 16 -15 21 -16 21 -5 0 11 2 11
10 -1 7 -11 10 -12 10 -2 0 7 7 20 15 28 13 14 16 13 25 -10 10 -28 28 -30 47
-6 7 9 12 10 13 4 0 -14 63 -11 68 4 6 18 42 1 42 -21 0 -16 3 -18 11 -10 6 6
18 9 25 6 8 -3 14 0 14 7 0 6 5 8 10 5 6 -3 10 1 10 9 0 9 5 16 10 16 6 0 10
-5 10 -12 0 -6 9 -3 20 7 19 18 20 17 21 -6 1 -20 2 -21 6 -4 5 17 7 15 18
-10 l13 -30 7 33 c9 38 22 41 35 7 12 -30 26 -32 33 -4 5 20 7 20 31 4 25 -16
26 -16 27 1 1 14 3 13 9 -6 8 -25 8 -25 9 -2 1 13 6 20 11 17 6 -3 10 -1 10 5
0 6 4 8 10 5 6 -3 10 0 10 7 0 10 2 10 9 0 6 -9 21 -12 45 -9 20 3 39 0 42 -5
4 -6 10 -5 15 3 7 11 9 9 9 -5 0 -16 3 -17 12 -8 14 14 67 16 88 2 9 -6 17 -5
21 2 5 7 12 -3 17 -23 8 -25 10 -28 11 -11 1 12 6 22 11 22 6 0 10 12 10 27
l0 27 16 -23 c15 -20 18 -21 26 -8 7 13 14 14 34 7 14 -6 30 -8 35 -4 5 3 9
-3 9 -13 1 -17 1 -17 15 1 14 19 48 23 113 13 17 -2 32 -1 32 2 0 9 63 7 77
-2 7 -4 14 -3 17 2 3 5 22 8 41 6 20 -1 35 3 36 9 0 6 4 2 9 -9 5 -11 9 -15 9
-9 1 11 97 10 129 -1 6 -2 12 2 12 10 0 11 5 12 25 5 18 -7 25 -6 25 3 0 8 3
8 9 -2 5 -8 16 -11 29 -7 11 4 23 2 27 -4 4 -7 12 -7 26 0 22 12 129 9 129 -4
0 -5 6 -3 13 3 8 6 17 8 21 4 4 -4 11 -1 16 7 6 8 10 10 10 4 0 -7 11 -9 28
-7 30 5 94 7 132 4 14 -1 39 0 55 2 17 1 37 -1 46 -5 8 -4 32 -3 52 2 25 5 42
4 50 -3 18 -17 37 -19 37 -4 0 10 21 13 80 14 67 0 80 -3 81 -16 0 -14 1 -14
7 0 6 13 38 15 234 15 126 -1 228 2 228 5 0 4 15 4 33 0 17 -3 64 -5 102 -4
275 11 3180 13 14589 13 7133 0 12967 2 12965 5 -3 2 -6161 5 -13685 6 -7523
1 -13707 4 -13741 8 -34 4 -73 3 -87 0 -14 -4 -26 -4 -26 0 0 9 -126 5 -140
-4 -5 -3 -11 -2 -13 2 -3 5 -107 8 -231 8 -124 0 -226 3 -226 8 0 4 -6 5 -12
0 -22 -13 -152 -10 -167 5 -11 11 -16 10 -31 -3 -13 -12 -26 -14 -42 -9 -34
11 -48 13 -48 6 0 -7 -95 -7 -230 -2 -36 2 -71 7 -77 13 -9 6 -15 4 -19 -8 -7
-17 -8 -17 -21 1 -13 18 -15 18 -24 2 -7 -13 -15 -15 -32 -9 -12 4 -28 6 -34
4 -7 -3 -13 0 -13 5 0 9 -23 9 -40 1 -14 -6 -36 -3 -42 6 -5 6 -8 3 -8 -7 0
-16 -3 -16 -40 -3 -27 9 -40 10 -40 3 0 -7 -5 -6 -15 2 -8 7 -15 8 -15 3 0
-14 -83 -13 -92 1 -5 8 -8 7 -8 -2 0 -10 -5 -10 -20 -2 -11 6 -20 7 -20 2 0
-5 -11 -9 -25 -9 -14 0 -25 3 -25 8 0 5 -11 4 -25 -3 -19 -8 -28 -8 -40 2 -12
10 -15 10 -15 -1 -1 -9 -5 -8 -15 5 -8 11 -15 14 -15 7 0 -7 -4 -9 -10 -6 -5
3 -10 -2 -10 -12 0 -14 -2 -15 -9 -5 -4 8 -19 13 -32 12 -38 -3 -46 -1 -63 16
-10 10 -16 11 -16 4 0 -7 -7 -10 -15 -6 -9 3 -15 -1 -15 -11 0 -13 -3 -13 -15
-3 -12 10 -15 10 -15 -1 0 -12 -2 -12 -9 0 -5 7 -14 11 -20 7 -17 -11 -51 13
-52 37 -1 17 -2 18 -6 5 -2 -10 -11 -18 -19 -18 -8 0 -14 -5 -14 -10 0 -13
-100 -8 -100 5 0 6 -3 6 -8 -1 -9 -13 -94 -13 -104 1 -5 6 -8 3 -8 -6 0 -17
-30 -22 -30 -5 0 6 -5 4 -10 -4 -9 -13 -10 -13 -10 0 0 13 -1 13 -10 0 -7 -12
-10 -8 -11 15 0 17 -3 23 -6 15 -4 -8 -13 -20 -22 -27 -13 -10 -18 -7 -28 15
-10 23 -12 24 -13 7 l-1 -20 -9 20 c-8 19 -9 19 -9 -1 -1 -30 -31 -41 -31 -12
0 16 -3 19 -11 11 -6 -6 -18 -9 -25 -6 -9 3 -14 -2 -14 -12 0 -14 -3 -15 -15
-5 -8 6 -19 9 -25 5 -5 -3 -10 -1 -10 4 0 15 -27 14 -33 -1 -3 -7 -6 -4 -6 6
-1 11 -4 16 -7 13 -4 -3 -15 -2 -25 4 -16 8 -19 6 -20 -13 -1 -15 -3 -17 -6
-7 -3 11 -11 15 -24 12 -10 -3 -19 0 -19 6 0 6 -4 11 -10 11 -5 0 -10 -6 -10
-14 0 -9 -7 -12 -20 -9 -13 3 -20 0 -20 -8 -1 -8 -7 -3 -14 10 l-13 24 -15
-22 c-17 -25 -38 -24 -53 1 -12 20 -26 20 -40 1 -15 -20 -38 -12 -51 17 l-11
25 -7 -22 c-10 -32 -21 -29 -34 10 l-10 32 -1 -30 c-1 -23 -3 -27 -11 -15 -8
12 -10 11 -10 -6 0 -12 -7 -21 -15 -21 -8 0 -15 3 -15 7 0 9 -42 7 -57 -3 -9
-6 -13 -1 -13 13 0 17 -4 20 -20 15 -15 -5 -22 -1 -29 17 -8 22 -9 21 -16 -10
-5 -25 -10 -31 -18 -23 -16 16 -27 13 -28 -6 -1 -10 -5 -2 -9 17 -6 27 -8 29
-9 11 -1 -24 -1 -24 -16 -5 -9 12 -14 14 -15 5 0 -11 -5 -10 -24 2 -22 15 -25
15 -30 0 -6 -14 -8 -14 -19 2 -13 16 -14 16 -30 0 -16 -15 -17 -13 -19 37 -1
37 -2 43 -5 20 -3 -23 -9 -32 -18 -28 -8 3 -16 -5 -20 -21 -6 -24 -7 -25 -20
-7 -14 18 -14 18 -15 -6 0 -20 -2 -22 -10 -10 -8 12 -10 12 -10 1 0 -27 -15 1
-31 57 l-16 57 -7 -45 -7 -45 -20 24 c-18 22 -19 22 -19 3 0 -35 -19 -35 -28
0 -8 31 -9 31 -16 11 -4 -13 -13 -23 -21 -23 -7 0 -16 -6 -18 -12 -3 -7 -6 1
-6 17 -1 21 -4 26 -10 16 -7 -11 -9 -11 -14 0 -3 8 -6 4 -6 -9 -1 -29 -21 -24
-38 9 l-13 24 0 -25 c0 -26 -20 -67 -20 -42 0 7 -5 10 -10 7 -6 -4 -10 7 -10
25 0 18 -4 29 -10 25 -5 -3 -10 -22 -10 -41 0 -32 -2 -34 -15 -20 -8 8 -16 25
-16 38 -1 19 -3 18 -9 -7 -7 -29 -8 -29 -9 10 l-1 40 -20 -30 -20 -30 -1 35
c-1 28 -3 30 -6 10 -6 -30 -24 -44 -35 -27 -5 8 -8 5 -9 -8 l0 -20 -9 20 c-7
17 -9 17 -9 3 -1 -22 -17 -23 -25 -2 -5 13 -9 14 -21 4 -17 -14 -21 -7 -28 45
-4 27 -4 26 -6 -7 -1 -33 -21 -67 -21 -36 0 9 -3 9 -10 -2 -8 -13 -11 -12 -24
5 -15 20 -15 20 -16 -2 0 -29 -14 -29 -28 0 -8 17 -11 18 -11 5 -1 -10 -5 -18
-11 -18 -9 0 -15 17 -23 70 -3 19 -5 17 -6 -9 -1 -28 -4 -33 -21 -28 -15 4
-20 0 -21 -16 0 -20 -1 -20 -10 3 l-10 25 -19 -25 -20 -25 -1 30 c-2 30 -2 30
-9 -5 l-7 -35 -3 35 c-1 19 -5 46 -10 60 -6 23 -8 22 -14 -15 -13 -70 -14 -71
-16 -20 -2 44 -3 46 -10 20 -7 -29 -9 -28 -23 15 -3 8 -6 2 -6 -14 -1 -24 -3
-27 -16 -16 -12 10 -15 9 -16 -6 0 -16 -2 -16 -9 4 -5 12 -16 22 -25 22 -10 0
-15 10 -16 33 -1 25 -4 21 -13 -23 l-11 -55 -5 85 -5 85 -9 -65 c-7 -43 -11
-56 -14 -37 -3 23 -5 25 -17 14 -7 -8 -15 -27 -18 -43 l-4 -29 -2 32 c-2 53
-21 49 -22 -4 -1 -37 -3 -42 -8 -23 l-7 25 -8 -28 c-5 -22 -10 -26 -20 -18 -7
6 -16 8 -19 4 -4 -3 -7 12 -7 35 0 60 -18 52 -23 -10 -3 -52 -3 -52 -5 12 -2
62 -16 74 -24 20 l-3 -25 -17 30 -17 30 -2 -30 c-1 -16 -5 -3 -9 30 l-7 60 -2
-65 c-2 -36 -6 -56 -8 -46 -4 15 -7 16 -13 5 -10 -15 -13 -10 -25 46 l-7 30
-12 -30 c-7 -17 -20 -36 -28 -43 -13 -10 -16 -9 -21 8 -8 30 -27 24 -27 -9 0
-17 -4 -33 -10 -36 -6 -3 -10 3 -10 15 0 12 -5 18 -10 15 -6 -4 -10 6 -10 22
0 41 -19 8 -21 -37 -2 -27 -4 -22 -9 20 l-7 55 -2 -50 c-2 -60 -20 -44 -22 20
l-2 40 -7 -35 c-4 -19 -9 -28 -10 -20 -2 8 -6 -3 -10 -25 l-7 -40 -2 40 c-2
48 -21 86 -21 43 0 -15 -4 -29 -9 -32 -10 -7 -21 17 -21 47 0 12 -5 29 -10 37
-7 12 -11 7 -17 -20 l-7 -35 -7 35 c-6 33 -7 32 -9 -15 l-3 -50 -7 40 -7 40
-2 -40 c-2 -38 -3 -39 -13 -15 l-11 25 -7 -25 c-8 -25 -8 -25 -10 5 -2 30 -2
30 -10 5 -7 -22 -8 -22 -11 -5 -1 11 -5 -7 -9 -40 l-7 -60 -1 82 c-1 45 -7 85
-12 88 -6 4 -10 -7 -10 -25 0 -18 -4 -29 -10 -25 -6 4 -11 -11 -12 -37 l-1
-43 -7 50 -7 50 -3 -55 c-3 -55 -3 -54 -11 24 -11 106 -17 116 -19 31 -1 -62
-2 -68 -14 -52 -13 17 -15 17 -29 -3 -14 -20 -16 -21 -20 -3 -3 12 -5 9 -6 -9
-1 -20 -5 -26 -16 -22 -11 5 -15 22 -16 63 0 61 -15 47 -20 -19 -2 -23 -5 -13
-9 30 l-7 65 -1 -55 c-2 -37 -5 -50 -11 -41 -7 11 -11 6 -14 -20 -4 -34 -4
-34 -6 6 -2 55 -16 76 -24 36 -12 -58 -27 -33 -28 47 0 52 -3 71 -9 57 -5 -11
-9 -36 -9 -55 -2 -48 -18 -21 -27 42 -4 26 -10 45 -15 42 -5 -3 -9 12 -10 33
0 26 -3 32 -8 20 -6 -17 -8 -17 -18 5 -6 13 -14 54 -17 92 -5 67 -19 101 -37
90 -5 -3 -9 3 -10 13 -1 10 -5 77 -10 148 -6 72 -12 175 -15 229 -6 104 -22
118 -25 21 -5 -170 -35 427 -41 823 -2 132 -3 130 -8 -58 -6 -193 -6 -191 -8
101 -3 386 -15 475 -22 159 -5 -232 -6 -230 -10 150 -4 349 -5 366 -10 185
l-6 -200 -4 290 -5 290 -5 -280 c-5 -272 -6 -267 -10 200 -4 399 -5 444 -10
265 -3 -118 -7 -179 -9 -135 -3 61 -5 73 -11 50 -4 -16 -9 125 -11 315 -3 279
-4 314 -9 180 -6 -193 -17 513 -27 1803 -6 773 -8 837 -23 837 -15 0 -17 -92
-23 -1262z"/>
</g>
</svg>
