<?xml version="1.0" standalone="no"?>
<!DOCTYPE svg PUBLIC "-//W3C//DTD SVG 20010904//EN"
 "http://www.w3.org/TR/2001/REC-SVG-20010904/DTD/svg10.dtd">
<svg version="1.0" xmlns="http://www.w3.org/2000/svg"
 width="3600.000000pt" height="1200.000000pt" viewBox="0 0 3600.000000 1200.000000"
 preserveAspectRatio="xMidYMid meet">
<metadata>
Created by potrace 1.16, written by Peter Selinger 2001-2019
</metadata>
<g transform="translate(0.000000,1200.000000) scale(0.100000,-0.100000)"
fill="#000000" stroke="none">
<path d="M7658 9065 c-5 -132 -10 -519 -13 -860 -7 -845 -18 -1398 -26 -1350
-3 22 -7 -138 -8 -355 0 -217 -4 -419 -7 -447 -6 -49 -9 -53 -34 -53 l-27 0
-8 1023 c-9 1190 -16 1437 -28 927 -17 -780 -20 -884 -27 -865 -12 35 -20
-143 -20 -475 0 -179 -3 -389 -7 -468 l-6 -143 -26 3 -26 3 -7 1019 c-4 561
-10 1021 -13 1024 -3 3 -7 3 -9 1 -2 -2 -9 -391 -15 -864 -6 -473 -14 -933
-17 -1022 l-6 -163 -32 0 -32 0 -12 1422 c-7 782 -16 1426 -21 1431 -11 11
-20 -541 -28 -1780 l-6 -1073 -39 0 -38 0 0 343 c0 461 -12 996 -21 972 -5
-12 -8 14 -9 65 -1 47 -4 103 -9 125 -7 40 -21 -620 -21 -1014 0 -113 -3 -270
-7 -348 -6 -130 -8 -143 -25 -143 -17 0 -18 13 -18 213 0 118 -3 337 -7 488
l-8 274 -6 -175 c-4 -96 -7 -292 -8 -435 -1 -143 -4 -284 -7 -312 l-7 -53 -43
0 c-29 0 -46 5 -52 16 -8 15 -10 15 -15 0 -5 -12 -20 -16 -67 -16 l-60 0 1
-32 c0 -18 4 -51 8 -73 8 -40 10 -38 26 11 3 9 8 14 12 11 3 -4 21 14 40 38
45 60 59 58 68 -7 3 -29 12 -75 20 -103 7 -27 16 -72 20 -100 3 -27 12 -70 18
-95 l12 -45 6 50 c4 28 8 116 8 198 1 136 2 147 20 147 25 0 31 -50 31 -269 0
-97 4 -182 9 -189 9 -15 21 183 21 351 l0 107 33 0 34 0 6 -197 c4 -108 7
-386 7 -617 1 -232 5 -549 10 -706 5 -157 14 -598 20 -980 6 -382 12 -696 14
-697 5 -5 16 1316 16 1936 0 339 3 761 7 939 l6 322 28 0 27 0 6 -122 c3 -68
8 -532 12 -1033 8 -1098 16 -1336 27 -785 8 383 27 1680 27 1848 l0 92 33 0
34 0 8 -1252 c4 -689 10 -1390 14 -1558 l6 -305 7 510 c5 281 11 981 14 1558
l7 1047 42 0 43 0 6 -222 c3 -123 8 -646 11 -1163 3 -517 8 -1149 13 -1405 11
-713 18 -369 27 1323 l8 1467 42 0 42 0 7 -207 c4 -115 11 -705 16 -1313 5
-608 11 -1179 12 -1270 l2 -165 7 190 c3 105 8 478 9 830 1 352 6 685 10 740
5 78 7 35 10 -195 l4 -295 7 285 c3 157 7 536 8 843 l1 557 44 0 43 0 7 -277
c3 -153 9 -593 12 -978 4 -385 10 -765 13 -845 7 -143 7 -141 14 140 5 157 13
321 18 365 6 44 14 420 19 835 5 415 9 756 9 758 1 1 16 2 34 2 l34 0 6 -197
c4 -108 7 -318 7 -468 0 -338 17 -1201 27 -1355 l7 -115 7 175 c4 96 9 454 13
795 3 341 9 743 12 893 l6 272 33 0 33 0 6 -122 c3 -68 8 -485 12 -928 3 -443
9 -841 14 -885 l7 -80 2 85 c0 47 5 308 11 580 5 272 13 687 16 923 6 409 7
427 25 427 18 0 19 -11 19 -222 0 -123 3 -491 8 -818 l7 -595 6 355 c4 195 7
563 8 818 1 378 3 462 14 462 13 0 20 -462 29 -1995 l2 -330 7 405 c3 223 7
746 8 1163 1 717 2 758 19 755 15 -3 18 -22 22 -188 l6 -185 2 188 c2 180 3
187 22 187 20 0 20 -7 21 -427 1 -236 5 -671 8 -968 l7 -540 2 411 c5 993 15
1524 29 1524 11 0 13 -79 13 -438 0 -712 14 -1952 21 -1892 4 30 7 483 8 1005
1 1061 7 1325 27 1325 11 0 14 -103 17 -572 l2 -573 3 573 c2 547 3 572 20
572 18 0 19 -24 25 -487 4 -269 8 -686 9 -928 l2 -440 7 445 c3 245 7 662 8
928 1 421 3 482 16 482 13 0 15 -58 15 -457 0 -704 13 -2064 19 -2057 3 3 8
567 11 1254 3 687 9 1252 13 1256 4 4 10 4 15 0 4 -4 9 -161 12 -349 l6 -342
2 256 c1 141 5 297 8 347 l7 92 37 0 37 0 6 -317 c4 -174 8 -533 8 -797 1
-265 4 -605 8 -756 6 -274 6 -274 14 255 12 865 20 1193 28 1150 4 -22 9 -65
10 -95 l2 -55 7 70 c4 39 8 177 9 308 l1 237 43 0 44 0 6 -197 c4 -108 8 -370
8 -582 1 -212 4 -512 8 -666 l6 -280 7 230 c5 127 11 515 14 863 4 347 10 632
14 632 11 0 20 -136 21 -314 1 -96 4 -151 9 -136 4 14 8 70 9 125 1 55 4 151
8 213 l6 112 37 0 37 0 7 -92 c3 -50 7 -231 7 -402 1 -296 13 -604 17 -446 11
376 24 665 32 670 6 3 13 54 17 114 6 100 15 124 26 66 2 -14 5 1 6 33 1 53 3
57 24 57 l24 0 6 -202 c4 -112 8 -264 9 -338 1 -119 2 -127 8 -65 4 39 8 146
9 238 1 109 5 166 11 162 6 -4 10 -68 10 -158 0 -84 3 -258 8 -387 l7 -235 6
135 c4 74 7 275 8 446 0 171 4 332 7 358 6 42 9 46 34 46 25 0 28 -4 34 -46 3
-26 7 -77 7 -113 1 -52 3 -59 8 -31 l7 35 7 -34 c4 -18 7 -91 7 -161 0 -191
13 -439 21 -410 4 14 8 -36 8 -110 1 -74 6 -142 11 -150 6 -10 10 47 10 171 0
102 3 335 7 517 l6 332 34 0 c32 0 33 -1 34 -42 l2 -43 6 35 c5 30 7 32 14 15
9 -21 25 -246 28 -385 2 -47 4 -68 6 -47 2 20 8 35 14 32 5 -4 10 -85 10 -183
1 -97 4 -249 8 -337 6 -158 6 -157 14 144 4 167 7 418 7 558 l0 253 45 0 45 0
1 -162 c1 -90 5 -190 9 -223 5 -41 8 12 9 163 l1 222 25 0 25 0 1 -652 c1
-359 4 -738 8 -843 l6 -190 7 180 c4 99 11 478 14 843 5 509 10 662 19 662 10
0 14 -260 20 -1157 4 -637 11 -1214 15 -1283 4 -69 8 375 8 985 1 611 5 1188
9 1283 5 153 8 172 23 172 16 0 18 -74 25 -1102 4 -607 10 -1245 14 -1418 5
-250 8 -113 14 664 4 539 7 1177 7 1418 0 420 1 438 19 438 17 0 18 -31 25
-837 3 -461 9 -1097 14 -1413 l7 -575 6 515 c3 283 7 891 8 1351 0 460 4 864
7 898 6 49 10 61 24 61 19 0 16 164 37 -1995 l8 -760 6 605 c3 333 7 946 8
1362 0 416 4 763 7 772 3 9 15 16 25 16 18 0 19 -15 19 -468 0 -733 14 -1818
21 -1662 4 74 10 584 14 1133 7 933 9 997 25 997 15 0 18 -19 23 -187 4 -104
7 -418 7 -699 0 -281 3 -756 8 -1055 7 -511 7 -529 13 -294 3 138 7 531 8 875
0 344 4 790 8 993 l6 367 32 0 32 0 6 -142 c4 -79 11 -651 18 -1273 6 -621 14
-1166 18 -1210 8 -95 19 557 26 1645 3 415 8 806 11 868 l6 112 42 0 43 0 7
-1057 c3 -582 10 -1121 13 -1198 l8 -140 7 120 c8 147 28 1475 28 1938 l0 337
34 0 c31 0 34 -3 40 -37 3 -21 6 -175 6 -343 0 -179 4 -311 10 -320 6 -10 10
63 10 215 0 262 10 485 20 485 12 0 19 -189 27 -685 9 -539 20 -410 22 268 l1
417 25 0 24 0 4 -157 3 -158 2 158 c2 150 3 157 22 157 19 0 20 -7 21 -172 1
-95 5 -184 9 -198 5 -15 8 42 9 141 1 92 4 181 7 198 8 39 34 42 34 4 1 -16 7
-39 15 -53 l14 -25 1 37 c0 53 9 68 39 68 27 0 27 -1 39 -97 7 -54 12 -110 12
-125 0 -16 5 -28 10 -28 6 0 10 21 10 48 0 66 11 126 20 111 5 -6 11 11 15 40
l7 51 38 0 c21 0 41 -6 44 -12 3 -7 4 -4 2 7 -3 11 -7 94 -11 185 -7 196 -16
353 -20 348 -2 -2 -9 -93 -15 -202 -7 -114 -18 -216 -26 -239 -8 -22 -14 -50
-14 -63 0 -21 -5 -24 -39 -24 l-39 0 -5 53 c-4 28 -9 157 -13 285 -4 128 -10
234 -14 237 -7 4 -12 -75 -26 -417 -6 -141 -9 -158 -24 -158 -24 0 -30 19 -31
98 0 37 -4 85 -8 107 -7 30 -9 10 -10 -82 -1 -98 -4 -123 -15 -123 -21 0 -26
33 -27 200 0 85 -4 175 -8 200 -6 32 -9 -5 -10 -125 -1 -190 -9 -284 -22 -263
-5 7 -9 146 -9 309 0 163 -3 460 -7 660 -8 353 -8 359 -14 184 -4 -99 -7 -378
-8 -620 -1 -494 -4 -545 -32 -545 -17 0 -19 8 -19 64 0 36 -4 68 -10 71 -6 4
-10 -20 -10 -64 0 -64 -2 -71 -20 -71 -19 0 -20 7 -20 203 0 111 -7 479 -15
817 -8 338 -15 656 -15 705 0 57 -4 85 -9 75 -5 -8 -12 -290 -15 -625 -4 -336
-9 -737 -12 -892 l-6 -283 -28 0 -28 0 -6 233 c-3 127 -8 563 -12 967 -3 404
-9 767 -14 805 -6 57 -7 61 -8 25 -1 -25 -6 -164 -12 -310 -29 -748 -40 -1134
-40 -1412 l0 -308 -38 0 -39 0 -12 618 c-6 339 -16 1001 -21 1471 -5 470 -11
856 -13 858 -7 6 -17 -815 -24 -1894 l-6 -1053 -24 0 -23 0 0 518 c0 783 -13
1724 -21 1492 -4 -102 -7 -399 -8 -661 0 -262 -4 -672 -8 -912 -6 -399 -8
-437 -23 -437 -15 0 -17 33 -23 362 -4 199 -8 654 -8 1012 -1 358 -4 759 -8
891 -5 199 -7 123 -13 -439 -5 -374 -8 -937 -8 -1253 l0 -573 -23 0 -24 0 -6
998 c-4 548 -8 1164 -9 1367 -1 327 -2 348 -8 185 -4 -102 -11 -717 -15 -1367
l-8 -1183 -22 0 -22 0 -6 893 c-4 490 -8 1106 -9 1367 l-1 475 -9 -500 c-4
-275 -11 -890 -14 -1367 -6 -811 -8 -868 -24 -868 -15 0 -17 39 -23 542 -4
298 -8 902 -9 1342 -1 520 -4 729 -8 596 -4 -113 -11 -717 -15 -1342 -8 -1057
-9 -1138 -25 -1138 -15 0 -17 30 -23 338 -4 185 -8 508 -9 717 l-2 380 -7
-490 c-3 -269 -7 -592 -8 -717 -1 -214 -2 -228 -19 -228 -17 0 -19 15 -25 197
-4 108 -8 624 -8 1147 -1 523 -5 1043 -9 1156 l-6 205 -2 -235 c-12 -1438 -23
-2465 -27 -2469 -3 -2 -7 -2 -10 1 -3 2 -9 139 -15 304 -5 164 -11 306 -11
314 -5 38 -17 -139 -19 -270 -1 -80 -5 -183 -9 -230 l-8 -85 -3 90 c-1 50 -5
131 -9 180 -7 83 -8 76 -9 -76 -1 -92 -5 -181 -8 -198 -6 -30 -8 -31 -59 -31
l-52 0 -7 77 c-3 42 -6 130 -6 197 0 67 -3 179 -7 251 -6 126 -7 128 -20 90
-12 -35 -31 -363 -33 -567 l0 -48 -49 0 -49 0 -7 248 c-3 136 -11 303 -17 372
-6 69 -14 168 -17 220 -6 95 -6 95 -13 -74 -5 -93 -8 -303 -8 -468 l0 -298
-43 0 -44 0 -6 287 c-4 157 -8 347 -8 422 -2 252 -16 62 -23 -324 -4 -203 -10
-373 -12 -377 -3 -5 -30 -8 -60 -8 l-54 0 0 268 c0 147 -3 420 -8 607 -8 369
-17 323 -22 -115 -3 -249 -15 -529 -19 -430 -4 101 -19 120 -20 24 -1 -44 -4
-142 -8 -217 -5 -124 -8 -137 -25 -137 -16 0 -18 11 -20 123 l-2 122 -6 -120
-5 -120 -26 -3 -26 -3 -7 628 c-4 360 -11 632 -17 637 -5 6 -9 -44 -9 -130 0
-78 -3 -251 -7 -385 -7 -204 -9 -229 -14 -154 -4 50 -8 140 -10 200 l-3 110
-6 -145 c-4 -80 -8 -269 -9 -421 0 -152 -4 -291 -7 -308 -6 -29 -9 -31 -50
-31 l-44 0 0 348 c0 191 -3 628 -8 972 -6 549 -8 594 -13 375 -3 -137 -7 -452
-9 -700 -4 -649 -13 -765 -25 -325 -9 326 -10 337 -16 195 -4 -82 -7 -311 -8
-507 -1 -311 -3 -358 -16 -358 -13 0 -15 60 -16 478 -1 262 -5 520 -9 572 -4
55 -7 -145 -8 -477 -2 -549 -3 -573 -20 -573 -18 0 -19 16 -25 248 -4 136 -8
537 -9 892 l-2 645 -7 -420 c-3 -231 -7 -633 -8 -892 -1 -413 -3 -473 -16
-473 -13 0 -15 65 -15 528 0 291 -3 888 -7 1328 l-8 799 -6 -460 c-3 -253 -7
-721 -8 -1041 0 -319 -4 -711 -8 -870 -8 -280 -8 -285 -14 -144 -4 80 -8 564
-10 1075 -2 750 -4 861 -10 575 -3 -195 -7 -678 -8 -1072 -1 -690 -2 -718 -19
-718 -18 0 -19 21 -25 413 -4 226 -8 698 -9 1047 l-2 635 -7 -460 c-3 -253 -7
-724 -8 -1047 -1 -483 -3 -588 -14 -588 -14 0 -22 673 -29 2204 l-2 431 -7
-275 c-3 -151 -7 -494 -8 -761 -2 -780 -14 -1599 -23 -1599 -4 0 -9 206 -9
458 -1 251 -5 558 -8 682 -7 214 -7 206 -9 -171 -3 -607 -13 -969 -27 -969
-12 0 -23 584 -27 1499 -2 445 -2 444 -9 -204 -3 -357 -7 -795 -8 -972 -1
-263 -4 -323 -14 -323 -16 0 -26 354 -28 954 -1 193 -5 380 -9 416 -5 45 -7
-3 -8 -156 -1 -121 -5 -444 -9 -717 l-6 -497 -34 0 -33 0 0 223 c0 214 -11
692 -26 1192 -6 183 -10 225 -15 175 -7 -62 -29 -1181 -29 -1457 l0 -133 -40
0 -40 0 0 273 c0 571 -14 1537 -21 1525 -5 -7 -9 -94 -9 -193 -1 -195 -15
-323 -21 -190 -5 129 -16 -434 -18 -927 l-1 -488 -44 0 -44 0 -6 333 c-7 340
-26 1885 -26 2081 0 60 -3 106 -6 103 -8 -8 -32 -1123 -39 -1842 -3 -291 -8
-563 -11 -602 l-6 -73 -43 0 -43 0 -6 443 c-3 243 -9 987 -14 1652 -5 877 -9
1144 -14 970z"/>
<path d="M647 8720 c-4 -245 -9 -834 -12 -1310 -3 -476 -8 -988 -11 -1137 l-6
-273 -48 0 -48 0 -6 63 c-4 34 -11 136 -17 227 -6 91 -12 167 -15 169 -2 2 -4
-10 -4 -27 0 -17 -5 -34 -10 -37 -6 -4 -10 22 -10 72 0 47 -4 73 -9 64 -5 -7
-12 -117 -15 -245 -8 -285 -9 -286 -47 -286 -27 0 -29 2 -30 43 l-1 42 -11
-42 c-5 -25 -16 -43 -23 -43 -11 0 -14 21 -15 88 -1 48 -4 125 -8 172 l-8 85
-3 -75 c-1 -41 -5 -109 -9 -150 -6 -73 -7 -74 -15 -32 -4 23 -11 42 -15 42 -4
0 -12 -29 -17 -65 l-10 -65 41 0 42 0 6 -167 c4 -91 8 -200 9 -242 1 -68 2
-64 8 39 4 63 8 172 9 243 0 70 5 127 9 127 9 0 22 -174 22 -299 0 -119 11
-75 21 86 6 81 14 152 20 157 5 6 9 20 9 33 0 21 5 23 49 23 48 0 48 0 55 -37
3 -21 11 -371 17 -778 5 -407 14 -765 18 -795 5 -34 10 96 14 345 4 220 11
481 15 580 6 167 7 173 12 85 l5 -95 8 109 c4 60 7 216 7 348 l0 238 40 0 39
0 4 -212 c2 -117 9 -343 15 -503 7 -159 15 -492 18 -740 4 -247 10 -436 15
-420 4 17 9 152 12 300 3 149 11 439 17 645 6 206 13 500 16 653 l6 277 49 0
c47 0 49 -1 49 -27 6 -389 32 -1297 42 -1408 l13 -150 7 120 c10 173 28 861
28 1056 0 91 3 221 7 287 l6 122 42 0 42 0 13 -547 c7 -302 15 -611 19 -688
l7 -140 7 155 c4 85 12 349 17 585 5 237 13 476 16 533 l6 102 54 0 c52 0 53
-1 58 -32 3 -18 8 -154 11 -303 3 -148 9 -287 12 -309 10 -67 22 -17 33 140
22 324 23 339 30 314 5 -22 7 -23 13 -7 4 10 7 49 7 85 0 95 6 112 41 112 27
0 28 -2 31 -52 l4 -53 8 53 c5 30 14 52 21 52 9 0 15 -32 19 -107 11 -186 18
-253 26 -253 4 0 11 43 15 96 4 52 9 93 12 90 4 -3 9 -34 13 -68 6 -57 7 -60
13 -28 3 19 9 88 13 153 l6 117 48 0 48 0 7 -157 c8 -210 33 -411 46 -388 4 6
9 89 13 185 4 96 9 217 13 268 l6 92 42 0 42 0 6 -57 c4 -32 9 -95 13 -141 4
-45 11 -85 15 -88 5 -3 9 5 9 18 0 13 7 36 15 52 9 17 18 70 22 123 l6 93 28
0 c25 0 28 -4 36 -52 l9 -53 7 53 c9 58 23 67 38 22 14 -38 25 -38 32 0 6 29
7 29 72 29 56 -1 65 -3 65 -19 0 -10 7 -26 15 -34 13 -13 35 -101 35 -141 0
-5 4 -5 10 1 10 10 40 141 40 175 0 16 -7 19 -50 19 -58 0 -56 -2 -66 95 -7
76 -21 68 -24 -15 -1 -25 -5 -54 -9 -65 -7 -16 -10 -12 -16 23 -5 30 -10 41
-17 34 -6 -6 -16 -8 -24 -5 -8 3 -15 -7 -20 -31 -5 -29 -11 -36 -29 -36 -16 0
-25 7 -28 23 l-4 22 -8 -22 c-4 -13 -13 -23 -20 -23 -9 0 -15 39 -20 149 -4
81 -11 154 -15 161 -6 10 -19 -98 -33 -280 -2 -22 -7 -25 -44 -28 -40 -3 -42
-2 -47 30 -3 18 -10 103 -16 188 -20 300 -30 307 -49 35 -6 -93 -14 -189 -17
-212 -5 -42 -6 -43 -45 -43 -21 0 -39 1 -39 3 -12 158 -50 581 -53 584 -3 2
-8 -42 -11 -99 -17 -301 -27 -444 -32 -465 -5 -20 -12 -23 -54 -23 l-47 0 -10
103 -9 102 -8 -102 c-5 -57 -12 -103 -16 -103 -10 0 -20 153 -21 319 -1 75 -4
179 -8 231 l-6 95 -7 -110 c-4 -60 -13 -206 -19 -322 l-12 -213 -57 0 -57 0
-5 153 c-3 85 -10 163 -16 173 -6 12 -14 120 -18 250 -3 126 -10 245 -14 264
l-8 35 -1 -40 c-1 -22 -6 -58 -11 -80 -5 -22 -13 -155 -19 -295 -6 -140 -14
-301 -17 -357 l-6 -103 -38 0 -37 0 -6 68 c-4 37 -7 150 -7 252 -1 286 -17
672 -28 700 -6 14 -14 142 -19 285 l-7 260 -7 -185 c-4 -102 -10 -454 -14
-782 l-7 -598 -48 0 -48 0 -6 283 c-3 155 -11 503 -16 772 -9 438 -17 631 -26
623 -8 -9 -25 -425 -34 -853 -5 -269 -13 -565 -16 -657 l-7 -168 -47 0 -47 0
-7 248 c-3 136 -11 731 -17 1322 -6 591 -14 1192 -18 1335 l-6 260 -8 -445z"/>
<path d="M13787 8830 c-7 -186 -27 -2135 -27 -2627 l0 -203 -35 0 -35 0 0 188
c0 103 -3 327 -8 497 l-7 310 -6 -185 c-4 -102 -7 -320 -8 -485 -1 -277 -7
-342 -28 -321 -4 4 -11 175 -14 379 -9 496 -29 1122 -38 1172 -9 52 -21 -525
-21 -1060 0 -231 -3 -437 -6 -457 -6 -37 -8 -38 -50 -38 l-44 0 0 313 c0 173
-3 687 -7 1143 l-8 829 -6 -435 c-3 -239 -7 -676 -8 -970 -1 -294 -6 -553 -10
-575 -4 -22 -10 354 -14 835 -4 481 -10 1015 -15 1185 l-7 310 -6 -420 c-3
-231 -7 -744 -9 -1140 -1 -396 -6 -801 -9 -900 l-7 -180 -4 305 c-3 241 -5
282 -10 195 -4 -60 -8 -197 -9 -302 l-1 -193 -25 0 -25 0 -2 423 c-1 266 -4
391 -9 337 -4 -47 -7 -237 -8 -422 -1 -321 -2 -338 -19 -338 -18 0 -19 26 -25
572 -4 314 -8 819 -9 1122 l-2 551 -7 -430 c-3 -236 -7 -742 -8 -1122 0 -405
-5 -693 -10 -693 -16 0 -20 193 -27 1300 -3 602 -9 1133 -12 1180 -9 106 -22
-589 -22 -1116 0 -204 -3 -594 -7 -867 l-6 -497 -22 0 c-21 0 -22 6 -29 92 -3
50 -7 310 -8 577 -2 466 -2 474 -9 206 -3 -154 -7 -414 -8 -577 -1 -245 -3
-298 -15 -298 -19 0 -26 53 -26 192 0 67 -4 119 -10 123 -6 4 -10 -12 -10 -42
0 -26 -4 -54 -9 -61 -10 -16 -17 21 -27 143 -6 74 -23 139 -24 92 0 -11 -4
-71 -10 -135 -5 -65 -12 -161 -16 -214 l-6 -98 -43 0 -43 0 -6 63 c-3 34 -8
198 -12 364 -4 166 -10 339 -13 385 -6 80 -7 77 -14 -77 -3 -88 -10 -289 -13
-447 -5 -216 -10 -288 -19 -288 -14 0 -24 62 -26 149 -2 85 -17 25 -18 -71 -1
-75 -2 -78 -25 -78 l-23 0 -7 328 c-9 466 -18 672 -27 642 -4 -14 -13 -166
-19 -339 -6 -172 -17 -382 -25 -465 -8 -83 -15 -154 -15 -158 0 -5 -10 -8 -23
-8 -24 0 -24 0 -36 213 -6 116 -15 228 -20 247 -7 31 -8 25 -14 -45 -4 -44 -9
-155 -13 -247 -6 -167 -6 -168 -29 -168 -21 0 -24 6 -31 56 -3 31 -12 58 -20
61 -8 3 -15 35 -20 94 -9 120 -22 127 -40 24 -8 -50 -14 -61 -25 -44 -6 10
-10 5 -15 -18 -8 -40 -24 -43 -25 -5 0 15 -4 36 -8 47 -7 18 -8 17 -14 -5 -3
-14 -9 -60 -13 -103 -4 -43 -11 -80 -15 -83 -5 -3 -9 3 -10 13 -1 12 -3 10 -8
-7 -4 -14 -14 -26 -23 -28 -17 -3 -22 23 -34 211 -3 53 -10 97 -15 97 -5 0 -9
-8 -9 -19 0 -10 -5 -33 -12 -51 -10 -30 -12 -32 -19 -14 -4 10 -8 33 -8 51 -1
17 -5 34 -10 37 -9 6 -16 -48 -27 -216 l-6 -98 -30 0 c-29 0 -30 -2 -25 -32 4
-18 13 -68 21 -111 16 -89 26 -108 26 -50 0 22 3 74 6 116 l7 77 58 0 58 0 7
-62 c8 -69 22 -57 23 20 l1 42 114 0 114 0 6 -107 c4 -60 10 -128 13 -153 l6
-45 8 55 c4 30 10 99 14 153 l7 97 28 0 c28 0 29 -2 34 -62 3 -35 9 -126 13
-203 6 -120 8 -132 14 -85 4 30 7 87 8 126 1 39 4 105 7 147 l7 77 42 0 42 0
6 -202 c4 -112 7 -250 7 -308 0 -58 4 -111 9 -118 8 -14 21 227 21 404 0 142
10 224 26 224 11 0 14 -23 15 -97 1 -54 5 -127 9 -163 l7 -65 2 95 c0 52 4
125 8 163 6 65 7 67 33 67 27 0 27 -1 33 -83 4 -45 10 -105 14 -132 l6 -50 13
40 12 40 1 -45 c1 -33 4 -41 11 -30 5 8 10 30 10 49 0 18 5 74 12 122 l12 89
58 0 58 0 1 -197 c1 -109 5 -290 8 -403 l6 -205 7 280 c5 154 8 335 8 403 0
102 2 122 15 122 13 0 15 -66 15 -532 0 -756 21 -2620 29 -2636 7 -13 21 1803
21 2735 l0 433 30 0 30 0 2 -742 2 -743 7 595 c3 327 7 661 8 743 1 117 4 147
15 147 11 0 15 -169 21 -1012 4 -557 11 -1267 15 -1578 l6 -565 2 451 c6 1436
16 2704 22 2704 4 0 10 -402 14 -892 3 -491 9 -1102 13 -1358 8 -462 8 -463
14 -225 3 132 10 743 14 1358 4 614 11 1117 16 1117 5 0 10 -66 12 -147 l3
-148 2 148 2 147 48 0 49 0 6 -532 c4 -293 8 -742 8 -998 1 -256 5 -593 8
-750 6 -274 6 -262 14 310 18 1445 22 1658 28 1505 4 -82 8 -296 9 -475 2
-230 5 -300 11 -240 4 47 7 331 8 633 l1 547 40 0 40 0 0 -197 c0 -111 5 -205
10 -213 6 -10 10 57 10 198 0 199 1 212 18 212 18 0 19 -17 25 -262 4 -145 7
-398 8 -563 1 -409 13 -473 23 -126 4 151 11 346 16 435 5 89 9 231 10 316 0
180 4 200 35 200 l22 0 6 -557 c4 -306 8 -739 9 -962 l2 -406 7 310 c3 171 7
604 8 963 0 358 5 652 9 652 5 0 12 -447 15 -992 10 -1355 20 -2030 29 -1833
7 167 27 1963 28 2488 l0 337 48 0 49 0 6 -452 c4 -248 8 -677 8 -952 1 -276
5 -694 8 -931 l6 -430 8 799 c4 440 7 1062 7 1383 0 576 0 583 20 583 20 0 20
-7 21 -572 1 -315 5 -800 8 -1078 l6 -505 8 799 c4 440 7 925 7 1078 0 153 4
278 8 278 13 0 22 -404 22 -981 0 -284 3 -754 8 -1045 9 -666 13 -540 32 954
l14 1072 21 0 22 0 6 -907 c4 -500 10 -1160 15 -1468 l7 -560 6 545 c3 300 7
960 8 1468 l1 922 23 0 24 0 6 -277 c4 -153 8 -597 9 -988 0 -390 4 -681 8
-645 4 36 8 480 9 988 1 812 3 922 16 922 13 0 15 -76 15 -623 0 -343 3 -902
8 -1243 l7 -619 6 330 c3 182 7 690 8 1130 0 440 4 851 8 913 l6 112 34 0 c18
0 34 -1 35 -2 5 -8 19 -705 27 -1338 20 -1577 25 -1874 32 -1775 4 55 10 778
14 1608 8 1451 9 1507 26 1507 17 0 19 -14 22 -212 l2 -213 3 213 c2 200 3
212 21 212 18 0 19 -25 25 -767 3 -423 10 -1024 14 -1338 l7 -570 8 1020 c9
1341 16 1655 34 1655 11 0 13 -106 14 -607 1 -335 5 -842 8 -1128 l7 -520 2
640 c1 352 5 859 9 1128 l6 487 42 0 42 0 8 -1122 c4 -618 10 -1229 14 -1358
4 -172 8 5 14 660 5 492 12 963 17 1045 5 83 10 291 10 463 l0 312 44 0 44 0
8 -947 9 -948 6 545 c3 300 8 721 9 935 l4 390 7 -315 c3 -173 7 -529 8 -790
2 -752 15 -1674 22 -1580 4 47 7 261 8 475 1 215 4 805 8 1313 l6 922 44 0 43
0 0 -232 c0 -563 22 -2586 29 -2618 4 -19 11 298 15 705 4 407 11 880 16 1050
5 171 9 487 10 703 l0 392 35 0 35 0 0 -453 c0 -463 9 -739 21 -662 3 22 7
-102 9 -275 2 -173 6 -517 9 -765 l6 -450 7 305 c5 168 11 754 14 1303 l7 997
32 0 32 0 6 -417 c4 -230 11 -499 16 -598 6 -99 13 -391 17 -648 3 -257 8
-466 10 -465 1 2 7 399 14 883 6 484 13 962 17 1063 l6 182 33 0 32 0 6 -62
c3 -35 10 -459 16 -943 14 -1175 22 -1726 27 -1722 2 2 8 593 14 1313 6 720
14 1334 18 1364 l9 55 2 -85 3 -85 10 83 c9 77 11 82 33 82 23 0 24 -3 25 -67
1 -109 17 -123 20 -18 l3 90 6 -120 c4 -66 8 -241 10 -390 1 -148 5 -333 9
-410 l6 -140 8 185 c5 102 12 203 17 225 5 22 11 157 15 300 6 277 11 345 25
345 4 0 11 -33 14 -72 3 -40 9 -125 14 -188 l9 -115 3 95 c1 52 5 138 9 190 6
84 7 68 14 -135 4 -126 10 -498 14 -825 7 -552 8 -578 15 -360 4 129 10 499
14 823 l6 587 38 0 37 0 8 -592 c4 -355 11 -603 17 -618 6 -14 13 -104 16
-200 9 -318 19 -143 26 450 3 322 9 669 12 773 l7 187 43 0 44 0 0 -107 c0
-60 5 -115 10 -123 7 -10 10 21 10 97 0 61 4 114 8 117 9 5 22 -321 22 -539 0
-60 5 -117 10 -125 6 -10 10 54 11 190 1 113 5 255 9 315 l7 110 2 -125 c2
-69 7 -168 11 -220 l7 -95 1 100 c1 55 5 138 9 185 6 68 9 78 14 50 4 -22 7 3
8 68 1 78 4 102 14 102 14 0 24 -286 29 -804 1 -159 2 -164 8 -76 4 52 9 205
10 340 1 135 5 292 9 350 6 94 7 80 14 -140 10 -327 21 -570 24 -545 2 19 33
805 33 853 0 20 5 22 49 22 l48 0 7 -277 c7 -268 19 -469 32 -554 12 -76 12
-77 44 416 5 77 9 202 9 278 l1 137 40 0 40 0 0 -122 c0 -202 19 -1055 26
-1168 5 -82 9 -100 16 -80 13 34 25 344 32 835 4 226 9 438 12 473 l6 62 38 0
37 0 7 -227 c4 -126 11 -266 16 -313 5 -47 12 -148 17 -225 l8 -140 6 150 c4
83 7 256 8 385 1 129 4 265 8 303 l6 67 37 0 37 0 7 -277 c3 -153 9 -421 12
-595 4 -175 10 -316 14 -313 4 2 10 179 14 392 3 214 9 479 12 591 l7 202 43
0 44 0 1 -207 c1 -115 5 -237 9 -273 l7 -65 3 75 3 75 8 -80 c5 -44 12 -125
16 -180 l7 -100 7 65 c4 36 7 124 8 196 0 72 4 213 8 312 l6 182 38 0 37 0 6
-57 c3 -32 8 -224 12 -428 3 -203 9 -390 13 -415 7 -47 9 -24 33 593 l12 307
41 0 c41 0 43 -1 49 -37 3 -21 6 -50 6 -65 0 -16 5 -28 10 -28 6 0 10 -7 10
-15 0 -8 5 -15 10 -15 6 0 10 11 10 25 0 14 4 25 9 25 5 0 13 25 16 55 7 49
10 55 30 55 14 0 25 -7 28 -17 4 -17 5 -17 6 0 1 11 9 17 25 17 22 0 23 -5 30
-77 3 -42 7 -117 7 -167 2 -114 16 -71 18 54 1 47 4 109 7 138 l7 52 48 0 49
0 0 -62 c0 -118 13 -292 20 -272 4 11 11 85 15 166 4 80 11 151 15 157 4 8 30
11 71 9 l64 -3 6 -88 c3 -48 8 -90 11 -93 3 -3 9 38 13 91 l7 95 68 0 67 0 7
-46 c3 -26 7 -65 8 -88 0 -23 4 -4 7 41 6 75 14 103 26 92 2 -3 7 -43 11 -89
8 -96 10 -95 19 13 6 72 8 77 30 77 25 0 34 -16 36 -63 1 -27 3 -25 11 16 l10
47 53 0 c62 0 65 -4 65 -93 0 -93 16 -104 25 -16 10 113 7 109 80 109 64 0 64
0 74 -32 l9 -33 1 33 1 32 104 0 103 0 7 -42 c7 -45 22 -42 28 7 3 30 4 30 69
33 l66 3 7 -32 c3 -17 6 -43 7 -58 0 -23 1 -24 9 -6 5 11 9 37 9 57 1 20 7 39
14 42 6 3 0 3 -14 0 -26 -5 -27 -4 -33 63 -4 37 -16 86 -26 108 -11 22 -23 58
-28 80 -9 39 -9 37 -17 -40 -8 -75 -9 -78 -20 -51 l-12 29 -6 -44 c-4 -24 -9
-68 -13 -96 -5 -41 -10 -53 -24 -53 -21 0 -29 27 -31 95 0 28 -4 70 -8 95 l-7
45 -8 -73 c-5 -40 -10 -71 -12 -69 -3 2 -8 24 -13 48 l-8 44 -10 -35 -10 -35
-7 60 c-9 73 -17 117 -21 113 -2 -2 -8 -59 -14 -127 -6 -69 -14 -127 -17 -130
-9 -10 -23 22 -29 71 -8 53 -25 56 -25 5 0 -50 -12 -107 -21 -107 -5 0 -9 21
-9 48 0 95 -13 217 -21 197 -4 -11 -8 -40 -9 -65 -3 -87 -17 -89 -24 -5 -9
106 -18 167 -22 162 -2 -2 -9 -55 -15 -118 -5 -63 -17 -138 -26 -166 -13 -45
-20 -53 -39 -53 -23 0 -24 4 -24 63 -1 113 -18 246 -33 262 -17 17 -20 8 -32
-97 -3 -31 -12 -62 -20 -68 -8 -6 -16 -43 -20 -86 -5 -48 -12 -74 -20 -74 -10
0 -32 180 -36 296 0 18 -1 18 -8 -1 -5 -11 -12 -82 -16 -158 -6 -106 -11 -137
-21 -137 -10 0 -14 16 -15 63 -1 99 -17 117 -18 20 -1 -63 -4 -83 -14 -83 -11
0 -16 30 -21 123 -9 164 -27 328 -36 322 -4 -3 -11 -50 -15 -107 -4 -56 -11
-112 -16 -125 -5 -13 -12 -60 -15 -106 -4 -45 -9 -77 -11 -70 -6 16 -43 -6
-43 -24 0 -7 -9 -13 -20 -13 -18 0 -20 7 -21 73 -1 81 -16 152 -18 84 -2 -69
-21 -29 -22 46 -1 40 -4 99 -8 132 -7 60 -7 59 -15 -48 -5 -59 -10 -106 -13
-104 -2 2 -7 24 -12 48 l-8 44 -7 -70 c-4 -38 -12 -86 -17 -105 -5 -19 -9 -50
-9 -67 0 -28 -4 -33 -24 -33 -29 0 -35 30 -37 175 -2 134 -12 246 -21 220 -3
-11 -9 -55 -13 -98 -4 -42 -11 -75 -16 -71 -5 3 -9 15 -9 27 0 16 -3 19 -9 8
-5 -7 -12 -69 -16 -137 -6 -113 -9 -124 -26 -124 -17 0 -19 8 -20 78 -1 85
-16 157 -19 92 0 -19 -9 -66 -19 -105 l-19 -70 -6 105 c-4 58 -10 173 -14 255
-5 83 -11 139 -15 125 -3 -14 -9 -127 -13 -252 l-6 -228 -39 0 -39 0 0 48 c0
51 -15 294 -26 432 -5 57 -9 78 -15 65 -4 -11 -8 -34 -8 -51 -1 -16 -5 -34
-11 -40 -5 -5 -12 -86 -15 -179 -3 -94 -8 -194 -11 -222 -5 -52 -6 -53 -38
-53 l-33 0 -6 223 c-4 122 -11 269 -16 327 -6 58 -13 199 -17 313 -3 114 -8
207 -9 205 -2 -2 -8 -187 -14 -413 -6 -225 -14 -465 -17 -532 l-7 -123 -37 0
-37 0 -6 122 c-4 66 -7 198 -7 293 0 296 -14 782 -21 740 -3 -22 -10 -209 -13
-415 -6 -310 -10 -376 -22 -383 -9 -5 -14 -25 -14 -61 0 -29 -3 -108 -7 -174
l-6 -122 -27 0 -27 0 -7 113 c-17 270 -25 451 -26 577 0 74 -3 173 -7 220 -7
77 -9 63 -19 -155 -7 -132 -15 -356 -20 -497 l-7 -258 -34 0 c-32 0 -33 2 -33
38 0 111 -20 775 -26 882 -7 115 -8 121 -15 69 -7 -50 -39 -828 -39 -943 l0
-46 -44 0 -44 0 -6 203 c-3 111 -11 524 -17 917 -6 393 -12 716 -14 718 -6 6
-15 -334 -25 -918 -6 -327 -13 -668 -16 -757 l-6 -163 -43 0 -42 0 -6 128 c-4
70 -7 161 -7 202 0 45 -4 70 -9 62 -11 -18 -18 10 -27 111 -7 76 -7 77 -22 50
-14 -26 -28 -242 -31 -480 l-1 -73 -54 0 -54 0 -8 253 -9 252 -6 -195 c-4
-107 -7 -221 -8 -252 l-1 -58 -69 0 -69 0 -6 133 c-3 72 -8 236 -11 362 -6
241 -15 419 -21 412 -2 -2 -11 -199 -19 -438 -18 -512 -15 -470 -25 -439 l-8
25 -1 -27 c-1 -26 -4 -28 -39 -28 l-39 0 -6 278 c-4 152 -8 369 -8 482 -1 194
-13 236 -20 70 -2 -60 -3 -65 -6 -27 -2 26 -8 47 -12 47 -8 0 -21 -357 -21
-599 0 -80 -3 -170 -6 -198 -6 -47 -10 -53 -30 -53 -20 0 -23 6 -27 43 l-4 42
-1 -42 c-2 -36 -5 -43 -22 -43 -13 0 -22 9 -26 28 -10 47 -12 48 -13 10 -1
-37 -2 -38 -40 -38 -39 0 -40 1 -44 38 l-4 37 -1 -37 c-1 -21 -6 -38 -11 -38
-5 0 -12 274 -16 616 -4 339 -11 640 -14 668 -10 72 -19 -210 -27 -801 -4
-266 -11 -483 -15 -483 -4 0 -10 21 -12 48 l-3 47 -2 -47 -2 -48 -39 0 -39 0
-6 198 c-13 434 -25 1047 -27 1407 -1 209 -4 427 -8 485 -3 58 -10 -302 -14
-800 -4 -498 -10 -992 -13 -1097 l-6 -193 -38 0 -37 0 -6 128 c-4 70 -8 307
-8 527 -2 419 -14 990 -17 799 -4 -224 -16 -449 -23 -419 -4 17 -7 -78 -8
-210 0 -132 -4 -372 -8 -532 l-6 -293 -32 0 -32 0 -6 197 c-4 108 -8 480 -8
827 -1 347 -5 843 -8 1101 -9 670 -18 402 -31 -880 -6 -561 -13 -1071 -16
-1132 l-6 -113 -34 0 -34 0 -1 328 c-3 503 -15 1128 -18 932 -2 -91 -6 -178
-10 -195 -7 -30 -14 224 -28 1045 l-8 425 -6 -295 c-3 -162 -7 -527 -8 -810 0
-283 -4 -721 -8 -972 l-6 -458 -44 0 -43 0 -1 493 c-2 709 -14 1447 -19 1172
l-4 -210 -7 220 c-3 121 -8 348 -9 505 -1 157 -5 330 -9 385 l-6 100 -7 -105
c-4 -58 -10 -634 -13 -1280 -3 -646 -8 -1199 -11 -1227 -5 -50 -7 -53 -33 -53
l-28 0 -6 737 c-4 405 -8 962 -9 1237 l-2 501 -7 -325 c-3 -179 -7 -575 -9
-880 -2 -305 -6 -703 -9 -885 -5 -269 -7 -150 -13 640 -5 534 -9 1150 -10
1370 l-1 400 -7 -255 c-4 -140 -11 -769 -15 -1397 -7 -953 -10 -1143 -21
-1143 -11 0 -14 27 -15 128 -1 70 -5 282 -9 472 l-6 345 -2 -426 c-1 -234 -5
-447 -8 -473 -6 -39 -10 -46 -29 -46 l-22 0 -6 842 c-4 463 -8 1004 -9 1202
l-2 361 -7 -275 c-3 -151 -7 -644 -9 -1095 -1 -451 -6 -869 -10 -930 -3 -60
-8 257 -10 705 -1 448 -6 1049 -9 1335 l-6 520 -7 -775 c-5 -426 -8 -1002 -8
-1280 0 -278 -3 -529 -6 -557 l-7 -53 -38 0 -39 0 -1 798 c-1 438 -5 1058 -8
1377 l-7 580 -3 -415 c-2 -228 -7 -626 -10 -885 l-7 -470 -3 625 c-2 344 -6
686 -10 760 -6 143 -21 -1186 -21 -1937 0 -418 -1 -433 -19 -433 -10 0 -22 7
-25 16 -3 9 -7 307 -8 662 l-2 647 -7 -545 c-3 -300 -7 -598 -8 -662 -1 -91
-4 -118 -14 -118 -15 0 -26 603 -28 1575 -1 264 -4 599 -8 745 -6 245 -7 218
-13 -339 -5 -332 -8 -796 -8 -1030 0 -234 -3 -544 -7 -688 -6 -237 -8 -263
-23 -263 -15 0 -17 43 -23 527 -4 289 -8 686 -9 882 -1 196 -4 319 -5 274 -2
-46 -8 -83 -13 -83 -6 0 -10 -93 -10 -237 0 -131 -3 -491 -7 -800 l-6 -563
-29 0 -28 0 -2 708 c-1 421 -4 652 -9 572 -3 -74 -7 -393 -8 -707 -1 -480 -3
-573 -15 -573 -11 0 -15 105 -22 628 -9 628 -20 668 -23 81 0 -141 -4 -358 -8
-482 -6 -211 -7 -227 -25 -227 -17 0 -18 20 -18 468 0 948 -15 2423 -21 2137
-4 -148 -7 -433 -8 -632 -1 -235 -5 -363 -11 -363 -6 0 -11 -70 -12 -187 l-1
-188 -8 130 c-3 72 -8 414 -10 760 l-2 630 -8 -430 c-5 -236 -12 -856 -15
-1377 l-6 -948 -29 0 -29 0 -2 183 -1 182 -10 -182 c-7 -145 -12 -183 -23
-183 -12 0 -14 97 -15 603 -4 1388 -14 2437 -22 2227z"/>
<path d="M2888 6765 c-4 -11 -12 -168 -18 -350 -11 -345 -16 -419 -29 -410 -5
2 -6 -8 -2 -23 5 -25 6 -25 9 -4 3 18 10 22 36 22 l33 0 7 -157 c14 -337 23
-389 41 -230 7 60 24 69 26 14 3 -62 17 53 18 139 1 45 4 115 7 157 l7 77 47
0 48 0 7 -181 c4 -100 11 -193 15 -208 8 -25 8 -24 9 9 2 48 19 263 27 328 l6
52 44 0 c41 0 43 -2 48 -32 5 -30 24 -243 27 -300 3 -48 18 71 18 147 2 118
11 185 27 185 8 0 14 -8 14 -17 1 -17 1 -17 14 0 7 9 20 17 28 17 12 0 17 -20
23 -91 3 -50 10 -87 15 -83 5 5 12 45 17 88 4 44 13 81 20 83 11 4 16 -11 29
-97 5 -36 8 -41 15 -25 4 11 8 44 8 73 l1 52 54 0 54 0 7 -67 c3 -38 9 -81 14
-98 7 -25 9 -18 16 47 4 43 11 75 16 72 5 -3 9 -14 9 -25 0 -34 17 -12 24 31
6 38 8 40 41 40 20 0 37 -6 39 -12 25 -89 30 -101 34 -85 8 35 22 4 23 -51 1
-90 17 -32 18 66 l1 82 34 0 c19 0 37 -6 39 -12 4 -10 6 -10 6 0 1 6 5 12 10
12 5 0 13 -30 17 -67 6 -54 9 -62 14 -38 l6 30 8 -25 c8 -21 10 -15 15 35 6
56 8 60 34 63 19 2 27 -1 27 -12 0 -9 5 -16 10 -16 6 0 10 7 10 15 0 11 11 15
40 15 37 0 39 -2 46 -37 9 -51 35 -97 46 -80 4 6 8 26 8 42 1 64 9 75 55 75
47 0 47 0 61 -75 6 -37 8 -38 14 -15 5 14 8 40 9 58 2 57 25 31 36 -41 6 -36
13 -69 17 -72 6 -7 28 57 28 83 0 6 7 12 15 12 9 0 15 9 15 25 0 23 -4 25 -45
25 -40 0 -45 3 -46 23 l0 22 -9 -22 c-5 -13 -18 -23 -28 -23 -16 0 -21 11 -28
63 -6 41 -14 61 -22 59 -7 -1 -15 11 -19 28 -13 68 -25 42 -39 -87 -7 -63 -7
-63 -39 -63 -34 0 -46 16 -70 87 -15 46 -36 28 -43 -36 -5 -57 -22 -70 -22
-17 0 19 -4 38 -10 41 -6 4 -10 -8 -10 -29 0 -40 -16 -49 -23 -13 -4 19 -4 18
-6 -5 -1 -24 -5 -28 -31 -28 -26 0 -30 4 -31 28 -1 20 -2 22 -6 7 -12 -49 -21
-30 -28 57 -3 51 -9 102 -12 112 -5 18 -6 18 -15 2 -5 -9 -13 -14 -19 -11 -5
4 -9 -11 -9 -33 0 -21 -3 -67 -6 -101 l-7 -61 -36 0 -37 0 -11 90 c-19 144
-34 144 -54 -2 l-12 -88 -42 0 c-44 0 -54 12 -55 62 0 9 -5 29 -11 45 l-12 28
-7 -25 c-5 -14 -8 -40 -9 -57 -2 -60 -18 -34 -26 40 -9 84 -23 69 -24 -26 -1
-63 -17 -81 -52 -58 -12 7 -19 7 -19 1 0 -5 -11 -10 -24 -10 -20 0 -24 6 -30
46 -3 26 -6 79 -7 118 0 39 -4 89 -8 111 -6 30 -9 1 -15 -117 -5 -87 -12 -158
-17 -158 -5 0 -9 19 -9 43 0 23 -3 67 -7 97 l-7 55 -7 -45 c-4 -25 -8 -69 -8
-97 -1 -52 -2 -53 -30 -53 l-29 0 -7 108 c-8 109 -22 178 -25 117 -1 -16 -5
-39 -10 -50 -8 -19 -9 -19 -9 2 -1 12 -5 24 -10 27 -5 3 -12 -29 -15 -72 -11
-124 -13 -132 -45 -132 -25 0 -29 5 -35 38 -3 20 -6 66 -7 102 -1 73 -17 133
-18 68 -1 -21 -5 -38 -10 -38 -5 0 -12 64 -16 143 -4 81 -11 133 -15 122 -4
-11 -13 -113 -20 -227 l-13 -208 -47 0 -48 0 -6 163 c-3 89 -9 266 -14 392 -4
127 -10 221 -14 210z"/>
<path d="M2687 6695 c-3 -44 -9 -179 -12 -300 -3 -121 -8 -259 -11 -307 l-6
-88 -44 0 c-41 0 -43 2 -48 33 -3 17 -7 113 -10 212 -3 99 -10 195 -15 213 -6
19 -13 90 -17 158 -4 69 -10 127 -14 129 -4 3 -10 -84 -14 -193 -18 -568 -17
-552 -36 -552 -13 0 -19 11 -24 40 -3 23 -10 39 -15 36 -5 -3 -12 2 -16 12 -6
15 -8 15 -26 -7 -10 -13 -19 -36 -19 -52 0 -27 3 -29 38 -29 l39 0 6 -97 c4
-54 7 -132 8 -173 3 -165 16 -127 24 68 l8 202 43 0 44 0 0 -107 c0 -60 5
-202 10 -318 24 -533 33 -540 49 -39 7 188 16 369 22 403 l11 61 48 0 48 0 5
-42 c4 -24 9 -142 13 -263 9 -300 18 -361 27 -190 4 72 10 212 13 313 l7 182
-30 0 c-29 0 -31 3 -37 50 -4 28 -10 58 -13 67 -6 15 -7 14 -13 -3 -4 -10 -10
51 -14 136 -22 540 -21 531 -29 445z"/>
<path d="M19567 6605 c-4 -93 -10 -268 -13 -387 l-7 -218 -37 0 -38 0 -7 108
c-28 477 -41 497 -66 100 l-13 -208 -32 0 c-39 0 -39 1 -55 255 -7 99 -15 183
-18 188 -4 4 -15 -71 -25 -165 -9 -95 -20 -197 -23 -225 l-6 -53 45 0 c44 0
46 -1 62 -43 9 -23 19 -78 23 -122 8 -98 21 -75 22 40 2 115 6 125 51 125 36
0 38 -2 45 -37 4 -21 10 -42 15 -48 6 -8 25 -91 31 -134 2 -23 18 43 18 80 1
25 4 67 7 93 l7 46 42 0 c41 0 43 -1 49 -37 3 -21 6 -65 7 -98 0 -33 4 -85 8
-115 6 -49 8 -39 20 98 l14 152 37 0 c34 0 38 -3 44 -31 3 -17 6 -48 7 -68 1
-20 4 -47 8 -61 8 -26 10 -20 27 115 l5 45 45 0 44 0 1 -77 c0 -43 4 -98 8
-123 l8 -45 3 40 c1 22 5 51 10 65 6 20 9 13 15 -38 10 -81 25 -90 25 -15 0
32 3 88 7 126 l6 67 42 0 42 0 9 -62 c7 -62 8 -62 13 -23 9 62 18 30 27 -95 9
-141 21 -109 23 63 l1 118 48 -3 47 -3 9 -117 c5 -65 12 -118 16 -118 4 0 10
47 14 105 4 58 9 112 12 120 4 10 20 15 45 15 l39 0 1 -47 c0 -27 4 -70 8 -98
l7 -50 8 45 8 45 10 -35 c13 -42 15 -37 23 63 l7 77 49 0 49 0 1 -57 c0 -62 7
-87 25 -90 11 -2 27 42 39 110 7 35 9 37 46 37 35 0 39 -2 39 -26 0 -16 5 -24
13 -21 8 2 16 -16 23 -57 l11 -61 8 83 8 82 62 0 63 0 6 -77 c3 -43 8 -131 12
-195 10 -198 27 -144 40 130 l7 142 42 0 42 0 18 -167 c10 -93 21 -174 25
-182 8 -15 16 59 26 237 l7 112 43 0 43 0 5 -42 c14 -114 27 -202 30 -205 5
-5 14 63 22 165 l7 82 47 0 48 0 7 -40 c8 -50 20 -51 40 -4 19 46 20 44 -14
44 -29 0 -30 2 -36 58 -9 78 -24 154 -34 171 -6 9 -13 -11 -21 -60 -6 -41 -17
-94 -24 -119 -12 -40 -17 -45 -44 -48 -25 -3 -32 1 -32 15 1 82 -24 420 -31
427 -5 6 -9 -1 -9 -16 0 -15 -6 -55 -14 -90 -8 -35 -17 -103 -20 -153 -4 -49
-9 -111 -12 -137 -6 -46 -7 -48 -39 -48 -33 0 -33 0 -39 58 -3 31 -8 133 -12
225 -3 93 -9 181 -13 195 l-8 27 -11 -22 c-7 -13 -17 -105 -23 -210 -15 -278
-14 -273 -50 -273 -20 0 -29 5 -29 16 0 8 -4 13 -9 9 -14 -8 -19 17 -27 130
-9 140 -20 159 -29 55 -10 -114 -21 -141 -29 -75 -16 123 -20 122 -30 -8 l-9
-128 -31 3 -31 3 -15 187 c-8 102 -18 189 -21 192 -3 3 -11 -63 -18 -147 -19
-243 -18 -237 -56 -237 -31 0 -33 2 -39 46 -3 26 -6 83 -7 128 -1 114 -13 196
-29 206 -8 5 -16 7 -18 6 -2 -3 -42 -356 -42 -378 0 -5 -15 -8 -33 -8 l-34 0
-6 128 c-4 70 -7 165 -8 212 0 47 -4 103 -8 125 -6 35 -8 28 -15 -55 -4 -52
-13 -135 -21 -185 -7 -49 -16 -120 -20 -157 -6 -66 -7 -68 -35 -68 -27 0 -27
1 -34 83 -9 99 -24 177 -39 195 -6 8 -13 53 -16 100 -7 134 -19 63 -20 -124
-1 -89 -4 -182 -7 -208 -6 -44 -8 -46 -39 -46 l-33 0 -6 88 c-3 48 -9 130 -13
182 l-6 95 -12 -60 c-12 -57 -13 -58 -14 -20 -1 22 -6 58 -10 80 l-7 40 -7
-45 c-3 -25 -9 -116 -13 -202 l-6 -158 -38 0 -38 0 -6 58 c-3 31 -8 158 -12
282 -7 252 -17 313 -28 169 -4 -52 -13 -143 -21 -204 -7 -60 -17 -154 -20
-207 -7 -93 -8 -98 -30 -98 -21 0 -24 7 -34 68 -6 37 -13 98 -17 136 -4 46 -9
64 -15 55 -6 -10 -9 -8 -10 11 -3 51 -17 -32 -18 -106 0 -39 -4 -92 -7 -118
-6 -39 -10 -46 -29 -46 -15 0 -25 8 -30 23 -6 19 -8 19 -12 5 -13 -50 -21 -1
-27 155 -3 94 -9 267 -14 382 l-7 210 -8 -170z"/>
<path d="M22292 6565 c-1 -11 -7 -128 -12 -260 -13 -314 -11 -301 -59 -303
-37 -3 -38 -1 -45 35 -3 21 -6 54 -7 73 l-1 35 -12 -40 -13 -40 -7 75 c-20
214 -19 207 -27 176 -4 -15 -11 -93 -15 -172 -7 -141 -7 -144 -29 -144 -24 0
-28 9 -41 94 -7 54 -23 45 -24 -14 -1 -66 -8 -78 -50 -78 -37 -1 -38 0 -44 45
-3 25 -6 81 -6 124 0 44 -4 79 -9 79 -4 0 -11 -39 -14 -87 -8 -109 -17 -163
-27 -163 -9 0 -20 51 -20 99 0 67 -17 67 -27 0 -6 -35 -14 -72 -18 -81 -6 -15
-2 -18 23 -18 24 0 32 -5 35 -22 l4 -23 8 23 c5 14 15 22 31 22 23 0 24 -3 24
-63 0 -35 3 -100 7 -143 l7 -79 7 50 c4 28 8 79 9 115 1 36 6 79 10 95 l7 30
10 -35 11 -35 7 33 c6 24 13 32 30 32 21 0 23 -5 29 -85 3 -47 9 -124 13 -172
l7 -88 7 55 c4 30 7 94 8 141 1 48 4 101 7 118 6 29 9 31 49 31 l42 0 7 -172
c3 -95 9 -213 13 -263 6 -82 7 -86 14 -45 3 25 9 131 13 235 9 247 7 241 55
243 l39 3 8 -203 c7 -171 10 -191 15 -128 3 41 7 120 8 175 2 115 20 170 22
65 0 -36 4 -87 8 -115 6 -43 8 -32 15 78 l8 128 32 -3 31 -3 16 -215 c16 -225
24 -237 34 -55 4 61 12 146 18 190 l12 80 36 3 36 3 6 -68 c4 -37 10 -118 13
-180 4 -62 11 -110 15 -107 5 3 9 16 9 30 0 14 4 23 9 20 9 -6 25 94 37 227 6
77 6 77 35 77 29 0 29 -1 29 -60 0 -58 19 -88 21 -32 3 68 17 -64 23 -213 3
-88 10 -194 13 -235 l8 -75 6 90 c4 50 7 144 8 210 1 66 4 164 8 218 l6 97 37
0 37 0 6 -88 c6 -77 29 -210 44 -252 11 -30 23 46 29 188 6 112 10 145 22 149
8 3 18 0 23 -8 6 -10 9 -10 9 -1 0 6 6 12 14 12 11 0 16 -28 21 -125 4 -69 11
-125 16 -125 5 0 9 12 9 28 0 44 12 102 21 102 4 0 11 -15 15 -32 l8 -33 7 45
c4 25 8 66 8 93 l1 47 39 0 38 0 7 -112 c9 -133 20 -209 28 -188 9 21 26 125
33 195 10 101 12 105 45 105 28 0 30 -3 31 -37 0 -38 17 -93 18 -63 1 13 3 13
10 1 5 -8 12 -54 16 -103 4 -48 11 -86 15 -83 4 2 10 42 14 87 12 155 19 198
27 192 5 -3 9 -16 9 -29 0 -13 5 -27 10 -30 6 -4 10 8 10 29 0 29 4 36 20 36
16 0 20 -7 20 -32 0 -59 13 -138 21 -133 4 3 11 41 15 85 5 66 10 80 23 80 15
0 19 -19 30 -122 7 -68 17 -127 22 -132 5 -6 9 -1 9 15 0 13 5 31 10 39 8 12
10 12 10 1 0 -32 10 -1 19 64 21 135 21 135 41 135 13 0 22 -10 29 -32 l9 -33
7 33 c4 17 13 32 20 32 9 0 15 -28 19 -92 17 -248 19 -264 27 -233 4 17 11 84
15 150 8 127 21 123 23 -7 2 -106 21 -82 21 26 0 51 3 108 6 125 6 27 10 31
40 31 39 0 39 -2 49 -120 3 -41 9 -84 12 -94 5 -17 7 -16 18 10 12 28 13 28
20 -34 4 -34 11 -65 16 -68 12 -7 17 23 32 171 l12 130 32 3 c36 4 34 11 54
-188 18 -177 28 -175 45 10 8 91 19 118 30 75 l8 -30 7 30 c4 17 7 47 8 68 1
26 6 37 16 37 11 0 15 -11 15 -37 0 -55 16 -74 24 -29 6 34 26 51 26 24 1 -8
7 -5 15 6 14 18 15 18 25 -10 6 -16 14 -41 17 -57 8 -40 20 -42 28 -5 l7 32
13 -25 13 -24 8 29 7 29 17 -23 c22 -30 64 -21 84 18 12 23 15 25 21 10 4 -10
13 -18 20 -18 7 0 16 -6 18 -12 8 -19 25 9 32 54 9 52 20 40 36 -37 7 -36 16
-62 20 -58 4 5 10 36 14 71 7 61 6 62 -17 62 -13 0 -29 5 -36 12 -9 9 -12 9
-12 0 0 -10 -46 -12 -192 -10 l-193 3 -5 30 -6 30 -7 -32 c-6 -33 -7 -33 -65
-33 l-59 0 -12 88 c-20 144 -31 139 -47 -20 l-7 -68 -63 0 -64 0 -1 38 c0 20
-4 46 -9 57 -8 19 -9 19 -9 -3 -1 -13 -5 -21 -10 -18 -5 3 -12 59 -17 123 -7
109 -8 114 -15 63 -4 -30 -7 -101 -8 -157 l-1 -103 -50 0 c-43 0 -50 3 -50 19
0 11 -4 23 -10 26 -5 3 -10 -3 -10 -15 0 -28 -28 -37 -45 -14 -14 18 -16 18
-29 2 -9 -13 -27 -18 -58 -18 -51 0 -58 10 -58 83 0 23 -4 36 -10 32 -5 -3
-10 -21 -10 -38 0 -50 -11 -77 -30 -77 -22 0 -30 19 -30 73 0 55 -18 36 -22
-23 l-3 -45 -67 -3 -67 -3 -5 33 c-3 18 -7 44 -8 58 -3 23 -5 21 -25 -18 -13
-23 -23 -49 -23 -57 0 -22 -76 -21 -84 1 -3 9 -6 45 -6 80 0 62 -14 88 -23 42
-3 -19 -5 -17 -12 12 -8 34 -9 34 -16 10 -4 -14 -8 -45 -8 -70 -2 -81 -8 -90
-56 -90 l-43 0 -8 68 -8 67 -11 -70 c-10 -69 -11 -70 -18 -30 -4 22 -7 57 -7
78 0 23 -4 36 -10 32 -5 -3 -10 -37 -10 -76 l0 -69 -44 0 -43 0 -7 53 c-3 28
-6 77 -6 108 0 86 -12 209 -20 209 -4 0 -11 -30 -15 -67 -4 -38 -11 -73 -16
-78 -4 -6 -11 -59 -15 -118 l-7 -107 -43 0 c-32 0 -44 4 -48 18 -2 9 -7 111
-11 225 -4 114 -10 220 -14 235 -8 27 -11 -19 -27 -345 l-7 -133 -42 0 -43 0
-7 78 c-13 166 -43 314 -45 227 -1 -77 -19 -270 -25 -287 -5 -13 -18 -18 -44
-18 l-37 0 -12 78 c-6 42 -16 122 -22 176 -6 55 -12 101 -14 103 -2 2 -7 -77
-11 -177 l-7 -180 -38 0 -37 0 -6 113 c-4 61 -8 159 -8 217 -2 102 -14 275
-17 235z"/>
<path d="M11707 6363 c-4 -75 -7 -187 -7 -250 l0 -113 -24 0 c-23 0 -25 4 -28
53 l-4 52 -8 -52 c-5 -29 -12 -53 -16 -53 -10 0 -20 112 -21 240 -1 58 -4 132
-8 165 l-7 60 -8 -90 c-4 -49 -14 -121 -22 -160 -8 -38 -17 -103 -21 -142 -5
-67 -8 -73 -28 -73 -25 0 -35 16 -36 63 0 27 -2 29 -9 12 -14 -32 -12 -75 4
-75 11 0 15 -41 21 -205 4 -113 11 -207 15 -210 4 -3 10 48 14 113 4 64 9 159
12 210 l6 92 39 0 39 0 1 -57 c0 -42 3 -52 9 -38 5 11 9 37 9 58 1 20 5 37 10
37 14 0 21 -40 21 -126 0 -44 3 -143 7 -220 7 -131 8 -135 14 -69 4 39 7 141
8 227 0 86 4 163 7 172 4 11 19 16 44 16 47 0 50 -6 51 -128 1 -53 4 -124 8
-157 l7 -60 7 60 c38 305 32 285 74 285 l35 0 -6 48 c-6 41 -26 342 -26 382 0
9 -3 11 -10 4 -9 -9 -30 -276 -30 -386 l0 -48 -35 0 -35 0 0 89 c0 50 -4 93
-10 96 -6 4 -10 -11 -10 -37 0 -29 -3 -38 -9 -29 -5 8 -12 96 -16 197 -4 101
-11 184 -15 184 -4 0 -10 -61 -13 -137z"/>
<path d="M21647 6270 c-4 -14 -11 -61 -18 -105 -6 -44 -19 -99 -29 -122 -17
-39 -22 -43 -53 -43 -33 0 -34 1 -41 46 -3 26 -6 68 -7 93 -1 25 -5 57 -9 71
-7 20 -8 16 -10 -25 -1 -27 -5 -72 -9 -100 -7 -48 -8 -49 -16 -20 l-9 30 -7
-25 c-17 -59 -12 -70 30 -70 l38 0 7 -82 c4 -46 10 -92 13 -103 6 -17 8 -16
14 10 4 17 7 45 8 62 0 18 9 51 18 73 17 39 19 40 69 40 50 0 52 -1 58 -31 3
-17 6 -52 6 -78 0 -25 5 -53 10 -61 8 -12 10 -10 10 10 0 41 11 69 25 64 8 -3
15 7 19 27 12 63 10 69 -34 69 l-40 0 -1 43 c0 72 -35 256 -42 227z"/>
<path d="M25326 6214 c-3 -26 -6 -68 -6 -93 0 -25 -3 -63 -6 -83 -7 -38 -7
-38 -54 -38 l-48 0 -6 98 c-4 53 -10 111 -14 127 -5 27 -7 24 -13 -25 -4 -30
-7 -88 -8 -127 l-1 -73 -44 0 -44 0 -7 75 c-4 41 -11 77 -15 80 -4 3 -11 -31
-15 -75 l-7 -80 -103 0 -102 0 9 -52 c4 -29 11 -64 14 -78 6 -24 7 -24 18 9 9
25 21 37 41 43 36 9 41 2 50 -71 8 -63 19 -52 30 32 5 36 10 47 21 43 10 -4
14 2 14 18 0 37 10 56 30 56 14 0 19 -11 24 -47 3 -27 8 -71 11 -100 4 -28 12
-54 20 -56 7 -3 16 -27 21 -54 l8 -48 7 45 c4 25 8 79 8 121 1 105 9 139 32
139 11 0 20 -9 23 -22 18 -86 26 -133 32 -203 10 -118 20 -134 29 -45 4 41 13
102 21 135 7 33 14 77 14 98 0 35 1 37 34 37 l33 0 8 -147 c4 -82 10 -170 14
-198 l7 -50 6 45 c4 25 10 71 14 103 3 32 13 65 21 73 12 12 28 96 33 167 0 4
11 7 24 7 22 0 25 -5 32 -57 7 -63 22 -113 23 -80 2 38 19 5 26 -49 4 -30 9
-53 12 -50 3 3 13 56 22 118 14 100 18 113 35 113 17 0 22 -11 31 -62 14 -76
21 -85 35 -47 6 16 14 31 18 34 12 8 42 59 42 70 0 6 -23 10 -54 10 -34 0 -56
5 -59 13 -4 10 -7 10 -18 0 -7 -7 -36 -13 -65 -13 l-52 0 -6 63 c-15 149 -18
164 -27 135 -4 -15 -10 -66 -14 -113 l-7 -85 -49 0 c-55 0 -54 -5 -63 149 -7
104 -29 141 -40 65z"/>
<path d="M5037 6198 c-3 -8 -8 -46 -12 -84 -3 -38 -8 -79 -11 -91 -4 -21 -1
-23 45 -23 l49 0 10 -42 c6 -24 14 -70 18 -103 9 -75 19 -52 29 64 l8 81 -31
0 c-28 0 -32 4 -38 35 -3 19 -10 33 -14 30 -10 -6 -16 12 -25 75 -9 56 -20 79
-28 58z"/>
<path d="M5623 6139 c-9 -38 -12 -41 -18 -22 -8 26 -25 21 -25 -8 0 -27 -20
-24 -20 4 -1 19 -4 17 -20 -13 -10 -19 -25 -48 -33 -65 l-14 -30 98 -3 97 -3
7 -67 c8 -72 17 -66 28 21 6 42 4 47 -12 47 -14 0 -22 11 -29 38 -6 22 -11 29
-12 17 l-1 -20 -9 20 c-5 11 -9 36 -10 55 -1 19 -5 44 -9 54 -6 15 -10 10 -18
-25z"/>
<path d="M4526 6155 c-3 -9 -9 -48 -12 -86 l-7 -69 46 0 46 0 11 -55 c10 -49
13 -53 30 -43 11 7 21 29 25 55 5 37 10 43 31 43 13 0 24 6 24 13 -1 36 -43
45 -48 10 -3 -19 -10 -23 -37 -23 -32 0 -34 2 -50 55 -21 74 -50 122 -59 100z"/>
<path d="M30410 6113 c-13 -67 -45 -113 -78 -113 -11 0 -22 9 -25 20 -3 11
-11 19 -18 18 -8 -2 -16 14 -21 40 -11 49 -23 47 -38 -7 -6 -25 -17 -41 -30
-44 -11 -3 -20 -10 -20 -16 0 -7 25 -11 65 -11 65 0 66 0 72 -30 8 -43 21 -46
31 -8 8 32 10 33 64 36 54 3 55 2 64 -28 12 -40 27 -40 38 0 9 29 12 31 50 28
41 -3 41 -3 48 -51 9 -63 13 -67 28 -20 17 53 42 73 87 73 33 0 42 -5 57 -31
19 -32 31 -30 38 6 3 17 12 20 76 23 67 3 73 1 82 -20 l9 -23 6 22 c6 18 14
21 56 21 28 1 49 -4 49 -10 0 -7 4 -7 13 0 6 6 29 10 49 9 48 -1 53 5 41 45
l-10 33 -8 -37 c-9 -49 -22 -48 -30 2 -4 22 -10 40 -15 40 -5 0 -11 -18 -15
-40 -9 -53 -22 -51 -31 5 -8 58 -21 66 -30 18 -11 -62 -21 -73 -34 -38 l-12
30 -10 -27 c-11 -32 -34 -37 -43 -8 -5 16 -10 18 -31 10 -35 -14 -33 -15 -55
35 -11 25 -24 43 -29 40 -5 -3 -12 -28 -16 -56 -7 -49 -8 -50 -38 -47 -29 3
-32 7 -56 87 -15 47 -29 81 -32 75 -3 -5 -9 -31 -13 -59 -14 -107 -13 -105
-56 -105 l-39 0 -1 48 c-1 26 -5 61 -9 77 -6 27 -8 28 -15 10 -5 -11 -14 -24
-21 -30 -7 -5 -16 -30 -21 -55 -8 -41 -11 -45 -38 -45 -28 0 -31 4 -43 55 -28
122 -27 122 -42 53z"/>
<path d="M29175 6138 c-2 -7 -9 -35 -15 -63 -6 -27 -16 -55 -22 -62 -8 -10 2
-13 50 -13 65 0 72 -6 72 -60 0 -16 4 -31 9 -34 10 -6 31 45 31 75 0 16 11 18
115 18 102 0 115 -2 115 -17 0 -9 4 -23 9 -31 6 -10 12 -5 24 18 15 30 15 31
-8 31 -20 0 -25 6 -31 45 -8 58 -19 64 -34 19 -11 -32 -15 -35 -40 -32 -22 3
-31 -1 -38 -16 -9 -20 -10 -20 -21 7 -6 16 -11 36 -11 45 0 9 -4 23 -9 30 -6
10 -10 7 -15 -13 -6 -22 -9 -25 -21 -15 -12 10 -15 6 -20 -17 -11 -50 -14 -53
-40 -53 -19 0 -25 5 -25 23 0 12 -3 32 -6 45 -6 20 -8 21 -19 6 -10 -15 -13
-11 -24 30 -12 47 -18 56 -26 34z"/>
<path d="M32056 6105 c-14 -94 -17 -105 -33 -105 -9 0 -22 8 -29 18 -8 10 -13
12 -14 5 0 -30 -19 -10 -25 28 -7 42 -31 62 -46 38 -4 -7 -11 -31 -14 -51 -6
-32 -11 -38 -31 -38 -32 0 -61 30 -74 79 -6 23 -15 41 -21 41 -10 0 -33 -47
-44 -93 -7 -27 -7 -27 49 -27 61 0 57 5 71 -84 8 -48 17 -39 30 27 l10 52 57
3 c57 3 58 2 72 -30 l14 -33 7 33 c6 25 13 32 31 32 14 0 24 -6 24 -14 0 -25
15 -25 26 -1 9 19 8 22 -7 18 -19 -5 -20 -3 -36 97 l-9 55 -8 -50z"/>
<path d="M27376 6123 c-2 -10 -7 -34 -11 -53 -13 -70 -13 -70 -64 -70 -46 0
-49 1 -56 33 l-7 32 -11 -33 c-11 -36 -30 -38 -35 -4 -4 27 -22 19 -22 -9 0
-10 -7 -19 -15 -19 -10 0 -15 10 -15 33 0 44 -19 74 -21 32 0 -16 -4 -39 -8
-50 -8 -19 -8 -19 -19 0 -10 18 -11 18 -12 3 0 -15 -9 -18 -54 -18 l-53 0 -10
43 -9 42 -13 -42 -12 -43 -59 0 c-55 0 -60 2 -60 23 0 12 -4 28 -9 36 -7 11
-11 5 -16 -22 -5 -27 -12 -37 -26 -37 -11 0 -19 6 -19 13 0 9 -3 8 -9 -2 -5
-8 -20 -12 -39 -9 -25 3 -28 2 -21 -11 5 -9 14 -36 20 -61 10 -37 13 -42 20
-25 4 11 8 31 8 45 1 14 5 32 11 40 7 11 11 8 21 -15 l12 -30 6 25 c4 14 15
26 24 28 16 3 20 -2 33 -47 3 -10 8 -10 17 -2 10 8 18 5 32 -11 l18 -22 18 23
c11 13 19 32 19 42 0 11 7 19 18 19 26 0 60 -42 67 -83 4 -20 10 -37 14 -37
10 1 41 69 41 90 0 24 20 37 31 19 6 -10 9 -11 9 -1 0 6 6 12 14 12 9 0 17
-20 23 -57 l9 -58 8 58 c5 39 12 57 22 57 8 0 14 -8 14 -17 1 -17 2 -17 15 1
21 27 41 14 54 -38 6 -24 15 -47 20 -51 5 -3 21 20 35 50 23 52 27 55 60 55
31 0 36 -3 36 -22 0 -34 11 -68 21 -68 5 0 9 7 9 15 0 9 7 15 17 13 11 -2 19
7 25 30 8 28 13 32 43 32 31 0 35 -3 44 -37 6 -21 11 -46 11 -55 0 -25 18 -31
28 -11 5 10 13 37 17 61 l7 42 57 0 57 0 19 -50 c19 -49 35 -65 35 -35 0 8 8
30 17 50 15 31 21 36 48 33 24 -2 31 -8 33 -30 2 -16 6 -28 8 -28 18 0 44 24
44 40 0 15 -7 20 -29 20 -28 0 -30 4 -42 55 -7 31 -16 58 -19 60 -4 3 -13 -22
-19 -55 l-12 -60 -37 0 c-51 1 -72 20 -86 82 -14 57 -12 59 -34 -37 -9 -39 -9
-39 -20 -15 l-10 25 -7 -27 c-6 -23 -13 -28 -40 -28 -39 0 -49 10 -68 75 -15
54 -19 50 -32 -32 -7 -42 -8 -43 -46 -43 -44 0 -45 1 -54 83 -6 56 -19 74 -29
40z"/>
<path d="M28545 6070 c-8 -66 -14 -69 -31 -12 l-11 37 -8 -47 c-6 -41 -11 -48
-30 -48 -17 0 -24 7 -29 31 -4 21 -10 29 -20 26 -7 -3 -18 -1 -24 5 -7 7 -12
3 -17 -11 -5 -16 -12 -20 -25 -16 -13 4 -20 0 -25 -15 -3 -11 -13 -20 -21 -20
-8 0 -14 -10 -14 -25 0 -31 17 -33 22 -2 3 20 9 22 64 25 l61 3 12 -46 c13
-54 26 -52 35 5 l6 40 56 0 c50 0 55 2 49 18 -5 9 -13 36 -19 59 -17 62 -23
61 -31 -7z"/>
<path d="M28726 6085 c-4 -27 -8 -56 -9 -64 -3 -23 -25 -24 -32 -2 -8 27 -25
27 -25 1 0 -15 -7 -20 -25 -20 -28 0 -28 -2 -10 -50 l13 -35 7 30 c11 50 14
55 29 55 7 0 17 -10 21 -22 l8 -23 4 23 c4 19 11 22 47 22 40 0 44 -2 52 -32
13 -44 30 -45 44 -4 l12 36 69 0 70 0 -16 31 c-15 28 -18 29 -29 13 -12 -15
-14 -14 -24 15 -12 34 -32 34 -32 0 0 -28 -36 -59 -70 -59 -28 0 -30 3 -36 50
-8 59 -19 71 -29 32 -7 -27 -8 -27 -20 13 l-12 40 -7 -50z"/>
<path d="M31306 6103 c-3 -16 -8 -45 -12 -65 -6 -35 -9 -38 -40 -38 -24 0 -34
-5 -34 -15 0 -8 6 -15 14 -15 8 0 21 -3 29 -6 10 -3 18 2 22 16 6 18 13 21 53
18 45 -3 47 -4 55 -40 12 -49 24 -48 37 2 l11 40 99 0 c90 0 99 -2 105 -20 7
-24 21 -26 29 -5 3 8 12 12 21 9 8 -3 15 -1 15 5 0 6 -11 11 -24 11 -67 0 -84
10 -96 58 -8 34 -14 42 -21 32 -5 -8 -9 -22 -9 -30 0 -8 -5 -22 -10 -30 -8
-13 -12 -11 -26 8 -12 18 -19 21 -30 11 -11 -9 -15 -6 -20 20 -9 46 -21 38
-29 -19 -6 -46 -9 -50 -35 -50 -25 0 -28 4 -34 41 -6 37 -39 88 -58 89 -3 0
-9 -12 -12 -27z"/>
<path d="M29816 6111 c-4 -6 -13 -8 -20 -5 -9 3 -17 -9 -25 -38 -15 -58 -24
-70 -51 -66 -17 2 -26 13 -35 43 -8 31 -16 40 -33 40 -13 0 -26 6 -31 14 -11
18 -17 6 -25 -51 l-7 -48 54 0 55 0 7 -55 c8 -70 21 -78 30 -19 3 26 9 53 12
60 6 16 88 19 127 4 15 -5 28 -5 31 0 3 5 -7 10 -22 12 -23 3 -28 9 -38 56
-13 57 -20 69 -29 53z"/>
<path d="M5936 6082 c-2 -9 -7 -32 -11 -49 -5 -26 -12 -33 -30 -33 -21 0 -22
-2 -14 -47 5 -25 11 -48 13 -51 5 -4 26 65 26 86 0 7 12 12 29 12 29 0 41 -14
41 -51 0 -11 10 -23 22 -28 17 -6 29 0 60 30 23 22 45 36 54 32 8 -3 14 0 14
6 0 6 9 11 20 11 23 0 24 11 6 60 l-13 35 -8 -47 -7 -48 -78 0 -78 0 -6 44
c-7 45 -31 69 -40 38z"/>
<path d="M25957 6086 c-4 -10 -7 -33 -7 -52 l0 -34 -75 0 c-50 0 -75 4 -75 12
0 6 -2 9 -5 6 -9 -8 30 -75 41 -71 7 2 14 -14 18 -37 6 -38 26 -49 26 -14 0
18 14 18 30 -1 17 -21 30 -3 30 42 0 49 9 63 40 63 30 0 31 -1 46 -100 12 -86
38 -106 49 -37 13 72 46 137 71 137 24 0 34 -23 34 -82 0 -55 17 -55 25 -1 6
39 9 45 18 32 7 -9 17 -14 24 -12 7 3 15 -7 19 -21 9 -38 20 -32 33 18 17 67
18 66 -59 66 -68 0 -70 1 -70 25 0 14 -3 25 -6 25 -3 0 -15 -11 -26 -25 -16
-21 -28 -25 -74 -25 -49 0 -54 2 -54 23 0 25 -13 49 -26 47 -4 -1 -11 6 -14
16 -6 17 -7 17 -13 0z"/>
<path d="M33985 6032 c-7 -28 -12 -33 -31 -29 -22 4 -22 3 -6 -21 16 -24 16
-24 24 -3 9 26 33 27 47 4 9 -17 10 -17 16 0 8 20 31 23 39 5 5 -10 7 -10 12
0 3 7 24 12 49 12 35 0 47 -5 56 -21 9 -18 13 -19 20 -8 8 12 12 11 24 -5 13
-18 14 -17 21 8 5 20 12 26 33 26 15 0 32 -5 38 -11 8 -8 13 -8 17 0 9 14 93
14 101 1 5 -8 12 -7 22 1 12 10 16 10 24 -2 5 -8 9 -17 9 -21 0 -18 20 -6 20
12 0 20 -13 25 -56 21 -14 -1 -23 6 -26 17 -4 15 -13 19 -44 17 -27 -2 -40 -8
-42 -19 -4 -17 -32 -23 -32 -6 0 6 -6 10 -14 10 -8 0 -18 10 -22 23 -7 20 -8
20 -16 -10 -8 -30 -12 -33 -48 -33 -30 0 -40 4 -45 20 -7 23 -21 26 -28 8 -3
-10 -7 -10 -20 0 -13 11 -17 10 -27 -7 -14 -27 -26 -27 -34 2 l-7 22 -11 -22
c-16 -32 -33 -28 -45 10 l-11 32 -7 -33z"/>
</g>
</svg>
