<?xml version="1.0" standalone="no"?>
<!DOCTYPE svg PUBLIC "-//W3C//DTD SVG 20010904//EN"
 "http://www.w3.org/TR/2001/REC-SVG-20010904/DTD/svg10.dtd">
<svg version="1.0" xmlns="http://www.w3.org/2000/svg"
 width="3600.000000pt" height="1200.000000pt" viewBox="0 0 3600.000000 1200.000000"
 preserveAspectRatio="xMidYMid meet">
<metadata>
Created by potrace 1.16, written by Peter Selinger 2001-2019
</metadata>
<g transform="translate(0.000000,1200.000000) scale(0.100000,-0.100000)"
fill="#000000" stroke="none">
<path d="M504 7720 c-1 -1504 6 -2393 16 -2095 5 147 17 -843 19 -1574 0 -321
4 -581 8 -578 4 4 9 575 13 1270 l6 1262 2 -1070 c2 -1021 14 -1765 30 -1789
4 -6 9 70 12 169 l6 180 4 -205 c3 -141 7 -27 11 370 4 316 11 854 16 1195 l8
620 5 -500 c5 -490 5 -485 8 263 1 458 6 762 11 762 6 0 12 -489 16 -1232 6
-1302 17 -2015 25 -1693 4 165 4 167 9 65 4 -58 9 208 14 590 4 382 10 821 15
975 l7 280 5 -270 c3 -162 6 40 8 508 1 510 5 777 12 777 7 0 11 -394 12
-1157 1 -700 4 -1023 8 -816 6 344 18 468 22 227 2 -71 5 67 8 306 l5 435 3
-660 c2 -363 7 -669 12 -680 5 -12 10 97 11 270 1 160 5 261 8 225 3 -36 10
187 15 495 13 855 22 953 27 290 l4 -560 5 605 5 605 4 -510 c3 -485 13 -805
21 -645 11 270 17 270 21 0 l4 -275 5 240 5 240 5 -370 5 -370 5 385 5 385 5
-285 c5 -271 6 -261 10 220 3 378 6 457 10 315 5 -177 6 -167 10 155 l4 345 7
-350 c4 -192 11 -474 15 -625 l9 -275 5 320 5 320 4 -405 c4 -361 5 -385 12
-225 3 99 8 326 10 505 3 298 4 310 9 145 l6 -180 4 245 c4 223 5 205 10 -200
l5 -445 5 575 c4 556 5 564 10 240 l5 -335 9 205 c17 418 23 413 24 -21 1
-234 5 -488 9 -565 l8 -139 6 85 c4 47 8 146 10 220 2 101 4 120 8 75 8 -79
21 502 22 1014 2 433 5 462 18 176 l8 -180 1 203 c1 127 6 202 12 202 7 0 11
-169 12 -482 0 -266 4 -460 7 -433 15 124 21 -34 23 -590 1 -362 4 -542 9
-465 4 69 11 487 15 930 7 637 10 747 14 525 l5 -280 4 230 c2 127 6 219 10
205 10 -36 21 70 23 234 l1 131 7 -115 c4 -63 9 -311 11 -550 1 -239 6 -399 9
-355 4 47 8 -67 10 -275 3 -341 4 -347 11 -165 3 105 7 284 8 398 1 136 4 206
11 202 6 -4 10 33 11 102 1 59 5 194 8 298 l7 190 4 -295 c3 -283 4 -289 10
-135 4 88 9 183 10 210 l3 50 7 -50 c5 -27 9 -90 11 -140 2 -86 3 -87 8 -30 9
87 20 37 23 -100 2 -80 4 -56 8 90 6 199 6 199 9 -120 l4 -320 8 388 c7 384
17 513 21 281 l2 -119 6 120 c5 107 6 95 9 -105 2 -124 6 -265 10 -315 l8 -90
3 90 c6 212 17 212 21 0 3 -202 4 -197 9 125 l5 335 4 -240 c2 -132 6 -267 10
-300 6 -55 7 -50 14 65 4 69 10 294 14 500 l8 375 8 -190 c4 -104 11 -350 15
-545 l8 -355 3 255 4 255 8 -195 c10 -229 16 -266 19 -120 2 75 5 95 10 70 4
-19 8 72 9 205 3 323 18 391 22 100 l3 -220 6 200 c4 139 7 172 9 110 4 -95 5
-92 18 50 l8 90 5 -160 c5 -142 6 -125 10 145 l4 305 7 -330 c3 -181 10 -400
15 -485 l9 -155 6 115 c4 63 7 182 8 264 1 158 12 186 22 58 5 -70 6 -65 7 48
4 221 17 182 22 -65 l6 -240 3 310 c4 400 17 577 19 263 1 -138 6 -218 12
-218 6 0 11 -55 11 -142 1 -79 4 -177 8 -218 5 -67 7 -57 14 95 4 94 11 188
14 210 l7 40 7 -30 c4 -16 8 -147 9 -290 4 -315 17 -224 20 140 2 127 6 214 9
195 6 -33 7 -34 14 -10 4 14 7 115 8 225 1 276 18 215 30 -110 10 -285 15
-351 17 -249 1 41 8 84 17 100 l15 29 2 -45 c1 -25 5 47 8 160 l6 205 3 -285
c5 -478 15 -525 25 -125 8 321 19 555 25 530 9 -34 23 -286 28 -495 6 -272 20
-297 24 -45 2 135 4 148 9 80 3 -44 8 -71 10 -60 2 11 6 0 10 -25 6 -37 7 -30
9 45 1 50 8 162 16 250 8 88 15 181 15 208 0 26 4 47 9 47 11 0 21 -145 23
-344 1 -128 3 -146 8 -86 5 64 7 68 8 25 1 -28 6 -55 11 -60 5 -6 11 -21 14
-35 2 -14 6 74 8 195 2 121 5 181 6 133 4 -92 22 -124 24 -40 0 34 3 42 8 27
6 -13 11 14 16 83 4 56 11 102 15 102 7 0 19 -213 21 -395 l2 -110 8 95 c12
133 16 153 19 95 5 -101 18 5 19 163 1 94 5 152 11 152 6 0 10 -24 10 -53 0
-29 4 -57 10 -63 5 -5 13 -58 17 -118 9 -153 22 -111 25 79 1 149 2 155 10 80
5 -44 12 -161 16 -260 l7 -180 8 124 c4 68 8 156 8 195 1 58 3 64 9 36 6 -26
8 -12 9 55 2 58 5 83 11 70 7 -18 8 -16 12 10 4 25 5 23 7 -12 0 -23 6 -45 11
-48 6 -3 10 -43 10 -88 0 -45 5 -89 10 -97 7 -10 10 10 10 65 1 44 7 109 14
145 l14 65 3 -150 c2 -120 4 -136 9 -80 4 50 8 64 14 50 24 -60 25 -60 26 0 1
33 5 83 10 110 7 45 8 41 10 -45 2 -64 5 -85 10 -65 l7 30 4 -35 c3 -20 8 11
13 75 l9 110 13 -55 c7 -30 13 -78 14 -106 0 -28 3 -67 8 -85 6 -28 8 -17 14
56 10 130 19 185 29 185 5 0 9 -29 9 -64 0 -36 5 -68 10 -71 6 -3 10 -16 11
-28 1 -42 18 14 18 63 1 25 6 52 11 60 7 10 10 -10 10 -65 0 -44 5 -87 10 -95
7 -11 10 3 10 45 0 33 6 83 14 110 14 56 19 49 32 -45 l8 -55 7 50 6 50 1 -62
c1 -35 6 -63 11 -63 8 0 12 21 28 133 8 55 23 45 23 -15 0 -63 9 -100 21 -92
5 3 9 16 9 30 0 14 4 23 9 20 5 -3 11 9 15 27 5 25 9 29 16 17 8 -12 10 -10
11 10 l1 25 8 -25 c4 -14 9 -18 9 -10 1 11 5 10 13 -5 10 -18 12 -16 24 20
l12 40 1 -36 c1 -20 4 -51 7 -69 9 -41 23 -20 25 35 l1 40 11 -35 c10 -32 11
-33 14 -10 8 53 14 70 27 70 17 0 22 -21 32 -120 l8 -75 12 74 c7 41 17 77 22
80 5 3 11 14 15 23 10 28 50 16 62 -18 9 -27 22 -43 36 -44 3 0 10 17 15 38
11 44 47 58 57 22 3 -12 10 -19 16 -15 6 3 11 1 11 -4 0 -19 20 -12 21 7 1 9
4 4 8 -13 l7 -30 23 38 c25 40 36 45 45 22 8 -21 26 -19 27 3 1 9 7 -1 14 -23
8 -22 14 -32 14 -23 1 11 6 15 16 12 8 -4 15 -1 15 6 0 32 54 50 65 22 5 -13
8 -12 20 4 8 10 15 14 15 8 0 -14 60 -25 60 -12 0 5 6 8 13 7 6 -1 20 1 30 6
11 5 24 2 36 -9 13 -12 20 -13 29 -4 7 7 12 8 12 3 0 -6 4 -4 9 4 7 10 18 11
57 3 55 -12 57 -11 48 12 -5 12 -15 16 -35 12 -20 -3 -29 0 -29 10 0 15 -27 8
-49 -13 -11 -12 -16 -11 -32 3 -14 13 -19 14 -19 4 0 -11 -3 -11 -12 -2 -8 8
-20 7 -46 -4 -37 -15 -62 -6 -62 22 0 22 -17 16 -23 -8 l-6 -21 -19 23 -19 24
-26 -26 c-16 -16 -28 -22 -31 -15 -3 9 -7 8 -14 -1 -7 -11 -11 -8 -16 10 -5
19 -8 20 -16 8 -6 -10 -10 -11 -10 -2 0 6 -6 12 -14 12 -8 0 -17 6 -19 13 -3
6 -8 -3 -12 -20 -4 -18 -10 -33 -13 -33 -2 0 -15 11 -28 26 -20 20 -24 22 -24
8 0 -13 -7 -8 -24 15 -23 31 -25 31 -31 11 -5 -17 -10 -19 -21 -9 -11 9 -15 6
-20 -20 -4 -17 -9 -31 -13 -31 -16 1 -30 18 -39 50 -6 19 -11 29 -11 22 -1
-10 -6 -10 -22 -1 -22 12 -39 0 -39 -28 0 -7 -4 -13 -10 -13 -5 0 -10 -7 -10
-15 0 -8 -6 -15 -14 -15 -10 0 -17 17 -21 58 -4 31 -10 68 -15 82 l-8 25 -1
-28 c-1 -16 -5 -26 -11 -22 -6 4 -10 -8 -10 -30 0 -20 -4 -34 -8 -31 -4 2 -14
-10 -22 -27 l-14 -32 -9 35 c-5 18 -15 43 -23 54 -13 19 -14 18 -15 -19 -2
-37 -2 -38 -8 -10 -3 17 -12 39 -18 50 -11 17 -14 18 -23 5 -5 -8 -10 -28 -11
-45 l-1 -30 -7 30 c-5 25 -8 27 -14 12 -4 -10 -7 -32 -7 -48 0 -16 -4 -29 -9
-29 -9 0 -21 71 -21 129 0 20 -5 43 -10 51 -8 12 -10 10 -10 -8 0 -13 -4 -20
-10 -17 -6 4 -10 -18 -10 -59 0 -66 -19 -106 -21 -44 l-1 33 -7 -30 c-5 -23
-8 -13 -14 46 -3 42 -11 87 -16 100 -8 20 -10 15 -10 -28 -1 -29 -5 -53 -10
-53 -4 0 -12 -28 -17 -62 l-8 -63 -7 65 c-4 36 -8 94 -10 130 -2 56 -4 51 -8
-40 -6 -96 -7 -103 -20 -80 -8 14 -16 65 -19 118 -6 110 -21 104 -23 -8 -1
-56 -3 -67 -9 -45 -6 22 -8 9 -9 -48 -1 -94 -21 -97 -21 -4 0 44 -3 58 -10 47
-8 -12 -10 -10 -10 8 0 13 -4 21 -10 17 -5 -3 -11 21 -13 57 -3 55 -3 52 -6
-27 -3 -101 -7 -101 -20 0 l-8 70 -2 -57 c-1 -35 -7 -62 -16 -71 -8 -9 -18
-41 -22 -74 -6 -55 -7 -56 -14 -23 -4 19 -10 89 -14 155 -5 72 -11 112 -15
100 -7 -19 -8 -18 -12 5 -3 14 -6 -10 -7 -52 -2 -110 -21 -111 -22 -1 -1 48
-3 79 -6 68 -3 -11 -9 -24 -14 -29 -5 -6 -9 -19 -9 -30 0 -17 -2 -18 -10 -6
-7 10 -10 -8 -10 -60 0 -41 -3 -100 -7 -130 -6 -49 -8 -52 -14 -25 -4 17 -8
68 -9 115 -2 53 -5 72 -8 50 -4 -26 -9 -7 -17 70 l-12 105 -2 -110 c-3 -126
-18 -119 -22 10 -2 59 -4 69 -8 40 -5 -34 -6 -29 -11 35 l-6 75 -3 -85 c-2
-60 -5 -78 -11 -60 -6 19 -8 10 -9 -34 -1 -33 -6 -100 -13 -150 -17 -129 -25
-79 -28 169 -2 272 -13 337 -25 155 -8 -111 -10 -125 -15 -80 -5 52 -6 49 -15
-50 l-10 -105 -5 180 -5 180 -8 -160 c-4 -88 -11 -209 -15 -270 l-7 -110 -7
64 c-5 35 -9 96 -10 135 l-1 71 -6 -60 c-5 -51 -7 -38 -14 79 -4 77 -7 214 -8
305 -2 325 -15 290 -21 -59 -8 -392 -20 -500 -32 -275 -4 77 -10 156 -13 175
l-7 35 -7 -30 c-4 -16 -7 -121 -8 -232 0 -112 -5 -203 -9 -203 -5 0 -14 215
-21 478 -15 554 -27 698 -31 367 -1 -121 -6 -341 -9 -490 l-7 -270 -4 175 c-3
141 -5 161 -10 100 -6 -68 -7 -61 -10 65 l-3 140 -7 -100 c-4 -55 -9 -127 -11
-160 -3 -58 -3 -56 -8 25 l-6 85 -10 -130 -9 -130 -9 70 c-4 39 -11 207 -15
375 -6 281 -8 295 -14 181 -5 -68 -8 -166 -8 -216 0 -51 -3 -108 -8 -126 -6
-28 -8 -18 -13 51 -4 73 -6 62 -8 -75 l-4 -160 -13 130 c-7 72 -17 216 -22
320 l-9 190 -2 -215 c-2 -332 -14 -689 -22 -652 -3 18 -9 220 -13 450 -8 502
-16 705 -27 647 -4 -22 -8 -141 -9 -265 0 -261 -12 -369 -21 -200 -3 74 -6 21
-9 -180 l-4 -285 -6 185 -5 185 -7 -109 c-5 -60 -8 -188 -8 -285 -1 -297 -16
-168 -30 244 -13 401 -25 560 -30 400 -3 -76 -3 -77 -10 -30 -9 67 -11 50 -19
-155 l-7 -175 -4 220 -4 220 -7 -200 c-4 -110 -11 -294 -15 -410 -7 -210 -7
-210 -22 -155 -12 44 -16 168 -21 645 -4 325 -8 527 -10 450 -2 -77 -7 -234
-11 -350 l-6 -210 -3 200 c-5 316 -18 290 -21 -40 -1 -165 -8 -352 -15 -415
l-12 -115 -4 115 -3 115 -6 -100 -6 -100 -3 150 c-1 83 -6 173 -10 200 -6 43
-8 32 -14 -74 -4 -68 -8 -208 -9 -310 -1 -179 -1 -176 -9 94 -10 357 -19 506
-30 499 -5 -3 -10 -123 -10 -267 -1 -144 -5 -305 -9 -357 l-7 -95 -3 100 c-1
55 -6 129 -10 165 -6 57 -7 47 -10 -75 l-3 -140 -6 152 c-4 83 -10 155 -14
159 -4 4 -8 -94 -9 -217 -2 -229 -3 -205 -18 706 l-3 180 -7 -115 c-12 -186
-13 -192 -20 -120 -4 38 -8 -58 -10 -235 -2 -165 -6 -273 -9 -240 -5 54 -6 49
-11 -50 -4 -79 -7 -25 -10 195 l-5 305 -5 -470 -5 -470 -3 381 c-2 450 -12
744 -24 744 -4 0 -9 -134 -10 -297 l-3 -298 -5 395 -5 395 -5 -365 c-4 -348
-5 -355 -10 -160 l-6 205 -3 -210 c-2 -115 -6 -264 -10 -330 l-6 -120 -7 205
c-5 113 -9 313 -10 445 -2 132 -5 -19 -8 -335 l-5 -575 -5 655 c-4 580 -5 618
-10 330 l-5 -325 -5 395 c-3 266 -6 356 -10 275 l-6 -120 -3 180 c-5 291 -20
145 -22 -225 -1 -179 -5 -296 -9 -260 -4 41 -8 -29 -11 -195 -3 -203 -5 -140
-9 290 l-5 550 -4 -745 c-2 -410 -7 -776 -11 -815 -4 -39 -9 189 -11 505 -2
346 -5 505 -9 400 -4 -136 -7 -60 -14 344 -4 285 -12 530 -16 545 -5 14 -9
-125 -11 -314 -2 -312 -3 -327 -11 -190 -4 83 -12 186 -16 230 -8 69 -9 52
-11 -120 -1 -110 -6 -281 -12 -380 -6 -99 -14 -331 -18 -515 -6 -280 -8 -182
-11 595 -2 512 -7 878 -10 815 -4 -63 -8 -202 -9 -309 0 -107 -4 -192 -7 -189
-3 3 -9 124 -13 269 -7 228 -8 242 -9 107 -2 -171 -13 -235 -23 -128 -4 53 -6
40 -9 -70 l-4 -135 -6 140 c-3 77 -8 -152 -10 -510 -5 -680 -6 -674 -19 115
l-8 485 -2 -465 c-1 -304 -5 -460 -11 -450 -6 9 -11 258 -12 640 -1 381 -5
547 -8 425 -4 -131 -7 20 -10 435 -3 571 -4 606 -10 350 -4 -157 -13 -454 -20
-660 -6 -206 -15 -694 -19 -1085 l-8 -710 -3 510 c-1 281 -6 634 -9 785 -5
203 -8 37 -11 -630 -2 -537 -6 -838 -10 -740 -4 91 -9 676 -11 1300 l-4 1135
-5 -1130 -5 -1130 -3 1129 c-1 621 -5 1126 -8 1123 -4 -3 -10 -44 -14 -89 -6
-74 -7 -63 -10 92 -7 348 -17 -445 -20 -1535 -1 -583 -6 -1044 -10 -1025 l-7
35 -2 -32 c0 -18 -5 -33 -11 -33 -7 0 -10 251 -11 733 0 402 -5 912 -11 1132
-5 220 -13 522 -17 670 -6 220 -8 247 -11 145 -4 -121 -5 -119 -10 75 l-6 200
-3 -240 c-2 -132 -7 -798 -10 -1480 l-7 -1240 -4 1420 c-2 930 -6 1306 -11
1090 -3 -181 -8 -820 -10 -1420 l-4 -1090 -5 895 c-3 492 -7 783 -9 645 -12
-800 -16 -792 -23 45 -4 459 -12 930 -18 1045 -6 116 -15 314 -19 440 -7 210
-8 181 -12 -325 l-4 -555 -5 595 c-3 338 -6 -120 -6 -1060z"/>
<path d="M256 9045 c-4 -170 -10 -926 -14 -1680 -4 -753 -9 -1271 -11 -1150
-2 121 -7 391 -10 600 l-7 380 -4 -600 -4 -600 -7 705 c-12 1316 -13 1367 -19
1280 -5 -63 -7 -32 -8 121 -4 431 -16 839 -23 827 -5 -7 -10 51 -11 132 -2
105 -4 70 -8 -125 l-5 -270 -5 200 c-6 281 -16 -615 -21 -1785 -2 -514 -6
-840 -9 -725 -3 116 -8 201 -11 190 -4 -11 -8 81 -10 205 -1 124 -4 198 -6
165 -7 -133 -18 -133 -23 0 -5 105 -6 81 -9 -130 -3 -296 -17 -706 -27 -779
-5 -36 -4 -47 5 -42 8 5 11 -42 11 -179 0 -122 3 -184 10 -180 7 4 10 -67 10
-204 0 -129 4 -211 10 -211 5 0 11 -47 13 -107 2 -77 4 -50 7 92 l4 200 7
-220 c3 -121 8 -330 9 -465 2 -138 6 -228 10 -205 4 22 9 -221 10 -540 2 -401
6 -552 12 -490 5 50 11 642 14 1318 5 1052 8 1227 20 1227 12 0 14 -230 16
-1647 1 -907 5 -1556 8 -1443 l6 205 3 -160 c15 -655 17 -674 21 -175 4 386 5
436 10 265 l6 -210 4 285 4 285 6 -240 c3 -132 7 208 9 755 3 547 7 970 11
940 4 -30 7 214 8 543 2 590 2 597 22 597 20 0 20 -7 22 -1682 1 -1399 3
-1653 13 -1503 9 131 13 162 15 115 8 -124 19 380 27 1155 4 429 10 753 13
720 4 -33 7 222 8 568 2 601 3 627 20 627 18 0 19 -51 27 -1417 7 -1281 18
-2157 23 -1867 4 241 16 477 22 459 7 -21 20 1402 20 2268 0 363 -3 557 -10
557 -6 0 -11 381 -13 1108 l-2 1107 -3 -1107 c-2 -938 -4 -1108 -16 -1108 -12
0 -15 212 -21 1378 -4 757 -10 1492 -14 1632 l-7 255 -2 -234 c-1 -129 -5
-231 -9 -227 -4 3 -10 93 -13 199 -4 106 -8 -382 -11 -1083 -4 -1263 -4 -1268
-9 -495 l-5 780 -3 -1102 -2 -1103 -24 0 -24 0 -5 1133 c-4 1069 -18 1931 -36
2132 -6 74 -9 34 -15 -220z"/>
<path d="M4589 6019 c-14 -14 -26 -18 -37 -13 -9 4 -21 8 -27 9 -5 0 -16 5
-24 10 -10 5 -16 4 -19 -3 -2 -6 -10 -8 -19 -5 -11 4 -14 2 -11 -8 3 -9 18
-13 39 -12 19 1 36 -2 39 -6 3 -4 17 -11 33 -15 20 -5 27 -3 27 9 0 17 18 19
55 5 15 -6 32 -7 38 -3 19 13 107 14 107 2 0 -7 10 -8 28 -4 45 13 86 14 99 3
7 -6 13 -7 13 -2 0 5 4 2 10 -6 8 -12 10 -12 16 3 7 19 54 23 82 8 11 -6 33
-5 59 2 33 9 47 8 68 -3 21 -11 30 -12 45 -2 24 14 97 16 102 2 2 -6 17 -5 41
2 30 9 46 9 70 0 23 -9 40 -9 69 0 30 9 44 8 63 -2 19 -10 30 -10 52 -1 31 13
91 12 100 -2 2 -4 10 -4 16 1 7 5 122 10 257 10 135 0 326 1 425 3 l180 3
-215 6 c-118 3 -230 2 -248 -1 -17 -4 -34 -4 -37 0 -2 5 -82 6 -177 4 -225 -5
-219 -5 -235 9 -11 9 -22 8 -48 -6 -31 -17 -36 -17 -66 -2 -39 19 -51 20 -67
4 -13 -13 -62 -19 -62 -8 0 4 -10 11 -23 17 -17 8 -28 7 -42 -3 -17 -12 -95
-11 -116 1 -4 3 -12 -2 -19 -10 -16 -19 -30 -19 -66 -1 -15 8 -31 13 -36 10
-21 -13 -94 -12 -115 1 -18 12 -23 13 -30 1 -11 -19 -34 -24 -61 -15 -45 17
-73 18 -79 3 -6 -17 -53 -19 -53 -1 0 10 -49 15 -70 7 -3 -1 -9 -2 -14 -1 -4
1 -14 -3 -22 -9 -10 -9 -18 -7 -35 9 -28 26 -34 26 -60 0z"/>
</g>
</svg>
